<svg color-interpolation="auto" stroke="#000" stroke-linecap="square" width="572" stroke-miterlimit="10" height="475" xmlns="http://www.w3.org/2000/svg" font-family="'Dialog'" font-size="12"><defs><clipPath id="a"><path d="M0 0h572v475H0V0z"/></clipPath><clipPath id="b"><path d="M336.38 70.832c-8.75 0-15.842 7.093-15.842 15.843s7.093 15.843 15.842 15.843c8.75 0 15.843-7.093 15.843-15.843s-7.093-15.843-15.843-15.843z"/></clipPath><clipPath id="c"><path d="M228.297 64.221c-11.392 0-20.627 9.235-20.627 20.628 0 11.392 9.235 20.627 20.627 20.627 11.393 0 20.628-9.235 20.628-20.627 0-11.393-9.235-20.628-20.628-20.628z"/></clipPath><clipPath id="d"><path d="M277.854 87.964c-12.016 0-21.757 9.741-21.757 21.757 0 12.016 9.74 21.757 21.757 21.757 12.016 0 21.757-9.74 21.757-21.757 0-12.016-9.74-21.757-21.757-21.757z"/></clipPath><clipPath id="e"><path d="M87.464 152.646c-11.407 0-20.655 9.247-20.655 20.655 0 11.407 9.248 20.654 20.655 20.654 11.407 0 20.654-9.247 20.654-20.654 0-11.408-9.247-20.655-20.654-20.655z"/></clipPath><clipPath id="f"><path d="M84.562 97.392c-11.342 0-20.536 9.194-20.536 20.535s9.194 20.535 20.536 20.535c11.341 0 20.535-9.194 20.535-20.535s-9.194-20.535-20.535-20.535z"/></clipPath><clipPath id="g"><path d="M-369.7-92.05h572v475h-572v-475z"/></clipPath><clipPath id="h"><path d="M-396.528-102.295h572v475h-572v-475z"/></clipPath><clipPath id="i"><path d="M-221.454-16.9h572v475h-572v-475z"/></clipPath><clipPath id="j"><path d="M-319.242-49.694h572v475h-572v-475z"/></clipPath><clipPath id="k"><path d="M-319.24-69.497h572v475h-572v-475z"/></clipPath><clipPath id="l"><path d="M-18.996-75.228h572v475h-572v-475z"/></clipPath><clipPath id="m"><path d="M-20.382-188.525h572v475h-572v-475z"/></clipPath><clipPath id="n"><path d="M362.372 195.301h96.45v14.645h-96.45V195.3z"/></clipPath></defs><g text-rendering="geometricPrecision" stroke="none"><path d="M335.892 87.771l28.946 12.888a1.2 1.2 0 1 0 .976-2.193L336.868 85.58a1.2 1.2 0 1 0-.976 2.192z" clip-path="url(#a)"/><path fill="#339" d="M335.892 87.771l28.946 12.888a1.2 1.2 0 1 0 .976-2.193L336.868 85.58a1.2 1.2 0 1 0-.976 2.192z" clip-path="url(#b)"/></g><g fill="red" text-rendering="geometricPrecision" stroke="none"><path d="M229.498 84.849V43.594a1.2 1.2 0 1 0-2.4 0v41.255a1.2 1.2 0 1 0 2.4 0z" clip-path="url(#a)"/><path fill="#000" d="M229.498 84.849V43.594a1.2 1.2 0 1 0-2.4 0v41.255a1.2 1.2 0 1 0 2.4 0z" clip-path="url(#c)"/></g><g fill="#339" text-rendering="geometricPrecision" stroke="none"><path d="M278.454 110.76l37.685-21.756a1.2 1.2 0 1 0-1.2-2.08l-37.685 21.758a1.2 1.2 0 1 0 1.2 2.079z" clip-path="url(#a)"/><path fill="#000" d="M278.454 110.76l37.685-21.756a1.2 1.2 0 1 0-1.2-2.08l-37.685 21.758a1.2 1.2 0 1 0 1.2 2.079z" clip-path="url(#d)"/></g><path d="M227.759 85.921l49.557 24.873a1.2 1.2 0 1 0 1.076-2.145l-49.556-24.873a1.2 1.2 0 1 0-1.077 2.145z" stroke="none" clip-path="url(#a)" text-rendering="geometricPrecision"/><path d="M181.076 113.936l47.829-28.052a1.2 1.2 0 1 0-1.215-2.07l-47.829 28.052a1.2 1.2 0 1 0 1.215 2.07z" stroke="none" clip-path="url(#a)" text-rendering="geometricPrecision"/><path d="M184.57 168.212l-2.903-55.374a1.2 1.2 0 1 0-2.397.126l2.902 55.373a1.2 1.2 0 1 0 2.397-.125z" stroke="none" clip-path="url(#a)" text-rendering="geometricPrecision"/><path d="M131.609 86.658a1.2 1.2 0 1 0-1.09 2.138l49.405 25.174a1.2 1.2 0 1 0 1.09-2.139zm1.674 12.078a1.2 1.2 0 1 0-1.09 2.138l36.976 18.841a1.2 1.2 0 1 0 1.09-2.139zM136.617 185.281a1.2 1.2 0 1 0 1.307 2.013l34.804-22.602a1.2 1.2 0 1 0-1.308-2.013zm-.403 12.187a1.2 1.2 0 1 0 1.308 2.013l46.502-30.2a1.2 1.2 0 1 0-1.307-2.013z" stroke="none" clip-path="url(#a)" text-rendering="geometricPrecision"/><path d="M86.919 174.37l49.404 25.173a1.2 1.2 0 1 0 1.09-2.138L88.009 172.23a1.2 1.2 0 1 0-1.09 2.139z" stroke="none" clip-path="url(#a)" text-rendering="geometricPrecision"/><path d="M96.113 124.306a1.2 1.2 0 1 0-2.397.125l2.172 41.444a1.2 1.2 0 1 0 2.397-.126zm-10.353-6.442a1.2 1.2 0 1 0-2.397.126l2.902 55.373a1.2 1.2 0 1 0 2.397-.125z" stroke="none" clip-path="url(#a)" text-rendering="geometricPrecision"/><g fill="red" text-rendering="geometricPrecision" stroke="none"><path d="M86.864 172.261l-35.775 20.655a1.2 1.2 0 1 0 1.2 2.078l35.775-20.654a1.2 1.2 0 1 0-1.2-2.079z" clip-path="url(#a)"/><path fill="#000" d="M86.864 172.261l-35.775 20.655a1.2 1.2 0 1 0 1.2 2.078l35.775-20.654a1.2 1.2 0 1 0-1.2-2.079z" clip-path="url(#e)"/></g><path d="M130.41 86.72l-46.502 30.2a1.2 1.2 0 1 0 1.307 2.014l46.503-30.2a1.2 1.2 0 1 0-1.307-2.013z" stroke="none" clip-path="url(#a)" text-rendering="geometricPrecision"/><g fill="red" text-rendering="geometricPrecision" stroke="none"><path d="M85.215 116.92L50.77 94.553a1.2 1.2 0 1 0-1.307 2.013l34.445 22.369a1.2 1.2 0 1 0 1.307-2.013z" clip-path="url(#a)"/><path fill="#000" d="M85.215 116.92L50.77 94.553a1.2 1.2 0 1 0-1.307 2.013l34.445 22.369a1.2 1.2 0 1 0 1.307-2.013z" clip-path="url(#f)"/></g><path d="M374.829 95.417a4.629 4.629 0 0 0-4.629 4.63v9.257a4.629 4.629 0 0 0 4.629 4.629h16.57a4.629 4.629 0 0 0 4.63-4.63v7.187a4.57 4.57 0 0 0 4.57 4.57h.234a4.57 4.57 0 0 0 4.57-4.57v-9.14a4.57 4.57 0 0 0-4.57-4.57h-.235a4.57 4.57 0 0 0-4.57 4.57v-7.304a4.629 4.629 0 0 0-4.629-4.629z" stroke="none" clip-path="url(#a)" fill="#fff" text-rendering="geometricPrecision"/><text y="20" clip-path="url(#g)" stroke="none" transform="translate(369.7 92.05)" text-rendering="geometricPrecision" font-size="19" font-family="sans-serif">CH</text><text y="15" clip-path="url(#h)" stroke="none" transform="translate(396.528 102.295)" text-rendering="geometricPrecision" font-size="14" font-family="sans-serif">3</text><g fill="#fff" text-rendering="geometricPrecision" font-size="14" font-family="sans-serif" stroke="none"><path d="M226.087 20.258a4.634 4.634 0 0 0-4.633 4.634v9.267a4.634 4.634 0 0 0 4.633 4.634h18.592a4.634 4.634 0 0 0 4.634-4.634v-9.267a4.634 4.634 0 0 0-4.634-4.634z" clip-path="url(#a)"/><text font-size="19" y="20" transform="translate(221.454 16.9)" clip-path="url(#i)" fill="red">OH</text></g><g fill="#fff" text-rendering="geometricPrecision" font-size="19" font-family="sans-serif" stroke="none"><path d="M324.714 53.249a4.473 4.473 0 0 0-4.472 4.473v8.945a4.473 4.473 0 0 0 4.472 4.472h2.274a4.473 4.473 0 0 0 4.473-4.472v-8.945a4.473 4.473 0 0 0-4.473-4.473zm0 19.803a4.473 4.473 0 0 0-4.473 4.472v8.946a4.473 4.473 0 0 0 4.473 4.472h2.32a4.473 4.473 0 0 0 4.473-4.472v-8.945a4.473 4.473 0 0 0-4.473-4.473z" clip-path="url(#a)"/><text y="20" transform="translate(319.242 49.694)" clip-path="url(#j)" fill="#339">H</text></g><text y="20" clip-path="url(#k)" stroke="none" transform="translate(319.24 69.497)" fill="#339" text-rendering="geometricPrecision" font-size="19" font-family="sans-serif">N</text><g fill="#fff" text-rendering="geometricPrecision" font-size="19" font-family="sans-serif" stroke="none"><path d="M24.63 78.585a4.634 4.634 0 0 0-4.634 4.634v9.268a4.634 4.634 0 0 0 4.634 4.633h16.78a4.634 4.634 0 0 0 4.633-4.633v-9.268a4.634 4.634 0 0 0-4.634-4.634z" clip-path="url(#a)"/><text y="20" transform="translate(18.996 75.228)" clip-path="url(#l)" fill="red">HO</text></g><g fill="#fff" text-rendering="geometricPrecision" font-size="19" font-family="sans-serif" stroke="none"><path d="M26.015 191.882a4.634 4.634 0 0 0-4.633 4.634v9.268a4.634 4.634 0 0 0 4.633 4.633h16.78a4.634 4.634 0 0 0 4.633-4.633v-9.268a4.634 4.634 0 0 0-4.633-4.634z" clip-path="url(#a)"/><text y="20" transform="translate(20.382 188.525)" clip-path="url(#m)" fill="red">HO</text></g><path d="M372.877 137.85v43.506h2.25V137.85h5.401l-6.526-18.003-6.526 18.003z" stroke="none" clip-path="url(#a)" text-rendering="geometricPrecision" font-size="20" font-weight="bold" font-family="sans-serif"/><text x="362.75" y="206.608" clip-path="url(#n)" stroke="none" transform="translate(-355.603 -191.754) scale(1.9803)" text-rendering="geometricPrecision" font-size="10" font-family="sans-serif">Methyl group added</text><path fill="none" clip-path="url(#n)" d="M451 210v-14" transform="translate(-355.603 -191.754) scale(1.9803)" text-rendering="geometricPrecision" font-size="10" font-family="sans-serif"/><path d="M372.877 137.85v43.506h2.25V137.85h5.401l-6.526-18.003-6.526 18.003z" stroke="none" clip-path="url(#a)" text-rendering="geometricPrecision" font-size="20" font-weight="bold" font-family="sans-serif"/></svg>