<svg color-interpolation="auto" stroke="#000" stroke-linecap="square" width="720" stroke-miterlimit="10" height="345" xmlns="http://www.w3.org/2000/svg" font-family="'Dialog'" font-size="12"><defs><clipPath id="a"><path d="M0 0h720v345H0V0z"/></clipPath><clipPath id="b"><path d="M131.172 229.599c-16.458 0-29.8 13.342-29.8 29.8 0 16.457 13.342 29.8 29.8 29.8s29.8-13.343 29.8-29.8c0-16.458-13.343-29.8-29.8-29.8z"/></clipPath><clipPath id="c"><path d="M126.819 146.774c-16.354 0-29.612 13.257-29.612 29.612 0 16.354 13.258 29.612 29.612 29.612s29.612-13.258 29.612-29.612c0-16.355-13.258-29.612-29.612-29.612z"/></clipPath><clipPath id="d"><path d="M342.295 95.874c-17.082 0-30.93 13.848-30.93 30.93s13.848 30.93 30.93 30.93c17.083 0 30.93-13.848 30.93-30.93s-13.847-30.93-30.93-30.93z"/></clipPath><clipPath id="e"><path d="M416.583 131.474c-18.01 0-32.61 14.6-32.61 32.61 0 18.01 14.6 32.609 32.61 32.609 18.01 0 32.609-14.6 32.609-32.61 0-18.01-14.6-32.609-32.61-32.609z"/></clipPath><clipPath id="f"><path d="M504.34 105.803c-13.111 0-23.74 10.628-23.74 23.74 0 13.11 10.629 23.74 23.74 23.74 13.111 0 23.74-10.63 23.74-23.74 0-13.112-10.629-23.74-23.74-23.74z"/></clipPath><clipPath id="g"><path d="M-31.072-281.96h720v345h-720v-345z"/></clipPath><clipPath id="h"><path d="M-28.997-112.116h720v345h-720v-345z"/></clipPath><clipPath id="i"><path d="M-478.113-73.835h720v345h-720v-345z"/></clipPath><clipPath id="j"><path d="M-478.112-103.522h720v345h-720v-345z"/></clipPath><clipPath id="k"><path d="M-330.53-24.68h720v345h-720v-345z"/></clipPath><clipPath id="l"><path d="M-554.02-137.335h720v345h-720v-345z"/></clipPath><clipPath id="m"><path d="M-595.27-152.494h720v345h-720v-345z"/></clipPath><clipPath id="n"><path d="M405.856 226.081h96.001v14.484h-96.001v-14.484z"/></clipPath></defs><g fill="red" text-rendering="geometricPrecision" stroke="none"><path d="M130.272 257.84L78.657 287.64a1.799 1.799 0 1 0 1.8 3.116l51.614-29.798a1.799 1.799 0 1 0-1.799-3.117z" clip-path="url(#a)"/><path fill="#000" d="M130.272 257.84L78.657 287.64a1.799 1.799 0 1 0 1.8 3.116l51.614-29.798a1.799 1.799 0 1 0-1.799-3.117z" clip-path="url(#b)"/></g><g fill="red" text-rendering="geometricPrecision" stroke="none"><path d="M127.799 174.877l-49.67-32.255a1.799 1.799 0 1 0-1.96 3.018l49.67 32.255a1.8 1.8 0 1 0 1.96-3.018z" clip-path="url(#a)"/><path fill="#000" d="M127.799 174.877l-49.67-32.255a1.799 1.799 0 1 0-1.96 3.018l49.67 32.255a1.8 1.8 0 1 0 1.96-3.018z" clip-path="url(#c)"/></g><path d="M197.349 129.513a1.799 1.799 0 1 0-1.634 3.206l74.066 37.733a1.799 1.799 0 1 0 1.633-3.206zm2.51 18.106a1.799 1.799 0 1 0-1.634 3.206l55.432 28.24a1.799 1.799 0 1 0 1.633-3.206z" clip-path="url(#a)" stroke="none" text-rendering="geometricPrecision"/><path d="M195.552 129.607l-69.713 45.27a1.799 1.799 0 1 0 1.96 3.018l69.713-45.27a1.799 1.799 0 1 0-1.96-3.018z" clip-path="url(#a)" stroke="none" text-rendering="geometricPrecision"/><path d="M144.136 185.948a1.799 1.799 0 1 0-3.593.189l3.257 62.13a1.799 1.799 0 1 0 3.594-.188zm-15.52-9.656a1.799 1.799 0 1 0-3.594.188l4.353 83.013a1.8 1.8 0 1 0 3.593-.189z" clip-path="url(#a)" stroke="none" text-rendering="geometricPrecision"/><path d="M130.355 261.002l74.055 37.743a1.799 1.799 0 1 0 1.634-3.206l-74.055-37.743a1.799 1.799 0 1 0-1.634 3.206z" clip-path="url(#a)" stroke="none" text-rendering="geometricPrecision"/><path d="M204.85 277.363a1.799 1.799 0 1 0 1.96 3.017l52.176-33.889a1.799 1.799 0 1 0-1.96-3.018zm-.603 18.27a1.799 1.799 0 1 0 1.96 3.018l69.713-45.28a1.799 1.799 0 1 0-1.96-3.018z" clip-path="url(#a)" stroke="none" text-rendering="geometricPrecision"/><path d="M276.737 251.768l-4.343-83.013a1.799 1.799 0 1 0-3.593.188l4.342 83.013a1.799 1.799 0 1 0 3.594-.188z" clip-path="url(#a)" stroke="none" text-rendering="geometricPrecision"/><path d="M271.508 170.401l71.697-42.045a1.799 1.799 0 1 0-1.82-3.104l-71.698 42.045a1.799 1.799 0 1 0 1.82 3.104z" clip-path="url(#a)" stroke="none" text-rendering="geometricPrecision"/><g fill="red" text-rendering="geometricPrecision" stroke="none"><path d="M344.095 126.804v-61.86a1.799 1.799 0 1 0-3.599 0v61.86a1.799 1.799 0 1 0 3.599 0z" clip-path="url(#a)"/><path fill="#000" d="M344.095 126.804v-61.86a1.799 1.799 0 1 0-3.599 0v61.86a1.799 1.799 0 1 0 3.599 0z" clip-path="url(#d)"/></g><path d="M341.488 128.412l74.288 37.28a1.799 1.799 0 1 0 1.614-3.216l-74.288-37.28a1.799 1.799 0 1 0-1.614 3.216z" clip-path="url(#a)" stroke="none" text-rendering="geometricPrecision"/><g fill="#339" text-rendering="geometricPrecision" stroke="none"><path d="M417.482 165.642l56.482-32.609a1.799 1.799 0 1 0-1.8-3.116l-56.48 32.608a1.799 1.799 0 1 0 1.798 3.117z" clip-path="url(#a)"/><path fill="#000" d="M417.482 165.642l56.482-32.609a1.799 1.799 0 1 0-1.8-3.116l-56.48 32.608a1.799 1.799 0 1 0 1.798 3.117z" clip-path="url(#e)"/></g><g text-rendering="geometricPrecision" stroke="none"><path d="M503.608 131.186l43.374 19.313a1.799 1.799 0 1 0 1.464-3.287l-43.374-19.313a1.799 1.799 0 1 0-1.464 3.287z" clip-path="url(#a)"/><path fill="#339" d="M503.608 131.186l43.374 19.313a1.799 1.799 0 1 0 1.464-3.287l-43.374-19.313a1.799 1.799 0 1 0-1.464 3.287z" clip-path="url(#f)"/></g><path d="M39.016 287.253a6.943 6.943 0 0 0-6.944 6.944v13.886a6.943 6.943 0 0 0 6.944 6.944h27.691a6.943 6.943 0 0 0 6.943-6.944v-13.886a6.943 6.943 0 0 0-6.943-6.944z" clip-path="url(#a)" stroke="none" fill="#fff" text-rendering="geometricPrecision"/><text y="31" clip-path="url(#g)" stroke="none" transform="translate(31.072 281.96)" fill="red" text-rendering="geometricPrecision" font-size="29" font-family="sans-serif">HO</text><g fill="#fff" text-rendering="geometricPrecision" font-size="29" font-family="sans-serif" stroke="none"><path d="M36.94 117.41a6.943 6.943 0 0 0-6.943 6.943v13.886a6.943 6.943 0 0 0 6.943 6.944h27.692a6.943 6.943 0 0 0 6.943-6.944v-13.886a6.943 6.943 0 0 0-6.944-6.944z" clip-path="url(#a)"/><text y="31" transform="translate(28.997 112.116)" clip-path="url(#h)" fill="red">HO</text></g><g fill="#fff" text-rendering="geometricPrecision" font-size="29" font-family="sans-serif" stroke="none"><path d="M486.822 79.417a6.709 6.709 0 0 0-6.71 6.709v13.418a6.709 6.709 0 0 0 6.71 6.709h3.425a6.709 6.709 0 0 0 6.71-6.71V86.127a6.709 6.709 0 0 0-6.71-6.71zm-.001 29.687a6.709 6.709 0 0 0-6.71 6.709v13.418a6.709 6.709 0 0 0 6.71 6.709h3.504a6.709 6.709 0 0 0 6.709-6.71v-13.417a6.709 6.709 0 0 0-6.71-6.71z" clip-path="url(#a)"/><text y="31" transform="translate(478.113 73.835)" clip-path="url(#i)" fill="#339">H</text></g><text y="31" clip-path="url(#j)" stroke="none" transform="translate(478.112 103.522)" fill="#339" text-rendering="geometricPrecision" font-size="29" font-family="sans-serif">N</text><g fill="#fff" text-rendering="geometricPrecision" font-size="29" font-family="sans-serif" stroke="none"><path d="M338.973 29.973a6.943 6.943 0 0 0-6.943 6.944v13.886a6.943 6.943 0 0 0 6.943 6.944h26.91a6.943 6.943 0 0 0 6.944-6.944V36.917a6.943 6.943 0 0 0-6.944-6.944z" clip-path="url(#a)"/><text y="31" transform="translate(330.53 24.68)" clip-path="url(#k)" fill="red">OH</text></g><g fill="#fff" text-rendering="geometricPrecision" font-size="29" font-family="sans-serif" stroke="none"><path d="M561.959 142.638a6.938 6.938 0 0 0-6.939 6.939v13.877a6.938 6.938 0 0 0 6.939 6.938h25.873a6.938 6.938 0 0 0 6.938-6.938v11.083a6.855 6.855 0 0 0 6.856 6.856h.351a6.855 6.855 0 0 0 6.856-6.856v-13.71a6.855 6.855 0 0 0-6.856-6.856h-.351a6.855 6.855 0 0 0-6.856 6.855v-11.25a6.939 6.939 0 0 0-6.938-6.938z" clip-path="url(#a)"/><text y="31" transform="translate(554.02 137.335)" clip-path="url(#l)" fill="#000">CH</text></g><text y="24" clip-path="url(#m)" stroke="none" transform="translate(595.27 152.494)" text-rendering="geometricPrecision" font-size="23" font-family="sans-serif">3</text><text x="406.29" y="237.122" clip-path="url(#n)" stroke="none" transform="translate(-799.863 -445.166) scale(2.9687)" text-rendering="geometricPrecision" font-size="10" font-family="sans-serif">Methyl group added</text><path d="M533.846 188.288l-31.32 32.923 2.444 2.325 31.32-32.923 5.866 5.58 11.514-26.296-25.69 12.81z" clip-path="url(#a)" stroke="none" text-rendering="geometricPrecision"/></svg>