<svg color-interpolation="auto" stroke="#000" stroke-linecap="square" width="469" stroke-miterlimit="10" height="475" xmlns="http://www.w3.org/2000/svg" font-family="'Dialog'" font-size="12"><defs><clipPath id="a"><path d="M0 0h469v475H0V0z"/></clipPath><clipPath id="b"><path d="M84.615 97.27c-11.352 0-20.555 9.204-20.555 20.556 0 11.353 9.203 20.556 20.555 20.556 11.353 0 20.556-9.203 20.556-20.556 0-11.352-9.203-20.556-20.556-20.556z"/></clipPath><clipPath id="c"><path d="M87.52 152.57c-11.419 0-20.675 9.256-20.675 20.675 0 11.418 9.256 20.675 20.675 20.675 11.418 0 20.675-9.257 20.675-20.675 0-11.419-9.257-20.675-20.675-20.675z"/></clipPath><clipPath id="d"><path d="M278.065 87.836c-12.028 0-21.778 9.75-21.778 21.778 0 12.027 9.75 21.778 21.778 21.778 12.027 0 21.777-9.75 21.777-21.778 0-12.028-9.75-21.778-21.777-21.778z"/></clipPath><clipPath id="e"><path d="M228.468 64.073c-11.404 0-20.648 9.244-20.648 20.648s9.244 20.648 20.648 20.648 20.648-9.244 20.648-20.648-9.245-20.648-20.648-20.648z"/></clipPath><clipPath id="f"><path d="M336.634 70.686c-8.76 0-15.86 7.101-15.86 15.86 0 8.76 7.1 15.862 15.86 15.862s15.86-7.102 15.86-15.861c0-8.76-7.1-15.861-15.86-15.861z"/></clipPath><clipPath id="g"><path d="M-20.399-188.491h469v475h-469v-475z"/></clipPath><clipPath id="h"><path d="M-19.012-75.102h469v475h-469v-475z"/></clipPath><clipPath id="i"><path d="M-319.492-49.548h469v475h-469v-475z"/></clipPath><clipPath id="j"><path d="M-319.49-69.367h469v475h-469v-475z"/></clipPath><clipPath id="k"><path d="M-221.624-16.728h469v475h-469v-475z"/></clipPath><clipPath id="l"><path d="M-369.99-91.938h469v475h-469v-475z"/></clipPath><clipPath id="m"><path d="M-396.819-102.183h469v475h-469v-475z"/></clipPath></defs><g fill="red" text-rendering="geometricPrecision" stroke="none"><path d="M85.27 116.819L50.79 94.428a1.201 1.201 0 1 0-1.308 2.014l34.48 22.392a1.201 1.201 0 1 0 1.308-2.015z" clip-path="url(#a)"/><path fill="#000" d="M85.27 116.819L50.79 94.428a1.201 1.201 0 1 0-1.308 2.014l34.48 22.392a1.201 1.201 0 1 0 1.308-2.015z" clip-path="url(#b)"/></g><path d="M130.501 86.594l-46.54 30.225a1.201 1.201 0 1 0 1.309 2.015l46.54-30.225a1.201 1.201 0 1 0-1.309-2.014z" clip-path="url(#a)" text-rendering="geometricPrecision" stroke="none"/><g fill="red" text-rendering="geometricPrecision" stroke="none"><path d="M86.92 172.204L51.11 192.88a1.201 1.201 0 1 0 1.2 2.08l35.81-20.674a1.201 1.201 0 1 0-1.2-2.08z" clip-path="url(#a)"/><path fill="#000" d="M86.92 172.204L51.11 192.88a1.201 1.201 0 1 0 1.2 2.08l35.81-20.674a1.201 1.201 0 1 0-1.2-2.08z" clip-path="url(#c)"/></g><path d="M96.176 124.21a1.201 1.201 0 1 0-2.399.126l2.174 41.477a1.201 1.201 0 1 0 2.399-.125zm-10.361-6.447a1.201 1.201 0 1 0-2.399.126l2.904 55.419a1.2 1.2 0 1 0 2.4-.126z" clip-path="url(#a)" text-rendering="geometricPrecision" stroke="none"/><path d="M86.975 174.315l49.444 25.194a1.201 1.201 0 1 0 1.09-2.14l-49.444-25.195a1.201 1.201 0 1 0-1.09 2.14z" clip-path="url(#a)" text-rendering="geometricPrecision" stroke="none"/><path d="M136.713 185.235a1.201 1.201 0 1 0 1.308 2.015l34.832-22.621a1.2 1.2 0 1 0-1.308-2.015zm-.403 12.196a1.201 1.201 0 1 0 1.309 2.015l46.54-30.224a1.2 1.2 0 1 0-1.308-2.015zm-4.609-110.899a1.201 1.201 0 1 0-1.09 2.14l49.444 25.194a1.2 1.2 0 1 0 1.09-2.14zm1.675 12.087a1.201 1.201 0 1 0-1.09 2.14l37.005 18.857a1.201 1.201 0 1 0 1.091-2.14z" clip-path="url(#a)" text-rendering="geometricPrecision" stroke="none"/><path d="M184.704 168.151l-2.904-55.418a1.201 1.201 0 1 0-2.4.126l2.905 55.418a1.201 1.201 0 1 0 2.4-.125z" clip-path="url(#a)" text-rendering="geometricPrecision" stroke="none"/><path d="M181.208 113.832l47.868-28.075a1.201 1.201 0 1 0-1.216-2.072l-47.867 28.075a1.201 1.201 0 1 0 1.215 2.072z" clip-path="url(#a)" text-rendering="geometricPrecision" stroke="none"/><path d="M227.93 85.794l49.596 24.893a1.201 1.201 0 1 0 1.078-2.147l-49.597-24.893a1.2 1.2 0 1 0-1.078 2.147z" clip-path="url(#a)" text-rendering="geometricPrecision" stroke="none"/><g fill="#339" text-rendering="geometricPrecision" stroke="none"><path d="M278.665 110.654l37.72-21.778a1.201 1.201 0 1 0-1.2-2.08l-37.72 21.778a1.201 1.201 0 1 0 1.2 2.08z" clip-path="url(#a)"/><path fill="#000" d="M278.665 110.654l37.72-21.778a1.201 1.201 0 1 0-1.2-2.08l-37.72 21.778a1.201 1.201 0 1 0 1.2 2.08z" clip-path="url(#d)"/></g><g fill="red" text-rendering="geometricPrecision" stroke="none"><path d="M229.669 84.721V43.425a1.2 1.2 0 1 0-2.402 0V84.72a1.2 1.2 0 1 0 2.402 0z" clip-path="url(#a)"/><path fill="#000" d="M229.669 84.721V43.425a1.2 1.2 0 1 0-2.402 0V84.72a1.2 1.2 0 1 0 2.402 0z" clip-path="url(#e)"/></g><g text-rendering="geometricPrecision" stroke="none"><path d="M336.145 87.644l28.98 12.902a1.201 1.201 0 1 0 .977-2.194l-28.98-12.903a1.201 1.201 0 1 0-.977 2.195z" clip-path="url(#a)"/><path fill="#339" d="M336.145 87.644l28.98 12.902a1.201 1.201 0 1 0 .977-2.194l-28.98-12.903a1.201 1.201 0 1 0-.977 2.195z" clip-path="url(#f)"/></g><path d="M26.032 191.849a4.634 4.634 0 0 0-4.633 4.634v9.267a4.634 4.634 0 0 0 4.633 4.634h16.78a4.634 4.634 0 0 0 4.634-4.634v-9.267a4.634 4.634 0 0 0-4.634-4.634z" clip-path="url(#a)" fill="#fff" text-rendering="geometricPrecision" stroke="none"/><text y="20" clip-path="url(#g)" stroke="none" transform="translate(20.399 188.491)" fill="red" text-rendering="geometricPrecision" font-size="19" font-family="sans-serif">HO</text><g fill="#fff" text-rendering="geometricPrecision" font-size="19" font-family="sans-serif" stroke="none"><path d="M24.646 78.46a4.634 4.634 0 0 0-4.634 4.634v9.267a4.634 4.634 0 0 0 4.634 4.634h16.78a4.634 4.634 0 0 0 4.633-4.634v-9.267a4.634 4.634 0 0 0-4.633-4.634z" clip-path="url(#a)"/><text y="20" transform="translate(19.012 75.102)" clip-path="url(#h)" fill="red">HO</text></g><g fill="#fff" text-rendering="geometricPrecision" font-size="19" font-family="sans-serif" stroke="none"><path d="M324.964 53.103a4.473 4.473 0 0 0-4.472 4.472v8.946a4.473 4.473 0 0 0 4.472 4.472h2.274a4.473 4.473 0 0 0 4.472-4.472v-8.946a4.473 4.473 0 0 0-4.472-4.472zm0 19.819a4.473 4.473 0 0 0-4.473 4.473v8.945a4.473 4.473 0 0 0 4.472 4.472h2.32a4.473 4.473 0 0 0 4.473-4.472v-8.945a4.473 4.473 0 0 0-4.472-4.473z" clip-path="url(#a)"/><text y="20" transform="translate(319.492 49.548)" clip-path="url(#i)" fill="#339">H</text></g><text y="20" clip-path="url(#j)" stroke="none" transform="translate(319.49 69.367)" fill="#339" text-rendering="geometricPrecision" font-size="19" font-family="sans-serif">N</text><g fill="#fff" text-rendering="geometricPrecision" font-size="19" font-family="sans-serif" stroke="none"><path d="M226.258 20.085a4.634 4.634 0 0 0-4.634 4.634v9.267a4.634 4.634 0 0 0 4.634 4.634h18.592a4.634 4.634 0 0 0 4.633-4.634V24.72a4.634 4.634 0 0 0-4.633-4.634z" clip-path="url(#a)"/><text y="20" transform="translate(221.624 16.728)" clip-path="url(#k)" fill="red">OH</text></g><g fill="#fff" text-rendering="geometricPrecision" font-size="19" font-family="sans-serif" stroke="none"><path d="M375.12 95.306a4.629 4.629 0 0 0-4.63 4.629v9.257a4.629 4.629 0 0 0 4.63 4.63h16.57a4.629 4.629 0 0 0 4.629-4.63v7.186a4.57 4.57 0 0 0 4.57 4.57h.235a4.57 4.57 0 0 0 4.57-4.57v-9.14a4.57 4.57 0 0 0-4.57-4.57h-.235a4.57 4.57 0 0 0-4.57 4.57v-7.303a4.629 4.629 0 0 0-4.629-4.63z" clip-path="url(#a)"/><text y="20" transform="translate(369.99 91.938)" clip-path="url(#l)" fill="#000">CH</text></g><text y="15" clip-path="url(#m)" stroke="none" transform="translate(396.819 102.183)" text-rendering="geometricPrecision" font-size="14" font-family="sans-serif">3</text></svg>