<svg xmlns="http://www.w3.org/2000/svg" height="244.747" width="467.72" xml:space="preserve"><defs><linearGradient id="b" gradientTransform="matrix(3.969 0 0 22.6802 725.787 -157.796)" gradientUnits="userSpaceOnUse" y2="100.001" x2="0" y1="0" x1="0"><stop offset="0" style="stop-opacity:1;stop-color:#e6e6ff"/><stop offset="25" style="stop-opacity:1;stop-color:#e6e6ff"/><stop offset="50.001" style="stop-opacity:1;stop-color:#99f"/><stop offset="75.001" style="stop-opacity:1;stop-color:#e6e6ff"/><stop offset="100.001" style="stop-opacity:1;stop-color:#e6e6ff"/></linearGradient><clipPath id="a" clipPathUnits="userSpaceOnUse"><path d="M1023.61 974.398c0 313.122-44.419 566.942-99.215 566.942-54.793 0-99.211-253.82-99.211-566.942 0-313.113 44.418-566.933 99.211-566.933 54.796 0 99.215 253.82 99.215 566.933z"/></clipPath></defs><path style="fill:#00f;fill-opacity:1;fill-rule:nonzero;stroke:none" d="M1023.61 974.398c0 313.122-44.419 566.942-99.215 566.942-54.793 0-99.211-253.82-99.211-566.942 0-313.113 44.418-566.933 99.211-566.933 54.796 0 99.215 253.82 99.215 566.933z" transform="matrix(.13333 0 0 -.13333 0 244.747)"/><g clip-path="url(#a)" transform="matrix(.13333 0 0 -.13333 0 244.747)"><path style="fill:url(#b);fill-opacity:1;fill-rule:nonzero;stroke:none" d="M725.785 0h396.906v2110.25H725.785z"/></g><path style="fill:none;stroke:#587cba;stroke-width:9.96280003;stroke-linecap:butt;stroke-linejoin:miter;stroke-miterlimit:10;stroke-dasharray:none;stroke-opacity:1" d="M1023.61 974.398c0 313.122-44.419 566.942-99.215 566.942-54.793 0-99.211-253.82-99.211-566.942 0-313.113 44.418-566.933 99.211-566.933 54.796 0 99.215 253.82 99.215 566.933z" transform="matrix(.13333 0 0 -.13333 0 244.747)"/><text style="font-variant:normal;font-weight:400;font-size:9.96263981px;font-family:CMR10;-inkscape-font-specification:CMR10;writing-mode:lr-tb;fill:#000;fill-opacity:1;fill-rule:nonzero;stroke:none" transform="matrix(1.33333 0 0 1.33333 99.36 30.557)"><tspan y="0" x="0 6.4799981 9.2396488 11.999301 15.839298 20.279301 24.239298 28.079288 32.039288">Filter(s)</tspan></text><path style="fill:#fff200;fill-opacity:1;fill-rule:nonzero;stroke:none" d="M448.207 974.398c0 39.142-31.73 70.872-70.867 70.872-39.141 0-70.867-31.73-70.867-70.872 0-39.136 31.726-70.867 70.867-70.867 39.137 0 70.867 31.731 70.867 70.867z" transform="matrix(.13333 0 0 -.13333 0 244.747)"/><path style="fill:none;stroke:#8b9c76;stroke-width:6.97389984;stroke-linecap:butt;stroke-linejoin:miter;stroke-miterlimit:10;stroke-dasharray:none;stroke-opacity:1" d="M448.207 974.398c0 39.142-31.73 70.872-70.867 70.872-39.141 0-70.867-31.73-70.867-70.872 0-39.136 31.726-70.867 70.867-70.867 39.137 0 70.867 31.731 70.867 70.867z" transform="matrix(.13333 0 0 -.13333 0 244.747)"/><path style="fill:#fff200;fill-opacity:1;fill-rule:nonzero;stroke:none" d="m541.719 974.398-68.434 24.911v-49.817" transform="matrix(.13333 0 0 -.13333 0 244.747)"/><path style="fill:none;stroke:#8b9c76;stroke-width:6.97389984;stroke-linecap:butt;stroke-linejoin:miter;stroke-miterlimit:10;stroke-dasharray:none;stroke-opacity:1" d="m541.719 974.398-68.434 24.911v-49.817z" transform="matrix(.13333 0 0 -.13333 0 244.747)"/><path style="fill:#fff200;fill-opacity:1;fill-rule:nonzero;stroke:none" d="m493.57 1090.63-66-30.77 35.223-35.23" transform="matrix(.13333 0 0 -.13333 0 244.747)"/><path style="fill:none;stroke:#8b9c76;stroke-width:6.97389984;stroke-linecap:butt;stroke-linejoin:miter;stroke-miterlimit:10;stroke-dasharray:none;stroke-opacity:1" d="m493.57 1090.63-66-30.77 35.223-35.23z" transform="matrix(.13333 0 0 -.13333 0 244.747)"/><path style="fill:#fff200;fill-opacity:1;fill-rule:nonzero;stroke:none" d="m377.34 1138.78-24.91-68.44h49.816" transform="matrix(.13333 0 0 -.13333 0 244.747)"/><path style="fill:none;stroke:#8b9c76;stroke-width:6.97389984;stroke-linecap:butt;stroke-linejoin:miter;stroke-miterlimit:10;stroke-dasharray:none;stroke-opacity:1" d="m377.34 1138.78-24.91-68.44h49.816z" transform="matrix(.13333 0 0 -.13333 0 244.747)"/><path style="fill:#fff200;fill-opacity:1;fill-rule:nonzero;stroke:none" d="m261.105 1090.63 30.782-66 35.222 35.23" transform="matrix(.13333 0 0 -.13333 0 244.747)"/><path style="fill:none;stroke:#8b9c76;stroke-width:6.97389984;stroke-linecap:butt;stroke-linejoin:miter;stroke-miterlimit:10;stroke-dasharray:none;stroke-opacity:1" d="m261.105 1090.63 30.782-66 35.222 35.23z" transform="matrix(.13333 0 0 -.13333 0 244.747)"/><path style="fill:#fff200;fill-opacity:1;fill-rule:nonzero;stroke:none" d="m212.957 974.398 68.438-24.906v49.817" transform="matrix(.13333 0 0 -.13333 0 244.747)"/><path style="fill:none;stroke:#8b9c76;stroke-width:6.97389984;stroke-linecap:butt;stroke-linejoin:miter;stroke-miterlimit:10;stroke-dasharray:none;stroke-opacity:1" d="m212.957 974.398 68.438-24.906v49.817z" transform="matrix(.13333 0 0 -.13333 0 244.747)"/><path style="fill:#fff200;fill-opacity:1;fill-rule:nonzero;stroke:none" d="m261.105 858.168 66.004 30.777-35.222 35.227" transform="matrix(.13333 0 0 -.13333 0 244.747)"/><path style="fill:none;stroke:#8b9c76;stroke-width:6.97389984;stroke-linecap:butt;stroke-linejoin:miter;stroke-miterlimit:10;stroke-dasharray:none;stroke-opacity:1" d="m261.105 858.168 66.004 30.777-35.222 35.227z" transform="matrix(.13333 0 0 -.13333 0 244.747)"/><path style="fill:#fff200;fill-opacity:1;fill-rule:nonzero;stroke:none" d="m377.34 810.02 24.906 68.433H352.43" transform="matrix(.13333 0 0 -.13333 0 244.747)"/><path style="fill:none;stroke:#8b9c76;stroke-width:6.97389984;stroke-linecap:butt;stroke-linejoin:miter;stroke-miterlimit:10;stroke-dasharray:none;stroke-opacity:1" d="m377.34 810.02 24.906 68.433H352.43z" transform="matrix(.13333 0 0 -.13333 0 244.747)"/><path style="fill:#fff200;fill-opacity:1;fill-rule:nonzero;stroke:none" d="m493.57 858.168-30.777 66.004-35.223-35.227" transform="matrix(.13333 0 0 -.13333 0 244.747)"/><path style="fill:none;stroke:#8b9c76;stroke-width:6.97389984;stroke-linecap:butt;stroke-linejoin:miter;stroke-miterlimit:10;stroke-dasharray:none;stroke-opacity:1" d="m493.57 858.168-30.777 66.004-35.223-35.227z" transform="matrix(.13333 0 0 -.13333 0 244.747)"/><text style="font-variant:normal;font-weight:400;font-size:9.96263981px;font-family:CMR10;-inkscape-font-specification:CMR10;writing-mode:lr-tb;fill:#000;fill-opacity:1;fill-rule:nonzero;stroke:none" transform="matrix(0 -1.33333 1.33333 0 22.259 143.534)"><tspan y="0" x="0 3.5999982 14.280078 19.800077 24.840076 30.360077 34.32008 38.760082">IRSource</tspan></text><path style="fill:#000;fill-opacity:1;fill-rule:nonzero;stroke:none" d="M3050.41 846.84h255.121v255.121H3050.41z" transform="matrix(.13333 0 0 -.13333 0 244.747)"/><text style="font-variant:normal;font-weight:400;font-size:9.96263981px;font-family:CMR10;-inkscape-font-specification:CMR10;writing-mode:lr-tb;fill:#000;fill-opacity:1;fill-rule:nonzero;stroke:none" transform="matrix(0 -1.33333 1.33333 0 460.66 142.52)"><tspan y="0" x="0 6.8399944 10.799998 16.080078 20.520075 24.960075 28.920086 32.880081 37.920071">Processor</tspan></text><path style="fill:none;stroke:#4c5b75;stroke-width:9.96280003;stroke-linecap:butt;stroke-linejoin:miter;stroke-miterlimit:10;stroke-dasharray:none;stroke-opacity:1" d="M2703.27 1165.63h198.43v255.121h-198.43z" transform="matrix(.13333 0 0 -.13333 0 244.747)"/><text style="font-variant:normal;font-weight:400;font-size:9.96263981px;font-family:CMR10;-inkscape-font-specification:CMR10;writing-mode:lr-tb;fill:#000;fill-opacity:1;fill-rule:nonzero;stroke:none" transform="matrix(1.33333 0 0 1.33333 348.647 42.397)"><tspan y="0" x="0 7.5600147 12.000004 15.839995 20.28001 24.719999 28.55999 33.600002">Detector</tspan></text><path style="fill:none;stroke:#4c5b75;stroke-width:9.96280003;stroke-linecap:butt;stroke-linejoin:miter;stroke-miterlimit:10;stroke-dasharray:none;stroke-opacity:1" d="M2703.27 528.051h198.43v255.121h-198.43z" transform="matrix(.13333 0 0 -.13333 0 244.747)"/><path style="fill:#ccc;fill-opacity:1;fill-rule:nonzero;stroke:none" d="M1352.09 1600.52h198.426v85.043H1352.09z" transform="matrix(.13333 0 0 -.13333 0 244.747)"/><path style="fill:none;stroke:#000;stroke-width:4.98140001;stroke-linecap:butt;stroke-linejoin:miter;stroke-miterlimit:10;stroke-dasharray:none;stroke-opacity:1" d="M1352.09 1600.52h198.426v85.043H1352.09z" transform="matrix(.13333 0 0 -.13333 0 244.747)"/><text style="font-variant:normal;font-weight:400;font-size:9.96263981px;font-family:CMR10;-inkscape-font-specification:CMR10;writing-mode:lr-tb;fill:#000;fill-opacity:1;fill-rule:nonzero;stroke:none" transform="matrix(1.33333 0 0 1.33333 161.368 16.17)"><tspan y="0" x="0 9.3601589 14.400159 18.24015 22.680151 29.880081 33.720085 37.680088 42.720089">Watertrap</tspan></text><path style="fill:#ccc;fill-opacity:1;fill-rule:nonzero;stroke:none" d="M1352.09 229.91h198.426v85.043H1352.09z" transform="matrix(.13333 0 0 -.13333 0 244.747)"/><path style="fill:none;stroke:#000;stroke-width:4.98140001;stroke-linecap:butt;stroke-linejoin:miter;stroke-miterlimit:10;stroke-dasharray:none;stroke-opacity:1" d="M1352.09 229.91h198.426v85.043H1352.09z" transform="matrix(.13333 0 0 -.13333 0 244.747)"/><text style="font-variant:normal;font-weight:400;font-size:9.96263981px;font-family:CMR10;-inkscape-font-specification:CMR10;writing-mode:lr-tb;fill:#000;fill-opacity:1;fill-rule:nonzero;stroke:none" transform="matrix(1.33333 0 0 1.33333 157.253 234.358)"><tspan y="0" x="0 5.0399995 10.079987 18.239838 26.519831 32.759834 37.799835 46.07983 48.839481">150mL/min</tspan></text><path style="fill:none;stroke:#587cba;stroke-width:9.96280003;stroke-linecap:butt;stroke-linejoin:miter;stroke-miterlimit:10;stroke-dasharray:none;stroke-opacity:1" d="M1349.6 1598.03V317.441M1524.66 1598.03v-212.6h708.67v283.47" transform="matrix(.13333 0 0 -.13333 0 244.747)"/><text style="font-variant:normal;font-weight:400;font-size:9.96263981px;font-family:CMR10;-inkscape-font-specification:CMR10;writing-mode:lr-tb;fill:#000;fill-opacity:1;fill-rule:nonzero;stroke:none" transform="matrix(1.33333 0 0 1.33333 222.497 36.408)"><tspan y="0" x="0 7.3199906 11.759993 14.759987 19.199987 23.159992 27.599995 33.119995 37.559994">Reference</tspan><tspan y="11.88" x="14.0402 19.0802 24.120186">gas</tspan></text><path style="fill:none;stroke:#587cba;stroke-width:9.96280003;stroke-linecap:butt;stroke-linejoin:miter;stroke-miterlimit:10;stroke-dasharray:none;stroke-opacity:1" d="M1524.66 317.441v212.602h708.67V246.574" transform="matrix(.13333 0 0 -.13333 0 244.747)"/><text style="font-variant:normal;font-weight:400;font-size:9.96263981px;font-family:CMR10;-inkscape-font-specification:CMR10;writing-mode:lr-tb;fill:#000;fill-opacity:1;fill-rule:nonzero;stroke:none" transform="matrix(1.33333 0 0 1.33333 218.017 188.39)"><tspan y="0" x="0 5.52 10.559999 18.840006 24.360006 27.119658 34.799656 39.839657 44.879669">Samplegas</tspan></text><path style="fill:none;stroke:#587cba;stroke-width:9.96280003;stroke-linecap:butt;stroke-linejoin:miter;stroke-miterlimit:10;stroke-dasharray:none;stroke-opacity:1" d="M2420.42 1668.9V246.574M2420.42 957.734H1349.6V317.441" transform="matrix(.13333 0 0 -.13333 0 244.747)"/><text style="font-variant:normal;font-weight:400;font-size:9.96263981px;font-family:CMR10;-inkscape-font-specification:CMR10;writing-mode:lr-tb;fill:#000;fill-opacity:1;fill-rule:nonzero;stroke:none" transform="matrix(1.33333 0 0 1.33333 205.376 109.373)"><tspan y="0" x="0 5.52 10.559999 16.08 21.600012 27.120012 29.879663 33.839668 38.279667 41.639671 48.599678 53.639664 56.399315 59.158966 63.598957">Sapphire-walled</tspan><tspan y="16.493" x="14.0863 18.286299 23.806299 28.846298 36.886303 42.646465 47.086468 51.046459">chambers</tspan></text><path style="fill:none;stroke:red;stroke-width:9.96280003;stroke-linecap:butt;stroke-linejoin:miter;stroke-miterlimit:10;stroke-dasharray:29.8883,29.8883;stroke-dashoffset:0;stroke-opacity:1" d="M2698.29 1293.19H377.34M2698.29 655.613H377.34" transform="matrix(.13333 0 0 -.13333 0 244.747)"/><path style="fill:none;stroke:#587cba;stroke-width:9.96280003;stroke-linecap:butt;stroke-linejoin:miter;stroke-miterlimit:10;stroke-dasharray:none;stroke-opacity:1" d="m377.34 1293.19 100.219 100.22M377.34 1293.19l-100.223-100.22" transform="matrix(.13333 0 0 -.13333 0 244.747)"/><text style="font-variant:normal;font-weight:400;font-size:9.96263981px;font-family:CMR10;-inkscape-font-specification:CMR10;writing-mode:lr-tb;fill:#000;fill-opacity:1;fill-rule:nonzero;stroke:none" transform="matrix(1.33333 0 0 1.33333 7.103 67.23)"><tspan y="0" x="0 9.1199999 11.879651 15.83965 19.79965 24.839649">Mirror</tspan></text><path style="fill:none;stroke:#587cba;stroke-width:9.96280003;stroke-linecap:butt;stroke-linejoin:miter;stroke-miterlimit:10;stroke-dasharray:none;stroke-opacity:1" d="M377.34 655.613 277.117 755.832M377.34 655.613l100.219-100.222" transform="matrix(.13333 0 0 -.13333 0 244.747)"/><path style="fill:none;stroke:#587cba;stroke-width:3.9849999;stroke-linecap:butt;stroke-linejoin:miter;stroke-miterlimit:10;stroke-dasharray:none;stroke-opacity:1" d="M1451.3 1598.03v-190.91" transform="matrix(.13333 0 0 -.13333 0 244.747)"/><path style="fill:#587cba;fill-opacity:1;fill-rule:nonzero;stroke:none" d="M1451.3 1371.25c1.99 10.63 7.97 27.9 14.95 39.86h-29.89c6.97-11.96 12.95-29.23 14.94-39.86" transform="matrix(.13333 0 0 -.13333 0 244.747)"/><path style="fill:none;stroke:#587cba;stroke-width:3.9849999;stroke-linecap:butt;stroke-linejoin:miter;stroke-miterlimit:10;stroke-dasharray:none;stroke-opacity:1" d="M1451.3 317.441v91.696" transform="matrix(.13333 0 0 -.13333 0 244.747)"/><path style="fill:#587cba;fill-opacity:1;fill-rule:nonzero;stroke:none" d="M1451.3 445c-1.99-10.625-7.97-27.895-14.94-39.848h29.89c-6.98 11.953-12.96 29.223-14.95 39.848" transform="matrix(.13333 0 0 -.13333 0 244.747)"/><path style="fill:none;stroke:#587cba;stroke-width:3.9849999;stroke-linecap:butt;stroke-linejoin:miter;stroke-miterlimit:10;stroke-dasharray:none;stroke-opacity:1" d="M2326.88 1633.03v-247.6" transform="matrix(.13333 0 0 -.13333 0 244.747)"/><path style="fill:#587cba;fill-opacity:1;fill-rule:nonzero;stroke:none" d="M2326.88 1668.9c-2-10.63-7.97-27.9-14.95-39.85h29.89c-6.98 11.95-12.95 29.22-14.94 39.85" transform="matrix(.13333 0 0 -.13333 0 244.747)"/><path style="fill:none;stroke:#587cba;stroke-width:3.9849999;stroke-linecap:butt;stroke-linejoin:miter;stroke-miterlimit:10;stroke-dasharray:none;stroke-opacity:1" d="M2326.88 282.441v247.602" transform="matrix(.13333 0 0 -.13333 0 244.747)"/><path style="fill:#587cba;fill-opacity:1;fill-rule:nonzero;stroke:none" d="M2326.88 246.574c1.99 10.629 7.96 27.895 14.94 39.852h-29.89c6.98-11.957 12.95-29.223 14.95-39.852" transform="matrix(.13333 0 0 -.13333 0 244.747)"/><text style="font-variant:normal;font-weight:400;font-size:9.96263981px;font-family:CMR10;-inkscape-font-specification:CMR10;writing-mode:lr-tb;fill:#000;fill-opacity:1;fill-rule:nonzero;stroke:none" transform="matrix(1.33333 0 0 1.33333 272.927 233.2)"><tspan y="0" x="0 6.3601642 14.640244 18.600266 23.040255 27.840252 32.880089 37.32008 42.840092 47.880077 52.320068">Toscavenger</tspan></text><path style="fill:none;stroke:#000;stroke-width:3.9849999;stroke-linecap:butt;stroke-linejoin:miter;stroke-miterlimit:10;stroke-dasharray:none;stroke-opacity:1" d="m3177.96 1103.95-271.28 189.24M3177.96 844.848l-271.28-189.235" transform="matrix(.13333 0 0 -.13333 0 244.747)"/></svg>