<svg xmlns="http://www.w3.org/2000/svg" height="420.787" width="530.733" xml:space="preserve"><defs><clipPath id="a" clipPathUnits="userSpaceOnUse"><path d="M1506.12 2363.23h194.273v42.52H1506.12z"/></clipPath><clipPath id="c" clipPathUnits="userSpaceOnUse"><path d="M1052.64 1711.45h83.356v162.563h-83.356z"/></clipPath><clipPath id="e" clipPathUnits="userSpaceOnUse"><path d="M1047.88 1174.98h83.356v162.563h-83.356z"/></clipPath><clipPath id="g" clipPathUnits="userSpaceOnUse"><path d="M2864.21 2092.29h49.816v164.383h-49.816z"/></clipPath><clipPath id="i" clipPathUnits="userSpaceOnUse"><path d="M2905.89 2756.21h273.977v70.867H2905.89z"/></clipPath><clipPath id="k" clipPathUnits="userSpaceOnUse"><path d="M3008 2611.75h69.742v24.906H3008z"/></clipPath><clipPath id="m" clipPathUnits="userSpaceOnUse"><path d="M3169.82 2044.85h70.87c0 54.8 95.19 99.22 212.6 99.22 117.42 0 212.6-44.42 212.6-99.22h42.52c13.3-17.65 13.3-39.03 0-56.69h-42.52c0-54.8-95.18-99.21-212.6-99.21-100.36 0-187.09 32.77-207.95 78.58h-42.52l-33-2.05"/></clipPath><clipPath id="o" clipPathUnits="userSpaceOnUse"><path d="M2943.28 1351.7h179.328v278.957H2943.28z"/></clipPath><clipPath id="q" clipPathUnits="userSpaceOnUse"><path d="M2177.75 371.992h179.328v298.883H2177.75z"/></clipPath><linearGradient id="b" gradientTransform="matrix(0 .8504 -3.886 0 1797.24 2342.04)" gradientUnits="userSpaceOnUse" y2="100.001" x2="0" y1="0" x1="0"><stop offset="0" style="stop-opacity:1;stop-color:#333"/><stop offset="25" style="stop-opacity:1;stop-color:#333"/><stop offset="50.001" style="stop-opacity:1;stop-color:#fff"/><stop offset="75.001" style="stop-opacity:1;stop-color:#333"/><stop offset="100.001" style="stop-opacity:1;stop-color:#333"/></linearGradient><linearGradient id="d" gradientTransform="matrix(1.6672 0 0 3.2515 1011.09 1630.42)" gradientUnits="userSpaceOnUse" y2="100.001" x2="0" y1="0" x1="0"><stop offset="0" style="stop-opacity:1;stop-color:#ffb366"/><stop offset="25" style="stop-opacity:1;stop-color:#ffb366"/><stop offset="50.001" style="stop-opacity:1;stop-color:#fff"/><stop offset="75.001" style="stop-opacity:1;stop-color:#ffb366"/><stop offset="100.001" style="stop-opacity:1;stop-color:#ffb366"/></linearGradient><linearGradient id="f" gradientTransform="matrix(1.6672 0 0 3.2515 1006.33 1093.95)" gradientUnits="userSpaceOnUse" y2="100.001" x2="0" y1="0" x1="0"><stop offset="0" style="stop-opacity:1;stop-color:#ffb366"/><stop offset="25" style="stop-opacity:1;stop-color:#ffb366"/><stop offset="50.001" style="stop-opacity:1;stop-color:#fff"/><stop offset="75.001" style="stop-opacity:1;stop-color:#ffb366"/><stop offset="100.001" style="stop-opacity:1;stop-color:#ffb366"/></linearGradient><linearGradient id="h" gradientTransform="matrix(.9964 0 0 3.2881 2839.38 2010.34)" gradientUnits="userSpaceOnUse" y2="100.001" x2="0" y1="0" x1="0"><stop offset="0" style="stop-opacity:1;stop-color:#333"/><stop offset="25" style="stop-opacity:1;stop-color:#333"/><stop offset="50.001" style="stop-opacity:1;stop-color:#fff"/><stop offset="75.001" style="stop-opacity:1;stop-color:#333"/><stop offset="100.001" style="stop-opacity:1;stop-color:#333"/></linearGradient><linearGradient id="j" gradientTransform="matrix(0 1.4174 -5.4802 0 3316.45 2720.89)" gradientUnits="userSpaceOnUse" y2="100.001" x2="0" y1="0" x1="0"><stop offset="0" style="stop-opacity:1;stop-color:#333"/><stop offset="25" style="stop-opacity:1;stop-color:#333"/><stop offset="50.001" style="stop-opacity:1;stop-color:#fff"/><stop offset="75.001" style="stop-opacity:1;stop-color:#333"/><stop offset="100.001" style="stop-opacity:1;stop-color:#333"/></linearGradient><linearGradient id="l" gradientTransform="matrix(0 .4982 -1.395 0 3112.51 2599.33)" gradientUnits="userSpaceOnUse" y2="100.001" x2="0" y1="0" x1="0"><stop offset="0" style="stop-opacity:1;stop-color:#333"/><stop offset="25" style="stop-opacity:1;stop-color:#333"/><stop offset="50.001" style="stop-opacity:1;stop-color:#fff"/><stop offset="75.001" style="stop-opacity:1;stop-color:#333"/><stop offset="100.001" style="stop-opacity:1;stop-color:#333"/></linearGradient><linearGradient id="r" gradientTransform="matrix(0 5.9784 -3.587 0 2446.47 222.994)" gradientUnits="userSpaceOnUse" y2="100.001" x2="0" y1="0" x1="0"><stop offset="0" style="stop-opacity:1;stop-color:gray"/><stop offset="25" style="stop-opacity:1;stop-color:gray"/><stop offset="50.001" style="stop-opacity:1;stop-color:#e6e6e6"/><stop offset="75.001" style="stop-opacity:1;stop-color:gray"/><stop offset="100.001" style="stop-opacity:1;stop-color:gray"/></linearGradient><radialGradient id="n" gradientTransform="matrix(11.0391 0 0 5.103 2894.7 1761.76)" gradientUnits="userSpaceOnUse" r="50.001" cy="50.001" cx="50.001" fy="50.001" fx="50.001"><stop offset="0" style="stop-opacity:1;stop-color:#fff"/><stop offset="25" style="stop-opacity:1;stop-color:#ffcb99"/><stop offset="50.001" style="stop-opacity:1;stop-color:#ffcb99"/></radialGradient><radialGradient id="p" gradientTransform="matrix(3.587 0 0 5.5798 2853.88 1212.64)" gradientUnits="userSpaceOnUse" r="50.001" cy="50.001" cx="50.001" fy="50.001" fx="50.001"><stop offset="0" style="stop-opacity:1;stop-color:#fff"/><stop offset="25" style="stop-opacity:1;stop-color:#ffcb99"/><stop offset="50.001" style="stop-opacity:1;stop-color:#ffcb99"/></radialGradient></defs><path style="fill:#e5f7fd;fill-opacity:1;fill-rule:nonzero;stroke:none" d="M1333.18 931.707h2622.08V24.613H1333.18z" transform="matrix(.13333 0 0 -.13333 0 420.787)"/><path style="fill:none;stroke:#999;stroke-width:9.96280003;stroke-linecap:butt;stroke-linejoin:miter;stroke-miterlimit:10;stroke-dasharray:29.8883,29.8883;stroke-dashoffset:0;stroke-opacity:1" d="M1333.18 931.707h2622.08m-1984.28 0V24.613m-637.8 907.094V24.613" transform="matrix(.13333 0 0 -.13333 0 420.787)"/><path style="fill:#e6e6e6;fill-opacity:1;fill-rule:nonzero;stroke:none" d="M956.258 1545.6v1133.87H2336.75v-632.13h-28.35v603.79H984.605V1542.77" transform="matrix(.13333 0 0 -.13333 0 420.787)"/><path style="fill:none;stroke:gray;stroke-width:3.9849999;stroke-linecap:butt;stroke-linejoin:miter;stroke-miterlimit:10;stroke-dasharray:none;stroke-opacity:1" d="M956.258 1545.6v1133.87H2336.75v-632.13h-28.35v603.79H984.605V1542.77" transform="matrix(.13333 0 0 -.13333 0 420.787)"/><path style="fill:#e6e6e6;fill-opacity:1;fill-rule:nonzero;stroke:none" d="M902.398 1545.6h85.043l66.339 61.86v439.38h56.69v141.74h39.69v-141.74h413.86v85.04l-59.89 128.46v147.4h198.42v-170.08l190.42-190.41h99.21l20.05 20.04h113.38l27.86-19.51h850.41v42.52H2842.3v170.08h161.58v348.67l-60.13 60.13v85.04h651.97v-56.69h-184.25v-354.34l-210.46-210.46h-56.7v-45.36h-59.53v-42.52h85.04v-79.37h-93.54V979.016h-963.79V672.867h963.79v-76.535h-598.12v-85.043h354.34V312.863h240.95v-76.539H2038.79l3.96 742.692h-99.21l-20.05-20.043h-127.56l-46.44 32.511h-96.37V821.402h-70.87v170.082h-155.91l-20.04-20.043h-127.56l-46.44 32.509h-181.42v425.21l-61.864 66.34h-85.043" transform="matrix(.13333 0 0 -.13333 0 420.787)"/><path style="fill:none;stroke:#000;stroke-width:3.9849999;stroke-linecap:butt;stroke-linejoin:miter;stroke-miterlimit:10;stroke-dasharray:none;stroke-opacity:1" d="M902.398 1545.6h85.043l66.339 61.86v439.38h56.69v141.74h39.69v-141.74h413.86v85.04l-59.89 128.46v147.4h198.42v-170.08l190.42-190.41h99.21l20.05 20.04h113.38l27.86-19.51h850.41v42.52H2842.3v170.08h161.58v348.67l-60.13 60.13v85.04h651.97v-56.69h-184.25v-354.34l-210.46-210.46h-56.7v-45.36h-59.53v-42.52h85.04v-79.37h-93.54V979.016h-963.79V672.867h963.79v-76.535h-598.12v-85.043h354.34V312.863h240.95v-76.539H2038.79l3.96 742.692h-99.21l-20.05-20.043h-127.56l-46.44 32.511h-96.37V821.402h-70.87v170.082h-155.91l-20.04-20.043h-127.56l-46.44 32.509h-181.42v425.21l-61.864 66.34h-85.043" transform="matrix(.13333 0 0 -.13333 0 420.787)"/><path style="fill:#fff;fill-opacity:1;fill-rule:nonzero;stroke:none" d="m1049.8 1517.25 86.19 86.19v368.51h504.58v161.58l30.87 47.54 210.46-210.46h99.22l20.04-20.05h113.39l27.86 19.51h850.4V1071.48H1943.98l-20.04 20.04h-127.56l-34.83-24.38h-340.16l-20.05 20.04h-127.55l-34.83-24.39h-107.72v362.84" transform="matrix(.13333 0 0 -.13333 0 420.787)"/><path style="fill:none;stroke:#000;stroke-width:3.9849999;stroke-linecap:butt;stroke-linejoin:miter;stroke-miterlimit:10;stroke-dasharray:none;stroke-opacity:1" d="m1049.8 1517.25 86.19 86.19v368.51h504.58v161.58l30.87 47.54 210.46-210.46h99.22l20.04-20.05h113.39l27.86 19.51h850.4V1071.48H1943.98l-20.04 20.04h-127.56l-34.83-24.38h-340.16l-20.05 20.04h-127.55l-34.83-24.39h-107.72v362.84z" transform="matrix(.13333 0 0 -.13333 0 420.787)"/><path style="fill:#fff;fill-opacity:1;fill-rule:nonzero;stroke:none" d="M3352.49 2697.53V2368.7l-162.36-162.36h-45.35v48.2h-59.53v354.33l60.13 60.13v28.35h212.6" transform="matrix(.13333 0 0 -.13333 0 420.787)"/><path style="fill:none;stroke:#000;stroke-width:3.9849999;stroke-linecap:butt;stroke-linejoin:miter;stroke-miterlimit:10;stroke-dasharray:none;stroke-opacity:1" d="M3352.49 2697.53V2368.7l-162.36-162.36h-45.35v48.2h-59.53v354.33l60.13 60.13v28.35h212.6" transform="matrix(.13333 0 0 -.13333 0 420.787)"/><path style="fill:#e5f7fd;fill-opacity:1;fill-rule:nonzero;stroke:none" d="M2112.49 596.332h283.47V431.918h354.33V304.359h-637.8v291.973" transform="matrix(.13333 0 0 -.13333 0 420.787)"/><path style="fill:none;stroke:#000;stroke-width:3.9849999;stroke-linecap:butt;stroke-linejoin:miter;stroke-miterlimit:10;stroke-dasharray:none;stroke-opacity:1" d="M2112.49 596.332h283.47V431.918h354.33V304.359h-637.8v291.973M1992.18 2047.25h56.7M1981.12 1970.61h56.69M3144.78 2206.34h-56.69M3144.31 2132.73h-56.69M1943.54 979.016h-42.52M1943.98 1071.48h-42.52M1564.02 2131.88v42.52M1640.57 2133.53v42.52" transform="matrix(.13333 0 0 -.13333 0 420.787)"/><path style="fill:#e6e6e6;fill-opacity:1;fill-rule:nonzero;stroke:none" d="M1044.08 2594.43h481.898v170.078H1044.08z" transform="matrix(.13333 0 0 -.13333 0 420.787)"/><path style="fill:none;stroke:gray;stroke-width:7.47209978;stroke-linecap:butt;stroke-linejoin:miter;stroke-miterlimit:10;stroke-dasharray:none;stroke-opacity:1" d="M1044.08 2594.43h481.898v170.078H1044.08z" transform="matrix(.13333 0 0 -.13333 0 420.787)"/><text style="font-variant:normal;font-weight:400;font-size:8.96638012px;font-family:CMR9;-inkscape-font-specification:CMR9;writing-mode:lr-tb;fill:#000;fill-opacity:1;fill-rule:nonzero;stroke:none" transform="matrix(1.33333 0 0 1.33333 161.021 67.608)"><tspan y="0" x="0 7.2000031 11.759997">Gas</tspan></text><path style="fill:none;stroke:#000;stroke-width:3.9849999;stroke-linecap:butt;stroke-linejoin:miter;stroke-miterlimit:10;stroke-dasharray:none;stroke-opacity:1" d="M1285.03 2768.25v45.44" transform="matrix(.13333 0 0 -.13333 0 420.787)"/><path style="fill:#000;fill-opacity:1;fill-rule:nonzero;stroke:none" d="M1285.03 2849.55c-1.99-10.62-7.97-27.89-14.94-39.85h29.88c-6.97 11.96-12.95 29.23-14.94 39.85" transform="matrix(.13333 0 0 -.13333 0 420.787)"/><g clip-path="url(#a)" transform="matrix(.13333 0 0 -.13333 0 420.787)"><path style="fill:url(#b);fill-opacity:1;fill-rule:nonzero;stroke:none" d="M1408.64 2342.04h388.605v85.04H1408.64z"/></g><path style="fill:none;stroke:gray;stroke-width:3.9849999;stroke-linecap:butt;stroke-linejoin:miter;stroke-miterlimit:10;stroke-dasharray:none;stroke-opacity:1" d="M1506.12 2363.23h194.273v42.52H1506.12z" transform="matrix(.13333 0 0 -.13333 0 420.787)"/><path style="fill:#b2b2b2;fill-opacity:1;fill-rule:nonzero;stroke:none" d="M1598.27 2263.6h9.96v99.629h-9.96z" transform="matrix(.13333 0 0 -.13333 0 420.787)"/><path style="fill:none;stroke:gray;stroke-width:3.9849999;stroke-linecap:butt;stroke-linejoin:miter;stroke-miterlimit:10;stroke-dasharray:none;stroke-opacity:1" d="M1598.27 2263.6h9.96v99.629h-9.96z" transform="matrix(.13333 0 0 -.13333 0 420.787)"/><path style="fill:#b2b2b2;fill-opacity:1;fill-rule:nonzero;stroke:none" d="M1563.4 2240.69h79.703v24.906H1563.4z" transform="matrix(.13333 0 0 -.13333 0 420.787)"/><path style="fill:none;stroke:gray;stroke-width:3.9849999;stroke-linecap:butt;stroke-linejoin:miter;stroke-miterlimit:10;stroke-dasharray:none;stroke-opacity:1" d="M1563.4 2240.69h79.703v24.906H1563.4z" transform="matrix(.13333 0 0 -.13333 0 420.787)"/><path style="fill:#333;fill-opacity:1;fill-rule:nonzero;stroke:none" d="M1563.4 2230.73h79.703v11.953H1563.4z" transform="matrix(.13333 0 0 -.13333 0 420.787)"/><path style="fill:none;stroke:#333;stroke-width:3.9849999;stroke-linecap:butt;stroke-linejoin:miter;stroke-miterlimit:10;stroke-dasharray:none;stroke-opacity:1" d="M1563.4 2230.73h79.703v11.953H1563.4z" transform="matrix(.13333 0 0 -.13333 0 420.787)"/><path style="fill:gray;fill-opacity:1;fill-rule:nonzero;stroke:none" d="M1598.27 2180.91h9.96v49.813h-9.96z" transform="matrix(.13333 0 0 -.13333 0 420.787)"/><text style="font-variant:normal;font-weight:400;font-size:9.96263981px;font-family:CMR10;-inkscape-font-specification:CMR10;writing-mode:lr-tb;fill:#000;fill-opacity:1;fill-rule:nonzero;stroke:none" transform="matrix(1.33333 0 0 1.33333 211.885 79.99)"><tspan y="0" x="0 5.52 9.9600019 13.800006 17.640009 20.39966 25.919661">Setting</tspan><tspan y="12" x="0 6.8400006 15.119995 20.159994 28.680084 36.960163 43.800163 50.640163 57.480164">Pmax/PEEP</tspan></text><path style="fill:#e6e6e6;fill-opacity:1;fill-rule:nonzero;stroke:none" d="M1055.32 2133.43h170.082v170.078H1055.32z" transform="matrix(.13333 0 0 -.13333 0 420.787)"/><path style="fill:none;stroke:gray;stroke-width:7.47209978;stroke-linecap:butt;stroke-linejoin:miter;stroke-miterlimit:10;stroke-dasharray:none;stroke-opacity:1" d="M1055.32 2133.43h170.082v170.078H1055.32z" transform="matrix(.13333 0 0 -.13333 0 420.787)"/><text style="font-variant:normal;font-weight:400;font-size:8.96638012px;font-family:CMR9;-inkscape-font-specification:CMR9;writing-mode:lr-tb;fill:#000;fill-opacity:1;fill-rule:nonzero;stroke:none" transform="matrix(1.33333 0 0 1.33333 147.867 129.076)"><tspan y="0" x="0">P</tspan></text><path style="fill:none;stroke:#000;stroke-width:3.9849999;stroke-linecap:butt;stroke-linejoin:miter;stroke-miterlimit:10;stroke-dasharray:none;stroke-opacity:1" d="M1140.36 2307.24v45.44" transform="matrix(.13333 0 0 -.13333 0 420.787)"/><path style="fill:#000;fill-opacity:1;fill-rule:nonzero;stroke:none" d="M1140.36 2388.55c-1.99-10.63-7.97-27.9-14.94-39.85h29.88c-6.97 11.95-12.95 29.22-14.94 39.85M1135.99 1777.79h34.871v29.887h-34.871z" transform="matrix(.13333 0 0 -.13333 0 420.787)"/><path style="fill:#e6e6e6;fill-opacity:1;fill-rule:nonzero;stroke:none" d="M1174.6 1707.69h170.082v170.082H1174.6z" transform="matrix(.13333 0 0 -.13333 0 420.787)"/><path style="fill:none;stroke:gray;stroke-width:7.47209978;stroke-linecap:butt;stroke-linejoin:miter;stroke-miterlimit:10;stroke-dasharray:none;stroke-opacity:1" d="M1174.6 1707.69h170.082v170.082H1174.6z" transform="matrix(.13333 0 0 -.13333 0 420.787)"/><text style="font-variant:normal;font-weight:400;font-size:8.96638012px;font-family:CMR9;-inkscape-font-specification:CMR9;writing-mode:lr-tb;fill:#000;fill-opacity:1;fill-rule:nonzero;stroke:none" transform="matrix(1.33333 0 0 1.33333 166.225 184.227)"><tspan y="0" x="0">˙</tspan><tspan y="2.28" x="-2.16">V</tspan></text><path style="fill:none;stroke:#000;stroke-width:3.9849999;stroke-linecap:butt;stroke-linejoin:miter;stroke-miterlimit:10;stroke-dasharray:none;stroke-opacity:1" d="M1348.41 1792.73h77.52" transform="matrix(.13333 0 0 -.13333 0 420.787)"/><path style="fill:#000;fill-opacity:1;fill-rule:nonzero;stroke:none" d="M1461.8 1792.73c-10.63 1.99-27.89 7.97-39.85 14.95v-29.89c11.96 6.97 29.22 12.95 39.85 14.94" transform="matrix(.13333 0 0 -.13333 0 420.787)"/><path style="fill:none;stroke:#333;stroke-width:3.9849999;stroke-linecap:butt;stroke-linejoin:miter;stroke-miterlimit:10;stroke-dasharray:none;stroke-opacity:1" d="M1054.63 1693.52h79.371v198.426h-79.371z" transform="matrix(.13333 0 0 -.13333 0 420.787)"/><g clip-path="url(#c)" transform="matrix(.13333 0 0 -.13333 0 420.787)"><path style="fill:url(#d);fill-opacity:1;fill-rule:nonzero;stroke:none" d="M1011.09 1630.42h166.723v325.152H1011.09z"/><path style="fill:#000;fill-opacity:1;fill-rule:nonzero;stroke:none" d="M1076.15 1779.88c0 2.35-1.9 4.25-4.25 4.25s-4.25-1.9-4.25-4.25 1.9-4.25 4.25-4.25 4.25 1.9 4.25 4.25zM1122.15 1710.06c0 2.35-1.91 4.26-4.26 4.26-2.34 0-4.25-1.91-4.25-4.26a4.255 4.255 0 0 1 8.51 0zM1129.64 1818.43a4.255 4.255 0 0 1-8.51 0 4.255 4.255 0 0 1 8.51 0zM1133.23 1744.43a4.255 4.255 0 0 1-8.51 0c0-2.34 1.91-4.25 4.26-4.25a4.26 4.26 0 0 1 4.25 4.25zM1095.64 1849.58c0 2.35-1.9 4.26-4.25 4.26s-4.25-1.91-4.25-4.26c0-2.35 1.9-4.25 4.25-4.25s4.25 1.9 4.25 4.25zM1107.32 1716.97c0 2.35-1.91 4.25-4.26 4.25-2.35 0-4.25-1.9-4.25-4.25 0-2.34 1.9-4.25 4.25-4.25s4.26 1.91 4.26 4.25zM1116 1763.6c0 2.35-1.9 4.26-4.25 4.26s-4.25-1.91-4.25-4.26c0-2.35 1.9-4.25 4.25-4.25s4.25 1.9 4.25 4.25zM1110.14 1867.42c0 2.35-1.9 4.25-4.25 4.25s-4.25-1.9-4.25-4.25 1.9-4.25 4.25-4.25 4.25 1.9 4.25 4.25zM1082.27 1728.61c0 2.35-1.9 4.25-4.25 4.25-2.34 0-4.25-1.9-4.25-4.25s1.91-4.25 4.25-4.25c2.35 0 4.25 1.9 4.25 4.25z"/><path style="fill:#000;fill-opacity:1;fill-rule:nonzero;stroke:none" d="M1091.19 1844.59c0 2.35-1.9 4.25-4.25 4.25s-4.25-1.9-4.25-4.25 1.9-4.25 4.25-4.25 4.25 1.9 4.25 4.25zM1101.23 1743.81c0 2.35-1.9 4.25-4.25 4.25s-4.25-1.9-4.25-4.25 1.9-4.25 4.25-4.25 4.25 1.9 4.25 4.25zM1058.98 1774.55c0 2.34-1.9 4.25-4.25 4.25s-4.25-1.91-4.25-4.25c0-2.35 1.9-4.26 4.25-4.26s4.25 1.91 4.25 4.26zM1073.32 1801.55c0 2.35-1.9 4.25-4.25 4.25s-4.25-1.9-4.25-4.25c0-2.34 1.9-4.25 4.25-4.25s4.25 1.91 4.25 4.25zM1080.88 1775.45c0 2.34-1.9 4.25-4.25 4.25s-4.25-1.91-4.25-4.25c0-2.35 1.9-4.25 4.25-4.25s4.25 1.9 4.25 4.25zM1099.13 1709.41a4.26 4.26 0 0 1-4.25 4.25c-2.35 0-4.25-1.91-4.25-4.25 0-2.35 1.9-4.25 4.25-4.25 2.34 0 4.25 1.9 4.25 4.25zM1099.99 1723.44c0 2.35-1.91 4.26-4.26 4.26-2.34 0-4.25-1.91-4.25-4.26a4.255 4.255 0 0 1 8.51 0zM1095.33 1868.2c0 2.34-1.9 4.25-4.25 4.25s-4.26-1.91-4.26-4.25c0-2.35 1.91-4.25 4.26-4.25 2.35 0 4.25 1.9 4.25 4.25zM1062.98 1716.61c0 2.34-1.91 4.25-4.26 4.25a4.255 4.255 0 1 1 4.26-4.25zM1089.84 1768.38c0 2.35-1.91 4.25-4.25 4.25-2.36 0-4.26-1.9-4.26-4.25s1.9-4.25 4.26-4.25c2.34 0 4.25 1.9 4.25 4.25z"/><path style="fill:#000;fill-opacity:1;fill-rule:nonzero;stroke:none" d="M1054.2 1778.23c0 2.35-1.9 4.25-4.25 4.25s-4.25-1.9-4.25-4.25 1.9-4.25 4.25-4.25 4.25 1.9 4.25 4.25zM1122.63 1709.79c0 2.35-1.9 4.25-4.25 4.25s-4.25-1.9-4.25-4.25 1.9-4.25 4.25-4.25 4.25 1.9 4.25 4.25zM1065.19 1815.8c0 2.34-1.91 4.25-4.26 4.25a4.26 4.26 0 0 1-4.25-4.25 4.255 4.255 0 0 1 8.51 0zM1114.89 1751.93c0 2.35-1.9 4.25-4.25 4.25s-4.25-1.9-4.25-4.25c0-2.34 1.9-4.25 4.25-4.25s4.25 1.91 4.25 4.25zM1074.5 1785.26c0 2.35-1.91 4.25-4.25 4.25-2.35 0-4.25-1.9-4.25-4.25s1.9-4.26 4.25-4.26c2.34 0 4.25 1.91 4.25 4.26zM1059.53 1876.48c0 2.35-1.9 4.25-4.25 4.25s-4.26-1.9-4.26-4.25 1.91-4.25 4.26-4.25c2.35 0 4.25 1.9 4.25 4.25zM1053.23 1793.98c0 2.35-1.9 4.25-4.25 4.25s-4.25-1.9-4.25-4.25 1.9-4.25 4.25-4.25 4.25 1.9 4.25 4.25z"/><path style="fill:#000;fill-opacity:1;fill-rule:nonzero;stroke:none" d="M1066.14 1814.21c0 2.35-1.9 4.25-4.25 4.25s-4.25-1.9-4.25-4.25 1.9-4.25 4.25-4.25 4.25 1.9 4.25 4.25zM1139.13 1817.85c0 2.35-1.9 4.25-4.25 4.25s-4.25-1.9-4.25-4.25 1.9-4.25 4.25-4.25 4.25 1.9 4.25 4.25zM1085.09 1816.79c0 2.35-1.9 4.25-4.25 4.25s-4.25-1.9-4.25-4.25c0-2.34 1.9-4.25 4.25-4.25s4.25 1.91 4.25 4.25zM1130.51 1833.18c0 2.35-1.9 4.25-4.26 4.25-2.34 0-4.25-1.9-4.25-4.25s1.91-4.25 4.25-4.25c2.36 0 4.26 1.9 4.26 4.25z"/></g><path style="fill:#000;fill-opacity:1;fill-rule:nonzero;stroke:none" d="M1131.24 1241.32h34.871v29.887h-34.871z" transform="matrix(.13333 0 0 -.13333 0 420.787)"/><path style="fill:#e6e6e6;fill-opacity:1;fill-rule:nonzero;stroke:none" d="M1169.84 1171.22h170.082v170.082H1169.84z" transform="matrix(.13333 0 0 -.13333 0 420.787)"/><path style="fill:none;stroke:gray;stroke-width:7.47209978;stroke-linecap:butt;stroke-linejoin:miter;stroke-miterlimit:10;stroke-dasharray:none;stroke-opacity:1" d="M1169.84 1171.22h170.082v170.082H1169.84z" transform="matrix(.13333 0 0 -.13333 0 420.787)"/><text style="font-variant:normal;font-weight:400;font-size:8.96638012px;font-family:CMR9;-inkscape-font-specification:CMR9;writing-mode:lr-tb;fill:#000;fill-opacity:1;fill-rule:nonzero;stroke:none" transform="matrix(1.33333 0 0 1.33333 165.59 255.756)"><tspan y="0" x="0">˙</tspan><tspan y="2.28" x="-2.16">V</tspan></text><path style="fill:none;stroke:#000;stroke-width:3.9849999;stroke-linecap:butt;stroke-linejoin:miter;stroke-miterlimit:10;stroke-dasharray:none;stroke-opacity:1" d="M1343.66 1256.27h77.52" transform="matrix(.13333 0 0 -.13333 0 420.787)"/><path style="fill:#000;fill-opacity:1;fill-rule:nonzero;stroke:none" d="M1457.05 1256.27c-10.63 1.99-27.9 7.96-39.85 14.94v-29.89c11.95 6.97 29.22 12.95 39.85 14.95" transform="matrix(.13333 0 0 -.13333 0 420.787)"/><path style="fill:none;stroke:#333;stroke-width:3.9849999;stroke-linecap:butt;stroke-linejoin:miter;stroke-miterlimit:10;stroke-dasharray:none;stroke-opacity:1" d="M1049.88 1157.05h79.371v198.426h-79.371z" transform="matrix(.13333 0 0 -.13333 0 420.787)"/><g clip-path="url(#e)" transform="matrix(.13333 0 0 -.13333 0 420.787)"><path style="fill:url(#f);fill-opacity:1;fill-rule:nonzero;stroke:none" d="M1006.34 1093.95h166.719v325.156H1006.34z"/><path style="fill:#000;fill-opacity:1;fill-rule:nonzero;stroke:none" d="M1047.12 1224.31a4.255 4.255 0 0 1-8.51 0c0-2.35 1.91-4.26 4.26-4.26 2.34 0 4.25 1.91 4.25 4.26zM1112.31 1243c0 2.36-1.9 4.26-4.25 4.26s-4.25-1.9-4.25-4.26c0-2.34 1.9-4.25 4.25-4.25s4.25 1.91 4.25 4.25zM1096.68 1308.57c0 2.35-1.91 4.25-4.25 4.25-2.35 0-4.25-1.9-4.25-4.25 0-2.34 1.9-4.25 4.25-4.25a4.26 4.26 0 0 1 4.25 4.25zM1066.77 1282.04c0 2.35-1.91 4.25-4.25 4.25-2.35 0-4.25-1.9-4.25-4.25 0-2.34 1.9-4.25 4.25-4.25a4.26 4.26 0 0 1 4.25 4.25zM1073.11 1306.04c0 2.35-1.9 4.25-4.25 4.25s-4.25-1.9-4.25-4.25 1.9-4.25 4.25-4.25 4.25 1.9 4.25 4.25z"/><path style="fill:#000;fill-opacity:1;fill-rule:nonzero;stroke:none" d="M1069.16 1276.77c0 2.35-1.91 4.26-4.25 4.26a4.255 4.255 0 1 1 4.25-4.26zM1111.36 1266.78c0 2.35-1.9 4.26-4.25 4.26s-4.25-1.91-4.25-4.26c0-2.35 1.9-4.25 4.25-4.25s4.25 1.9 4.25 4.25zM1137.19 1241.89c0 2.34-1.9 4.25-4.25 4.25s-4.25-1.91-4.25-4.25c0-2.35 1.9-4.26 4.25-4.26s4.25 1.91 4.25 4.26zM1114.68 1214.8c0 2.35-1.9 4.25-4.25 4.25-2.34 0-4.25-1.9-4.25-4.25a4.26 4.26 0 0 1 4.25-4.25c2.35 0 4.25 1.91 4.25 4.25zM1085.63 1238.18c0 2.35-1.91 4.25-4.26 4.25-2.35 0-4.25-1.9-4.25-4.25 0-2.34 1.9-4.25 4.25-4.25s4.26 1.91 4.26 4.25z"/><path style="fill:#000;fill-opacity:1;fill-rule:nonzero;stroke:none" d="M1119.84 1208.41c0 2.35-1.91 4.26-4.25 4.26-2.35 0-4.26-1.91-4.26-4.26 0-2.34 1.91-4.25 4.26-4.25a4.26 4.26 0 0 1 4.25 4.25zM1083.38 1309.13c0 2.35-1.9 4.25-4.25 4.25s-4.25-1.9-4.25-4.25 1.9-4.25 4.25-4.25 4.25 1.9 4.25 4.25zM1059.19 1212.7a4.255 4.255 0 0 1-8.51 0 4.255 4.255 0 0 1 8.51 0zM1063.8 1284.99a4.255 4.255 0 0 1-8.51 0 4.255 4.255 0 0 1 8.51 0zM1057.43 1234.07c0 2.35-1.91 4.25-4.25 4.25-2.36 0-4.26-1.9-4.26-4.25a4.255 4.255 0 0 1 8.51 0zM1057.32 1270.88a4.255 4.255 0 0 1-8.51 0 4.255 4.255 0 0 1 8.51 0zM1088.35 1238.83c0 2.35-1.9 4.25-4.25 4.25s-4.26-1.9-4.26-4.25 1.91-4.26 4.26-4.26c2.35 0 4.25 1.91 4.25 4.26z"/></g><path style="fill:none;stroke:#000;stroke-width:14.94419956;stroke-linecap:butt;stroke-linejoin:miter;stroke-miterlimit:10;stroke-dasharray:none;stroke-opacity:1" d="M2091.81 2047.25v-70.87" transform="matrix(.13333 0 0 -.13333 0 420.787)"/><path style="fill:none;stroke:#000;stroke-width:12.45349979;stroke-linecap:butt;stroke-linejoin:miter;stroke-miterlimit:10;stroke-dasharray:none;stroke-opacity:1" d="M2091.81 2011.81h-99.22" transform="matrix(.13333 0 0 -.13333 0 420.787)"/><path style="fill:none;stroke:#000;stroke-width:14.94419956;stroke-linecap:butt;stroke-linejoin:miter;stroke-miterlimit:10;stroke-dasharray:none;stroke-opacity:1" d="M1874.24 1071.48v-70.87" transform="matrix(.13333 0 0 -.13333 0 420.787)"/><path style="fill:none;stroke:#000;stroke-width:12.45349979;stroke-linecap:butt;stroke-linejoin:miter;stroke-miterlimit:10;stroke-dasharray:none;stroke-opacity:1" d="M1874.24 1036.04h99.22" transform="matrix(.13333 0 0 -.13333 0 420.787)"/><path style="fill:none;stroke:#000;stroke-width:14.94419956;stroke-linecap:butt;stroke-linejoin:miter;stroke-miterlimit:10;stroke-dasharray:none;stroke-opacity:1" d="M1391.5 1067.14v-70.87" transform="matrix(.13333 0 0 -.13333 0 420.787)"/><path style="fill:none;stroke:#000;stroke-width:12.45349979;stroke-linecap:butt;stroke-linejoin:miter;stroke-miterlimit:10;stroke-dasharray:none;stroke-opacity:1" d="M1391.5 1031.7h99.21" transform="matrix(.13333 0 0 -.13333 0 420.787)"/><text style="font-variant:normal;font-weight:400;font-size:9.96263981px;font-family:CMR10;-inkscape-font-specification:CMR10;writing-mode:lr-tb;fill:#000;fill-opacity:1;fill-rule:nonzero;stroke:none" transform="matrix(1.33333 0 0 1.33333 230.179 254.647)"><tspan y="0" x="0 5.6398425 9.5998468 14.039848 17.999846 26.879696 34.679688 39.719673">FreshGas</tspan><tspan y="12" x="-2.5203099 5.0396924 9.4796944 13.919696 18.959682 24.479694 29.999695 32.759346 35.518997 41.038986">Decoupling</tspan></text><g clip-path="url(#g)" transform="matrix(.13333 0 0 -.13333 0 420.787)"><path style="fill:url(#h);fill-opacity:1;fill-rule:nonzero;stroke:none" d="M2839.38 2010.34h99.64v328.813h-99.64z"/></g><path style="fill:none;stroke:gray;stroke-width:3.9849999;stroke-linecap:butt;stroke-linejoin:miter;stroke-miterlimit:10;stroke-dasharray:none;stroke-opacity:1" d="M2864.21 2092.29h49.816v164.383h-49.816z" transform="matrix(.13333 0 0 -.13333 0 420.787)"/><path style="fill:#b2b2b2;fill-opacity:1;fill-rule:nonzero;stroke:none" d="M2845.29 2162.03h14.945v24.906h-14.945z" transform="matrix(.13333 0 0 -.13333 0 420.787)"/><path style="fill:none;stroke:gray;stroke-width:3.9849999;stroke-linecap:butt;stroke-linejoin:miter;stroke-miterlimit:10;stroke-dasharray:none;stroke-opacity:1" d="M2845.29 2162.03h14.945v24.906h-14.945z" transform="matrix(.13333 0 0 -.13333 0 420.787)"/><path style="fill:#b2b2b2;fill-opacity:1;fill-rule:nonzero;stroke:none" d="M2914.03 2162.03h54.793v24.906h-54.793z" transform="matrix(.13333 0 0 -.13333 0 420.787)"/><path style="fill:none;stroke:gray;stroke-width:3.9849999;stroke-linecap:butt;stroke-linejoin:miter;stroke-miterlimit:10;stroke-dasharray:none;stroke-opacity:1" d="M2914.03 2162.03h54.793v24.906h-54.793z" transform="matrix(.13333 0 0 -.13333 0 420.787)"/><path style="fill:#b2b2b2;fill-opacity:1;fill-rule:nonzero;stroke:none" d="M2966.83 2132.14h24.906v84.684h-24.906z" transform="matrix(.13333 0 0 -.13333 0 420.787)"/><path style="fill:none;stroke:gray;stroke-width:3.9849999;stroke-linecap:butt;stroke-linejoin:miter;stroke-miterlimit:10;stroke-dasharray:none;stroke-opacity:1" d="M2966.83 2132.14h24.906v84.684h-24.906z" transform="matrix(.13333 0 0 -.13333 0 420.787)"/><path style="fill:#333;fill-opacity:1;fill-rule:nonzero;stroke:none" d="M2989.75 2132.14h9.965v84.684h-9.965z" transform="matrix(.13333 0 0 -.13333 0 420.787)"/><path style="fill:none;stroke:#333;stroke-width:3.9849999;stroke-linecap:butt;stroke-linejoin:miter;stroke-miterlimit:10;stroke-dasharray:none;stroke-opacity:1" d="M2989.75 2132.14h9.965v84.684h-9.965z" transform="matrix(.13333 0 0 -.13333 0 420.787)"/><text style="font-variant:normal;font-weight:400;font-size:9.96263981px;font-family:CMR10;-inkscape-font-specification:CMR10;writing-mode:lr-tb;fill:#000;fill-opacity:1;fill-rule:nonzero;stroke:none" transform="matrix(1.33333 0 0 1.33333 301.625 134.103)"><tspan y="0" x="0 7.4399977 14.280023 23.880083 30.960096 36.24007 41.760082 46.800068 50.76009">APLBypass</tspan></text><g clip-path="url(#i)" transform="matrix(.13333 0 0 -.13333 0 420.787)"><path style="fill:url(#j);fill-opacity:1;fill-rule:nonzero;stroke:none" d="M2768.42 2720.89h548.027v141.742H2768.42z"/></g><path style="fill:none;stroke:#000;stroke-width:3.9849999;stroke-linecap:butt;stroke-linejoin:miter;stroke-miterlimit:10;stroke-dasharray:none;stroke-opacity:1" d="M2905.89 2756.21h273.977v70.867H2905.89z" transform="matrix(.13333 0 0 -.13333 0 420.787)"/><path style="fill:#b2b2b2;fill-opacity:1;fill-rule:nonzero;stroke:none" d="M3037.89 2636.66h9.96v119.551h-9.96z" transform="matrix(.13333 0 0 -.13333 0 420.787)"/><path style="fill:none;stroke:gray;stroke-width:3.9849999;stroke-linecap:butt;stroke-linejoin:miter;stroke-miterlimit:10;stroke-dasharray:none;stroke-opacity:1" d="M3037.89 2636.66h9.96v119.551h-9.96z" transform="matrix(.13333 0 0 -.13333 0 420.787)"/><g clip-path="url(#k)" transform="matrix(.13333 0 0 -.13333 0 420.787)"><path style="fill:url(#l);fill-opacity:1;fill-rule:nonzero;stroke:none" d="M2973.01 2599.34h139.5v49.82h-139.5z"/></g><path style="fill:none;stroke:gray;stroke-width:3.9849999;stroke-linecap:butt;stroke-linejoin:miter;stroke-miterlimit:10;stroke-dasharray:none;stroke-opacity:1" d="M3008 2611.75h69.742v24.906H3008z" transform="matrix(.13333 0 0 -.13333 0 420.787)"/><path style="fill:gray;fill-opacity:1;fill-rule:nonzero;stroke:none" d="M3037.89 2532.05h9.96v79.7h-9.96z" transform="matrix(.13333 0 0 -.13333 0 420.787)"/><path style="fill:none;stroke:#000;stroke-width:3.9849999;stroke-linecap:butt;stroke-linejoin:miter;stroke-miterlimit:10;stroke-dasharray:none;stroke-opacity:1" d="m3003.88 2609.05 81.37-.18" transform="matrix(.13333 0 0 -.13333 0 420.787)"/><path style="fill:#ffe6cc;fill-opacity:1;fill-rule:nonzero;stroke:none" d="m2903.89 2829.07 28.35 49.1v56.69l-19.39 53.27h255.12l-19.38-53.27v-56.69l28.34-49.1" transform="matrix(.13333 0 0 -.13333 0 420.787)"/><path style="fill:none;stroke:#000;stroke-width:3.9849999;stroke-linecap:butt;stroke-linejoin:miter;stroke-miterlimit:10;stroke-dasharray:none;stroke-opacity:1" d="m2903.89 2829.07 28.35 49.1v56.69l-19.39 53.27h255.12l-19.38-53.27v-56.69l28.34-49.1z" transform="matrix(.13333 0 0 -.13333 0 420.787)"/><path style="fill:none;stroke:#b2b2b2;stroke-width:3.9849999;stroke-linecap:butt;stroke-linejoin:miter;stroke-miterlimit:10;stroke-dasharray:none;stroke-opacity:1" d="m2938.36 2988.13 15.52-53.27M2963.88 2988.13l11.63-53.27M2989.39 2988.13l7.75-53.27M3014.9 2988.13l3.88-53.27M3040.41 2988.13v-53.27M3065.93 2988.13l-3.88-53.27M3091.43 2988.13l-7.75-53.27M3116.95 2988.13l-11.63-53.27M3142.46 2988.13l-15.51-53.27" transform="matrix(.13333 0 0 -.13333 0 420.787)"/><path style="fill:none;stroke:#000;stroke-width:3.9849999;stroke-linecap:butt;stroke-linejoin:miter;stroke-miterlimit:10;stroke-dasharray:none;stroke-opacity:1" d="M2932.24 2878.17h216.35" transform="matrix(.13333 0 0 -.13333 0 420.787)"/><text style="font-variant:normal;font-weight:400;font-size:4.9813199px;font-family:CMR5;-inkscape-font-specification:CMR5;writing-mode:lr-tb;fill:#000;fill-opacity:1;fill-rule:nonzero;stroke:none" transform="matrix(1.33333 0 0 1.33333 396.69 36.323)"><tspan y="0" x="0 5.8800154 9.2399931">Man</tspan><tspan y="4.77" x="3.13398 6.4939828">20</tspan></text><path style="fill:none;stroke:#000;stroke-width:3.9849999;stroke-linecap:butt;stroke-linejoin:miter;stroke-miterlimit:10;stroke-dasharray:none;stroke-opacity:1" d="M2932.24 2934.86h216.35M2912.85 2988.13h255.12" transform="matrix(.13333 0 0 -.13333 0 420.787)"/><text style="font-variant:normal;font-weight:400;font-size:9.96263981px;font-family:CMR10;-inkscape-font-specification:CMR10;writing-mode:lr-tb;fill:#000;fill-opacity:1;fill-rule:nonzero;stroke:none" transform="matrix(1.33333 0 0 1.33333 373.655 16.348)"><tspan y="0" x="0 7.4399977 14.280023 23.880083 30.480089 35.520077 38.279728 43.319565">APLValve</tspan><tspan y="23.138" x="49.561298 55.081287 59.521301 64.321442 69.361282 73.80127 79.321281 84.361275 87.120926 92.640938">Scavenging</tspan></text><path style="fill:none;stroke:#fff;stroke-width:7.47209978;stroke-linecap:butt;stroke-linejoin:miter;stroke-miterlimit:10;stroke-dasharray:none;stroke-opacity:1" d="M3595.72 2764.18v-76.62" transform="matrix(.13333 0 0 -.13333 0 420.787)"/><path style="fill:none;stroke:#000;stroke-width:3.9849999;stroke-linecap:butt;stroke-linejoin:miter;stroke-miterlimit:10;stroke-dasharray:none;stroke-opacity:1" d="M3555.87 2724.33h103.2" transform="matrix(.13333 0 0 -.13333 0 420.787)"/><path style="fill:#000;fill-opacity:1;fill-rule:nonzero;stroke:none" d="M3694.94 2724.33c-10.63 1.99-27.9 7.97-39.85 14.94v-29.88c11.95 6.97 29.22 12.95 39.85 14.94" transform="matrix(.13333 0 0 -.13333 0 420.787)"/><g clip-path="url(#m)" transform="matrix(.13333 0 0 -.13333 0 420.787)"><path style="fill:url(#n);fill-opacity:1;fill-rule:nonzero;stroke:none" d="M3169.82 2044.85h70.87c0 54.8 95.19 99.22 212.6 99.22 117.42 0 212.6-44.42 212.6-99.22h42.52c13.3-17.65 13.3-39.03 0-56.69h-42.52c0-54.8-95.18-99.21-212.6-99.21-100.36 0-187.09 32.77-207.95 78.58h-42.52l-33-2.05"/></g><path style="fill:none;stroke:gray;stroke-width:3.9849999;stroke-linecap:butt;stroke-linejoin:miter;stroke-miterlimit:10;stroke-dasharray:none;stroke-opacity:1" d="M3169.82 2044.85h70.87c0 54.8 95.19 99.22 212.6 99.22 117.42 0 212.6-44.42 212.6-99.22h42.52c13.3-17.65 13.3-39.03 0-56.69h-42.52c0-54.8-95.18-99.21-212.6-99.21-100.36 0-187.09 32.77-207.95 78.58h-42.52l-33-2.05" transform="matrix(.13333 0 0 -.13333 0 420.787)"/><path style="fill:#666;fill-opacity:1;fill-rule:nonzero;stroke:none" d="M3169.82 1965.48h19.926v79.371h-19.926z" transform="matrix(.13333 0 0 -.13333 0 420.787)"/><path style="fill:none;stroke:#000;stroke-width:3.9849999;stroke-linecap:butt;stroke-linejoin:miter;stroke-miterlimit:10;stroke-dasharray:none;stroke-opacity:1" d="M3169.82 1965.48h19.926v79.371h-19.926z" transform="matrix(.13333 0 0 -.13333 0 420.787)"/><text style="font-variant:normal;font-weight:400;font-size:9.96263981px;font-family:CMR10;-inkscape-font-specification:CMR10;writing-mode:lr-tb;fill:#000;fill-opacity:1;fill-rule:nonzero;stroke:none" transform="matrix(1.33333 0 0 1.33333 413.953 180.052)"><tspan y="0" x="0 7.0800138 12.120001">Bag</tspan></text><path style="fill:gray;fill-opacity:1;fill-rule:nonzero;stroke:none" d="M2991.6 1698.41h82.688v9.965H2991.6zM2991.6 1298.9h82.688v9.96H2991.6z" transform="matrix(.13333 0 0 -.13333 0 420.787)"/><path style="fill:none;stroke:gray;stroke-width:3.9849999;stroke-linecap:butt;stroke-linejoin:miter;stroke-miterlimit:10;stroke-dasharray:none;stroke-opacity:1" d="M3006.94 1696.41v-385.55M3024.27 1696.41v-385.55M3041.61 1696.41v-385.55M3058.95 1696.41v-385.55" transform="matrix(.13333 0 0 -.13333 0 420.787)"/><path style="fill:#1a1a1a;fill-opacity:1;fill-rule:nonzero;stroke:none" d="M2943.28 1634.64h179.328v39.852H2943.28z" transform="matrix(.13333 0 0 -.13333 0 420.787)"/><path style="fill:none;stroke:#000;stroke-width:3.9849999;stroke-linecap:butt;stroke-linejoin:miter;stroke-miterlimit:10;stroke-dasharray:none;stroke-opacity:1" d="M2943.28 1634.64h179.328v39.852H2943.28z" transform="matrix(.13333 0 0 -.13333 0 420.787)"/><g clip-path="url(#o)" transform="matrix(.13333 0 0 -.13333 0 420.787)"><path style="fill:url(#p);fill-opacity:1;fill-rule:nonzero;stroke:none" d="M2943.28 1351.7h179.328v278.957H2943.28z"/></g><path style="fill:none;stroke:gray;stroke-width:3.9849999;stroke-linecap:butt;stroke-linejoin:miter;stroke-miterlimit:10;stroke-dasharray:none;stroke-opacity:1" d="M2943.28 1351.7h179.328v278.957H2943.28z" transform="matrix(.13333 0 0 -.13333 0 420.787)"/><path style="fill:#1a1a1a;fill-opacity:1;fill-rule:nonzero;stroke:none" d="M2943.28 1337.75h179.328v9.965H2943.28z" transform="matrix(.13333 0 0 -.13333 0 420.787)"/><path style="fill:none;stroke:#000;stroke-width:3.9849999;stroke-linecap:butt;stroke-linejoin:miter;stroke-miterlimit:10;stroke-dasharray:none;stroke-opacity:1" d="M2943.28 1337.75h179.328v9.965H2943.28z" transform="matrix(.13333 0 0 -.13333 0 420.787)"/><text style="font-variant:normal;font-weight:400;font-size:9.96263981px;font-family:CMMI10;-inkscape-font-specification:CMMI10;writing-mode:lr-tb;fill:#000;fill-opacity:1;fill-rule:nonzero;stroke:none" transform="matrix(1.33333 0 0 1.33333 421.307 225.579)"><tspan y="0" x="0 7.7999949">CO</tspan></text><text style="font-variant:normal;font-weight:400;font-size:6.97384977px;font-family:CMR7;-inkscape-font-specification:CMR7;writing-mode:lr-tb;fill:#000;fill-opacity:1;fill-rule:nonzero;stroke:none" transform="matrix(1.33333 0 0 1.33333 441.787 227.499)"><tspan y="0" x="0">2</tspan></text><text style="font-variant:normal;font-weight:400;font-size:9.96263981px;font-family:CMR10;-inkscape-font-specification:CMR10;writing-mode:lr-tb;fill:#000;fill-opacity:1;fill-rule:nonzero;stroke:none" transform="matrix(1.33333 0 0 1.33333 452.347 225.579)"><tspan y="0" x="0 7.4399977 12.959986 16.920008 21.959993 25.92001 31.680086 36.120075">Absorber</tspan></text><path style="fill:gray;fill-opacity:1;fill-rule:nonzero;stroke:none" d="M1576.4 799.484h84.684v39.852H1576.4z" transform="matrix(.13333 0 0 -.13333 0 420.787)"/><path style="fill:none;stroke:#000;stroke-width:3.9849999;stroke-linecap:butt;stroke-linejoin:miter;stroke-miterlimit:10;stroke-dasharray:none;stroke-opacity:1" d="M1576.4 799.484h84.684v39.852H1576.4z" transform="matrix(.13333 0 0 -.13333 0 420.787)"/><path style="fill:#4d4d4d;fill-opacity:1;fill-rule:nonzero;stroke:none" d="M1527.59 759.633h182.316v39.852H1527.59z" transform="matrix(.13333 0 0 -.13333 0 420.787)"/><path style="fill:none;stroke:#000;stroke-width:3.9849999;stroke-linecap:butt;stroke-linejoin:miter;stroke-miterlimit:10;stroke-dasharray:none;stroke-opacity:1" d="M1527.59 759.633h182.316v39.852H1527.59z" transform="matrix(.13333 0 0 -.13333 0 420.787)"/><path style="fill:#4d4d4d;fill-opacity:1;fill-rule:nonzero;stroke:none" d="M1499.19 460.75h239.105v298.883H1499.19z" transform="matrix(.13333 0 0 -.13333 0 420.787)"/><path style="fill:none;stroke:#000;stroke-width:3.9849999;stroke-linecap:butt;stroke-linejoin:miter;stroke-miterlimit:10;stroke-dasharray:none;stroke-opacity:1" d="M1499.19 460.75h239.105v298.883H1499.19z" transform="matrix(.13333 0 0 -.13333 0 420.787)"/><path style="fill:none;stroke:#fff;stroke-width:14.94419956;stroke-linecap:butt;stroke-linejoin:miter;stroke-miterlimit:10;stroke-dasharray:none;stroke-opacity:1" d="M1539.72 595.047h158.05M1539.72 549.621h158.05M1539.72 504.188h158.05" transform="matrix(.13333 0 0 -.13333 0 420.787)"/><path style="fill:none;stroke:red;stroke-width:9.96280003;stroke-linecap:butt;stroke-linejoin:miter;stroke-miterlimit:10;stroke-dasharray:none;stroke-opacity:1" d="M1497.2 640.48h243.09" transform="matrix(.13333 0 0 -.13333 0 420.787)"/><text style="font-variant:normal;font-weight:400;font-size:8.96638012px;font-family:CMR9;-inkscape-font-specification:CMR9;writing-mode:lr-tb;fill:#000;fill-opacity:1;fill-rule:nonzero;stroke:none" transform="matrix(1.33333 0 0 1.33333 189.024 374.607)"><tspan y="0" x="0 6.2398419 10.319851 15.239842 18.83984 21.359833 23.879839 28.439835 32.039833 36.599827">Ventilator</tspan></text><path style="fill:gray;fill-opacity:1;fill-rule:nonzero;stroke:none" d="M2225.07 700.766h84.684v29.887h-84.684z" transform="matrix(.13333 0 0 -.13333 0 420.787)"/><path style="fill:none;stroke:#000;stroke-width:3.9849999;stroke-linecap:butt;stroke-linejoin:miter;stroke-miterlimit:10;stroke-dasharray:none;stroke-opacity:1" d="M2225.07 700.766h84.684v29.887h-84.684z" transform="matrix(.13333 0 0 -.13333 0 420.787)"/><path style="fill:#fff200;fill-opacity:1;fill-rule:nonzero;stroke:none" d="M2197.67 670.875h139.477v29.89H2197.67z" transform="matrix(.13333 0 0 -.13333 0 420.787)"/><path style="fill:none;stroke:#000;stroke-width:3.9849999;stroke-linecap:butt;stroke-linejoin:miter;stroke-miterlimit:10;stroke-dasharray:none;stroke-opacity:1" d="M2197.67 670.875h139.477v29.89H2197.67z" transform="matrix(.13333 0 0 -.13333 0 420.787)"/><g clip-path="url(#q)" transform="matrix(.13333 0 0 -.13333 0 420.787)"><path style="fill:url(#r);fill-opacity:1;fill-rule:nonzero;stroke:none" d="M2087.77 222.992h358.703V820.84H2087.77z"/></g><path style="fill:none;stroke:#000;stroke-width:3.9849999;stroke-linecap:butt;stroke-linejoin:miter;stroke-miterlimit:10;stroke-dasharray:none;stroke-opacity:1" d="M2177.75 371.992h179.328v298.883H2177.75z" transform="matrix(.13333 0 0 -.13333 0 420.787)"/><text style="font-variant:normal;font-weight:400;font-size:9.96263981px;font-family:CMR10;-inkscape-font-specification:CMR10;writing-mode:lr-tb;fill:#000;fill-opacity:1;fill-rule:nonzero;stroke:none" transform="matrix(1.33333 0 0 1.33333 280.072 318.938)"><tspan y="0" x="0 6.6000071 11.639994 17.399998 22.439983 26.4 29.159651 33.119648 37.559639">Vaporiser</tspan></text><path style="fill:#fff;fill-opacity:1;fill-rule:nonzero;stroke:none" d="M2686.6 274.594c0 50.461-40.91 91.367-91.37 91.367-50.46 0-91.36-40.906-91.36-91.367 0-50.457 40.9-91.364 91.36-91.364s91.37 40.907 91.37 91.364z" transform="matrix(.13333 0 0 -.13333 0 420.787)"/><path style="fill:none;stroke:gray;stroke-width:9.96280003;stroke-linecap:butt;stroke-linejoin:miter;stroke-miterlimit:10;stroke-dasharray:none;stroke-opacity:1" d="M2686.6 274.594c0 50.461-40.91 91.367-91.37 91.367-50.46 0-91.36-40.906-91.36-91.367 0-50.457 40.9-91.364 91.36-91.364s91.37 40.907 91.37 91.364z" transform="matrix(.13333 0 0 -.13333 0 420.787)"/><text style="font-variant:normal;font-weight:400;font-size:9.96263981px;font-family:CMMI10;-inkscape-font-specification:CMMI10;writing-mode:lr-tb;fill:#000;fill-opacity:1;fill-rule:nonzero;stroke:none" transform="matrix(1.33333 0 0 1.33333 336.37 388.122)"><tspan y="0" x="0">O</tspan></text><text style="font-variant:normal;font-weight:400;font-size:6.97384977px;font-family:CMR7;-inkscape-font-specification:CMR7;writing-mode:lr-tb;fill:#000;fill-opacity:1;fill-rule:nonzero;stroke:none" transform="matrix(1.33333 0 0 1.33333 346.77 382.362)"><tspan y="0" x="0">+</tspan><tspan y="6.96" x="-.24">2</tspan></text><path style="fill:#fff;fill-opacity:1;fill-rule:nonzero;stroke:none" d="M2673.19 470.914c0 43.055-34.9 77.953-77.96 77.953-43.05 0-77.95-34.898-77.95-77.953 0-43.051 34.9-77.953 77.95-77.953 43.06 0 77.96 34.902 77.96 77.953z" transform="matrix(.13333 0 0 -.13333 0 420.787)"/><path style="fill:none;stroke:gray;stroke-width:9.96280003;stroke-linecap:butt;stroke-linejoin:miter;stroke-miterlimit:10;stroke-dasharray:none;stroke-opacity:1" d="M2673.19 470.914c0 43.055-34.9 77.953-77.96 77.953-43.05 0-77.95-34.898-77.95-77.953 0-43.051 34.9-77.953 77.95-77.953 43.06 0 77.96 34.902 77.96 77.953z" transform="matrix(.13333 0 0 -.13333 0 420.787)"/><text style="font-variant:normal;font-weight:400;font-size:9.96263981px;font-family:CMMI10;-inkscape-font-specification:CMMI10;writing-mode:lr-tb;fill:#000;fill-opacity:1;fill-rule:nonzero;stroke:none" transform="matrix(1.33333 0 0 1.33333 337.985 361.54)"><tspan y="0" x="0">O</tspan></text><text style="font-variant:normal;font-weight:400;font-size:6.97384977px;font-family:CMR7;-inkscape-font-specification:CMR7;writing-mode:lr-tb;fill:#000;fill-opacity:1;fill-rule:nonzero;stroke:none" transform="matrix(1.33333 0 0 1.33333 348.065 363.46)"><tspan y="0" x="0">2</tspan></text><text style="font-variant:normal;font-weight:400;font-size:9.96263981px;font-family:CMR10;-inkscape-font-specification:CMR10;writing-mode:lr-tb;fill:#000;fill-opacity:1;fill-rule:nonzero;stroke:none" transform="matrix(1.33333 0 0 1.33333 362.063 349.869)"><tspan y="0" x="0 5.5199881 10.559999 13.559981 17.999994 21.599997">Safety</tspan></text><text style="font-variant:normal;font-weight:400;font-size:9.96263981px;font-family:CMMI10;-inkscape-font-specification:CMMI10;writing-mode:lr-tb;fill:#000;fill-opacity:1;fill-rule:nonzero;stroke:none" transform="matrix(1.33333 0 0 1.33333 402.383 349.869)"><tspan y="0" x="0">O</tspan></text><text style="font-variant:normal;font-weight:400;font-size:6.97384977px;font-family:CMR7;-inkscape-font-specification:CMR7;writing-mode:lr-tb;fill:#000;fill-opacity:1;fill-rule:nonzero;stroke:none" transform="matrix(1.33333 0 0 1.33333 412.463 351.789)"><tspan y="0" x="0">2</tspan></text><text style="font-variant:normal;font-weight:400;font-size:9.96263981px;font-family:CMMI10;-inkscape-font-specification:CMMI10;writing-mode:lr-tb;fill:#000;fill-opacity:1;fill-rule:nonzero;stroke:none" transform="matrix(1.33333 0 0 1.33333 319.591 410.938)"><tspan y="0" x="0">O</tspan></text><text style="font-variant:normal;font-weight:400;font-size:6.97384977px;font-family:CMR7;-inkscape-font-specification:CMR7;writing-mode:lr-tb;fill:#000;fill-opacity:1;fill-rule:nonzero;stroke:none" transform="matrix(1.33333 0 0 1.33333 329.67 412.858)"><tspan y="0" x="0">2</tspan></text><text style="font-variant:normal;font-weight:400;font-size:9.96263981px;font-family:CMR10;-inkscape-font-specification:CMR10;writing-mode:lr-tb;fill:#000;fill-opacity:1;fill-rule:nonzero;stroke:none" transform="matrix(1.33333 0 0 1.33333 340.231 410.938)"><tspan y="0" x="0 6.4800162 9.2396679 14.759655 18.719677">Flush</tspan></text><text style="font-variant:normal;font-weight:400;font-size:8.96638012px;font-family:CMR9;-inkscape-font-specification:CMR9;writing-mode:lr-tb;fill:#000;fill-opacity:1;fill-rule:nonzero;stroke:none" transform="matrix(1.33333 0 0 1.33333 381.857 410.31)"><tspan y="0" x="0 7.2000031 11.76001 18.600014 25.680027 29.760036 32.280029 34.800022 39.480114 43.560123 47.160114">GasDelivery</tspan></text><path style="fill:none;stroke:#e5f7fd;stroke-width:7.47209978;stroke-linecap:butt;stroke-linejoin:miter;stroke-miterlimit:10;stroke-dasharray:none;stroke-opacity:1" d="M3076.28 682.832v-96.465M3073.45 322.828v-96.465" transform="matrix(.13333 0 0 -.13333 0 420.787)"/><path style="fill:none;stroke:#000;stroke-width:3.9849999;stroke-linecap:butt;stroke-linejoin:miter;stroke-miterlimit:10;stroke-dasharray:none;stroke-opacity:1" d="M3042.41 637.004h118.91" transform="matrix(.13333 0 0 -.13333 0 420.787)"/><path style="fill:#000;fill-opacity:1;fill-rule:nonzero;stroke:none" d="M3006.54 637.004c10.63-1.992 27.89-7.973 39.85-14.945v29.886c-11.96-6.972-29.22-12.949-39.85-14.941" transform="matrix(.13333 0 0 -.13333 0 420.787)"/><path style="fill:none;stroke:#000;stroke-width:3.9849999;stroke-linecap:butt;stroke-linejoin:miter;stroke-miterlimit:10;stroke-dasharray:none;stroke-opacity:1" d="M3039.57 276.996h118.92" transform="matrix(.13333 0 0 -.13333 0 420.787)"/><path style="fill:#000;fill-opacity:1;fill-rule:nonzero;stroke:none" d="M3003.71 276.996c10.62-1.992 27.89-7.969 39.85-14.941v29.886c-11.96-6.972-29.23-12.953-39.85-14.945" transform="matrix(.13333 0 0 -.13333 0 420.787)"/><g><text style="font-variant:normal;font-weight:400;font-size:9.96263981px;font-family:CMR10;-inkscape-font-specification:CMR10;writing-mode:lr-tb;fill:#000;fill-opacity:1;fill-rule:nonzero;stroke:none" transform="matrix(1.33333 0 0 1.33333 388.03 376.345)"><tspan y="0" x="0 6.8400006 10.800016 15.240006 19.200027 23.160025 28.680037 32.64003 35.399681 39.359676 43.79969">Pressurised</tspan></text><text style="font-variant:normal;font-weight:400;font-size:9.96263981px;font-family:CMMI10;-inkscape-font-specification:CMMI10;writing-mode:lr-tb;fill:#000;fill-opacity:1;fill-rule:nonzero;stroke:none" transform="matrix(1.33333 0 0 1.33333 457.95 376.345)"><tspan y="0" x="0">O</tspan></text><text style="font-variant:normal;font-weight:400;font-size:6.97384977px;font-family:CMR7;-inkscape-font-specification:CMR7;writing-mode:lr-tb;fill:#000;fill-opacity:1;fill-rule:nonzero;stroke:none" transform="matrix(1.33333 0 0 1.33333 468.03 378.265)"><tspan y="0" x="0">2</tspan></text><text style="font-variant:normal;font-weight:400;font-size:9.96263981px;font-family:CMR10;-inkscape-font-specification:CMR10;writing-mode:lr-tb;fill:#000;fill-opacity:1;fill-rule:nonzero;stroke:none" transform="matrix(1.33333 0 0 1.33333 478.43 376.345)"><tspan y="0" x="0 3.9600215 9.4800091 14.999997 20.519985 23.279636">supply</tspan></text></g><path style="fill:#fff;fill-opacity:1;fill-rule:nonzero;stroke:none" d="M3338.05 439.688h107.715v107.719H3338.05z" transform="matrix(.13333 0 0 -.13333 0 420.787)"/><g><text style="font-variant:normal;font-weight:400;font-size:9.96263981px;font-family:CMMI10;-inkscape-font-specification:CMMI10;writing-mode:lr-tb;fill:#000;fill-opacity:1;fill-rule:nonzero;stroke:none" transform="matrix(1.33333 0 0 1.33333 466.284 358.523)"><tspan y="0" x="0">O</tspan></text><text style="font-variant:normal;font-weight:400;font-size:6.97384977px;font-family:CMR7;-inkscape-font-specification:CMR7;writing-mode:lr-tb;fill:#000;fill-opacity:1;fill-rule:nonzero;stroke:none" transform="matrix(1.33333 0 0 1.33333 476.364 360.442)"><tspan y="0" x="0">2</tspan></text></g><path style="fill:#fff;fill-opacity:1;fill-rule:nonzero;stroke:none" d="M3338.05 579.738h107.715v107.719H3338.05z" transform="matrix(.13333 0 0 -.13333 0 420.787)"/><g><text style="font-variant:normal;font-weight:400;font-size:9.96263981px;font-family:CMR10;-inkscape-font-specification:CMR10;writing-mode:lr-tb;fill:#000;fill-opacity:1;fill-rule:nonzero;stroke:none" transform="matrix(1.33333 0 0 1.33333 466.284 340.845)"><tspan y="0" x="0 7.4399977 10.199649">Air</tspan></text></g><path style="fill:#000;fill-opacity:1;fill-rule:nonzero;stroke:none" d="M3338.05 633.598h53.855v53.86h-53.855zM3391.91 579.738h53.855v53.86h-53.855z" transform="matrix(.13333 0 0 -.13333 0 420.787)"/><path style="fill:#4472c4;fill-opacity:1;fill-rule:nonzero;stroke:none" d="M3338.05 719.789h107.715v107.719H3338.05z" transform="matrix(.13333 0 0 -.13333 0 420.787)"/><g><text style="font-variant:normal;font-weight:400;font-size:9.96263981px;font-family:CMMI10;-inkscape-font-specification:CMMI10;writing-mode:lr-tb;fill:#000;fill-opacity:1;fill-rule:nonzero;stroke:none" transform="matrix(1.33333 0 0 1.33333 466.284 321.176)"><tspan y="0" x="0">N</tspan></text><text style="font-variant:normal;font-weight:400;font-size:6.97384977px;font-family:CMR7;-inkscape-font-specification:CMR7;writing-mode:lr-tb;fill:#000;fill-opacity:1;fill-rule:nonzero;stroke:none" transform="matrix(1.33333 0 0 1.33333 477.004 323.096)"><tspan y="0" x="0">2</tspan></text><text style="font-variant:normal;font-weight:400;font-size:9.96263981px;font-family:CMMI10;-inkscape-font-specification:CMMI10;writing-mode:lr-tb;fill:#000;fill-opacity:1;fill-rule:nonzero;stroke:none" transform="matrix(1.33333 0 0 1.33333 482.924 321.176)"><tspan y="0" x="0">O</tspan></text><text style="font-variant:normal;font-weight:400;font-size:9.96263981px;font-family:CMR10;-inkscape-font-specification:CMR10;writing-mode:lr-tb;fill:#000;fill-opacity:1;fill-rule:nonzero;stroke:none" transform="matrix(1.33333 0 0 1.33333 403.787 305.494)"><tspan y="0" x="0 6.8400006 9.5996513 14.039641 18.479654 22.319647 26.279663 31.319651 36.839638 39.599289 47.279369 56.399361 59.159012 64.438988 68.878998">ElectronicMixer</tspan></text></g><path style="fill:#cb7246;fill-opacity:1;fill-rule:evenodd;stroke:none" d="M331.371 1236zm594.977 299.93v-27.4c-.004-14.13-13.578-24.32-27.375-24.32-9.621 0-14.805 1.74-21.293 6.08-2.614-3.57-11.09-6.08-17.641-6.08-9.625 0-14.809 1.74-21.293 6.08-3.035-4.15-11.855-6.09-19.473-6.09-9.878-.01-13.582 2.15-19.46 6.09-5.911-8.06-28.618-8.44-38.329 0-1.558-1.04-1.718-1.45-3.632-2.45-9.258-4.86-23.161-4.8-32.262.02-2.809-4.2-11.192-9.13-18.25-9.13-9.391 0-13.805-.02-21.902 4.26-6.766-10.1-28.032-9.68-38.133-4.06-1.578.87-2.606 2.23-3.844 2.23-12.059 0-26.25-5.73-36.703-11.35-11.93-6.42-18.086-11.87-25.352-22.71h42.586c14.731 0 27.633.61 41.981.61 13.777 0 46.257 3.21 60.48.25 2.926-.61 5.942-1.39 8.66-2.29 2.133-.71 5.391-2.05 7.262-3.08 14.406-7.96 23.207-21.12 26.469-37.41 1.801-9.02 1.125-12.66 2.047-19.3.464-3.34-.559-15.38-.993-19.59-2.066-20.15-7.832-40.51-16.722-58.1-.731-1.45-1.238-2.28-1.926-3.65-7.5-15-17.105-28.13-27.57-41.08-6.43-7.97-13.207-14.91-20.446-22.14-3.769-3.77-7.183-6.57-10.945-10.35l-11.289-10c-22.375-18.93-46.961-39.66-71.727-56.03l-12.773-8.52c-13-8.13-25.867-16.78-39.621-23.65-29.816-14.9-59.133-26.22-92.277-35.48-34.52-9.65-70.372-16.56-106.036-21.72-12.597-1.82-24.406-2.94-37.273-4.7-16.48-2.26-52.969-5.85-69.008-5.82l-15.074-.41c-18.852 1.03-35.223.71-54.551 3.78-18.125 2.88-35.281 6.72-52.258 11.62-20.922 6.05-43.957 11-60.722 24.45-7.711 6.19-11.262 15.9-12.07 27.34V1143c1.964 31.49 18.921 70.64 27.577 87.93l42.727 75.29c13.059 21.71 24.418 43.98 38.465 64.96 2.039 3.05 4.101 5.61 6.219 8.38 31.172 40.75 61.136 47.8 109.23 41.11 11.59-1.61 23.723-2.17 35.555-2.17 15.086 0 69.312 10.79 83.586 14.36 9.094 2.27 16.48 4.5 24.929 7.32 20.872 6.96 34.551 7.97 56.864 5.61 19.527-2.07 41.113.09 62.144.09 1.551 6.65 5.961 14.12 8.696 20.51 15.691 36.71 43.062 46.77 21.468 76.57-14.113 19.48-16.82 23.01-26.25 45.54-1.031 2.45-3.726 7.84-3.914 10.08-14.668 0-27.281.61-41.976.61-15.446 0-28.707-1.83-41.367-1.83-13.067 0-25.11 3.37-36.571 7.23-22.84 7.71-46.328 12.13-70.762 16.24-37.738 6.34-38.742 6.38-77.109 2.19l-23.672-1.92c-3.09-.25-4.371.54-7.23.61-11.239.28-19.914 2.36-28.36 5.71-15.304 6.08-27.664 17.01-38.437 29.1-16.094 18.06-27.922 39.76-39.477 60.9-7.871 14.4-16.566 28.46-25.035 42.49-4.383 7.26-8.156 14.14-12.539 21.52-8.598 14.5-15.707 29.25-23.07 44.46-7.871 16.26-19.899 47.93-21.692 74.53v12.47c.641 8.16 2.684 15.39 6.676 20.91 12.035 16.65 41.508 23.59 60.985 29.06 45.468 12.77 70.71 16.55 120.324 16.55 21.539 0 72.941-5.01 95.699-8.33 63.793-9.31 107.777-16.66 168.258-38.58 24.285-8.8 47.66-20.36 69.769-33.66 16.184-9.73 31.16-20.59 46.504-31.36 1.746-1.23 3.188-2.25 4.949-3.57l28.586-22.52c7.969-6.34 16.547-12.8 23.793-20 1.75-1.74 2.848-2.21 4.578-3.94l17.938-16.75c14.293-14.29 27.801-30.06 38.211-47.56 11.223-18.88 19.98-39.62 23.945-61.83 4.18-23.4 6.203-51.79-7.066-72.54-7.02-10.98-17.563-18.23-30.297-21.41-13.734-3.43-17.902-1.98-31.66-1.85-3.449.04-4.207.65-7.867.65l-110.133 1.2c4.379-6.54 7.601-10.6 13.988-15.21 13.637-9.85 30.18-15.81 47.406-18.39 4.61-.69 7.75 5.01 15.868 5.01 9.835 0 16.855 1.01 24.949-4.86 1.289-.94 1.742-1.57 3.035-2.44 9.84 6.59 26.746 5.58 36.168-1.55 1.765-1.34 2.418-2.27 3.984-3.32 11.563 6.12 25.102 4.38 35.285-2.43 12.297 8.23 26.629 8.24 38.934 0l4.043 2.65c11.18 5.66 25.367 3.73 34.894-2.65l2.071 1.58c.789.5 1.097.66 1.91 1.13 1.766.99 2.187 1.1 4.285 1.8 2.942.98 7.539 1.57 11.199 1.57 9.078 0 12.539-2.42 19.469-6.08.535.46-.039.03.996.83.406.31.637.48 1.059.77l3.054 1.72c.575.25.723.31 1.336.54 4.172 1.6 8.664 2.22 13.629 2.22 13.86 0 27.981-9.79 27.985-24.32zm-594.977 272.53zm80.914-565.77zm21.899-53.54zm0 666.16zm158.175-555.44zm68.137 250.04c5.082 0 13.383 1.3 13.383-6.09v-43.19c0-7.58-8.801-6.08-13.992-6.08-3.008 0-5.473 2.47-5.473 5.47v44.41c0 3.28 3.004 5.48 6.082 5.48zm38.938-3.65c16.691 0 13.379 1.29 13.379-41.98 0-8.36-15.356-6.76-17.493-4.72-.543.52-1.972 2.63-1.972 3.5v37.12c0 3.3 2.808 6.08 6.086 6.08zm-265.25 309.05c-3.614 2.42-6.629 6.94-10.188 10.49-1.707 1.7-9.387 11.08-12.078 5.03-1.648-3.72 3.586-8.03 7.234-12.91l18.875-27.97c.973-1.8 1.278-1.83 2.211-3.27 7.86-12.13 12.481-24.29 18.282-35.25l-22.27 6.32c-5.051 2.72-12.262 8.87-16.223 12.98-1.429 1.49-1.922 2.4-3.328 3.97-6.015 6.72-10.008 14.74-13.289 23.22-2.187 5.66-1.105 6.52-3.902 10.69h-4.258c-1.789-2.66-2.062-2.63-1.434-6.24 1.946-11.15 6.016-21.21 11.805-30.84 2.215-3.69 4.883-6.8 7.27-10.37-1.832.15-4.754.48-7.121.79-6.356.82-16.844 1.04-23.903 1.04-3.543-4.09-1.844-6.62 3.278-7.67 28.824-5.93 57.988-14.2 81.894-31.87 3.664-2.71 3.434-1.95 4.738-6.82l4.993-17.52c1.769-7.07 3.043-11.03 3.043-20.07-10.708 5.13-23.008 10.19-34.145 13.91-6.02 2.01-12.617 3.93-18.777 5.55-11.457 3.04-7.563.79-17.836 6.5-14.367 8-21.774 16.11-32.512 26.43l-6.691 7.37c-7.024 7.38-14.848 19.22-20.348 27.72-1.719 2.65-2.859 4.87-4.563 7.61-2.722 4.38-1.968 3.36-.265 8.4 3.664 10.84 8.054 28.67 8.004 40.67-.024 5.49.691 19.95-1.012 23.36-1.758 3.52-6.023 1.85-6.773-.97-.067-.25-.739-10.88-.754-11.42-.227-8.97-2.891-22.69-5.539-30.96-.914-2.85-2.258-6.13-2.973-9.19-5.457 3.99-13.254 40.65-13.332 40.8-1.281 2.62-.149 1.15-1.875 1.78-1.168.74 1.555.53-1.824.55-.743 0-1.676-.31-2.219-.72-2.633-1.99-.984-6.46-.84-8.97.875-15.53 6.984-36.24 12.609-50.66 1.02-2.61 2.645-5.85 3.223-8.34-3.144.84-7.609 5.47-9.887 7.76-14.992 15.05-15.738 29.22-20.964 28.48-9.981-1.41 7.625-28.58 8.855-30.25 6.414-8.68 16.543-20.86 27.863-23.24 5.446-1.14 4.34-3.72 9.227-11.46 1.402-2.22 2.504-4.09 4.008-6.33 2.914-4.36 5.367-8.1 8.441-12.24 1.637-2.21 8.348-9.43 8.961-11.73-15.008 0-38.332 8.42-52.09 13.01-8.012 2.67-15.402 5.97-23.09 9.15-5.152 2.13-23.105 10.52-25.957 14.8-2.898 4.37-6.121 11.42-8.113 16.23-.965 2.32-1.414 3.24-2.348 5.56-.769 1.93-2.175 4.41-1.769 5.95l5.519 10.91c3.258 7.58 5.786 16.06 6.774 25.46.832 7.93.414 14.64-.688 22.27-.523 3.6-.488 3.59-2.269 6.24-10.024 0-3.516-5.98-6.504-24.52-2.332-14.44-6.781-18.49-8.094-24.15h-1.219c-.281 3.37-1.769 6.93-2.492 10.29-.758 3.54-1.68 7.41-2.297 11.08-2.527 15.07-3.812 34.27-1.57 49.48.684 4.63 2.973 13.33 2.969 16.87-.004 2.48-.867 2.33-2.086 4.15-5.063 0-5.153-1.84-6.305-5.86-3.187-11.11-4.531-20.37-6.219-32.12-.793-5.54 1.153-16.76-7.57.24-3.789 7.39-3.578 17.69-8.5 17.05-8.769-1.13-.437-29.65 13.242-42.72 3.727-3.56 2.559-5.36 3.285-12.54 1.5-14.86 5.157-25.65 8.418-39.64-5.976 3.16-23.41 21.29-27.027 24.07-2.328 1.8-3.551 2.95-5.219 5.13-4.957 6.5-12.031 11.72-17.031 18.25l-4.727 5.62c-1.125 1.26-1.554 1.58-2.574 2.9l-20.332 25.94c-2.695 2.01-4.969.47-5.937-1.57-.555-1.17-.438-1.91.035-3.08 2.828-6.97 25.109-38.85 30.305-45.21l15.136-18.93c2.032-2.6 6.805-6.64 7.563-9.47-5.02-1.17-7.551-2.34-14.574-1.8-10.965.85-21.653 5.6-30.555 11.42-2.813 1.84-2.063 1.94-6.582 1.94-4.074-6.08.859-7.94 7.289-12.18 9.637-6.36 21.492-12.43 34.058-12.79 13.047-.36 11.219 1.6 20.094 3.67 1.906-2.84 18.02-18.92 21.551-21.64 2.141-1.65 2.617-2.42 4.461-4.05 14.894-13.21 32.41-23.65 50.078-32.66 2.117-1.08 1.777-.19 2.391-2.48-4.684 0-10.539-1.56-14.653-2.38-7.492-1.52-6.367-1.13-13.078 1.42-24.121 9.17-51.726 17.37-78.129 9.48l-6.078-3.05v-3.65l1.953-1.69c6.473-.13 10.461 2.32 17.493 2.32 13.039.01 23.679-1.52 35.382-5.42 2.848-.95 4.77-1.73 7.606-2.73 3.047-1.08 4.461-2.11 7.527-2.82-1.441-1.97-8.41-3.24-10.953-4.26-3.617-1.44-7.57-2.78-11.035-4.17-3.774-1.51-6.942-2.82-10.664-4.54-4.543-2.1-7.098-2.22-5.676-8.32 4.203-2.02 12.641 1.63 19.707 3.41 3.668.92 6.781 1.49 10.551 2.22 2.597.51 8.078 1.67 11.109 1.67-2.304-4.8-3.586-13.91-12.504-20.96-13.535-10.69-10.508-6.6-19.593-10.21-1.579-.63-1.129-.71-2.579-1.68v-3.65l1.957-1.7c7.266-.13 12.047 1.36 17.11 3.92 5.469 2.77 8.519 5.18 13.183 8.72 7.032 5.36 15.082 18.64 15.813 27.39l17.121 1.12c11.738 1.32 25.527-.62 37.023-.52 11.321.11 23.473-1.83 34.657-2.45 13.062-.72 28.699-2.92 41.238-5.61 2.18-.46 5.477-1.45 8.059-1.67-.594-.81-17.7-13.85-22.602-19.99l-9.391-11.9c-.902-1.24-1.117-1.68-1.886-2.98-.789-1.32-1.563-2.22-2.086-3.46-1.391-3.31.539-5.39 4.328-5.47 2.621 1.75 6.207 5.88 8.668 8.36 2.883 2.91 5.871 5.28 9.234 7.8 3.567 2.67 6.379 4.53 10.192 6.84 7.461 4.53 15.671 7.91 24.144 10.53 6.731 2.09 7.348 2.33 13.899-.25 8.808-3.47 15.988-6.44 24.113-10.56l10.855-6.18c17.516-11.06 32.965-24.45 44.539-41.85 2.469-3.71 11.579-18.59 11.922-22.75-11.597 0-36.125 1.8-46.066.44-9.508-1.31-19.969-1.63-29.981-1.66-13.875-.06-25.695 5.02-38.394 9.05-18.324 5.82-86.703 19.64-106.379 19.56-10.52-.05-19.598-.77-29.106-1.96-29.601-3.68-53.164-6.85-77.378 11.67-11.446 8.76-21.329 21.39-29.563 33.71-10.598 15.85-19.426 33.12-28.863 49.61-9.555 16.69-20.133 32.78-29.383 49.71l-8.504 15.22c-1.059 2.14-1.863 3.16-2.851 5.05-15.258 29.32-29.567 60.61-32.274 94.28-.758 9.41.07 18.84 6.363 23.51 6.313 4.69 13.45 7.19 21.399 10.24 7.797 2.99 15.851 5.02 24.199 7.44 38.551 11.13 69.852 16.58 109.902 16.63 5.926.01 9.383-.63 15.207-.6 24.575.1 99.125-9.52 127.496-14.26 47.946-8.01 109.5-22.7 152.766-44.35l15.754-7.96c3.48-2.09 6.633-3.66 10.18-5.64l29.258-18.2c12.675-8.45 24.941-17.02 36.781-26.49 3.039-2.42 5.789-4.39 8.953-6.86 10.973-8.56 28.359-22.38 38.418-32.15l12.484-11.24c7.168-7.21 14.68-14.24 21.055-22.14.766-.95 1.226-1.32 1.996-2.27 20.715-25.58 34.813-51.86 40.59-85.94 4.48-26.43 3.844-59.43-23.996-66.49-9.031-2.28-20.164-.86-29.453-.96-5.43-.05-9.286.61-15.211.61l-78.477.61c-10.617 0-19.941.61-31.027.61-4.86 9.19-8.008 19.99-15.781 32.88-3.137 5.2-5.938 9.9-9.594 14.75-5.031 6.68-10.535 14.19-16.946 19.55l-9.527 8.73c-.715.62-.859.84-1.609 1.43-3.656 2.9-3.797 5.05-5.071 10.14-1.683 6.73-3.179 12.4-2.937 21.44.094 3.61 1.035 7.11 2.172 9.99 6.359 16.16 27.047 15.76 45.347 14.37 7.661-.59 7.528-.99 12.583-5.67 12.718-11.76 15.46-17.62 20.097-34.66 2.024-7.44 4.43-11.85 4.383-19.94-.074-13.39 3.082-22.6 9.832-32.76 3.305-4.98 7.094-2.55 7.809-.1-.063 2.8-.625 3.02-1.614 5.07-.757 1.57-1.429 3.37-1.953 4.75-.918 2.43-2.449 8.46-2.515 11.47 6.461-4.32 11.265-7.93 18.859-10.95 6.117-2.43 19.766-9.5 20.684-2.43.543 4.18-6.762 5.82-9.477 6.95-3.676 1.52-7.504 3.54-11.008 5.41-3.707 1.98-6.445 4.24-9.683 6.75-14.797 11.43-10.852 38.81-20.348 55.09-.926 1.58-2.508 3.58-3.02 5.5 10.668-.89 31.926-8.28 41.582-13.18 4.293-2.18 7.387-4.81 11.344-6.9 0-10.33 2.785-20.13 7.785-28.11 1.653-2.65 3.328-4.69 4.993-7.18h4.257c3.262 4.88 1.293 4.71-.875 10.08-1.445 3.58-2.773 7.74-2.773 12.43 2.41-1.61 3.379-3.71 5.629-5.93 2.961-2.91 11.015-15.41 14.89-15.12 1.907.14 2.957 1.1 3.231 2.87.613 3.97-6.461 11.79-8.664 15.02-3.207 4.7-6.742 9.61-10.399 13.93-.98 1.16-1.711 1.64-2.683 2.8-1.219 1.45-1.34 1.9-2.754 3.33-4.121 4.16-8.242 8-13.09 11.35-4.207 2.91.816 2.36 5.949 2.19 9.086-.28 16.098-3.03 22.762-7.05 1.824-1.1 2.047-1.37 3.637-2.46 3.843-2.66 5.277-1.14 7.043 2.19-1.114 4.78-9.942 10.16-14.395 12.37-11.332 5.64-26.902 8.42-39.512 5.03-7.593-2.04-10.82 1.87-20.238 5.18-2.047.73-3.738.72-4.945 2.36 3.367.9 8.418 5.68 11.043 7.82 8.629 7.05 17.058 14.78 23.992 23.46 2.316 2.9 2.687 2.09 2.687 7.05-1.722 1.15-3.343 2.61-5.851 1.03-1.309-.82-3.086-2.96-4.84-4.33-14.742-11.52-27.09-20.26-44.75-27.65-5.246-2.19-8.605.1-14.281 1.38-5.176 1.17-9.789 2.27-15.094 3.16-5.203.86-11.199.92-16.176 2.08v24.33c11.422 7.65 12.02 4.29 23.684 5.52 4.191.44 4.305 1.41 4.305 6.04-3.864 2.58-8.719 3.08-13.981 3.06-2.762-.02-5.668.21-8.387-.16-.515-.07-5.386-1.91-6.23-1.08-.379.8-3.453 21.57-3.613 23.77-.676 9.3-.676 16.36 1.414 24.67.816 3.24 3.332 7.88 1.121 10.09-7.856 7.86-14.055-21.73-14.129-25.07-1.777 1.2-2.93 3.43-4.445 5.29-7.688 9.45-16.68 16.19-27.59 21.69-2.043 1.03-4.637 2.25-6.821 2.97-5.722 1.87-9.414-4.12-1.714-7.86 7.07-3.42 13.367-7.94 19.105-13.13l6.438-7.56c7.234-9.71 11.644-20.31 13.582-32.66.863-5.53-1.465-20.36-2.375-25.75-.844-4.99-1.707-11-2.872-15.99-15.566-3.62-21.769-11.93-24.941-12.78-.621 2.66-2.062 5.78-3.242 8.32-9.75 21.03-21.754 40.94-35.082 59.82-7.098 10.07-7.617 11.02-9.711 26.19-3.344 24.19.582 29.33.582 44.38-2.125 1.84-2.645 1.72-5.477 1.82-1.343-2-1.328-.93-2.207-3.87-1.699-5.66-2.375-10.35-3.359-16.11-1.145-6.68-1.734-16.56-1.734-24.42zM331.371 1236l-5.859-15.44c-1.969-5.78-3.41-10.82-5.168-16.74-3.176-10.7-3.711-17.33-4.895-27.95-.578-5.2-1.402-4.55 1.324-8.62 8.942 0 3.825 2.33 9.961 21.07 1.188 3.62 5.864 19.9 8.895 22.13l5.359-18.37c1.871-7.52 3.098-18.67 3.735-26.69.152-1.88-.164-4.25.062-6.02.531-4.18 5.012-4.8 6.77-1.97 1.91 3.06 1.101 17.84 1.125 23.25.027 6.9-1.465 15.44-2.7 21.63-1.582 7.93-6.691 23.72-6.691 23.74-.476 3.06 13.219 22.62 15.809 26.05 14.32 18.99 28.965 34.54 49.644 47.08 2.028 1.23 5.692 3.28 8.067 4.1l28.406 8.1c9.609 3.21 25.48 9.25 34.598 14.07 0-8.87-1.231-12.83-2.918-19.59-1.563-6.24-3.184-11.86-4.911-17.6-1.816-6.02-1.449-4.86-7.375-9.05-7.629-5.38-7.808-4.85-14.347-8.77l-36.543-14.56c-5.981-1.78-11.856-3.19-17.852-4.65-7.156-1.75-17.48-1.62-15.824-7.3 1.359-4.66 10.281-2.45 14.621-2.45 5.875 0 11.285 1.24 17.621 1.24l-6.336-9.49c-5.73-8.75-12.523-25.07-12.523-35.53.887-.6 5.957-6.11 8.058 2.28 1.153 4.6 2.274 7.68 4.082 11.74 3.329 7.47 7.223 13.45 12.329 19.3 3.863 4.43 6.918 7.59 11.851 11.27 8.434 6.28 10.848 5.66 22.692 8.94 2.203.61 3.894 1.32 6.082 1.83-.997-1.88-1.559-3.49-2.442-5.47-.789-1.78-1.66-3.35-2.629-5.28-1.859-3.72-3.504-6.99-5.265-10.55l-8.555-15.17c-.652-1.01-.82-1.05-1.531-2.12l-24.535-35.08c-2.235-2.67-1.887-1.35-1.887-6.02 5.191-3.48 5.074-1.93 12.015 5.01 1.86 1.86 3.364 3.27 5.184 5.16 2.188 2.27 2.594 3.82 5.309 5.64 0-14.04 1.488-27.22 4.968-40.05.852-3.14.828-2.12 2.332-4.36 2.871 0 2.723.11 4.871.61 1.434 6.17-3.39 25.11-.187 43.99 4.125 24.34 3.02 16.89 14.305 33.75l13.898 22c4.07 6.8 19.633 35.25 20.043 40.18 3.57-.95 6.551-8.49 24.941-12.77 3.161-13.56 6.973-36.27 3.786-49.42-3.59-14.8-13.368-29.37-25.418-38.46l-8.52-5.47c-2.234-1.33-2.699-1.26-4.961-2.34-5.707-2.74-6.289-16.06 19.543 1.15 6.293 4.18 10.254 7.58 15.426 13.16l4.898 6.09c1.559 2.42.813.84.727 2.28 1.937-1.53 1.398-2.4 2.422-6.7 1.594-6.72 4.265-14 7.914-19.45h4.258c1.488 2.21 2.234 2.84 1.191 6-4.82 14.59-3.871 23.13-1.766 38.37.29 2.09 1.918 14.24 2.399 15.24.5.5 1.785-.07 2.641-.31 3.964-1.11 7.902-1.58 11.507-1.09 7.879 1.08 8.953-.45 14.45 3.23 0 2.86-.11 2.72-.61 4.86-6.894 1.61-26.933-.44-27.426 9.08-.113 2.22.047 5.06.047 7.35.004 4.87 0 9.73 0 14.6 2.235 0 5.106.44 7.813.71l29.375 5.91c5.988 1.83 5.207 1.44 12.906-2.16 2.406-1.12 3.969-1.58 6.285-2.83 14.449-7.84 24.184-14.36 36.512-24.94 2.336-2 2.043-2.85 6.273-2.85 3.227 3.72 1.961 5.2-.679 8.44l-6.797 7.81c-4.192 5.01-17.106 15.87-22.942 20.26-1.429 1.07-4.574 3.02-5.476 4.25 5.933 1.38 16.879 6.76 19.289 7.53 2.941.94 10.91-3.4 24.43-1.97 6.605.7 16.054 3.33 20.75 6.02 4.347 2.49 13.425 7.62 14.621 12.76-2.395 4.52-4.086 4.06-8.039 1.34-11.079-7.61-18.582-8.65-33.329-8.65 1.032 1.55 12.399 9.96 17.461 16l14.778 19.29c5.578 7.86 8 9.6 6.695 15.21-6.351 1.48-5.609-.31-12.355-8.33-2.028-2.41-8.743-10.4-10.762-11.75 0 12.69 9.848 20.35 2.785 22.34-7.742 2.17-16.172-22.99-16.172-35.11-3.09-1.64-5.621-4.06-11.351-6.9-9.981-4.94-31.735-12.96-41.575-13.18.594 2.22 2.059 3.5 3.055 5.47l2.606 5.91c4.988 12.28 5.05 29.3 10.793 40.3 1.917 3.68 4.726 6.44 7.714 9.32 5.887 5.69 14.262 8.95 21.664 12.41 4.739 2.21 9.539 2.36 6.489 8.72-7.524 1.75-23.293-6.43-30.004-10.15-3.125-1.74-5.52-3.79-8.324-5.67.148 6.7 3.293 12.74 5.535 18.26 1.082 2.67-.004 3.56-1.278 5.47h-4.257c-16.903-25.25-7.782-29.84-13.461-46.77-1.028-3.05-1.719-5.88-2.75-9.41-4.614-15.82-5.676-19.55-17.094-30.97-7.508-7.5-5.516-7.27-15.617-8.72-14.504-2.08-34.149.98-40.657 7.51-12.511 12.54-3.597 44.52-.23 47.37 10.141 8.61 10.207 8.52 18.773 17.73l16.043 20.46c5.024 7.54 8.887 15.54 12.805 23.69 1.426 2.97 2.566 5.41 3.844 8.33 1.191 2.71 2.336 5.98 3.668 8.5l108.883 1.23 7.937-.03c3.531-.01 4.457.47 7.281.63 17.618.94 38.067 2 48.438-13.62 9.035-13.61 8.418-34.34 5.683-53.89-5.687-40.69-27.457-74.05-55.488-102.07-2.781-2.79-5.125-5.13-7.906-7.92-1.457-1.45-2.461-2.54-3.945-3.96l-38.403-32.78c-23.304-18.98-47.625-37.04-73.433-52.49-28.856-17.28-54.625-28.71-87.032-39.51-38.851-12.95-85.671-23.06-128.765-28.8l-63.809-7.37c-15.488-1.65-54.707-4.78-67.168-2.89-2.707.41-4.644.36-7.57.34-3.527-.02-4.481.48-7.293.62-33.371 1.59-83.863 13.98-115.328 27.02-15.727 6.52-15.375 11.61-16.864 22.71-1.183 8.8 2.715 26.03 4.563 33.5 3.059 12.38 7.488 23.63 12.305 35.14 1.636 3.9 3.039 7.19 4.808 11.01 16.262 35.09 37.778 67.74 57.016 101.16 9.496 16.49 18.285 33.6 29.691 48.79 6.782 9.02 13.852 17.7 22.938 24.51 34.605 25.94 62.957 10.24 106.734 10.08 14.797-.06 39.504 5.07 55.012 7.64 17.898 2.97 34.078 7.06 51.449 11.82 12.848 3.52 24.129 9.22 38.317 9.14 10.601-.07 19.582-1.29 29.816-1.84 15.738-.85 31.078.61 46.848.61-8.961-16.93-13.5-27.19-27.832-41.52-3.09-3.09-5.364-5.54-8.758-8.28-17.77-14.34-34.344-23.81-55.789-31.81-6.207-2.32-6.578-2.16-13.227-.27-16.719 4.75-32.183 13.72-44.203 25.76-2.484 2.49-6.062 7.24-9.582 8.06-1.984-1.05-2.992-1.18-3.652-3.65-.504-5.64 21.535-28.24 25.64-31.55 1.914-1.55 3.414-2.86 5.387-4.34 1.434-1.08 4.578-3.03 5.477-4.26-14.446-3.37-32.934-6.62-48.672-7.3-11.489-.49-22.653-2.28-34.7-2.41-3.507-.04-4.582-.66-8.48-.65h-28.617c-5.621-.02-12.215 1.23-17.629 1.23-1.449 17.38-24.117 40.15-46.238 40.15-1.84-2.12-1.719-2.64-1.825-5.47 3.579-2.39 7.508-2.85 11.571-4.86 4.09-2.02 7.039-3.66 10.183-6.85 2.977-3.01 5.535-5.43 7.813-9.22 1.133-1.88 1.91-3.61 2.89-5.62 1.149-2.35 1.309-4.4 2.219-6.3-13.793 0-30.644 7.91-40.152 7.91-1.84-2.13-1.719-2.64-1.824-5.48 6.687-4.47 32.679-15.24 39.543-15.82l-1.575-.85c-.48-.24-1.242-.58-1.664-.78a82.887 82.887 0 0 0-3.879-1.59c-16.488-6.4-34.761-10.84-52.855-7.47-3.57.66-4.574 1.57-8.77 1.57-2.589-2.99-2.886-5.89.993-7.53 2.195-.92 4.918-1.57 7.031-2.09 5.187-1.28 9.918-1.37 15.445-2.2 16.93-2.53 43.695 7.11 58.59 12.5 6.309 2.28 6.125 3.04 13.301 1.6 4.605-.93 10.574-1.77 15.363-2.89-2.164-1.88-19.059-10.45-22.254-12.42-7.41-4.57-13.758-8.97-20.594-14.09-3.57-2.67-6.078-4.97-9.386-7.64-2.02-1.63-2.633-2.3-4.492-4.03-1.817-1.69-2.985-2.34-4.875-4.25-4.54-4.59-14.278-13-17.489-17.8-6.187 1.44-11.054 3.81-18.265 3.69-6.364-.11-13.668-2.06-18.59-3.94-5.453-2.09-9.91-4.43-14.598-7.3-2.379-1.46-4.336-2.81-6.519-4.43-2.426-1.81-4.543-3.04-5.297-6.27 3.453-6.52 6.258-2.31 10.758.19 8.718 4.84 16.203 8.15 26.769 9.74 3.363.5 8.129.46 12.082-.47 1.988-.47 1.832-.77 3.93-.94-.793-2.97-5.457-7.12-7.492-9.54-10.641-12.67-20.684-25.72-29.864-39.49-2.418-3.63-16.437-23.83-16.09-26.91.325-2.8 2.594-3.15 5.989-3.15 2.59 3.87 5.336 7.35 8.254 11.22l20.429 24.58c8.325 10.4 37.258 39.36 48.582 46.94-1.945-8.35-4.73-16.85-6.168-25.47l-2.882-20.84c-.344-4.2.187-3.18-2.34-5.57-13.379-12.71-22-40.74-14.16-43.03 5.437-1.58 5.472 8.97 8.519 15.82 1.219 2.75 2.875 4.97 4.606 7.58 3.878 5.84 3.183.98 3.285-3.94.207-10.03 4.121-32.65 9.14-40.14 9.594 0 4.563 8.41 3.145 18.36-2.797 19.68-1.535 43.05 3.301 62.19.84 3.33 2.422 8.23 2.679 11.31h1.219c1.418-6.1 11.063-19.68 9.082-41.34-.305-3.36-1.328-5.91 1.922-7.31 7.375-3.18 6.477 13.52 6.688 17.61.531 10.32-1.344 20.92-4.532 30.22-7.082 20.66-11.359 10.61-3.863 28.02 1.852 4.31 6.672 16.8 11 19.42l6.676 3.67c2.476 1.26 3.695 2.17 6.277 3.46 16.82 8.32 33.215 14.83 51.785 20 7.137 1.98 16.969 5.32 24.61 6.41l9.593.75c-3.539-5.28-8.964-11-12.781-16.42-4.211-5.96-7.765-11.65-11.676-18.13-2.476-4.1-1.847-6.52-7.168-7.43-9.324-1.59-19.554-13.2-25.097-19.92-4.043-4.9-14.442-22.12-14.465-29.38-.016-4.82 5.437-6.1 7.601-.87 1.84 4.45 2.59 5.95 4.758 9.84 4.418 7.92 10.219 14.26 17.035 20.08 1.563 1.33 2.95 2.31 4.68 3.23zm408.211 304.79c14.926 0 12.168-1.97 12.168-30.42 0-8.03-8.766-6.7-13.383-6.7-3.277 0-6.086 2.78-6.086 6.09v24.94c0 3.81 3.375 6.09 7.301 6.09zm38.934 0c14.929 0 12.168-1.97 12.168-30.42 0-9.44-15.102-7.11-17.399-5.24-.719.58-2.066 2.4-2.066 3.41v26.16c0 3.81 3.371 6.09 7.297 6.09zm37.718 0c15.801 0 13.387-.26 13.387-30.42 0-1.72-1.078-3.78-1.953-4.74-2.383-2.65-6.984-1.96-11.434-1.96-9.066 0-6.691 16.07-6.691 27.38 0 4.83 2.062 9.74 6.691 9.74zm37.114 0c4.257.88 10.789.13 12.918-1.7 3.613-3.1 2.347-20.84 2.316-26.32-.078-14.61-16.773-8.31-17.809-7.41-3.511 3.04-2.433 21-2.32 26.32.141 6.48 1.867 6.64 4.438 8.7zm40.757 0c15.684 0 13.383-.97 13.383-29.21 0-9.25-7.527-7.91-13.383-7.91-4.257 0-6.691 3.51-6.691 7.91 0 6.24-1.062 22.87 1.563 26.43 1.031 1.4 2.972 2.78 5.128 2.78" transform="matrix(.13333 0 0 -.13333 0 420.787)"/><g><text style="font-variant:normal;font-weight:400;font-size:9.96263981px;font-family:CMR10;-inkscape-font-specification:CMR10;writing-mode:lr-tb;fill:#000;fill-opacity:1;fill-rule:nonzero;stroke:none" transform="matrix(1.33333 0 0 1.33333 44.308 151.76)"><tspan y="0" x="0 6.6000009 11.64 15.48 18.239653 22.679653 27.95981">Patient</tspan></text></g></svg>