<svg xmlns="http://www.w3.org/2000/svg" viewBox="0 0 671.91784 524.23721" overflow="visible"><path d="M180.334 390.395c18 17.176 35.798 39.119 73.65 44.267 36.765 6.538 52.452 6.991 85.343 14.508 21.33 4.874 80.89 18.455 107.747 5.31 22.637-11.081 26.618-45.931 23.283-54.545.873-25.312-9.45-126.563-67.163-166l-76.704-45.793-122.115 45.412-29.002 128.984z" fill="#dbdee3" stroke="#1d3747"/><path d="M355.878 212.556l-15.282 16.027c26.553 34.275 28.814 73.66 32.847 103.81 22.827-27.977 20.069-55.53 7.63-90.055 55.715 41.468 49.779 72.879 56.461 119.061 5.345 27.986 28.794 68.375-4.562 77.094-78.805 10.672-110.837-19.72-209.125-38.937-23.326-3.198-28.806-47.427-35.875-68.688l-6.594 4.938-6 26.718 4.969 27.875c17.999 17.176 35.772 39.102 73.625 44.25 36.765 6.539 52.452 7.015 85.344 14.532 21.329 4.874 80.892 18.458 107.75 5.312 22.636-11.08 26.616-45.949 23.281-54.562.873-25.312-9.443-126.564-67.156-166l-31.032-18.532z" fill-opacity=".078"/><path d="M358.164 340.786c33.195 16.152 3.133-100.105-21.37-110.667-38.362-8.454-45.442 23.837-49.61 48.846-4.446 41.538 34.938 43.42 70.98 61.82z" fill="#fff" fill-opacity=".392"/><path d="M344.426 206.078c-.775-6.941 4.265-15.465 24.805-9.54 6.748 1.914 24.349 11.915 37.152 24.844 4.279 4.321 8.176 8.751 10.358 14.461-.339 4.025 6.677 13.815-11.067 4.198-8.332-2.48-19.518-8.64-24.995-7.441-5.113 1.057-10.22-1.2-15.074-3.816-2.508-1.435-3.554-5.287-7.06-5.725-8.673-.04-10.27-7.156-14.31-11.83z" fill="#dbdee3" stroke="#1d3747"/><path d="M347.485 225.845l-1.526-1.908c4.66-12.304 1.239-23.346 2.605-28.583 1.931-4.567 10.33-5.135 24.463-3.601 6.644.737 13.88-12.46 14.702-24.994.69-10.519-7.154-27.64-20.006-25.913-30.852-.368-61.703 7.564-92.555 17.27l-2.968 52.618" fill="#dbdee3"/><path d="M356.566 194.556c-10.047.223-12.706 6.325-12.125 11.53l-.219 5.157c4.04 4.673 5.64 11.773 14.312 11.813.359.044.69.14 1 .25-4.676-5.088-7.017-9.921-9.093-14.72-1.447-10.231 4.84-8.554 8.906-9.187 6.35-.304 12.112 3.43 18.094 5.407 3.52 2.13 3.63.603.312-4.532-3.522-1.868-6.521-3.18-8.531-3.75-5.135-1.48-9.308-2.043-12.656-1.968z" fill-opacity=".078"/><path d="M345.959 223.937c4.66-12.304 1.239-23.346 2.605-28.583 1.931-4.567 10.33-5.135 24.463-3.601 6.644.737 13.88-12.46 14.702-24.994.69-10.519-7.154-27.64-20.006-25.913-30.852-.368-61.703 7.564-92.555 17.27l-2.968 52.618M165.344 243.115c10.524-70.81 5.22-118.57 15.65-128.443 20.127-16.786 46.936-24.64 44.254 12.412l4.318 113.333c-15.995-1.884-51.087 7.952-64.222 2.698z" fill="#dbdee3" stroke="#1d3747"/><path d="M291.628 221.258c1.614.638.557-4.074.834-6.108 2.51-18.37 4.976-36.144 6.597-42.51 1.323-6.822-1.996-7.2-5.327-4.058-2.627 2.478-5.533 6.917-8.114 10.49-1.583 2.193-2.09 1.77-3.29 2.659-3.132 11.84-4.953 18.436-7.43 27.654l2.429 22.667c3.185-3.994 3.536-8.696 14.301-10.794z" fill-opacity=".078"/><path d="M279.972 177.931c2.097-6.352-.258-17.897 7.25-17.935 28.95-10.386 51.789-10.586 74.796-11.067 8.69 9.645-19.155 11.731-38.16 15.646-17.186 1.391-27.342 27.531-26.713 19.08.117-6.683 6.85-21.186-3.053-16.027-6.52 9.6-12.605 17.72-14.12 10.303z" fill="#fff" fill-opacity=".392"/><path d="M208.518 226.925c-8.882-25.09-9.975-27.402-11.333-58.285 2.153 26.835 10.848 32.95 15.65 45.872l5.937 3.778c-6.234-22.889-8.108-38.902.54-59.904l4.857 40.475 15.65 32.92-28.602 6.477-2.16-9.175z" fill-opacity=".078"/><path d="M281.375 230.163c7.338-28.571-15.331-90.785 19.192-93.818.35-.03 1.764-.04 1.7.965-.457 7.129 15.69 7.127 30.841.924 11.652-4.77 24.038-13.209 19.734-24.892-7.433-17.785-16.916-26.18-27.214-35.368-18.032-3.92-9.745-22.014-10.794-35.08 1.428-6.464-5.345-12.284-19.428-7.015-2.048-8.556-8.926-11.592-21.047-8.635-6.897-1.401-2.879 22.667-4.318 34-2.014-6.536-5.24-11.244-8.195-17.624-1.66-3.584-11.11-2.395-16.359.124-4.18 2.005-16.248 6.583-7.05 19.533 6.795 15.936 10.712 26.042 4.62 29.808-13.843 8.972-25.416 42.408-27.995 76.642-1.281 17.005.992 40.658 11.805 58.277" fill="#dbdee3"/><path d="M182.074 225.845c-4.014-13.952-3.043-34.884-3.778-53.428-5.937 23.323-6.872 50.907-12.682 60.984l4.047 10.254z" fill-opacity=".078"/><path d="M183.387 218.67c4.365-23.566 9.035-45.451 11.448-79.755 2.756 24.762 4.237 50.161 4.961 75.94-5.364.412-11.046 5.157-16.41 3.816z" fill="#fff" fill-opacity=".392"/><path d="M242.921 57.88c-.288.13-7.339-2.694-7.423-1.18-.195 3.484 6.995 13.545 7.724 18.387 3.383 9.192 4.258 15.271-.156 18-13.844 8.972-25.421 42.391-28 76.625-1.281 17.005 1 40.662 11.812 58.281l18.094.719 1.312-.156-3.78-8.094c-4.736-16.304-14.77-35.722-15.657-58.438-.467-12.345 2.678-15.627 6.125-28.156 2.754-10.01 6.91-20.323 12.781-31.344 3.298-8.545 6.85-9.002 6.469-13.5-1.077-6.926-.725-13.824-5.125-20.75-1.977-2.664-1.751-3.627-2.226-5.502-.545-2.155-1.649-5.026-1.95-4.891z" fill-opacity=".078"/><path d="M195.598 340.023c-1.365 20.636-18.914 34.079-3.434 62.202-10.115.037-18.753-3.617-24.805-13.738-9.736-13.356-11.11-26.713-15.264-40.069-.299-18.943-1.788-30.742-3.053-43.885.576-16.237 4.073-22.25 6.487-32.055 2.198-17.565 4.717-34.056 9.922-41.596 5.85-11.325 12.61-19.01 19.462-26.33 5.49-1.493 8.776-6.84 17.936-1.909 4.73 2.498 4.318 9.905 9.75 10.937 4.857.921 5.646 8.845 11.62 13.105 15.976-4.786 34.298-13.424 36.635 4.197 1.931 6.75-.43 12.069-4.58 16.791-1.993 4.813-.126 9.143-9.54 14.883-6.268 4.96-3.11 14.501-15.646 21.752-3.971 4.108-15.878 13.254-17.172 20.988-6.106 15.58-12.212 31.975-18.318 34.727z" fill="#dbdee3" stroke="#1d3747"/><path d="M248.69 220.306c4.066 4.045 9.164 7.59 7.063 14.718-12.399 27.13-28.603 42.733-44.375 62.532-9.228 11.583-13.723 34.068-23.906 40.53-8.052 8.38-5.782 20.208-8.094 30.5-4.472-8.628-8.916-13.464-11.2-24.324-2.89-13.736-10.019-22.695-14.644-34.8 4.477 19.424 3.515 22.117 5.372 36.156 1.375 10.396 13.379 22.064 19.128 28.625.488 5.815-.789 10.598 2.97 18.375-11.928-5.435-19.576-29.98-27-45.062l-1.595 1.968c3.901 12.993 5.466 25.976 14.938 38.969 6.051 10.121 14.698 13.756 24.812 13.719-15.48-28.123 2.073-41.552 3.438-62.188 6.106-2.752 12.207-19.139 18.312-34.718 1.294-7.735 13.217-16.892 17.188-21 12.536-7.251 9.356-16.79 15.625-21.75 9.414-5.74 7.57-10.063 9.562-14.875 4.15-4.723 6.495-10.063 4.563-16.813-1.108-8.356-5.814-10.805-12.156-10.562z" fill-opacity=".078"/><path d="M207.428 280.873c-5.295 26.84-12.534 38.002-25.95 55.715 2.211-27.589-13.03-52.252-24.422-58.004 9.342-20.039.595-39.739 19.844-56.479-21.189 46.765 3.484 58.024 10.685 82.81.43 14.955 13.033-15.3 19.843-24.042z" fill-opacity=".078"/><path d="M163.543 363.3c3.05 3.818 3.577 8.644 9.159 11.449 3.591 10.253 1.889 8.955 0 7.25-3.783-3.313-6.337-11.543-9.159-18.698zM164.688 290.795c3.204 5.148 5.007 12.655 6.833 22.11 1.328 6.87 3.177 14.134 3.108 25.368-2.083-4.9-4.618-7.32-5.354-19.632-.896-16.247-3.042-18.736-4.587-27.846zM184.532 224.777c-3.69 7.826-7.378 14.062-11.067 25.186-4.147 10.303 2.221 20.607 3.816 30.91.572-3.467.413-9.494 2.29-8.395 4.486-1.938 3.311 11.69 4.96 17.554 2.129-3.828 2.128-7.735 1.909-12.975-2.781-15.466-2.633-22.144-3.435-31.673-.67-8.048.92-13.837 1.527-20.607zM228.417 239.278c-18.524 16.013-19.648 19.198-21.752 24.423-4.844 10.105-14.573 46.028-14.501 30.147-2.338-11.085-1.508-12.665-1.908-17.936 1.549-10.865 4.298-10.925 6.487-16.027-.966 4.484-3.719 9.735 0 12.211 1.654-10.797 3.308-14.12 4.961-15.646 7.99-11.89 14.805-17.315 21.37-21.37-1.272 2.285-2.544.296-3.816 6.869-3.64 7.019 5.77-1.383 9.159-2.671z" fill="#fff" fill-opacity=".392"/><path d="M195.296 340.257c-3.682 8.548-11.35 10.784-12.143 18.619" fill="none" stroke="#1d3747"/><path d="M248.184 55.847l-5.127 1.35c3.137 8.346 5.544 15.6 9.984 25.904 2.545 6.499 1.676-7.369 1.59-9.992-.177-5.419-2.767-8.913-6.447-17.262z" fill="#fff" fill-opacity=".392"/><path d="M235.477 55.724c2.629 3.312 14.584.194 18.604-2.326 3.646-2.287 9.378-5.651 8.108-9.123" fill="none" stroke="#1d3747"/><path d="M241.391 49.236c8.091-6.146 20.264-7.81 16.6-1.717-8.726 6.135-25.66 10.683-16.6 1.717zM301.495 136.434c3.289-.804 5.615-.404 6.869 1.336M348.624 195.393c.666-8.92.408-17.377-4.961-23.278" fill="none" stroke="#1d3747"/><path d="M405.16 224.118c-.453-.017-.798.105-1 .375 8.298 12.3 7.78 13.082-3.532 8.906-5.232-2.566-9.466-4.899-13.469-5.125-5.6-.094-6.372 2.233-7.312 4.469.278-.038.566-.099.844-.156 5.477-1.2 16.637 4.988 24.968 7.469 17.745 9.617 10.756-.194 11.094-4.22-1.235-3.233-3.03-6.061-5.125-8.687-.013-.008-.019-.023-.03-.031-2.742-1.715-5.087-2.95-6.438-3zM385.16 176.868c-.236-.038-.543.513-.97 1.938-1.965 6.561-9.107 7.51-11 7.187-9.329-1.592-13.488-1.145-24.893 4.348-2.284 1.1 3.345-.077.38 1.453l-.274 1.2-.15 4.53c.048-.801.146-1.518.313-2.156 1.93-4.566 10.336-5.16 24.468-3.625 4.705.522 9.69-5.95 12.5-14.219-.102-.386-.235-.634-.375-.656z" fill-opacity=".078"/><path d="M408.333 231.107c-.776-1.684-4.354-7.643-6.165-8.59-1.363-.714-1.582 4.714-3.035 3.915-8.522-4.681-17.728-10.013-17.648-6.523 0 3.149-2.922 7.757 0 9.444 4.339-1.79 5.768-1.107 9.04-.405 6.116 1.44 23.695 12.775 17.808 2.16z" fill="#fff" fill-opacity=".392"/><path d="M303.94 120.774c-17.241-.026-31.685 24.236-30.693 49.763.39 10.037 5.457 98.882 9.1 29.3-1.912-28.79-6.513-61.328 18.219-63.5.35-.031 1.751-.037 1.687.969-.376 5.87 10.528 6.907 22.844 3.625-.73-17.837-14.153-19.744-20-20.125-.39-.026-.768-.031-1.156-.032z" fill-opacity=".078"/><path d="M243.057 192.925c3.588 17.296-7.641 6.335-11.305-1.819-3.681-14.361-8.306-31.942-2.943-47.027 4.92-15.699 11.486-32.353 20.33-41.713 6.056-6.412 15.847-6.856 25.95-9.744l4.127-2.236c5.448-1.77-15.185 8.562-27.52 25.515-10.053 13.814-11.875 33.113-11.814 44.948-.789 7.274-2.786 14.984.342 22.001l2.833 10.075zM279.755 26.974c-5.645 4.737-4.68 28.364-5.666 46.413L272.2 67.45l-2.429-5.127V41.546l1.62-11.603 4.047-3.239z" fill="#fff" fill-opacity=".392"/><path d="M281.375 230.163c7.338-28.571-15.331-90.785 19.192-93.818.35-.03 1.764-.04 1.7.965-.457 7.129 15.69 7.127 30.841.924 11.652-4.77 24.038-13.209 19.734-24.892-7.433-17.785-16.916-26.18-27.214-35.368-18.032-3.92-9.745-22.014-10.794-35.08 1.428-6.464-5.345-12.284-19.428-7.015-2.048-8.556-8.926-11.592-21.047-8.635-6.897-1.401-2.879 22.667-4.318 34-2.014-6.536-5.24-11.244-8.195-17.624-1.66-3.584-11.11-2.395-16.359.124-4.18 2.005-16.248 6.583-7.05 19.533 6.795 15.936 10.712 26.042 4.62 29.808-13.843 8.972-25.416 42.408-27.995 76.642-1.281 17.005-1.68 39.704 9.134 57.323" fill="none" stroke="#1d3747"/><path d="M294.327 71.498l-1.08-5.127-.54-19.024 1.62-9.849 7.285-3.238c-4.355 11.95-3.336 23.005-2.428 35.349-.917 4.118-1.297 3.414-4.857 1.889z" fill="#fff" fill-opacity=".392"/><path d="M295.85 35.564c-4.855 7.738-2.56 27.983-2.56 36.569" fill="none" stroke="#1d3747"/><path d="M258.708 50.18c1.446-.172 2.891-1.497 4.337-4.718 1.947 3.337 2.54 6.588 4.293 9.777 6.008 10.924 9.407 23.402 5.17 33.785zM292.708 72.577l.13-25.335 2.586-10.793c.672-3.858-3.553-6.64-5.685-8.395l-2.698 49.65c1.89-2.377 3.778-5.473 5.667-5.127zM314.565 69.07c-2.609-10.525 2.338-35.35-1.62-32.921l-3.507 36.698c.178 5.016 5.091 4.114 7.825 5.936l7.825-.54c-5.28-1.728-9.532-4.228-10.523-9.174z" fill-opacity=".078"/><path d="M270.012 60.494c6.847 18.374 6.623 29.886-3.816 31.483" fill="none" stroke="#1d3747"/><g font-weight="400" color="#000" fill="#ff4f0c" stroke="#d40000" stroke-width=".5" font-family="Sans"><path d="M304.41 344.72v8.71c-.25.254-.404.545-.563.844-.271.296-.626.602-.813.875-.3.441-.725.846-.468.688l-.25.156-.157.25c-.316.506-.427.967-.53 1.344-.105.377-.21.694-.188.656-.653.556-1.156 1.14-1.625 1.75l-.25.344v.437c0 3.911-.01 7.822.03 11.75-.545 1.17-.582 2.356-.655 3.188a4.81 4.81 0 0 0-.5 2.281c.032.858.127 1.589.062 2.031h.063a1.21 1.21 0 0 0-.407.219c-.36.311-.84.569-1.437.906a5.426 5.426 0 0 0-1.594 1.407l-.031-.032c-.093.09-.129.19-.219.281a24.327 24.327 0 0 0-2.5 3c-.262.145-.602.237-.781.407-.349.332-.606.67-.813.937-.134.175-.18.203-.25.281a1.287 1.287 0 0 0-1.187.938c-.09.359-.245.504-.781.844-.38.24-.954.714-1.469 1.187-.735.202-2.103.332-3.531.5-1.309.154-2.683.4-3.844 1.125-1.551.269-2.917.914-4.094 1.594-1.197.401-2.942.595-4.656.844-1.538.223-3.027.53-4.344 1.218-2.459.003-4.96-.003-7.437 0h-.094c-2.853-.175-5.465.19-8.063 1.125-3.702.299-7.243.9-10.812 1.844-.062.017-.126.015-.188.032v.03c-3.443.466-5.211 1.879-7.968 2.376-.292.05-.563.209-.75.437-.25.3-1.29.792-2.532 1.188-1.188.379-2.499.713-3.593 1.5-.025.014-.037.048-.063.062-.026.02-.067.011-.094.032-1.848 1.062-3.672 2.857-5.188 3.656-.01.003-.025-.003-.03 0-1.715.858-3.312 1.623-5.47 2.344-1.058-.1-2.083-.065-2.937-.032-1 .04-1.703-.032-2.157-.343a1.26 1.26 0 0 0-.78-.22c-2.331.11-5.106-.41-7.938.626-.614.229-.98.98-.75 1.594.229.613 1.011.979 1.625.75 1.97-.72 4.343-.374 6.968-.47 1.047.509 2.149.602 3.125.563 1.15-.045 2.211-.126 2.938 0 .199.028.405.006.594-.062 2.382-.787 4.164-1.643 5.937-2.531 2.134-1.116 4.123-3.057 5.438-3.782.055-.037.107-.079.156-.125.446-.345 1.673-.774 2.969-1.187 1.122-.358 2.307-.773 3.25-1.625 3.187-.647 4.884-1.97 7.75-2.313a1.28 1.28 0 0 0 .156-.062c3.483-.934 6.902-1.489 10.531-1.781.119-.015.235-.047.344-.094 2.41-.918 4.74-1.21 7.469-1.031h.063c2.564-.003 5.161.004 7.719 0 .23 0 .46-.066.656-.188.731-.463 2.223-.822 3.875-1.062 1.652-.24 3.46-.401 5.062-.938.088-.032.172-.074.25-.125 1.111-.661 2.338-1.211 3.594-1.406.215-.03.422-.117.594-.25.45-.352 1.646-.685 3-.844 1.354-.159 2.783-.192 4.031-.562.278-.08.525-.261.688-.5.206-.3.645-.546 1.312-.97.248-.157.494-.385.75-.655 1.727.769 3.575 2.112 5.125 2.937.057.043.1.053.156.094 1.383 1.014 2.49 1.55 3.907 2.219.027.012.035.05.062.062 1.316 1.278 2.68 2.292 3.312 3.625.172.873.654 1.633 1.25 2.188a6.493 6.493 0 0 0 2.469 1.437c1.17.36 2.344 1.203 3.781 1.781.41.417.853.673 1.156.813.427.197.567.32.563.312l.094.22.187.124c.1.086.102.203.188.781.068.461.35 1.227.906 1.844h-.03c.417.783.86 1.28 1.155 1.656.275.349.447.616.594 1.094.012.038.02.053.031.094.12.603.228 1.183.438 1.781a3.513 3.513 0 0 0 1.187 1.625l-.03.063c.03.025.093.036.124.062.027.022.066.04.094.063v1.937l2.188 2.375 2.187 1.438 1.25 2.656.75 1.531 1.719 1.531-1.625-3.062-1.031-2.75-2.313-2.188-1.125-1.343-.375-1.094c.564.229 1.232.359 1.969.187 1.418-.188 2.536.28 3.844.969l.125.063.156.03c2.026.492 4.036 1.467 6.562 1.907h.063l.062.031c.52.044.532.108.594.188.062.08.146.333.25.781.104.448.204 1.074.625 1.719.342.522.992.921 1.719 1.156.552.58 1.209.906 1.75 1.125.663.269 1.204.522 1.312.625l.125.125.157.063c1.806.918 3.38 2.057 5.75 3.062.586.567.731.886 1 1.438.257.528.801 1.26 1.687 1.812.074.047.108.113.188.156a8.02 8.02 0 0 0 1.812 1.47v-.032c.433.36.806.626 1.063.812.295.214.557.441 1.125 1.032l.156.156.219.094c-.012-.006.012.004.187.28.119.189.397.533.781.813.145.241.29.554.563.938.208.291.636.545 1 .812.391.693 1.044 1.163 1.594 1.344.64.21 1.191.305 1.656.469h.094c3.315.706 4.645 0 8.812 2.312-.294-1.34-1.397-2.009-2.25-2.406-.852-.397-1.67-.715-1.718-.75l-.031.031c-1.34-1.094-2.758-1.213-4.063-1.562-.04-.015-.053-.018-.094-.031-.692-.232-1.325-.34-1.625-.438-.318-.105-.183.007-.219-.094l-.218-.625-.594-.187c.085.025-.116-.037-.313-.313-.196-.275-.373-.677-.625-1.062l-.28-.406-.282-.063c-.01-.008 0 .006-.063-.094-.131-.207-.53-.583-.938-.906l.063-.062c-.645-.672-1.094-1.041-1.468-1.313-.374-.271-.603-.407-1.032-.781l-.094-.063-.094-.062c-.807-.491-.995-.427-1.53-1.156l-.157-.22-.25-.155c-.61-.331-.582-.37-.813-.844-.23-.474-.616-1.362-1.562-2.25l-.156-.156-.25-.094c-2.35-.935-3.721-2.03-5.875-3.125l-.031.062a7.83 7.83 0 0 0-1.782-1c-.595-.241-.944-.493-.968-.53l-.282-.47-.562-.062c-.44-.07-.424-.134-.5-.25-.076-.116-.171-.43-.281-.906-.11-.476-.227-1.118-.719-1.75-.47-.605-1.31-1.015-2.25-1.125v-.032c-2.106-.366-4.047-1.303-6.406-1.875-1.398-.711-3.027-1.36-5.032-1.093l-.125.03-.125.032c.02-.006-.207.006-.562-.156a5.08 5.08 0 0 1-1.063-.688l-.062-.062-.063-.031c-.132-.088-.195-.166-.312-.5-.118-.335-.207-.888-.344-1.563l-.03-.062v-.032c-.257-.912-.69-1.556-1.063-2.03-.374-.476-.667-.804-.938-1.313l-.156-.282-.281-.187c-.106-.067-.078-.006-.157-.531-.066-.446-.23-1.246-.78-1.938l.03-.031c-.057-.107-.153-.128-.219-.219-.023-.033-.038-.063-.062-.094-.463-.582-1.033-.89-1.406-1.062-.335-.155-.462-.27-.469-.25l-.187-.375-.469-.188c-1.05-.39-2.345-1.36-4.125-1.906-.522-.164-1.126-.529-1.531-.906-.406-.378-.56-.742-.563-.906v-.25l-.125-.25c-.997-2.105-2.75-3.306-3.875-4.407l-.156-.156-.187-.094c-1.656-.77-2.504-1.189-3.97-2.28l-.093-.063-.094-.063c-1.12-.578-2.502-1.777-4.438-2.656.043-.056.115-.103.156-.156.215-.279.394-.525.532-.657.057-.054.045-.081.062-.093.36-.035.7-.235.906-.532.718-1.015 1.538-2.105 2.531-3.062a1.27 1.27 0 0 0 .22-.25c.165-.277.416-.474.905-.75.4-.226.98-.565 1.532-.969 2.6-.298 6.003-1.073 8.312-2.094.102-.049.197-.112.281-.187a92.58 92.58 0 0 0 3.282-2.719 1.25 1.25 0 0 0 .218-.281c.388-.603.518-.698.844-.969.295-.244.863-.69 1.563-1.375.91-.483 2.209-.983 3.156-1.562.513-.272.77-.947.594-1.5-1.598.475-2.507.569-4.157 1.468a1.25 1.25 0 0 0-.28.22c-.734.74-1.117.998-1.532 1.343-.34.282-1.647.218-2.031.75-.01.014-.021.017-.031.031a94.204 94.204 0 0 1-3 2.5c-1.43.62-3.664 1.237-5.657 1.625.014-.663-.076-1.232-.094-1.718-.024-.66.045-1.01.219-1.22l.25-.28.031-.407c.129-1.29.146-2.234.437-2.656l.22-.312v-.407c-.04-3.799-.029-7.59-.032-11.406.433-.59.708-1.042 1.094-1.281l.281-.156.156-.282c.292-.499.341-.899.438-1.25.097-.35.22-.64.25-.687l-.031-.032c.322-.329.639-.669.844-.968.222-.326.525-.617.53-.657l.22-.125.187-.343c.052-.098.157-.136.188-.157l.687-.187v-.969-17.793z" style="text-indent:0;text-align:start;line-height:normal;text-transform:none;block-progression:tb;marker:none;-inkscape-font-specification:Sans" opacity=".3" overflow="visible"/><path style="text-indent:0;text-align:start;line-height:normal;text-transform:none;block-progression:tb;marker:none;-inkscape-font-specification:Sans" d="M163.316 231.68c-.127 1.629-1.686 3.286-2.594 5.657h-.031c-1.602 2.63-2.466 5.512-3.344 8.219l-.03.062-.032.094c-.463 2.532-.092 4.923-.187 7.062l-.031.438.156.218c0 .012.04.041.03.125-.022.21-.111.578-.218 1-.208.823-.558 1.91-.125 3.125.012.034-.013.061 0 .094-.184 1.605.308 3.103 1.344 4.031a6.964 6.964 0 0 0 1.812 1.157v2.937l.22.313c1.265 1.867 2.926 3.313 4.905 4.218v.032c1.175.82 2.2 2.214 3.313 3.656l.063.094.062.062c1.392 1.345 2.46 2.553 2.531 4.156-.02.367 1.903 5.343 1.993 6.015l.445-4.796c-.031-.236.043-.637.063-1.219v-.093c-.114-2.546-1.713-4.311-3.157-5.72l-.094-.124-.03-.031c-1.033-1.348-2.138-2.905-3.75-4.032l-.095-.093-.125-.032c-1.515-.642-2.781-1.775-3.843-3.25v-1.375c2.1.493 4.172 1.407 6.468 2.094.01.003.021-.003.031 0 1.894.645 3.639.566 4.938 1.031l.156.032.188.03c1.66.113 2.694 1.476 4.28 3.032.707.98 1.686 1.531 2.5 1.906.893.411 1.624.71 2.063 1.157l.062.093.094.063c.687.497 7.937 1.409 9.582 1.334l-6.3-2.365c-.385.017-.961-.383-1.813-1v.03c-.876-.82-1.86-1.24-2.625-1.593-.81-.373-1.333-.67-1.625-1.156l-.094-.125-.094-.125c-1.322-1.297-2.876-3.304-5.531-3.656v-.032c-.133-.047-.213-.022-.344-.062-1.785-.552-3.468-.56-4.656-.969h-.062c-2.134-.636-4.326-1.627-6.781-2.187h-.062l-.031-.032c-1.066-.137-2.27-.592-2.969-1.218-.698-.626-.995-1.174-.656-2.25l.125-.438-.157-.406c-.075-.192-.02-.865.188-1.688.104-.41.227-.856.281-1.343.03-.267-.157-.612-.219-.938h.094c.109-2.43-.194-4.698.157-6.687.872-2.692 1.72-5.307 3.093-7.563l.063-.125.031-.125c.6-1.715 2.617-3.607 2.844-6.531z" overflow="visible"/><path style="text-indent:0;text-align:start;line-height:normal;text-transform:none;block-progression:tb;marker:none;-inkscape-font-specification:Sans" d="M224.929 208.677a1.25 1.25 0 0 0-.22.031c-1.455.412-3.394 1.257-4.843 1.875-2.627-.037-4.243 1.237-4.969 2a1.25 1.25 0 0 0-.25.344c-.968 2.24-3.502 3.456-6.093 3.062-2.115-1.196-4.445-.774-6.188-.843a1.25 1.25 0 0 0-.031 0h-8.656a1.25 1.25 0 0 0-.563.125c-.053-.02-.04-.01-.094-.032a24.196 24.196 0 0 0-1.843-.656c-.583-.174-1.168-.285-1.875-.187v-.063c-1.598.076-3.554-.203-5.532.219a1.25 1.25 0 0 0-.125.031c-1.898.618-3.85 1.523-5.468 3.188-1.983 1.245-3.7 2.3-5.407 3.5-.018.013-.044.018-.063.03-.93.588-1.523 1.18-2 1.657-.488.49-.845.877-1.5 1.344a1.25 1.25 0 0 0-.406.437c-.026.053-.56.707-1.156 1.344-.597.637-1.31 1.324-1.625 2.375a1.25 1.25 0 0 0-.031.25c0 .03-.022.079-.437.469-.416.39-1.144 1.152-1.188 2.281a1.25 1.25 0 1 0 2.5.094c.01-.237.048-.227.406-.563.325-.304.938-.895 1.125-1.812h.031c.051-.17.482-.789 1.031-1.375.414-.442.81-.94 1.188-1.469.039-.027.057-.035.094-.062.777-.57 1.287-1.13 1.719-1.563.452-.454.842-.826 1.625-1.312a1.25 1.25 0 0 0 .063-.032c1.648-1.161 3.334-2.206 5.343-3.468a1.25 1.25 0 0 0 .282-.22c1.226-1.36 2.759-2.1 4.531-2.687.019-.006.043.007.062 0 1.34-.27 3.152-.065 5.063-.156a1.25 1.25 0 0 0 .218-.031c-.134.03.31.037.813.187.503.15 1.118.384 1.656.594.539.21.854.41 1.469.5.154.023.354.073.781-.094.123-.047.238-.22.375-.343H202.335c2.228.08 4.076-.183 5.219.593a1.25 1.25 0 0 0 .5.22c3.486.582 7.055-1.01 8.656-4.157.593-.624 1.266-1.368 3.344-1.25a1.25 1.25 0 0 0 .562-.094c1.41-.602 3.36-1.415 4.594-1.781.518 0 .943-.018 1.219 0-.078.866.009 1.713.03 2.406.024.72-.064 1.235-.155 1.406a1.25 1.25 0 0 0-.157.532c-.046 1.037-.092 1-.5 1.28-.407.282-1.394.662-2.53 1.595a1.25 1.25 0 0 0-.22.218c-.48.649-1.006 1.168-1.468 1.907-.45.717-.723 1.678-.657 2.812.002.034-.003.06 0 .094v2.375a1.25 1.25 0 0 0 .25.719v.062c.026.952.004 2.265 0 2.75a1.25 1.25 0 0 0 0 .063c.031.668-.027 1.488 0 2.343.027.828.185 1.76.782 2.594l-.032.031c.017.026.046.038.063.063 1.458 2.15 4.038 3.23 5.937 3.937a1.25 1.25 0 0 0 .125.032c1.728.467 3.352 1.9 6.47 1.937a1.25 1.25 0 0 0 .03 0c2.342-.044 4.364.564 6.22 1.469a1.25 1.25 0 0 0 .343.125c1.99.324 4.046.303 6.031.281a1.25 1.25 0 0 0 .219-.031c1.025-.204 1.645-.024 2.25.375s1.18 1.11 1.687 2a1.25 1.25 0 0 0 .157.219c1.809 1.975 2.056 2.627 4.062 4.843a1.25 1.25 0 0 0 .125.157c1.603 1.283 2.654 3.011 5.344 4.437a1.251 1.251 0 1 0 1.156-2.219c-2.09-1.107-2.936-2.503-4.781-4.03-.013-.015-.018-.018-.031-.032-.052-.043-.072-.082-.125-.125-1.652-1.85-2.102-2.67-3.75-4.5-.03-.052-.063-.104-.094-.156-.026-.029-.036-.034-.063-.063-.59-.993-1.293-1.953-2.312-2.625-1.037-.683-2.4-.95-3.875-.719v-.03c-1.941.02-3.817.013-5.5-.25-2.038-.963-4.368-1.67-7.063-1.626h-.03c-2.299-.04-3.417-1.227-5.813-1.875-1.759-.666-3.883-1.745-4.688-2.969a1.25 1.25 0 0 0-.062-.062c-.16-.21-.26-.635-.282-1.281-.02-.63.035-1.416 0-2.282v-.062c.004-.496.028-1.766 0-2.781-.014-.52-.008-.849-.125-1.344-.01-.043-.118-.193-.125-.25v-1.594a1.25 1.25 0 0 0-.03-.094c-.058-.745.062-1.006.312-1.406.227-.363.694-.878 1.218-1.562.791-.622 1.49-.862 2.282-1.407.714-.491 1.27-1.471 1.468-2.687.496-.927.464-1.853.438-2.688-.027-.834-.086-1.6-.031-2.125h-.063c.115-.587.118-1.233-.25-1.75-.401-.562-.986-.782-1.437-.875-.904-.184-1.71-.055-2.125-.062a1.25 1.25 0 0 0-.125 0zM304.085 207.302l-.156.031c-2.567.69-5.603.746-8.5 1.469v.031c-3.074.445-6.13.978-9.094 1.688-.037.005-.058.025-.094.03-2.529.39-4.196 1.806-5.781 2.47l-.25.125-.188.187c.207-.218-.11.036-.468.188-.267.113-.59.23-.907.343-.326-.034-.64-.087-1 0a2.982 2.982 0 0 0-1.53.907l.374.312c-.03.079-.062.187-.062.188l-.032.375.094.406.188.344.25.218s.132.068.187.094c.055.026.083.05.125.063.084.027.138.054.188.062.098.016.173 0 .218 0 .092 0 .142.005.188 0 .057-.006.105-.023.156-.031.03-.005.061.006.094 0v-.031c.617-.055.984-.014 1.594-.532.02-.018.04-.072.062-.093.272-.1.548-.2.813-.313.311-.132.58-.33.875-.531v.031c2.095-.877 3.528-2.098 5.28-2.344h.095a99.474 99.474 0 0 1 9.093-1.718h.094l.031-.032c2.41-.6 5.332-.725 8.188-1.437 4.205.08 8.402.011 12.562.031.609.393 1.25.773 1.844 1 .797.305 1.527.56 2.063.938l.375.28.437-.03c2.418-.2 4.561 1.097 7.313 1.562v.031c1.82.6 3.804 1.793 6.156 2.563.108.035.17.091.281.125v-.031c2.546 1.433 5.127 1.31 6.938 2.218l.125.063.125.031c1.635.42 3.88 1.466 4.78 1.906l1.095-2.25c-.888-.433-3.03-1.45-5-2l-.063-.03c-.072-.02-.116-.045-.187-.063-2.597-1.209-5.075-1.049-6.782-2.094l-.125-.094-.156-.031c-2.056-.624-4.072-1.918-6.406-2.688l-.094-.03-.125-.032c-2.009-.297-4.453-1.75-7.687-1.625a14.415 14.415 0 0 0-2.188-1.063c-.777-.297-1.363-.579-1.656-.843l-.344-.313h-.5c-4.268-.023-8.498.049-12.719-.031h-.187zM399.534 233.712a9.84 9.84 0 0 0-1.937.25c-1.203.283-2.307.99-2.906 2.094a1.22 1.22 0 0 0-.125.312c-.064.283-.542.957-1.469 1.688-.912.718-2.152 1.517-3.375 2.406-.02.015-.042.016-.063.031-1.904 1.27-3.144 2.84-4.281 4.344-1.15 1.52-2.227 3-3.875 4.344-2.225 1.913-4.147 4.642-3.657 8.406h-.03c-.032.362-.134.714-.25 1.062-.624.21-.997.972-.782 1.594-.552.871-1.254 1.748-2 2.688-.745.939-1.503 1.94-2 3.125-.46 1.098-.616 2.387-.344 3.75h-.03v14.656c-1.408 4.178-3.325 8.56-3.188 13.719-.679 1.158-1.424 1.83-2.344 2.406-.976.61-2.18 1.107-3.531 1.875a1.244 1.244 0 0 0-.25.187c-.97.926-2.951 2.437-4.875 3.938-1.773 1.382-3.368 2.698-4.438 3.969-.078.043-.112.11-.187.156-.045.056-.145.131-.188.187-1.525 1.042-2.35 2.58-3 4.063-.706 1.614-1.357 3.208-2.656 4.594l-.03.03c-.798.83-.98 1.856-1.188 2.938-.21 1.098-.367 2.3-.625 3.5-.516 2.4-1.348 4.545-3.532 5.563a1.261 1.261 0 0 0-.593.562c-1.888 3.893-3.524 7.77-3.907 12.22V355.648a.801.801 0 0 0 0 .22v.03c-.01.084-.01.167 0 .25-.125 4.117.309 8.253-.468 11.625-.044.026-.393.372-1.032.782-.694.445-1.573.96-2.437 1.656-.864.696-1.722 1.59-2.25 2.75-.477 1.048-.58 2.338-.281 3.719.032.148-.012.287.03.437-.146 2.732.21 5.508 1.97 7.219.474.458 2.941 3.411 3.4 2.937.458-.475-1.176-4.291-1.65-4.75-.832-.808-1.435-3.204-1.25-5.656a1.144 1.144 0 0 0-.064-.437c-.302-1.061-.173-1.783.125-2.438.298-.655.843-1.258 1.532-1.812.688-.555 1.478-1.057 2.218-1.532.74-.474 1.468-.846 1.97-1.718.054-.098.097-.204.124-.313.78-3.117.596-6.413.531-9.562 1.038 1.062 2.13 2.024 3.907 3.187.043.037.08.088.125.125.514.44 1.05.868 1.593 1.313v.031c-.252.93.925 1.88 1.782 1.437.205.172.43.364.625.532 1.28 1.098 2.33 2.188 2.625 2.718.11.195.274.359.468.47 2.745 1.496 2.657 1.987 4.438 4.5.02.02.04.042.063.062 1.38 1.733 2.154 5.088 5.031 7.156.101.15.106.403.219.5.342.292.655.422.969.531.627.218 1.247.291 1.53.344.647.123 8.363-3.862 8.485-4.508.123-.646-7.369 2.162-8.015 2.04-.384-.072-.862-.149-1.157-.25-.044-.016-.032.014-.063 0v-.032a1.263 1.263 0 0 0-.468-.594c-1.936-1.342-2.624-4.25-4.532-6.687-.02-.03-.042-.034-.063-.063-1.613-2.285-2.27-3.508-5.125-5.094-.687-1.02-1.604-1.99-2.78-3-.023-.018-.042-.043-.063-.062 1.021-.416 2.176-.566 3.437-.625 2.102-.098 4.476.15 6.875 0h.063c2.565-.313 4.05.296 5.125 1.312 1.075 1.017 1.744 2.575 2.157 4.22.126.545.658.968 1.218.968.92.002 1.923.678 3.5 1.031.637.144 6.206-6.778 6.352-7.415.147-.636-5.153 5.127-5.79 4.978-.72-.162-1.804-.668-3.124-.907-.493-1.663-1.205-3.373-2.594-4.687-1.587-1.5-3.975-2.329-7.062-1.969v-.031c-2.1.131-4.468-.111-6.844 0-1.825.085-3.714.415-5.406 1.406-.682-.552-1.36-1.101-1.97-1.625a1.24 1.24 0 0 0-.124-.125c-2.662-1.717-3.517-2.784-5.375-4.812v-10.844c.332-3.868 1.748-7.358 3.531-11.063 2.786-1.57 3.897-4.454 4.438-6.968.286-1.334.469-2.587.656-3.563.187-.975.49-1.646.531-1.687 1.696-1.79 2.47-3.775 3.156-5.344.687-1.569 1.25-2.632 2.313-3.219.147-.087.275-.205.375-.344.625-.823 2.478-2.364 4.375-3.843 1.805-1.409 3.596-2.783 4.812-3.907.02-.011.042-.02.062-.03 1.166-.657 2.365-1.158 3.563-1.907 1.22-.763 2.423-1.822 3.344-3.5.116-.208.17-.45.156-.688-.255-4.724 1.64-8.915 3.156-13.468.04-.121.061-.248.063-.375v-14.875c0-.105-.01-.21-.03-.313-.24-.944-.119-1.666.218-2.469.337-.803.917-1.639 1.625-2.53.794-1.001 1.738-2.086 2.469-3.345.033-.002.076.001.094 0 .162-.009.334-.02.469-.031l.875-.031c.04-.002.02.002.063 0 5.035.004 10.066-.006 15.093 0 1.646.02 3.794 1.029 5.782 2.187 1.767 1.03 3.256 2.067 4.75 2.594 1.647 3.216 3.807 5.134 5.156 7.062.01.011.024.02.03.032 1.07 1.642 2.9 5.581 6.157 8.344.067.06.14.112.219.156.53.287.747.559.937 1 .19.44.299 1.057.375 1.781.14 1.323.255 3.073 1.344 4.594h-.03c1.404 4.16 3.73 7.38 5.593 10.375 1.588 2.577 3.517 3.967 4.719 6.5.093.187.234.35.406.469.934.68 1.52 2.358 1.969 4.343.45 1.985.676 4.185 2.093 5.75.05.046.101.088.157.125-1.036 3.714-.52 7.96.156 11.157.01.052.017.104.03.156 1.072 3.161 2.419 6.095 4.5 8.969 1.693 2.359 2.741 3.791 5.595 5.093 3.857 3.219 4.831 5.431 5.312 9.063.044.333.23.645.5.844.888.664 1.495 1.495 2.031 2.468a1.26 1.26 0 0 0-.187.719c.15 4.272-2.133 8.292-1.625 13.563-.02.126.014.22 0 .343-.3 2.61.385 4.758 1.281 6.5.939 1.825 2.002 3.303 2.563 4.813.076.18.194.342.343.469-.012-.012.239.412.407 1.03.168.62.291 1.428.343 2.25.105 1.647-.235 3.462-.437 3.782a1.258 1.258 0 0 0-.188.656c-.01 1.853-.168 3.918.125 5.875.292 1.944 1.208 3.912 3.25 4.938v.031c.01.004.024-.004.031 0 1.386.714 2.01 1.84 2.344 3.438.33 1.571.26 3.543.188 5.437-.05.2-.166.382-.438.813-.292.463-2.821 6.354-2.783 7.314.024.654 2.8-3.9 3.455-3.924.655-.024 1.228-.642 1.203-1.297-.014-.361.038-.445.25-.78.212-.337.625-.865.781-1.72.015-.061.026-.124.031-.187.075-1.935.18-4.106-.25-6.156-.429-2.05-1.497-4.06-3.656-5.157h-.03c-1.25-.614-1.677-1.591-1.907-3.125-.226-1.507-.108-3.43-.094-5.375.637-1.367.733-3.01.625-4.718-.061-.964-.179-1.913-.406-2.75-.176-.649-.526-1.169-.907-1.688l.063-.031c-.727-1.96-1.873-3.51-2.687-5.094-.815-1.584-1.328-3.116-1-5.312.016-.114.016-.23 0-.344-.4-3.343.777-6.37 1.344-9.844.462.958 1.037 1.947 1.78 2.875.022.03.043.034.064.063 1.031 1.423 2.101 2.357 2.812 3.28.726.943 1.205 1.845 1.219 3.75-.115.307-.314.588-.281.907.059.585.363 1.006.562 1.25.14.172.195.218.25.281 0 .608 2.933 6.573 3.537 6.642.605.069-1.204-5.768-1.068-6.36.136-.604-.094-1.235-.313-1.563-.18-.27-.28-.396-.375-.5.122-.196.188-.426.188-.656-.017-2.372-.765-4.043-1.719-5.281-.953-1.239-2.006-2.075-2.844-3.25a1.396 1.396 0 0 0-.03-.063c-1.207-1.484-1.892-3.254-2.688-5.094-.73-1.686-1.665-3.422-3.281-4.812-.58-3.804-2.072-6.894-6.094-10.25-.094-.078-.2-.14-.313-.188-2.816-1.198-3.03-1.909-4.843-4.437h-.031c-1.894-2.613-3.08-5.268-4.094-8.25-.01-.023-.024-.04-.03-.063-.609-2.95-.916-6.815-.126-9.812 3.183.836 6.685 2.196 9.063 3.719.078.05.162.092.25.125.398.144 1.244.785 1.968 1.562.725.777 1.386 1.7 1.688 2.219.333.568 2.775 6.447 3.341 6.11.567-.337-.845-6.827-1.185-7.391-.442-.76-1.143-1.706-2-2.625-.792-.85-1.673-1.641-2.719-2.094-.073-.047-.175-.079-.25-.125-2.69-1.675-6.18-2.994-9.437-3.844-.063-.633-.677-1.16-1.313-1.125-.196.007-.39.06-.562.156-.402-.877-.746-2.243-1.094-3.781-.442-1.955-.983-4.145-2.656-5.562-1.465-2.936-3.497-4.5-4.75-6.532-1.926-3.096-4.083-6.11-5.344-9.843a1.26 1.26 0 0 0-.25-.438c-.715-.807-.802-2.042-.969-3.625-.083-.791-.193-1.645-.562-2.5a4.665 4.665 0 0 0-1.813-2.094c-2.716-2.304-4.407-5.81-5.718-7.812v-.032c-1.688-2.43-3.815-4.164-5.25-7.187a1.27 1.27 0 0 0-.844-.688c-.598-.146-2.563-1.342-4.656-2.562-2.094-1.22-4.477-2.5-7-2.531h-.031c-5.054-.006-10.105.004-15.157 0h-.03c-.299.01-.333.024-.438.031.055-.269.132-.527.156-.812a1.257 1.257 0 0 0 0-.313c-.496-2.983.784-4.65 2.781-6.375.012-.01.02-.021.031-.031 1.908-1.563 3.128-3.267 4.25-4.75 1.13-1.493 2.161-2.755 3.72-3.782a.61.61 0 0 0 .03-.03c1.16-.846 2.422-1.652 3.5-2.5.988-.779 1.836-1.634 2.219-2.813l.063.031c.266-.49.508-.7 1.25-.875.742-.175 1.926-.184 3.5-.094 2.891.794 5.83 1.005 8.469 1.469 2.725.479 5.063 1.222 6.906 3.031.466.467 1.315.467 1.781 0 .467-.466.467-1.315 0-1.781-2.358-2.316-5.33-3.206-8.25-3.719-2.919-.513-5.847-.68-8.469-1.437a1.25 1.25 0 0 0-.28-.063c-.828-.047-1.585-.086-2.282-.062z" opacity=".3" overflow="visible"/><path style="text-indent:0;text-align:start;line-height:normal;text-transform:none;block-progression:tb;marker:none;-inkscape-font-specification:Sans" d="M348.847 218.43a5.88 5.88 0 0 0-1.656.188c-.692.103-1.202.874-1.026 1.55.175.677.997 1.103 1.65.856 1.283-.33 2.678.182 4.188 1.094 1.479.892 2.913 2.083 4.313 2.906.03.018.063.045.094.063 1.59 1.15 4.257 3.708 5.875 5.187.067.06.14.112.218.157 2.46 1.47 3.058 1.961 4.625 3.906.087.11.194.206.313.281 2.16 1.353 4.417 3.377 7.594 3.656-.011.087-.026.18-.031.25-.01.107-.01.183 0 .313 0 .065-.023.124.03.312.015.047.058.107.095.188.019.04.028.07.063.125.034.054.156.187.156.187l.281.25.438.157s.116.007.218 0c-.043.1-.166.142-.187.25-.223 1.13.392 1.738.875 2.312.483.575 1.052 1.13 1.562 1.625.51.495.962.951 1.094 1.156l.031.032c1.934 2.839 3.656 7.75 5.281 11.656.04.1.092.195.157.281 1.503 1.938 2.931 4.348 3.906 6.938-.267.243-.42.607-.406.968.01.582.03.607.03.813v.031c-.01.033-.027.073-.03.094-.01.054-.03.068-.031.094-.01.05 0 .093 0 .125v.187c0 .272.012 1.049.03 1.938-1.806 2.28-4.838 3.078-8.78 4.125-2.484.27-5.443 1.103-8.25 1.53-.56.086-1.1.15-1.626.188a1.279 1.279 0 0 0-1.125-.718c-.469.002-.925.293-1.125.718-1.102-.11-2.042-.411-2.75-.906-.416-2.056-1.417-3.72-3.093-4.375-1.915-.748-4.203-.341-6.625.906-.044.029-.085.06-.125.094-1.74 1.197-2.379 3.07-2.938 4.5-.28.715-.553 1.347-.812 1.75-.26.403-.452.544-.72.625-.32.097-.596.328-.75.625-1.343 2.643-2.597 4.252-4.593 6.156-.102.1-.187.216-.25.344-.307.622-1.152 1.407-1.531 1.562-.606.254-3.624 5.623-3.37 6.228.253.606 3.733-3.661 4.339-3.915 1.114-.456 1.934-1.38 2.53-2.406.035-.032.062-.062.095-.094 1.986-1.909 3.467-3.783 4.844-6.406.64-.347 1.181-.833 1.53-1.375.455-.704.748-1.46 1.032-2.188.562-1.436 1.072-2.673 1.969-3.312.01-.008.02-.024.03-.032 1.977-.985 3.525-1.106 4.438-.75.936.366 1.596 1.217 1.782 3.125.036.329.209.64.468.844 1.277 1.013 2.792 1.453 4.407 1.563-.04 3.45-.582 7.381.687 10.906l.031.094c.313.674.801 1.819 1.406 3a.801.801 0 0 0 0 .218c.106 3.252.134 6.299-.968 8.594-1.35 1.914-2.304 3.737-3.344 5.25-1.078 1.568-2.25 2.84-4.219 3.906a1.256 1.256 0 0 0-.406.344c-1.025 1.361-2.903 2.922-4.719 5.25l-.063.063c-.029.037-.034.056-.062.093-.855.905-1.321 2.14-1.781 3.47-.484 1.399-.865 2.892-1.125 4.03-.147.639-.78 5.94-.142 6.088.638.147 2.432-4.887 2.58-5.525.247-1.086.595-2.522 1.03-3.781.436-1.26 1.05-2.37 1.313-2.625.046-.049.088-.101.125-.157 1.615-2.115 3.368-3.503 4.719-5.25 2.173-1.252 3.666-2.832 4.812-4.5 1.204-1.75 2.136-3.561 3.438-5.375.047-.058.089-.121.125-.187.94-1.956 1.176-4.064 1.219-6.188.335.276.76.489 1.218.625.468.412 1.122 1.375 1.563 2.72a13.54 13.54 0 0 1 .625 4.874v.094c.097 4.398-.174 7.002-2 10.219-.023.04-.044.082-.063.125-.818 2.01-1.435 3.692-1.156 6.53-.016.707 4.45 4.312 5.153 4.24.702-.07-2.528-3.801-2.685-4.49-.231-2.358.171-3.307.938-5.187.012-.021.019-.04.03-.062.016-.036.017-.057.032-.094 1.98-3.562 2.34-6.8 2.25-11.219v-.062-.031a16.004 16.004 0 0 0-.75-5.72c-.557-1.696-1.307-3.078-2.406-3.968a1.264 1.264 0 0 0-.875-.312c-.038-.022-.147-.077-.313-.25-.332-.348-.779-.988-1.187-1.688-.8-1.37-1.538-3.001-2-4-.01-.018.01-.044 0-.062 0-.01-.027-.023-.031-.032-.93-2.688-.448-6.34-.47-10.031a30.063 30.063 0 0 0 1.813-.219c3.106-.474 6.211-1.359 8.313-1.562.074-.004.147-.015.219-.032 3.717-.986 7.312-1.812 9.75-4.562.019 3.737.866 6.842 1.687 9.656.103.343.36.636.688.781 1.18.535 1.32.86 1.375 1.22.01.048-.03.124-.031.187a1.256 1.256 0 0 0-.532-.032 1.285 1.285 0 0 0-1 1.094 5.652 5.652 0 0 0 .219 2.469c-.686 1.57-1.296 3.48-.781 5.594-.01.06.01.097 0 .156-.315 2.89.449 5.03 1.281 6.844.85 1.85 1.711 3.416 1.969 5.75.03.215.117.422.25.593.738.993 1.14 2.73 1.281 4.75.14 2.012.058 4.274.094 6.344v9.313c-.104.279-.104.596 0 .875v7.406c-1.642 5.123-2.752 10.1-3.75 15-1.337 3.484-3.308 5.692-4.313 9.187-.04.153-.05.313-.03.47.117 1.206-.049 2.867-.095 4.5-.046 1.631-.04 3.285.813 4.687.069.105.153.2.25.281 1.31 1.117 2.296 2.265 3.187 3.531-1.812 1.508-2.266 3.84-2.406 6.156-.141 2.347.022 4.858-.156 6.97v.03c-.103 1.7.09 3.381.063 4.813-.027 1.432-.267 2.501-.844 3.188l.031.03c-1.159.68-1.88 1.816-2.469 2.97-.104.205-.21.388-.312.593-2.3.802-4.149 1.163-5.906 1.688-1.89.565-3.71 1.433-5.344 3.312-.01.013-.02.02-.03.032-.965 1.05-2.347 1.854-3.813 2.625-1.48.777-3.038 1.503-4.22 2.718l.032.032c-1.7.958-2.816 2.698-3.5 4.062-.295.59-.026 5.44.562 5.735.59.295 1.393-4.02 1.688-4.61.6-1.195 1.89-2.887 2.625-3.219.138-.06.266-.145.375-.25.72-.741 2.077-1.453 3.593-2.25 1.517-.796 3.195-1.712 4.532-3.187a.61.61 0 0 0 .03-.031c1.326-1.537 2.507-2.092 4.188-2.594.968-.29 2.093-.553 3.406-.906-1.546 1.813-1.817 4.245-1.75 6.593.071 2.495.515 5.04.594 6.938.071 2.136.104 4.052-.125 5.469-.228 1.416-.629 2.17-1.375 2.562-2.244 1.219-3.518 3.017-4.062 5-.544 1.984-.48 4.098-.375 6.406.024.655 3.88 3.387 4.535 3.362.654-.024-2.01-2.8-2.035-3.455-.104-2.28-.118-4.202.281-5.657.399-1.454 1.095-2.52 2.844-3.468 1.627-.866 2.368-2.558 2.656-4.344.29-1.794.228-3.826.156-5.969-.09-2.177-.53-4.676-.594-6.906-.064-2.23.262-4.061 1.313-5.125.033-.03.064-.061.094-.094.596-.778 1.043-1.683 1.469-2.562.23-.208.378-.504.406-.813.09-.186.191-.386.281-.562.628-1.233 1.328-2.033 1.594-2.125.206-.076.391-.207.531-.375 1.16-1.38 1.406-3.137 1.438-4.782.03-1.633-.145-3.244-.063-4.656v-.031c.198-2.385.03-4.907.156-7 .115-1.911.471-3.313 1.281-4.156.353.622.705 1.27 1.063 1.968.01.014.024.018.03.032.104 2.125.98 3.709 1.688 4.875.784 1.292 1.285 2.124.875 4.03-.767 3.414-1.692 7.157-1.656 11.407-.01.058.036.1.031.156-.2 2.413.643 4.453 1.781 5.938 1.094 1.426 2.38 2.411 3.375 3.094 1.578 2.798 3.915 5.132 3.969 8.406 0 .084.012.168.031.25.456 2.051 1.274 3.485 1.781 4.844.507 1.359.801 2.623.406 4.75a1.217 1.217 0 0 0-.03.312c.255 3.53-.302 6.113-1.438 7.938-.024.05-.045.103-.063.156-2.427 5.486-2.13 11.184-4.312 15.625-.95.982-1.888 2.33-2.875 3.75-1.086 1.561-2.341 3.094-2.657 3.312a1.256 1.256 0 0 0-.406.47c-.671 1.347-1.204 2.01-1.875 2.655-.67.646-1.542-.441-2.719.658-.486.45-6.185-.22-5.734.265.452.484 6.971 2.224 7.453 1.77 1.077-1.007 1.916-.078 2.75-.88.78-.75 1.498-1.746 2.219-3.125 1.102-.877 1.984-2.226 3-3.688 1.097-1.578 2.262-3.208 2.812-3.718.117-.106.213-.234.282-.375 2.164-4.405 2.282-9.13 3.53-13.375.024.073.04.183.064.218.295.469.447.542.844.875.376.317.943.746 1.687 1.313.04.03.053.032.094.062 2.666 2.43 4.123 3.694 4.969 5.938.047.112.11.218.187.312 1.904 2.508 2.36 5.836 4.282 8.594.17.245.43.426.718.5.09.023.59.378 1.282.875.692.497 1.833 1.08 3.125.75.638-.163 4.504-6.045 4.34-6.683-.163-.638-4.327 4.082-4.965 4.246-.4.102-.58.002-1.063-.344a18.836 18.836 0 0 0-1.406-.875c-1.34-1.981-1.994-5.235-4.156-8.25-.073-.102-.08-.211-.157-.313l-.03.032c-1.112-2.686-2.942-4.326-5.532-6.688a1.065 1.065 0 0 0-.094-.062c-.175-.133-.224-.165-.375-.282.01-.052.031-.124.031-.125 0 0-.01-.259-.03-.343-.102-.338-.196-.404-.25-.469-.056-.066-.095-.096-.126-.125-.063-.059-.107-.086-.156-.125a8.826 8.826 0 0 0-.375-.281c-.309-.22-.771-.53-1.469-1a1.256 1.256 0 0 0-.562-.219c1.325-2.297 1.838-5.248 1.625-8.813-.01-.114.04-.196.03-.312h-.03c.378-2.386.069-4.257-.5-5.781-.596-1.598-1.318-2.866-1.688-4.532-.19-4.405-3.18-7.268-4.406-9.562a1.253 1.253 0 0 0-.406-.469c-.94-.636-2.145-1.53-3.032-2.687-.886-1.157-1.466-2.515-1.28-4.313v-.125c-.057-3.934.808-7.511 1.593-11 .56-2.603-.35-4.493-1.188-5.875-.838-1.382-1.517-2.302-1.437-4.062 0-.217-.051-.435-.156-.625-1.623-3.176-3.285-5.787-6-8.188-.3-.51-.48-1.777-.438-3.281.04-1.39.157-2.94.063-4.406.845-2.87 2.767-5.09 4.25-9a1.24 1.24 0 0 0 .063-.188c1.007-4.95 2.117-9.897 3.75-14.969.043-.13.064-.268.063-.406v-5.219c1.808 2.053 2.677 4.336 4.063 6.313 1.19 3.411 2.853 6.763 2.593 11.219-.01.115.01.231.031.343.345 1.564.386 4.133.875 6.438.245 1.153.581 2.256 1.313 3.187.485.619 1.22 1.036 2.031 1.313.013 1.419-.37 3.412-.562 5.625-.11 1.254-.115 2.538.28 3.781.375 1.174 1.186 2.273 2.407 3.031.656 1.086 1.677 1.774 2.688 2.5 1.168.84 2.278 1.795 2.437 2.063.115.183.278.335.469.437 3.843 2.132 4.519 3.245 6.75 5.344 0 .015-.03.047-.031.063-.026.466.028 1.034.125 2.687.03.48.362.927.812 1.094.141.051 1.093.666 1.782 1.594.688.927 1.222 2.148 1.25 3.593.01.107.028.212.063.313.387 1.393.317 3.595.562 5.844.245 2.248.91 4.722 3.125 6.375.04.034.081.065.125.093 1.162.66 1.82 1.694 2.219 3.125.398 1.432.491 3.188.406 4.875-.033.655-2.138 3.951-1.484 3.984.655.033 3.951-3.204 3.984-3.859.093-1.831.046-3.806-.469-5.656-.5-1.802-1.528-3.51-3.28-4.562-1.47-1.096-1.942-2.68-2.157-4.657-.205-1.878-.123-3.966-.594-5.906-.025-.101 0-.212-.03-.312h-.032c-.114-1.91-.804-3.56-1.687-4.75-.061-.082-.127-.143-.188-.22 1.117.87 2.216 1.77 3.531 3.157.09.1.196.184.313.25 2.372 1.202 3.415 3.325 4.281 6.719.074.305.269.578.531.75.505.33 1.036 1.048 1.625 1.844.59.795 4.662 2.543 5.966 2.857.639.157-2.07-1.045-1.915-1.685.156-.639-.286-1.362-.926-1.516-.09-.022-.539-.407-1.093-1.156a12.022 12.022 0 0 0-1.907-2.032c-.89-3.335-2.227-6.135-5.062-7.75l-.031-.03c-2.704-2.843-4.529-3.83-7.031-6.032-.147-.128-.24-.222-.375-.344a1.257 1.257 0 0 0-.375-.344c-2.335-2.152-3.388-3.572-7.438-5.843-.752-.993-1.772-1.712-2.781-2.438-1.148-.825-2.149-1.78-2.188-1.875-.1-.26-.29-.484-.53-.625-.833-.467-1.232-1.003-1.47-1.75-.238-.747-.25-1.723-.156-2.812.19-2.179.94-4.665.625-6.938a1.292 1.292 0 0 0-1.219-1.062c-.74-.02-1.053-.24-1.406-.688-.352-.449-.64-1.229-.844-2.187-.385-1.817-.46-4.153-.843-6.125v-.157c.252-5.121-1.654-8.95-2.75-12.125a1.254 1.254 0 0 0-.188-.343c-1.407-1.939-2.558-5.59-6.219-8.5v-9.157c-.035-1.969.03-4.282-.125-6.5-.145-2.081-.521-4.089-1.593-5.718-.351-2.677-1.358-4.578-2.125-6.25-.795-1.733-1.333-3.21-1.032-5.657.022-.189.001-.383-.063-.562-.321-.957-.252-1.895.031-2.844.315.283.657.546 1 .781 1.734 1.19 3.743 2.005 5.157 3a1.3 1.3 0 0 0 .125.063c3.142 1.756 5.57 3.217 6.906 6.25-.166 1.88.283 3.349.844 4.406.617 1.165 1.146 1.91 1.312 3 .06.399.325.76.688.938.313.156.444.344.593.843.15.5.229 1.259.25 2.125.034 1.384.103 3.028.625 4.594a1.28 1.28 0 0 0 .282 1.313l.656.625c.467.483 4.85 3.717 5.314 3.229.462-.488-3.088-4.6-3.595-5.042l-.094-.062-.031-.032-.031-.125c-.55-.92-.58-2.712-.625-4.562-.023-.925-.07-1.865-.344-2.781-.214-.717-.694-1.38-1.344-1.907-.333-1.424-1.018-2.463-1.469-3.312-.504-.952-.821-1.716-.562-3.375a1.25 1.25 0 0 0-.063-.688c-1.634-3.91-4.806-5.776-8-7.562l-.094-.063c-1.743-1.205-3.733-2.003-5.094-2.937-.59-.405-1.036-.822-1.344-1.25.094-.2.188-.39.281-.594.48-1.05.978-2.18.782-3.469-.169-1.104-1.023-2.035-2.25-2.75-.842-2.91-1.603-5.836-1.469-9.468v-.125c-.326-5.088-2.811-9.848-5.469-13.344-1.569-3.77-3.23-8.715-5.5-12.063-.01-.012-.023-.019-.03-.031-.395-.6-.92-1.09-1.438-1.594-.518-.502-1.04-.982-1.375-1.375.794-.12 1.297-1.141.906-1.843-.3-.554-.567-.996-.813-1.375 3.084-.18 6.205 1.166 9.563 1.53.031.012.062.023.094.032 3.226.077 7.141 1.3 9.281 2.469.023.013.071.018.094.031 1.146.718 2.49 1.256 3.75 1.781 1.29.538 2.49 1.1 3.094 1.563.214.16.482.25.75.25.425.008.82.044 1.219.094.032.349.063.783.125 1.437.014.152.057.301.125.438 1.047 2.042 2.462 3.537 3.625 4.78 1.162 1.244 2.01 2.25 2.219 3.063.07.258.226.492.437.657 1.424 1.13 3.38 3.807 7.281 5.562.156.076.327.119.5.125 1.117.015 2.068.126 2.782.375.713.25 1.174.573 1.562 1.188.352.556 4.994 3.413 5.55 3.061.557-.351-3.073-3.849-3.425-4.405-.7-1.108-1.753-1.827-2.875-2.219-.974-.34-2.02-.4-3.094-.437-3.174-1.443-4.73-3.482-6.562-5-.523-1.427-1.484-2.568-2.531-3.688-1.132-1.21-2.312-2.453-3.157-4.031v-.031-.032c.01-.065.063-.177.094-.25 1.89.579 3.76 1.381 6.094 1.844.142.028.23.1.375.125v-.031c1.307.57 2.637.598 3.688.093 1.151-.552 1.971-1.522 2.406-2.593.434-1.072.534-2.3.03-3.407-.388-.854-1.294-1.399-2.343-1.656-.026-.04 0-.122-.03-.156-.176-.213-.316-.263-.438-.344v-.031a1.287 1.287 0 0 0-1.215-.895 1.287 1.287 0 0 0-1.192.926c-.143.485.086 1.2.344 1.5.209.242.328.278.438.344v.031c.157.502.661.873 1.187.875.762-.004.846.168.969.438.122.27.136.87-.094 1.437-.23.568-.651 1.054-1.125 1.281-.474.228-1.006.29-1.844-.156a1.251 1.251 0 0 0-.344-.125c-2.432-.424-4.558-1.507-7.125-2.156a1.279 1.279 0 0 0-1.187-.594 1.257 1.257 0 0 0-.563.219h-.03c-.48-.068-.98-.102-1.5-.125-.97-.653-2.093-1.142-3.25-1.625-1.306-.544-2.588-1.112-3.438-1.656a1.262 1.262 0 0 0-.094-.032c-2.549-1.415-6.592-2.665-10.375-2.78v-.032c-3.313-.36-7.552-2.473-12.313-1.125v-.032c-3 .361-4.902-1.442-7.656-3.187-1.489-1.811-2.647-2.758-4.906-4.125-.039-.035-.116-.088-.156-.125-.015-.009-.016-.022-.031-.031-1.61-1.48-4.166-3.953-6.032-5.282a1.065 1.065 0 0 0-.094-.062c-1.068-.616-2.625-1.913-4.375-2.969-1.312-.792-2.815-1.483-4.437-1.531zM266.284 235.118c-.627.069-1.147.646-1.125 1.25v.5h-.063v.313c.01.119.021.3.031.468.01.209 0 .338.031.938v.031c-.14 1.474-.713 3.156-1.375 4.813-.648 1.623-1.337 3.153-1.656 4.562a2.92 2.92 0 0 0-.03.125c-1.328 3.853-1.953 7.801-3.845 10.656-.022.03-.043.062-.062.094-.968 1.726-1.646 2.604-2.406 3.563-.705.888-1.485 1.92-2.344 3.5-.01.015-.023.015-.03.03-2.824 2.845-5.823 6.021-7.157 9.47-1.623.919-2.848 2.286-3.844 3.593-1.093 1.436-2.066 2.808-2.593 3.25l.03.032c-1.328.586-2.29 1.707-3.093 3.125-.804 1.42-1.36 3.117-1.594 4.78-.546.475-1.948 1.467-3.5 2.688-1.547 1.218-3.117 2.657-4.125 4.22-1.745 1.277-2.726 2.498-3.531 3.5-.824 1.024-1.476 1.797-2.906 2.562-.16.085-.3.203-.407.343-1.265 1.645-2.208 2.584-3.062 3.563-.854.979-1.59 1.997-2.25 3.531a1.18 1.18 0 0 0-.062.125c-.698 2.217-3.34 6.009-4.406 9.594a1.165 1.165 0 0 0-.031.531c.57 3.554-1.176 6.748-3.594 9.688a1.286 1.286 0 0 0-.125.187c-1.384 2.796-2.739 5.647-4.156 7.031-.104.1-.189.217-.25.344-1.204 2.45-1.871 5.236-2.75 7.656v.032c-.795 1.972-.728 4.014-.657 5.937.068 1.836.081 3.545-.375 4.938-.038.036-.12.027-.156.062-.233.23-.43.502-.625.781-.388.56-.772 1.217-1.125 1.938-.706 1.442-1.31 2.992-1.531 4.125a1.19 1.19 0 0 0-.031.156c-.208 3.13-1.81 6.312-3.531 8.156a1.3 1.3 0 0 0-.094.125c-3.026 4.197-2.679 8.88-3.469 13.625a.801.801 0 0 0 0 .22v12.562c-.01.216.047.435.156.625.267.422.385 1.565.469 2.812.082 1.215.175 2.658 1.406 3.688l-.03.031c1.451 1.388 2.366 3.893 5.28 5.875.01.073-.02.145 0 .219.168.633.653.924 1 1.093.695.34 1.369.387 2.126.375.756-.01 1.536-.09 2.28-.468.373-.189.791-.453 1.063-.875.272-.423.379-1.02.282-1.532-.118-.594-.746-1.062-1.375-1-.63.063-1.168.646-1.157 1.25-.191.09-.673.212-1.125.22-.202.002-.24-.037-.406-.063a1.241 1.241 0 0 0-.625-.782c-2.844-1.602-3.307-3.905-5.531-6.03a1.272 1.272 0 0 0-.125-.094c-.222-.173-.453-.926-.531-2.094-.068-1.01-.109-2.198-.625-3.344v-10c.39.926.977 1.787 1.718 2.469 1.255 1.154 2.72 2.113 3.907 3.031.676 1.443 1.048 3.32 1.875 5.156.828 1.84 2.444 3.586 5.156 4.032 2.407 1.467 5.05 1.869 7.469 2.28 2.51.428 4.753.9 6.562 2.345.139.104.3.179.469.218.996.253 1.514.662 1.937 1.219.424.557.745 1.325 1.032 2.219.557 1.738 1.1 4.077 3.312 5.375l-.031.031c.059.046.128.05.187.094 1.228.9 9.162 8.282 10.033 9.34 2.265 2.748-3.671-4.319-4.652-6.256-.98-1.938 1.277-1.418 1.807-1.428 2.431-.044 4.68-.14 6.437.719.09.042.185.074.282.093 1.73.374 3.221 1.357 4.781 2.532 1.56 1.174 3.171 2.54 5.187 3.343.149.061.309.093.47.094 19.11 17.354 1.606-.01 2.423.008 3.683.083 7.437.571 9.889 2.586.85 1.111 2.02 1.768 3.187 1.937 1.284.186 2.547-.013 3.75-.187 1.204-.174 2.344-.35 3.313-.281.968.068 1.734.313 2.437 1 .148.146.332.254.531.312 1.887.496 3.636 1.697 5.563 2.906 1.926 1.21 4.088 2.43 6.781 2.594.083.008.167.008.25 0 4.463-.667 7.725 1.542 12.219 3.281.047.019.078.045.125.063v-.031c2.499 1.25 4.885.796 6.5 1.375.627.288 7.571.891 10.285 1.005.69.029-8.392-2.6-9.06-2.777-2.525-.905-5.107-1.021-6.694-1.853a1.278 1.278 0 0 0-.156-.063c-1.519-.581-5.604-.722-7.234-2.164-1.19-1.053 10.01-1.794 8.816-2.096-1.644-.416-12.94.541-14.895.791-2.015-.123-3.74-1.086-5.593-2.25-1.793-1.125-3.695-2.424-6.032-3.093a6.35 6.35 0 0 0-3.656-1.47c-1.361-.096-2.656.11-3.844.282-1.187.172-2.256.3-3.03.188-.776-.113-1.238-.337-1.72-1.094a1.247 1.247 0 0 0-.28-.313c-3.825-3.142-9.154-3.169-13.532-3.125-1.479-.617-2.92-1.778-4.5-2.968-1.55-1.168-3.287-2.333-5.469-2.875-.04-.02-.084-.012-.125-.032-.057-.013-.098-.05-.156-.062v.031c-2.44-1.09-5.007-.947-7.281-.906-2.36.043-4.323-.056-5.813-1.219a1.283 1.283 0 0 0-.156-.125c-1.31-.702-1.662-2.13-2.281-4.062-.31-.966-.685-2.02-1.407-2.97-.633-.833-1.625-1.489-2.843-1.905-.051-.04-.105-.055-.157-.094-2.346-1.803-5.033-2.325-7.53-2.75-2.553-.435-4.914-.796-6.813-2.031a1.256 1.256 0 0 0-.532-.188c-2.096-.268-2.771-1.147-3.437-2.625-.666-1.478-1.01-3.543-1.969-5.469-.08-.169-.198-.32-.344-.437-1.363-1.087-2.949-2.1-4.062-3.125-1.113-1.025-1.611-1.864-1.5-2.625a1.27 1.27 0 0 0-.375-1.094c-.337-.322-.6-.537-.938-.719-.097-.052-.267-.038-.406-.062.58-4.331.651-7.99 2.844-11.031l-.031-.032c2.083-2.275 3.81-5.676 4.094-9.343v-.032c.136-.676.714-2.245 1.343-3.53.317-.649.662-1.259.938-1.657.138-.2.246-.341.312-.406.313-.129.568-.383.688-.688.762-2.034.665-4.166.594-6.094-.072-1.927-.111-3.654.437-5a.61.61 0 0 0 .031-.031c.943-2.587 1.64-5.336 2.688-7.469 1.834-1.947 3.114-4.702 4.406-7.312.256-.316.475-.67.719-1 .916.721-3.517 16.85-2.594 17.875l.281.312.313.125c.499.204.423.213.625.469.163.207.7.72 1.25 1.125v.063c.07.064.116.065.187.125.041.024.052.04.094.062v-.031c1.246 1.007 2.485 1.347 3.656 1.5.023.003.071-.003.094 0 1.095.234 2.029.28 2.72.625l.25.156.187-.031c.71-.057 1.055.15 1.593.656.54.506 1.203 1.374 2.094 2.312l.125.125.125.094c.692.526.821.656 1.094.875.266.214.554.42 1.312.906.015.01.016.021.031.032 1.602 1.103.36 1.606 1.813 3.312.014.018.017.014.031.031 1.41 1.749 2.611 2.815 3.062 3.532.415.914.925 1.715 1.344 2.312.497.708.84 1.235 1 1.656l.063.094v.031c.788 1.767.694 3.928 1.438 5.407l.03.093.064.063c1.31 2.194 2.765 3.541 4.312 4.875.035.03.06.095.094.125.354.371.584.682.719.937.15.288.292.613.375 1.22l-.031.03.03.063c.237 1.294.904 2.285 1.188 2.844.143.279.203.453.22.531.018.078.016.103-.063.312l-.125.313.094.469 1 4.125.125.531.375.437c.497.574 1.246 1.741 2.656 2.907l.094.062.094.063c1.065.687 1.988 1.39 3.22 2.343l.062.063.094.031c.941.559 1.755 1.853 3.438 3.563h.03l.032.062c.602.57 1.019 1.44 1.781 2.907.041.078.05.104.094.187l.031-.031c.397.882.93 1.694 1.469 2.187.584.536 1.102.82 1.594 1.125.064.046.15.15.218.219-.03-.034-.04-.08-.094-.156-1.327-3.47 1.412.342 1.782 1.343l2.218 1.72-2.312-3a3.342 3.342 0 0 0-.5-1.313c-.25-.36-.48-.512-.625-.625a2.277 2.277 0 0 1-.219-.188c-.01-.005-.029-.029-.03-.031l-.032-.063-.312-.187c-.525-.325-.88-.553-1.094-.75-.215-.197-.317-.302-.5-.75l-.063-.125-.031-.063c-.762-1.457-1.44-3.008-2.719-4.25l-.063-.062c-1.27-1.311-2.296-2.886-3.906-3.906l.031-.032a49.086 49.086 0 0 0-3.312-2.375c-.865-.714-1.272-1.351-1.875-2.093l-.813-3.375c.054-.383.149-.78.063-1.188-.132-.624-.375-1.164-.594-1.594-.438-.86-.72-1.321-.78-1.656a7.884 7.884 0 0 0-.813-2.562c-.437-.828-.979-1.508-1.594-2.125l-.062-.063-.063-.031c-1.472-1.265-2.47-2.24-3.438-3.813v-.031c-.815-1.618-.675-3.623-1.312-5.031-.017-.04-.015-.086-.031-.125-.432-1.078-1.06-1.892-1.531-2.563-.488-.695-.821-1.208-1-1.687l-.094-.25-.125-.188c-.47-.746-.987-1.356-1.5-1.906.417-.001.93.046 1.437-.031l.063-.032h.063c.377-.16 1.119-.024 1.969-.093h.094c.116-.028.709.012 1.281-.063v.032c1.364.272 2.71.476 4.031.718.894.443 1.651.766 2.063 1.125l.219.188.218.062c.31.103 1.015.597 1.282.875l.187.219.25.094c.04.018.056.1.438.687.19.294.488.717.937 1.094.362.305.76.346 1.125.344v.093c.568.09 1.18.213 1.781.313l.282.031.187-.125c.433-.366.459-.48.75-.437l.281.062.219-.25c.126-.165.182-.23.5-.219h.156l.125-.093c.292-.155.196-1.53.813-1.406l-.031-.032c.422.12.774.088 1 .063.252-.028.401.002.5.031.777.216 1.298.196 1.468.281 0 .001.03-.002.031 0 .477.413.947.71 1.282.782.468.099.782.108.937.156l.156.031.094-.031h.031c.271.147.532.4.782.312l1.937.907c.127-.044-1.99-1.808-2.031-1.844a4.165 4.165 0 0 0-.719-.375l-.03-.125c-.524-.16-.905-.11-1.126-.156-.22-.047-.149-.043-.187-.094l-.25-.313-.313-.187c-.951-.528-1.53-.35-1.875-.438-.01 0-.027-.03-.03-.031-.465-.133-.8-.088-1.032-.062-.236.026-.373.034-.469 0l-.063-.032h-.063c-.63-.126-1.283-.109-1.875.094l-.03-.063c-.068-.002-.062.09-.126.094-.042.018-.084-.022-.125 0l.031.031c-.33.045-.57.173-.781.344-.567-.026-.964.205-1.281.469-.494-.086-1.015-.2-1.532-.281h-.125c-.017-.026-.01-.028-.03-.063-.217-.333-.709-1.058-1.407-1.594v-.03c-.104-.11-.235-.148-.344-.25-.034-.033-.09-.032-.125-.063a6.152 6.152 0 0 0-1.5-1.032c-1.128-.985-2.077-1.246-2.812-1.625l-.156-.062h-.125c-1.375-.254-2.72-.482-4.063-.75l-.187-.031-.188.062c-.116.05-.702-.127-1.406 0-.045.008-.048-.042-.094-.031v.031c-.525.021-1.27-.135-2.031.125l-.031-.031c-.492.074-1.28.023-2.032.187-.032-.003-.15-.074-.25-.093-.083-.042-.209-.105-.28-.125a.357.357 0 0 0-.22 0c-1.28-1.48-.493-2.41-2.125-3.532h-.062c-.781-.5-.943-.628-1.093-.75-.121-.097-.486-.366-.938-.718l-.03-.032c-.682-.722-1.375-1.646-2.25-2.468-.775-.727-1.735-1.203-2.72-1.282-.054-.027-.103-.037-.156-.062-1.218-.564-2.26-.59-3.125-.781h-.062c-1.134-.145-2.273-.54-2.781-1l-.162-.156-.188-.063c-.252-.131-.099-.072-.437-.5-.229-.289.372-.998-.125-1.343-.755-.9 3.44-17.39 2.719-17.938 1.507-2.46 1.337-4.85.968-7.937.89-2.9 3.327-6.455 4.282-9.375h.03c.561-1.302 1.096-2.012 1.876-2.907.741-.85 1.72-1.934 2.969-3.531 1.617-.93 2.631-1.998 3.437-3 .855-1.063 1.61-2.046 3.156-3.156.144-.11.262-.25.344-.406.637-1.1 2.18-2.515 3.75-3.75 1.57-1.236 3.087-2.224 3.938-3.032.206-.21.33-.493.343-.781.12-1.43.7-3.104 1.438-4.406.737-1.302 1.74-2.156 2.062-2.25.17-.041.33-.116.469-.219.234-.196.445-.426.656-.656.788.834 1.599 1.808 2.844 2.469.407.477.853 1.013 1.156 1.156.448.21.333.076.5.344l.094.187.157.125c.511.424 1.11 1.749 1.468 3.219l.031.031v.063c.347 1.073.565 2.476 1.313 3.812.033.058.059.13.094.188.27 1.303.886 2.368 1.687 3 .907.714 1.847 1.118 2.625 1.625.011.007.02-.007.031 0 .405.41.733.735.844.843.138.135.272.318.875 1.094l.03.031v.032c1.327 1.574 1.19 1.895 2.762 2.774 0 .112-.01.233.031.344.033.087.134.191.188.281.038.125.116.27.125.313.01 1.113.243 2.158.281 2.875v.031c-.068 1.182.225 2.15.313 2.875h-.031c0 .07.029.06.03.125.033 1.04.334 1.748.313 1.938l-.03.28.062.22c.512 1.68.995 3.422 1.5 5.156l.031.125.094.187c.483.78.91 1.945 2 2.907v.03c.326.57.75 1.051 1.219 1.438.035.029.058.067.094.094.113.089.164.265.281.344l.031-.031c.617.64 1.38.9 1.72 1 .035.01.01-.01.03 0v.03l.031.157c.178.66.386 1.28.563 1.906-.17.591-.295 1.27-.157 2.032a3.82 3.82 0 0 0-.156 1.28l-.03-.03c-.012.068.038.12.03.187.01.09-.047.159-.03.25l.062-.031c-.059.93.041 1.835.281 2.625l.031.093.031.094c.05.112.07.286.094.625.025.332.07.818.282 1.375v.031c.148.42.12 1.32.78 2.313l.22.312.343.157c.053.022.04-.056.125.218.086.275.127.784.375 1.407l.094-.032c.184.381.44.787.47.813.04.035 2.048 1.856 2.062 1.656l-1.22-2.094c.027-.394-.22-.622-.405-.906v-.031l-.031-.125-.031-.188c-.074-.184-.13-.635-.313-1.218-.131-.418-.506-.904-.969-1.313v-.031c-.11-.184-.212-.906-.562-1.844-.046-.117-.098-.294-.125-.656a4.677 4.677 0 0 0-.281-1.313l.03-.031c-.235-.772 1.049-1.446 1.126-1.937l.03-.188-.03-.219c-.075-.428-.027-.573.094-.843l.156-.407-.094-.406c-.097-.374-.017-.44.219-1.25l.094-.344-.094-.343c-.212-.767-.43-1.525-.625-2.25l-.094.03c-.072-.5-.22-1.026-.563-1.343a2.674 2.674 0 0 0-1.125-.625c-.598-.176-.663-.175-.687-.219l-.157-.25-.218-.156c-.3-.2-.877-.887-1.032-1.25l-.125-.25-.187-.187c-.402-.352-.832-1.225-1.406-2.188-.484-1.667-.98-3.354-1.5-5.062-.05-.829-.22-1.606-.22-1.782v-.093l-.03-.063c-.112-1.206-.378-2.108-.313-2.719v-.187c-.036-.741-.166-1.396-.25-1.969.592.379 1.213.704 1.97.906l.218.063.219-.031c.46-.038 1.003.117 1.718.375.69.249 1.552.607 2.594.562.038 0 .054.001.094 0 1.376.042 2.652.37 4.25.531.01-.003.021-.028.031-.03 7.08 1.74 5.391.531.406-2.47l-.063-.03h-.063c-1.46-.146-2.9-.464-4.625-.5h-.093c-.406.028-.96-.144-1.687-.407a7.862 7.862 0 0 0-2.375-.437l.03-.032c-.726-.194-1.914-1.225-3.75-2.125-.018-.009-.011-.022-.03-.031-1.807-.983-1.208-.92-2.512-2.462-.012-.015-.019-.017-.03-.032-.586-.751-.85-1.043-1.095-1.28-.25-.245-.362-.362-.968-1l-.094-.094-.125-.094c-1.013-.667-1.912-1.06-2.47-1.5-.557-.44-.842-.774-.937-1.781l-.03-.313-.157-.219c-.446-.742-.695-2.044-1.125-3.406-.01-.03-.023-.064-.03-.094-.375-1.515-.918-3.043-2.063-4.156-.021-.017-.01-.03-.031-.062-.067-.063-.117-.16-.188-.22l-.031.032c-.47-.514-1.033-.93-1.25-1.031-.268-.126-.28-.03-.563-.594l-.156-.344-.344-.187c-.714-.38-1.437-1.295-2.437-2.25.237-.335.462-.663.719-1 1.015-1.335 2.16-2.576 3.375-3.156.301-.135.543-.388.656-.688.96-2.81 3.894-6.06 6.812-9 .09-.092.164-.198.22-.312.865-1.658 1.56-2.49 2.312-3.438a27.131 27.131 0 0 0 2.562-3.781h.031c.018-.027.013-.066.031-.094 2.28-3.494 2.852-7.687 4.094-11.25a1.19 1.19 0 0 0 .03-.156c.069-.32.195-.704.345-1.125 1.138.658 2.147 1.093 2.687 1.656l.281.281.375.063c.62.118.525.152.72.375.156.18.72.594 1.343.906l-.031.063c.076.052.172.046.25.093.049.018.043.048.094.063v-.031c1.384.798 3.003.897 4.562.843.031 0 .063.001.094 0 1.428.043 2.727-.07 3.563.157l.281.093.281-.062c.996-.184 1.394-.01 1.97.406.574.417 1.207 1.177 2.124 1.969l.125.094.125.062c.78.41.916.514 1.219.688.296.169.649.33 1.531.687.017.008.014.024.031.031 1.84.833 2.312 1.25 3.75 2.72.014.015.017.015.031.03 1.366 1.52 2.677 2.386 3.063 3.032l.03-.032c.271.863.679 1.622 1.063 2.157.451.628.76 1.1.844 1.5l.03.062v.031c.508 1.649 1.212 2.948 1.75 4.313l.032.062.03.063c1.086 1.99 2.655 3.111 4.345 4.187.038.024.056.07.094.094.365.313.585.578.687.813.114.263.177.588.094 1.187l-.03.031v.063c-.099 1.269.51 2.141.718 2.656.104.258.127.424.125.5 0 .076-.01.117-.188.344l-.28.344v4.968l.374.375c.496.493 1.16 1.54 2.719 2.47l.094.03.094.063c1.238.507 2.306 1.066 3.687 1.812l.062.032.094.031c1.111.398 1.81 1.567 3.563 3h.031l.031.031c.642.47.931 1.276 1.5 2.625.031.073.03.112.063.188l.063-.031c.257.823.734 1.533 1.312 1.937.629.438 1.236.654 1.813.875v-.031c.075.028.174.124.25.187-.031-.028-.046-.057-.094-.125-.69-3.279 1.85.083 2.031 1.031l2.469 1.344-2.187-2.625c.06-.384-.055-.899-.282-1.219-.226-.32-.493-.442-.656-.53-.14-.077-.187-.131-.219-.157-.01-.004-.029-.03-.03-.031l-.032-.063-.344-.125c-.614-.235-1.05-.401-1.28-.562-.232-.161-.334-.235-.438-.657l-.031-.125-.031-.062c-.571-1.341-.993-2.783-2.344-3.813-.023-.018-.04-.043-.062-.062-1.317-1.102-2.214-2.503-4.094-3.25l.031-.031c-1.34-.725-2.48-1.301-3.781-1.844-.955-.57-1.288-1.137-1.875-1.781v-3.282c.199-.397.454-.789.469-1.187.022-.609-.152-1.135-.313-1.531-.32-.794-.556-1.203-.531-1.532.114-.876.04-1.695-.281-2.437-.33-.761-.857-1.359-1.5-1.875l-.063-.063-.062-.03c-1.61-1.02-2.684-1.798-3.5-3.22v-.031c-.592-1.494-1.24-2.656-1.657-3.969-.01-.038-.022-.056-.03-.093-.242-1.016-.823-1.749-1.25-2.344-.444-.618-.754-1.078-.844-1.531l-.031-.22-.094-.187c-.402-.672-.912-1.19-1.438-1.656.574-.076 1.247-.113 1.97-.281l.093-.031.094-.032c.57-.23 1.528-.216 2.719-.437h.063l.063-.032c.168-.048.97-.103 1.781-.28v.03c1.786.034 3.546.021 5.281.032 1.083.29 2.052.459 2.5.75l.22.156.28.031c.391.05 1.194.422 1.47.657l.218.187.281.063c.05.011.074.066.406.593.166.264.413.636.907.938.398.244.935.223 1.437.156v.094c.752-.01 1.549.006 2.344 0h.344l.312-.188c.715-.448.77-.553 1.156-.562h.407l.343-.281c.228-.19.349-.268.782-.313l.218-.031.188-.094c.451-.208.756-1.61 1.562-1.594v-.031a4.701 4.701 0 0 0 1.344-.094c.356-.073.562-.075.688-.062.997.08 1.699-.025 1.906.031h.03c.52.334 1.095.55 1.532.563.611.017 1.052-.052 1.25-.032h.188l.125-.031c.019-.001.013.003.03 0 .325.101.629.289 1 .156l2.344.594c.189-.067-2.111-1.502-2.156-1.531-.033-.022-.49-.146-.906-.219v-.125c-.667-.07-1.181.04-1.469.031-.288-.008-.214-.017-.25-.062l-.219-.281-.375-.125c-1.135-.366-1.992-.098-2.437-.125h-.031c-.594-.052-1.08.058-1.406.125-.334.068-.504.08-.625.062h-.188a7.422 7.422 0 0 0-2.594.438v-.063c-.092.01-.13.078-.219.094-.063.026-.124.002-.187.031l.03.031a3.8 3.8 0 0 0-1.187.5c-.77.075-1.384.364-1.906.688-.65 0-1.317-.01-2 0h-.187c-.016-.023.02 0 0-.031-.188-.3-.653-.957-1.438-1.375l.031-.032c-.107-.091-.29-.103-.406-.187-.036-.027-.088-.037-.125-.063-.507-.349-1.104-.592-1.75-.75l.031-.031c-1.228-.797-2.489-.872-3.375-1.125l-.187-.031h-.157c-1.806-.013-3.587.002-5.343-.032h-.25l-.25.094c-.177.072-.928-.004-1.938.25-.064.016-.058-.02-.125 0v.031c-.728.115-1.744.101-2.875.5v-.031c-.7.163-1.758.23-2.844.531-.043.003-.214-.029-.343-.031-.102-.027-.22-.086-.313-.094-.118-.01-.237.03-.344.063-1.275-1.272-2.248-2.061-4.125-2.906h-.062c-.91-.368-1.113-.467-1.28-.563-.135-.077-.526-.285-1.032-.562l-.031-.032c-.7-.61-1.346-1.416-2.281-2.094-.827-.598-2.017-.908-3.344-.812-.065-.018-.123-.016-.188-.031-1.49-.355-2.904-.179-4.03-.22h-.094c-1.513.057-2.953-.154-3.5-.53l-.157-.125-.219-.032c-.303-.088-.143-.033-.469-.406-.22-.252-.867-.52-1.437-.781-1.114-1.161-2.454-1.699-3.563-2.313.109-.266.203-.505.313-.78.687-1.722 1.387-3.584 1.562-5.5v-.157c-.01-.192.01-.128 0-.281v-.032c.04-.223.03-.222.031-.312v-.313c0-.293-.019-.746-.03-1.375.01-.694-.718-1.31-1.438-1.218z" overflow="visible"/></g><path d="M206.411 214.344V35.014" fill="none" stroke="#000" overflow="visible"/><text y="-244.517" x="-1015.244" style="line-height:125%" font-size="10" font-weight="400" letter-spacing="0" word-spacing="0" overflow="visible" font-family="Sans" transform="translate(1191.46 262.114)"><tspan y="-232.017" x="-1008.244">SA Nodal</tspan></text><path d="M248.472 430.248H131.39" fill="none" stroke="#000" overflow="visible"/><text y="156.89" x="-1108.495" style="line-height:125%" font-size="10" font-weight="400" letter-spacing="0" word-spacing="0" overflow="visible" font-family="Sans" transform="translate(1191.46 262.114)"><tspan y="156.89" x="-1108.495">Right</tspan><tspan y="169.39" x="-1108.495">marginal</tspan><tspan y="181.89" x="-1108.495">branch</tspan></text><path d="M337.63 478.193v-55.33" fill="none" stroke="#000" overflow="visible"/><text y="225.043" x="-880.978" style="line-height:125%" font-size="10" font-weight="400" letter-spacing="0" word-spacing="0" overflow="visible" font-family="Sans" transform="translate(1191.46 262.114)"><tspan y="225.043" x="-880.978">Posterior</tspan><tspan y="237.543" x="-880.978">Descending</tspan><tspan y="250.043" x="-880.978">Artery</tspan></text><text y="87.024" x="-1155.471" style="line-height:125%" font-size="10" font-weight="400" letter-spacing="0" word-spacing="0" overflow="visible" font-family="Sans" transform="translate(1191.46 262.114)"><tspan y="93.024" x="-1120.471">AV nodal</tspan></text><path d="M304.473 354.246H113.392" fill="none" stroke="#000" overflow="visible"/><text y="-15.63" x="-1116.256" style="line-height:125%" font-size="10" font-weight="400" letter-spacing="0" word-spacing="0" overflow="visible" font-family="Sans" transform="translate(1191.46 262.114)"><tspan y="-3.13" x="-1160.256">Right Coronary Artery</tspan></text><path d="M259.908 257.622H124.826M514.472 220.248H353.39M575.998 424.142H408.917M588.472 242.248H423.39" fill="none" stroke="#000" overflow="visible"/><text y="-56.155" x="-672.661" style="line-height:125%" font-size="10" font-weight="400" letter-spacing="0" word-spacing="0" overflow="visible" font-family="Sans" transform="translate(1191.46 262.114)"><tspan y="-39.655" x="-672.661">Left Main</tspan></text><text y="-26.262" x="-601.38" style="line-height:125%" font-size="10" font-weight="400" letter-spacing="0" word-spacing="0" overflow="visible" font-family="Sans" transform="translate(1191.46 262.114)"><tspan y="-18.262" x="-600.38">Left Circumflex</tspan></text><text y="152.062" x="-606.974" style="line-height:125%" font-size="10" font-weight="400" letter-spacing="0" word-spacing="0" overflow="visible" font-family="Sans" transform="translate(1191.46 262.114)"><tspan y="152.062" x="-606.974">Anterior</tspan><tspan y="164.562" x="-606.974">Interventricular</tspan><tspan y="177.062" x="-606.974">Artery</tspan></text></svg>