<svg color-interpolation="auto" stroke="#000" stroke-linecap="square" width="327" stroke-miterlimit="10" height="169" xmlns="http://www.w3.org/2000/svg" font-family="'Dialog'" font-size="12"><defs><clipPath id="a"><path d="M0 0h327v169H0V0z"/></clipPath><clipPath id="b"><path d="M91.43 68.155c-9.026 0-16.344 7.318-16.344 16.345s7.318 16.345 16.345 16.345 16.345-7.318 16.345-16.345-7.318-16.345-16.345-16.345z"/></clipPath><clipPath id="c"><path d="M147.413 68.155c-9.027 0-16.345 7.318-16.345 16.345s7.318 16.345 16.345 16.345 16.345-7.318 16.345-16.345-7.318-16.345-16.345-16.345z"/></clipPath><clipPath id="d"><path d="M69.17 67.147c-9.583 0-17.353 7.77-17.353 17.353 0 9.584 7.77 17.353 17.353 17.353 9.584 0 17.353-7.77 17.353-17.353 0-9.584-7.77-17.353-17.353-17.353z"/></clipPath><clipPath id="e"><path d="M80.3 56.673c-7.672 0-13.891 6.22-13.891 13.892s6.22 13.892 13.892 13.892 13.891-6.22 13.891-13.892-6.22-13.892-13.891-13.892z"/></clipPath><clipPath id="f"><path d="M191.233 56.673c-7.672 0-13.892 6.22-13.892 13.892s6.22 13.892 13.892 13.892 13.892-6.22 13.892-13.892-6.22-13.892-13.892-13.892z"/></clipPath><clipPath id="g"><path d="M246.7 63.64c-11.52 0-20.86 9.34-20.86 20.86s9.34 20.86 20.86 20.86 20.859-9.34 20.859-20.86-9.34-20.86-20.86-20.86z"/></clipPath><clipPath id="h"><path d="M246.7 61.582c-12.658 0-22.919 10.26-22.919 22.918 0 12.657 10.261 22.918 22.918 22.918 12.658 0 22.918-10.26 22.918-22.918 0-12.657-10.26-22.918-22.918-22.918z"/></clipPath><clipPath id="i"><path d="M-73.472-72h327V97h-327V-72z"/></clipPath><clipPath id="j"><path d="M-72.974-91.622h327v169h-327v-169z"/></clipPath><clipPath id="k"><path d="M-128.423-72h327V97h-327V-72z"/></clipPath><clipPath id="l"><path d="M-184.405-72h327V97h-327V-72z"/></clipPath><clipPath id="m"><path d="M-183.906-91.622h327v169h-327v-169z"/></clipPath><clipPath id="n"><path d="M-19.006-72h327V97h-327V-72z"/></clipPath><clipPath id="o"><path d="M-74.472-16.534h327v169h-327v-169z"/></clipPath><clipPath id="p"><path d="M-185.405-16.534h327v169h-327v-169z"/></clipPath><clipPath id="q"><path d="M-240.871-16.534h327v169h-327v-169z"/></clipPath><clipPath id="r"><path d="M-296.338-72h327V97h-327V-72z"/></clipPath><clipPath id="s"><path d="M-240.871-127.466h327v169h-327v-169z"/></clipPath></defs><g fill="red" text-rendering="geometricPrecision" stroke="none"><path d="M91.43 85.7h32.69a1.2 1.2 0 1 0 0-2.4H91.43a1.2 1.2 0 1 0 0 2.4z" clip-path="url(#a)"/><path fill="#000" d="M91.43 85.7h32.69a1.2 1.2 0 1 0 0-2.4H91.43a1.2 1.2 0 1 0 0 2.4z" clip-path="url(#b)"/></g><g text-rendering="geometricPrecision" stroke="none"><path d="M147.413 85.7h32.69a1.2 1.2 0 1 0 0-2.4h-32.69a1.2 1.2 0 1 0 0 2.4z" clip-path="url(#a)"/><path fill="red" d="M147.413 85.7h32.69a1.2 1.2 0 1 0 0-2.4h-32.69a1.2 1.2 0 1 0 0 2.4z" clip-path="url(#c)"/></g><path d="M202.363 85.7H246.7a1.2 1.2 0 1 0 0-2.4h-44.336a1.2 1.2 0 1 0 0 2.4z" stroke="none" clip-path="url(#a)" text-rendering="geometricPrecision"/><g fill="#960" text-rendering="geometricPrecision" stroke="none"><path d="M69.17 83.3H34.465a1.2 1.2 0 1 0 0 2.4H69.17a1.2 1.2 0 1 0 0-2.4z" clip-path="url(#a)"/><path fill="#000" d="M69.17 83.3H34.465a1.2 1.2 0 1 0 0 2.4H69.17a1.2 1.2 0 1 0 0-2.4z" clip-path="url(#d)"/></g><g fill="#960" text-rendering="geometricPrecision" stroke="none"><path d="M81.501 70.565V42.781a1.2 1.2 0 1 0-2.401 0v27.784a1.2 1.2 0 1 0 2.401 0z" clip-path="url(#a)"/><path fill="#000" d="M81.501 70.565V42.781a1.2 1.2 0 1 0-2.401 0v27.784a1.2 1.2 0 1 0 2.401 0z" clip-path="url(#e)"/></g><g fill="#960" text-rendering="geometricPrecision" stroke="none"><path d="M192.434 70.565V42.781a1.2 1.2 0 1 0-2.401 0v27.784a1.2 1.2 0 1 0 2.4 0z" clip-path="url(#a)"/><path fill="#000" d="M192.434 70.565V42.781a1.2 1.2 0 1 0-2.401 0v27.784a1.2 1.2 0 1 0 2.4 0z" clip-path="url(#f)"/></g><g fill="#960" text-rendering="geometricPrecision" stroke="none"><path d="M247.9 84.5V42.781a1.2 1.2 0 1 0-2.401 0V84.5a1.2 1.2 0 1 0 2.401 0z" clip-path="url(#a)"/><path fill="#000" d="M247.9 84.5V42.781a1.2 1.2 0 1 0-2.401 0V84.5a1.2 1.2 0 1 0 2.401 0z" clip-path="url(#g)"/></g><g fill="#960" text-rendering="geometricPrecision" stroke="none"><path d="M246.7 85.7h45.835a1.2 1.2 0 1 0 0-2.4H246.7a1.2 1.2 0 1 0 0 2.4z" clip-path="url(#a)"/><path fill="#000" d="M246.7 85.7h45.835a1.2 1.2 0 1 0 0-2.4H246.7a1.2 1.2 0 1 0 0 2.4z" clip-path="url(#h)"/></g><g fill="#960" text-rendering="geometricPrecision" stroke="none"><path d="M245.499 84.5v41.719a1.2 1.2 0 1 0 2.401 0V84.5a1.2 1.2 0 1 0-2.401 0z" clip-path="url(#a)"/><path fill="#000" d="M245.499 84.5v41.719a1.2 1.2 0 1 0 2.401 0V84.5a1.2 1.2 0 1 0-2.401 0z" clip-path="url(#g)"/></g><path d="M78.601 75.367a4.629 4.629 0 0 0-4.629 4.63v9.257a4.629 4.629 0 0 0 4.63 4.629H82a4.629 4.629 0 0 0 4.629-4.63v-9.257a4.629 4.629 0 0 0-4.63-4.629zm-.155 19.81a4.473 4.473 0 0 0-4.472 4.472v8.945a4.473 4.473 0 0 0 4.472 4.473h2.274a4.473 4.473 0 0 0 4.472-4.472v-8.946a4.473 4.473 0 0 0-4.472-4.472z" stroke="none" clip-path="url(#a)" fill="#fff" text-rendering="geometricPrecision"/><text y="20" clip-path="url(#i)" stroke="none" transform="translate(73.472 72)" text-rendering="geometricPrecision" font-size="19" font-family="sans-serif">C</text><text y="20" clip-path="url(#j)" stroke="none" transform="translate(72.974 91.622)" text-rendering="geometricPrecision" font-size="19" font-family="sans-serif">H</text><g fill="#fff" text-rendering="geometricPrecision" font-size="19" font-family="sans-serif" stroke="none"><path d="M133.557 75.357a4.634 4.634 0 0 0-4.634 4.634v9.268a4.634 4.634 0 0 0 4.634 4.634h4.42a4.634 4.634 0 0 0 4.634-4.634V79.99a4.634 4.634 0 0 0-4.634-4.634z" clip-path="url(#a)"/><text y="20" transform="translate(128.423 72)" clip-path="url(#k)" fill="red">O</text></g><g fill="#fff" text-rendering="geometricPrecision" font-size="19" font-family="sans-serif" stroke="none"><path d="M189.534 75.367a4.629 4.629 0 0 0-4.629 4.63v9.257a4.629 4.629 0 0 0 4.629 4.629h3.398a4.629 4.629 0 0 0 4.63-4.63v-9.257a4.629 4.629 0 0 0-4.63-4.629zm-.155 19.81a4.473 4.473 0 0 0-4.473 4.472v8.945a4.473 4.473 0 0 0 4.473 4.473h2.273a4.473 4.473 0 0 0 4.473-4.472v-8.946a4.473 4.473 0 0 0-4.473-4.472z" clip-path="url(#a)"/><text y="20" transform="translate(184.405 72)" clip-path="url(#l)" fill="#000">C</text></g><text y="20" clip-path="url(#m)" stroke="none" transform="translate(183.906 91.622)" text-rendering="geometricPrecision" font-size="19" font-family="sans-serif">H</text><g fill="#fff" text-rendering="geometricPrecision" font-size="19" font-family="sans-serif" stroke="none"><path d="M24.479 75.555a4.473 4.473 0 0 0-4.473 4.472v8.946a4.473 4.473 0 0 0 4.473 4.472h.71a4.473 4.473 0 0 0 4.473-4.472v-8.946a4.473 4.473 0 0 0-4.472-4.472z" clip-path="url(#a)"/><text y="20" transform="translate(19.006 72)" clip-path="url(#n)" fill="#960">F</text></g><g fill="#fff" text-rendering="geometricPrecision" font-size="19" font-family="sans-serif" stroke="none"><path d="M79.945 20.088a4.473 4.473 0 0 0-4.472 4.473v8.945a4.473 4.473 0 0 0 4.472 4.473h.711a4.473 4.473 0 0 0 4.473-4.473v-8.945a4.473 4.473 0 0 0-4.473-4.473z" clip-path="url(#a)"/><text y="20" transform="translate(74.472 16.534)" clip-path="url(#o)" fill="#960">F</text></g><g fill="#fff" text-rendering="geometricPrecision" font-size="19" font-family="sans-serif" stroke="none"><path d="M190.878 20.088a4.473 4.473 0 0 0-4.473 4.473v8.945a4.473 4.473 0 0 0 4.473 4.473h.71a4.473 4.473 0 0 0 4.473-4.473v-8.945a4.473 4.473 0 0 0-4.472-4.473z" clip-path="url(#a)"/><text y="20" transform="translate(185.405 16.534)" clip-path="url(#p)" fill="#960">F</text></g><g fill="#fff" text-rendering="geometricPrecision" font-size="19" font-family="sans-serif" stroke="none"><path d="M246.344 20.088a4.473 4.473 0 0 0-4.473 4.473v8.945a4.473 4.473 0 0 0 4.473 4.473h.71a4.473 4.473 0 0 0 4.474-4.473v-8.945a4.473 4.473 0 0 0-4.473-4.473z" clip-path="url(#a)"/><text y="20" transform="translate(240.871 16.534)" clip-path="url(#q)" fill="#960">F</text></g><g fill="#fff" text-rendering="geometricPrecision" font-size="19" font-family="sans-serif" stroke="none"><path d="M301.81 75.555a4.473 4.473 0 0 0-4.472 4.472v8.946a4.473 4.473 0 0 0 4.472 4.472h.711a4.473 4.473 0 0 0 4.473-4.472v-8.946a4.473 4.473 0 0 0-4.473-4.472z" clip-path="url(#a)"/><text y="20" transform="translate(296.338 72)" clip-path="url(#r)" fill="#960">F</text></g><g fill="#fff" text-rendering="geometricPrecision" font-size="19" font-family="sans-serif" stroke="none"><path d="M246.344 131.021a4.473 4.473 0 0 0-4.473 4.473v8.945a4.473 4.473 0 0 0 4.473 4.473h.71a4.473 4.473 0 0 0 4.474-4.473v-8.945a4.473 4.473 0 0 0-4.473-4.473z" clip-path="url(#a)"/><text y="20" transform="translate(240.871 127.466)" clip-path="url(#s)" fill="#960">F</text></g></svg>