<svg color-interpolation="auto" stroke="#000" stroke-linecap="square" width="491" stroke-miterlimit="10" height="253" xmlns="http://www.w3.org/2000/svg" font-family="'Dialog'" font-size="12"><defs><clipPath id="a"><path d="M0 0h491v253H0V0z"/></clipPath><clipPath id="b"><path d="M120.842 93.678c-18.127 0-32.822 14.695-32.822 32.822 0 18.127 14.695 32.822 32.822 32.822 18.128 0 32.822-14.695 32.822-32.822 0-18.127-14.694-32.822-32.822-32.822z"/></clipPath><clipPath id="c"><path d="M221.408 93.678c-18.127 0-32.822 14.695-32.822 32.822 0 18.127 14.695 32.822 32.822 32.822 18.127 0 32.822-14.695 32.822-32.822 0-18.127-14.695-32.822-32.822-32.822z"/></clipPath><clipPath id="d"><path d="M120.842 92.166c-18.962 0-34.334 15.372-34.334 34.334 0 18.962 15.372 34.334 34.334 34.334 18.962 0 34.334-15.372 34.334-34.334 0-18.962-15.372-34.334-34.334-34.334z"/></clipPath><clipPath id="e"><path d="M120.842 95.254c-17.256 0-31.246 13.99-31.246 31.246 0 17.257 13.99 31.246 31.246 31.246 17.257 0 31.246-13.99 31.246-31.246 0-17.257-13.989-31.246-31.246-31.246z"/></clipPath><clipPath id="f"><path d="M287.053 95.254c-17.257 0-31.246 13.99-31.246 31.246 0 17.257 13.989 31.246 31.246 31.246 17.256 0 31.246-13.99 31.246-31.246 0-17.257-13.99-31.246-31.246-31.246z"/></clipPath><clipPath id="g"><path d="M370.158 95.254c-17.257 0-31.246 13.99-31.246 31.246 0 17.257 13.989 31.246 31.246 31.246 17.256 0 31.246-13.99 31.246-31.246 0-17.257-13.99-31.246-31.246-31.246z"/></clipPath><clipPath id="h"><path d="M370.158 92.166c-18.962 0-34.334 15.372-34.334 34.334 0 18.962 15.372 34.334 34.334 34.334 18.962 0 34.334-15.372 34.334-34.334 0-18.962-15.372-34.334-34.334-34.334z"/></clipPath><clipPath id="i"><path d="M-192.682-107.5h491v253h-491v-253z"/></clipPath><clipPath id="j"><path d="M-28.495-107.5h491v253h-491v-253z"/></clipPath><clipPath id="k"><path d="M-111.6-24.395h491v253h-491v-253z"/></clipPath><clipPath id="l"><path d="M-277.81-24.395h491v253h-491v-253z"/></clipPath><clipPath id="m"><path d="M-360.916-24.395h491v253h-491v-253z"/></clipPath><clipPath id="n"><path d="M-444.02-107.5h491v253h-491v-253z"/></clipPath><clipPath id="o"><path d="M-360.916-190.605h491v253h-491v-253z"/></clipPath><clipPath id="p"><path d="M-110.42-190.605h491v253h-491v-253z"/></clipPath><clipPath id="q"><path d="M-276.63-190.605h491v253h-491v-253z"/></clipPath></defs><g fill="red" text-rendering="geometricPrecision" stroke="none"><path d="M120.842 128.299h65.645a1.799 1.799 0 1 0 0-3.598h-65.645a1.799 1.799 0 1 0 0 3.598z" clip-path="url(#a)"/><path fill="#000" d="M120.842 128.299h65.645a1.799 1.799 0 1 0 0-3.598h-65.645a1.799 1.799 0 1 0 0 3.598z" clip-path="url(#b)"/></g><g text-rendering="geometricPrecision" stroke="none"><path d="M221.408 128.299h65.645a1.799 1.799 0 1 0 0-3.598h-65.645a1.799 1.799 0 1 0 0 3.598z" clip-path="url(#a)"/><path fill="red" d="M221.408 128.299h65.645a1.799 1.799 0 1 0 0-3.598h-65.645a1.799 1.799 0 1 0 0 3.598z" clip-path="url(#c)"/></g><path d="M287.053 128.299h83.105a1.799 1.799 0 1 0 0-3.598h-83.105a1.799 1.799 0 1 0 0 3.598z" clip-path="url(#a)" text-rendering="geometricPrecision" stroke="none"/><g fill="#960" text-rendering="geometricPrecision" stroke="none"><path d="M120.842 124.701H52.174a1.799 1.799 0 1 0 0 3.598h68.668a1.799 1.799 0 1 0 0-3.598z" clip-path="url(#a)"/><path fill="#000" d="M120.842 124.701H52.174a1.799 1.799 0 1 0 0 3.598h68.668a1.799 1.799 0 1 0 0-3.598z" clip-path="url(#d)"/></g><g fill="#960" text-rendering="geometricPrecision" stroke="none"><path d="M122.641 126.5V64.008a1.799 1.799 0 1 0-3.598 0V126.5a1.799 1.799 0 1 0 3.598 0z" clip-path="url(#a)"/><path fill="#000" d="M122.641 126.5V64.008a1.799 1.799 0 1 0-3.598 0V126.5a1.799 1.799 0 1 0 3.598 0z" clip-path="url(#e)"/></g><g fill="#960" text-rendering="geometricPrecision" stroke="none"><path d="M288.851 126.5V64.008a1.799 1.799 0 1 0-3.597 0V126.5a1.799 1.799 0 1 0 3.597 0z" clip-path="url(#a)"/><path fill="#000" d="M288.851 126.5V64.008a1.799 1.799 0 1 0-3.597 0V126.5a1.799 1.799 0 1 0 3.597 0z" clip-path="url(#f)"/></g><g fill="#960" text-rendering="geometricPrecision" stroke="none"><path d="M371.957 126.5V64.008a1.799 1.799 0 1 0-3.598 0V126.5a1.799 1.799 0 1 0 3.598 0z" clip-path="url(#a)"/><path fill="#000" d="M371.957 126.5V64.008a1.799 1.799 0 1 0-3.598 0V126.5a1.799 1.799 0 1 0 3.598 0z" clip-path="url(#g)"/></g><g fill="#960" text-rendering="geometricPrecision" stroke="none"><path d="M370.158 128.299h68.667a1.799 1.799 0 1 0 0-3.598h-68.667a1.799 1.799 0 1 0 0 3.598z" clip-path="url(#a)"/><path fill="#000" d="M370.158 128.299h68.667a1.799 1.799 0 1 0 0-3.598h-68.667a1.799 1.799 0 1 0 0 3.598z" clip-path="url(#h)"/></g><g fill="#960" text-rendering="geometricPrecision" stroke="none"><path d="M368.359 126.5v62.492a1.799 1.799 0 1 0 3.598 0V126.5a1.799 1.799 0 1 0-3.598 0z" clip-path="url(#a)"/><path fill="#000" d="M368.359 126.5v62.492a1.799 1.799 0 1 0 3.598 0V126.5a1.799 1.799 0 1 0-3.598 0z" clip-path="url(#g)"/></g><g fill="#333" text-rendering="geometricPrecision" stroke="none"><path d="M119.043 126.5v62.492a1.798 1.798 0 1 0 3.598 0V126.5a1.799 1.799 0 1 0-3.598 0z" clip-path="url(#a)"/><path fill="#000" d="M119.043 126.5v62.492a1.798 1.798 0 1 0 3.598 0V126.5a1.799 1.799 0 1 0-3.598 0z" clip-path="url(#e)"/></g><g fill="#333" text-rendering="geometricPrecision" stroke="none"><path d="M285.254 126.5v62.492a1.798 1.798 0 1 0 3.597 0V126.5a1.799 1.799 0 1 0-3.597 0z" clip-path="url(#a)"/><path fill="#000" d="M285.254 126.5v62.492a1.798 1.798 0 1 0 3.597 0V126.5a1.799 1.799 0 1 0-3.597 0z" clip-path="url(#f)"/></g><path d="M200.625 112.793a6.943 6.943 0 0 0-6.943 6.943v13.887a6.943 6.943 0 0 0 6.943 6.943h6.645a6.943 6.943 0 0 0 6.943-6.943v-13.887a6.943 6.943 0 0 0-6.943-6.943z" clip-path="url(#a)" fill="#fff" text-rendering="geometricPrecision" stroke="none"/><text y="31" clip-path="url(#i)" stroke="none" transform="translate(192.682 107.5)" fill="red" text-rendering="geometricPrecision" font-size="29" font-family="sans-serif">O</text><g fill="#fff" text-rendering="geometricPrecision" font-size="29" font-family="sans-serif" stroke="none"><path d="M37.204 113.082a6.709 6.709 0 0 0-6.71 6.709v13.418a6.709 6.709 0 0 0 6.71 6.709h1.066a6.709 6.709 0 0 0 6.71-6.709v-13.418a6.709 6.709 0 0 0-6.71-6.709z" clip-path="url(#a)"/><text y="31" transform="translate(28.495 107.5)" clip-path="url(#j)" fill="#960">F</text></g><g fill="#fff" text-rendering="geometricPrecision" font-size="29" font-family="sans-serif" stroke="none"><path d="M120.31 29.977a6.709 6.709 0 0 0-6.71 6.709v13.418a6.709 6.709 0 0 0 6.71 6.709h1.066a6.709 6.709 0 0 0 6.708-6.71V36.687a6.709 6.709 0 0 0-6.709-6.71z" clip-path="url(#a)"/><text y="31" transform="translate(111.6 24.395)" clip-path="url(#k)" fill="#960">F</text></g><g fill="#fff" text-rendering="geometricPrecision" font-size="29" font-family="sans-serif" stroke="none"><path d="M286.52 29.977a6.709 6.709 0 0 0-6.71 6.709v13.418a6.709 6.709 0 0 0 6.71 6.709h1.066a6.709 6.709 0 0 0 6.709-6.71V36.687a6.709 6.709 0 0 0-6.71-6.71z" clip-path="url(#a)"/><text y="31" transform="translate(277.81 24.395)" clip-path="url(#l)" fill="#960">F</text></g><g fill="#fff" text-rendering="geometricPrecision" font-size="29" font-family="sans-serif" stroke="none"><path d="M369.625 29.977a6.709 6.709 0 0 0-6.71 6.709v13.418a6.709 6.709 0 0 0 6.71 6.709h1.066a6.709 6.709 0 0 0 6.709-6.71V36.687a6.709 6.709 0 0 0-6.71-6.71z" clip-path="url(#a)"/><text y="31" transform="translate(360.916 24.395)" clip-path="url(#m)" fill="#960">F</text></g><g fill="#fff" text-rendering="geometricPrecision" font-size="29" font-family="sans-serif" stroke="none"><path d="M452.73 113.082a6.709 6.709 0 0 0-6.71 6.709v13.418a6.709 6.709 0 0 0 6.71 6.709h1.066a6.709 6.709 0 0 0 6.71-6.709v-13.418a6.709 6.709 0 0 0-6.71-6.709z" clip-path="url(#a)"/><text y="31" transform="translate(444.02 107.5)" clip-path="url(#n)" fill="#960">F</text></g><g fill="#fff" text-rendering="geometricPrecision" font-size="29" font-family="sans-serif" stroke="none"><path d="M369.625 196.187a6.709 6.709 0 0 0-6.71 6.71v13.417a6.709 6.709 0 0 0 6.71 6.71h1.066a6.709 6.709 0 0 0 6.709-6.71v-13.418a6.709 6.709 0 0 0-6.71-6.709z" clip-path="url(#a)"/><text y="31" transform="translate(360.916 190.605)" clip-path="url(#o)" fill="#960">F</text></g><g fill="#fff" text-rendering="geometricPrecision" font-size="29" font-family="sans-serif" stroke="none"><path d="M119.13 196.187a6.709 6.709 0 0 0-6.71 6.71v13.417a6.709 6.709 0 0 0 6.71 6.71h3.425a6.709 6.709 0 0 0 6.71-6.71v-13.418a6.709 6.709 0 0 0-6.71-6.709z" clip-path="url(#a)"/><text y="31" transform="translate(110.42 190.605)" clip-path="url(#p)" fill="#333">H</text></g><g fill="#fff" text-rendering="geometricPrecision" font-size="29" font-family="sans-serif" stroke="none"><path d="M285.34 196.187a6.709 6.709 0 0 0-6.71 6.71v13.417a6.709 6.709 0 0 0 6.71 6.71h3.425a6.709 6.709 0 0 0 6.71-6.71v-13.418a6.709 6.709 0 0 0-6.71-6.709z" clip-path="url(#a)"/><text y="31" transform="translate(276.63 190.605)" clip-path="url(#q)" fill="#333">H</text></g></svg>