<svg height="330" width="600" color-interpolation="auto" stroke="#000" stroke-linecap="square" stroke-miterlimit="10" xmlns="http://www.w3.org/2000/svg" font-family="'Dialog'" font-size="12"><defs><clipPath id="a"><path d="M0 0h618v481H0V0z"/></clipPath><clipPath id="b"><path d="M408.063 94.503c-12.015 0-21.755 9.74-21.755 21.756 0 12.015 9.74 21.755 21.755 21.755 12.016 0 21.756-9.74 21.756-21.755 0-12.015-9.74-21.756-21.756-21.756z"/></clipPath><clipPath id="c"><path d="M214.745 103.302c-11.34 0-20.533 9.193-20.533 20.534 0 11.34 9.193 20.533 20.533 20.533 11.34 0 20.534-9.193 20.534-20.533 0-11.34-9.193-20.534-20.534-20.534z"/></clipPath><clipPath id="d"><path d="M217.647 158.553c-11.406 0-20.653 9.246-20.653 20.652 0 11.407 9.247 20.653 20.653 20.653 11.406 0 20.653-9.246 20.653-20.653 0-11.406-9.247-20.652-20.653-20.652z"/></clipPath><clipPath id="e"><path d="M-449.447-76.037h618v481h-618v-481z"/></clipPath><clipPath id="f"><path d="M-475.244-86.373h618v481h-618v-481z"/></clipPath><clipPath id="g"><path d="M-149.183-81.138h618v481h-618v-481z"/></clipPath><clipPath id="h"><path d="M-150.568-194.428h618v481h-618v-481z"/></clipPath><clipPath id="i"><path d="M291.445 224.007h55.55v14.645h-55.55v-14.645z"/></clipPath><clipPath id="j"><path d="M233.566 287.01h44.441v14.645h-44.44v-14.646z"/></clipPath><clipPath id="k"><path d="M205.318 21.246h60.096v14.645h-60.096V21.246z"/></clipPath><clipPath id="l"><path d="M467.576 160.128h66.66v14.645h-66.66v-14.645z"/></clipPath><clipPath id="m"><path d="M20.558 118.498h41.41v31.31h-41.41v-31.31z"/></clipPath></defs><g fill="#339" text-rendering="geometricPrecision" stroke="none"><path d="M408.663 117.298l37.682-21.755a1.2 1.2 0 1 0-1.2-2.079l-37.682 21.755a1.2 1.2 0 1 0 1.2 2.08z" clip-path="url(#a)"/><path fill="#000" d="M408.663 117.298l37.682-21.755a1.2 1.2 0 1 0-1.2-2.079l-37.682 21.755a1.2 1.2 0 1 0 1.2 2.08z" clip-path="url(#b)"/></g><path d="M357.374 92.16l50.151 25.171a1.2 1.2 0 1 0 1.077-2.145L358.45 90.015a1.2 1.2 0 1 0-1.076 2.145z" clip-path="url(#a)" text-rendering="geometricPrecision" stroke="none"/><path d="M311.253 119.845l47.266-27.722a1.2 1.2 0 1 0-1.214-2.07l-47.267 27.722a1.2 1.2 0 1 0 1.215 2.07z" clip-path="url(#a)" text-rendering="geometricPrecision" stroke="none"/><path d="M314.746 174.117l-2.902-55.37a1.2 1.2 0 1 0-2.397.126l2.902 55.37a1.2 1.2 0 1 0 2.397-.126z" clip-path="url(#a)" text-rendering="geometricPrecision" stroke="none"/><path d="M266.797 191.185a1.2 1.2 0 1 0 1.307 2.013l34.801-22.601a1.2 1.2 0 1 0-1.307-2.013zm-.402 12.186a1.2 1.2 0 1 0 1.307 2.013l46.5-30.198a1.2 1.2 0 1 0-1.308-2.013z" clip-path="url(#a)" text-rendering="geometricPrecision" stroke="none"/><path d="M217.102 180.275l49.401 25.172a1.2 1.2 0 1 0 1.09-2.139l-49.401-25.172a1.2 1.2 0 1 0-1.09 2.139z" clip-path="url(#a)" text-rendering="geometricPrecision" stroke="none"/><path d="M226.296 130.214a1.2 1.2 0 1 0-2.397.125l2.172 41.441a1.2 1.2 0 1 0 2.397-.125zm-10.352-6.441a1.2 1.2 0 1 0-2.397.126l2.902 55.37a1.2 1.2 0 1 0 2.397-.126zm45.846-31.204a1.2 1.2 0 1 0-1.09 2.138l49.4 25.172a1.2 1.2 0 1 0 1.09-2.139zm1.673 12.077a1.2 1.2 0 1 0-1.09 2.138l36.974 18.84a1.2 1.2 0 1 0 1.09-2.139z" clip-path="url(#a)" text-rendering="geometricPrecision" stroke="none"/><path d="M260.591 92.631l-46.5 30.198a1.2 1.2 0 1 0 1.308 2.013l46.5-30.198a1.2 1.2 0 1 0-1.308-2.013z" clip-path="url(#a)" text-rendering="geometricPrecision" stroke="none"/><g fill="red" text-rendering="geometricPrecision" stroke="none"><path d="M215.399 122.83l-34.442-22.368a1.2 1.2 0 1 0-1.307 2.013l34.442 22.367a1.2 1.2 0 1 0 1.307-2.013z" clip-path="url(#a)"/><path fill="#000" d="M215.399 122.83l-34.442-22.368a1.2 1.2 0 1 0-1.307 2.013l34.442 22.367a1.2 1.2 0 1 0 1.307-2.013z" clip-path="url(#c)"/></g><g fill="red" text-rendering="geometricPrecision" stroke="none"><path d="M217.047 178.166l-35.772 20.653a1.2 1.2 0 1 0 1.2 2.079l35.772-20.653a1.2 1.2 0 1 0-1.2-2.079z" clip-path="url(#a)"/><path fill="#000" d="M217.047 178.166l-35.772 20.653a1.2 1.2 0 1 0 1.2 2.079l35.772-20.653a1.2 1.2 0 1 0-1.2-2.079z" clip-path="url(#d)"/></g><path d="M454.92 79.591a4.473 4.473 0 0 0-4.473 4.473v8.945a4.473 4.473 0 0 0 4.473 4.473h15.351a4.473 4.473 0 0 0 4.473-4.473v7.356a4.492 4.492 0 0 0 4.492 4.493h.47a4.492 4.492 0 0 0 4.492-4.493v-8.984a4.492 4.492 0 0 0-4.492-4.492h-.47a4.492 4.492 0 0 0-4.492 4.492v-7.317a4.473 4.473 0 0 0-4.473-4.473z" clip-path="url(#a)" fill="#fff" text-rendering="geometricPrecision" stroke="none"/><text y="20" clip-path="url(#e)" stroke="none" transform="translate(449.447 76.037)" fill="#339" text-rendering="geometricPrecision" font-size="19" font-family="sans-serif">NH</text><text y="15" clip-path="url(#f)" stroke="none" transform="translate(475.244 86.373)" fill="#339" text-rendering="geometricPrecision" font-size="14" font-family="sans-serif">2</text><g fill="#fff" text-rendering="geometricPrecision" font-size="14" font-family="sans-serif" stroke="none"><path d="M154.817 84.496a4.634 4.634 0 0 0-4.634 4.634v9.267a4.634 4.634 0 0 0 4.634 4.634h16.78a4.634 4.634 0 0 0 4.633-4.634V89.13a4.634 4.634 0 0 0-4.634-4.634z" clip-path="url(#a)"/><text font-size="19" y="20" transform="translate(149.183 81.138)" clip-path="url(#g)" fill="red">HO</text></g><g fill="#fff" text-rendering="geometricPrecision" font-size="19" font-family="sans-serif" stroke="none"><path d="M156.202 197.785a4.634 4.634 0 0 0-4.634 4.634v9.267a4.634 4.634 0 0 0 4.634 4.634h16.78a4.634 4.634 0 0 0 4.633-4.633v-9.268a4.634 4.634 0 0 0-4.634-4.634z" clip-path="url(#a)"/><text y="20" transform="translate(150.568 194.428)" clip-path="url(#h)" fill="red">HO</text></g><path d="M338.027 139.257v72.756h2.25v-72.756h5.401l-6.526-18.002-6.525 18.002zm-74.256 98.858v39.153h2.25v-39.153h7.201l-8.325-21.602-8.326 21.602z" clip-path="url(#a)" fill="#F03" text-rendering="geometricPrecision" font-size="20" font-weight="bold" font-family="sans-serif" stroke="none"/><text x="291.899" y="235.014" clip-path="url(#i)" stroke="none" transform="translate(-286.107 -219.57) scale(1.9802)" fill="#F03" text-rendering="geometricPrecision" font-size="10" font-family="sans-serif">Ethylamine</text><text x="234.144" y="298.019" clip-path="url(#j)" stroke="none" transform="translate(-229.499 -281.324) scale(1.9802)" fill="#F03" text-rendering="geometricPrecision" font-size="10" font-family="sans-serif">Catechol</text><text x="205.642" y="32.497" clip-path="url(#k)" stroke="none" transform="translate(-201.562 -21.07) scale(1.9802)" text-rendering="geometricPrecision" font-size="10" font-family="sans-serif">Beta Carbon</text><path d="M333.764 67.963L318.93 53.69l-1.56 1.622 14.833 14.274-4.993 5.188 21.338 8.98-9.792-20.978zm98.938 75.045l20.432 19.563 1.556-1.625-20.432-19.563 4.98-5.201-21.36-8.926 9.844 20.953z" clip-path="url(#a)" text-rendering="geometricPrecision" font-size="20" font-weight="bold" font-family="sans-serif" stroke="none"/><text x="468.163" y="171.258" clip-path="url(#l)" stroke="none" transform="translate(-458.875 -157.079) scale(1.9802)" text-rendering="geometricPrecision" font-size="10" font-family="sans-serif">Alpha Carbon</text><path d="M166.788 148.633H97.633v2.25h69.156v7.2l21.601-8.325-21.601-8.326z" clip-path="url(#a)" text-rendering="geometricPrecision" font-size="20" font-weight="bold" font-family="sans-serif" stroke="none"/><text x="21.127" y="130.005" clip-path="url(#m)" stroke="none" transform="translate(-20.708 -116.644) scale(1.9802)" text-rendering="geometricPrecision" font-size="10" font-family="sans-serif">Hydroxyl</text><text x="21.127" y="144.005" clip-path="url(#m)" stroke="none" transform="translate(-20.708 -116.644) scale(1.9802)" text-rendering="geometricPrecision" font-size="10" font-family="sans-serif">Groups</text></svg>