<svg color-interpolation="auto" stroke="#000" stroke-linecap="square" width="469" stroke-miterlimit="10" height="432" xmlns="http://www.w3.org/2000/svg" font-family="'Dialog'" font-size="12"><defs><clipPath id="a"><path d="M0 0h469v432H0V0z"/></clipPath><clipPath id="b"><path d="M84.615 53.903c-11.353 0-20.556 9.203-20.556 20.556 0 11.352 9.203 20.556 20.556 20.556 11.353 0 20.556-9.204 20.556-20.556 0-11.353-9.203-20.556-20.556-20.556z"/></clipPath><clipPath id="c"><path d="M87.52 109.202c-11.42 0-20.676 9.257-20.676 20.675 0 11.419 9.257 20.675 20.675 20.675 11.419 0 20.675-9.256 20.675-20.675 0-11.418-9.256-20.675-20.675-20.675z"/></clipPath><clipPath id="d"><path d="M278.104 45.097c-12.028 0-21.778 9.75-21.778 21.778 0 12.028 9.75 21.778 21.778 21.778 12.028 0 21.778-9.75 21.778-21.778 0-12.028-9.75-21.778-21.778-21.778z"/></clipPath><clipPath id="e"><path d="M-20.398-145.124h469v432h-469v-432z"/></clipPath><clipPath id="f"><path d="M-19.012-31.735h469v432h-469v-432z"/></clipPath><clipPath id="g"><path d="M-319.53-26.628h469v432h-469v-432z"/></clipPath><clipPath id="h"><path d="M-345.327-36.965h469v432h-469v-432z"/></clipPath></defs><g fill="red" text-rendering="geometricPrecision" stroke="none"><path d="M85.269 73.451L50.789 51.06a1.201 1.201 0 1 0-1.308 2.015l34.48 22.39a1.201 1.201 0 1 0 1.308-2.014z" clip-path="url(#a)"/><path fill="#000" d="M85.269 73.451L50.789 51.06a1.201 1.201 0 1 0-1.308 2.015l34.48 22.39a1.201 1.201 0 1 0 1.308-2.014z" clip-path="url(#b)"/></g><path d="M130.501 43.227L83.961 73.45a1.201 1.201 0 1 0 1.308 2.015l46.54-30.225a1.201 1.201 0 1 0-1.308-2.014z" stroke="none" clip-path="url(#a)" text-rendering="geometricPrecision"/><g fill="red" text-rendering="geometricPrecision" stroke="none"><path d="M86.919 128.837l-35.81 20.675a1.201 1.201 0 1 0 1.2 2.08l35.81-20.675a1.2 1.2 0 1 0-1.2-2.08z" clip-path="url(#a)"/><path fill="#000" d="M86.919 128.837l-35.81 20.675a1.201 1.201 0 1 0 1.2 2.08l35.81-20.675a1.2 1.2 0 1 0-1.2-2.08z" clip-path="url(#c)"/></g><path d="M96.176 80.842a1.201 1.201 0 1 0-2.4.126l2.174 41.478a1.201 1.201 0 1 0 2.4-.126zm-10.362-6.446a1.2 1.2 0 1 0-2.399.125l2.905 55.42a1.201 1.201 0 1 0 2.399-.127z" stroke="none" clip-path="url(#a)" text-rendering="geometricPrecision"/><path d="M86.974 130.947l49.445 25.195a1.201 1.201 0 1 0 1.09-2.14l-49.444-25.195a1.2 1.2 0 1 0-1.091 2.14z" stroke="none" clip-path="url(#a)" text-rendering="geometricPrecision"/><path d="M136.712 141.868a1.201 1.201 0 1 0 1.309 2.014l34.832-22.62a1.201 1.201 0 1 0-1.309-2.015zm-.402 12.196a1.201 1.201 0 1 0 1.308 2.015l46.54-30.225a1.201 1.201 0 1 0-1.308-2.014zM131.7 43.164a1.201 1.201 0 1 0-1.09 2.14l49.445 25.194a1.201 1.201 0 1 0 1.09-2.14zm1.676 12.087a1.201 1.201 0 1 0-1.091 2.141l37.006 18.856a1.201 1.201 0 1 0 1.09-2.14z" stroke="none" clip-path="url(#a)" text-rendering="geometricPrecision"/><path d="M184.704 124.784l-2.905-55.419a1.2 1.2 0 1 0-2.399.126l2.905 55.419a1.201 1.201 0 1 0 2.399-.126z" stroke="none" clip-path="url(#a)" text-rendering="geometricPrecision"/><path d="M181.208 70.464l47.308-27.746a1.201 1.201 0 1 0-1.216-2.073l-47.308 27.747a1.201 1.201 0 1 0 1.216 2.072z" stroke="none" clip-path="url(#a)" text-rendering="geometricPrecision"/><path d="M227.37 42.755l50.195 25.193a1.201 1.201 0 1 0 1.078-2.146l-50.196-25.194a1.201 1.201 0 1 0-1.078 2.147z" stroke="none" clip-path="url(#a)" text-rendering="geometricPrecision"/><g fill="#339" text-rendering="geometricPrecision" stroke="none"><path d="M278.704 67.915l37.72-21.778a1.2 1.2 0 1 0-1.2-2.08l-37.72 21.778a1.201 1.201 0 1 0 1.2 2.08z" clip-path="url(#a)"/><path fill="#000" d="M278.704 67.915l37.72-21.778a1.2 1.2 0 1 0-1.2-2.08l-37.72 21.778a1.201 1.201 0 1 0 1.2 2.08z" clip-path="url(#d)"/></g><path d="M26.032 148.482a4.634 4.634 0 0 0-4.634 4.633v9.268a4.634 4.634 0 0 0 4.634 4.634H42.81a4.634 4.634 0 0 0 4.634-4.634v-9.268a4.634 4.634 0 0 0-4.634-4.633z" stroke="none" clip-path="url(#a)" fill="#fff" text-rendering="geometricPrecision"/><text y="20" clip-path="url(#e)" stroke="none" transform="translate(20.398 145.124)" fill="red" text-rendering="geometricPrecision" font-size="19" font-family="sans-serif">HO</text><g fill="#fff" text-rendering="geometricPrecision" font-size="19" font-family="sans-serif" stroke="none"><path d="M24.645 35.092a4.634 4.634 0 0 0-4.633 4.634v9.267a4.634 4.634 0 0 0 4.633 4.634h16.78a4.634 4.634 0 0 0 4.633-4.634v-9.267a4.634 4.634 0 0 0-4.633-4.634z" clip-path="url(#a)"/><text y="20" transform="translate(19.012 31.735)" clip-path="url(#f)" fill="red">HO</text></g><g fill="#fff" text-rendering="geometricPrecision" font-size="19" font-family="sans-serif" stroke="none"><path d="M325.003 30.183a4.473 4.473 0 0 0-4.473 4.473V43.6a4.473 4.473 0 0 0 4.473 4.473h15.351a4.473 4.473 0 0 0 4.473-4.473v7.356a4.492 4.492 0 0 0 4.492 4.492h.47a4.492 4.492 0 0 0 4.492-4.492v-8.984a4.492 4.492 0 0 0-4.492-4.492h-.47a4.492 4.492 0 0 0-4.492 4.492v-7.317a4.473 4.473 0 0 0-4.473-4.473z" clip-path="url(#a)"/><text y="20" transform="translate(319.53 26.628)" clip-path="url(#g)" fill="#339">NH</text></g><text y="15" clip-path="url(#h)" stroke="none" transform="translate(345.327 36.965)" fill="#339" text-rendering="geometricPrecision" font-size="14" font-family="sans-serif">2</text></svg>