<svg color-interpolation="auto" stroke="#000" stroke-linecap="square" width="491" stroke-miterlimit="10" height="254" xmlns="http://www.w3.org/2000/svg" font-family="'Dialog'" font-size="12"><defs><clipPath id="a"><path d="M0 0h491v254H0V0z"/></clipPath><clipPath id="b"><path d="M120.63 93.794c-18.163 0-32.887 14.724-32.887 32.887s14.724 32.887 32.887 32.887 32.887-14.724 32.887-32.887-14.724-32.887-32.887-32.887z"/></clipPath><clipPath id="c"><path d="M221.35 93.794c-18.163 0-32.887 14.724-32.887 32.887s14.724 32.887 32.887 32.887 32.887-14.724 32.887-32.887-14.724-32.887-32.887-32.887z"/></clipPath><clipPath id="d"><path d="M120.63 92.282c-18.998 0-34.399 15.4-34.399 34.399 0 18.998 15.4 34.398 34.399 34.398 18.998 0 34.398-15.4 34.398-34.398 0-18.998-15.4-34.399-34.398-34.399z"/></clipPath><clipPath id="e"><path d="M120.63 95.37c-17.293 0-31.311 14.018-31.311 31.31 0 17.293 14.018 31.311 31.31 31.311 17.293 0 31.311-14.018 31.311-31.31 0-17.293-14.018-31.311-31.31-31.311z"/></clipPath><clipPath id="f"><path d="M370.37 95.37c-17.292 0-31.31 14.018-31.31 31.31 0 17.293 14.018 31.311 31.31 31.311 17.293 0 31.311-14.018 31.311-31.31 0-17.293-14.018-31.311-31.31-31.311z"/></clipPath><clipPath id="g"><path d="M370.37 92.282c-18.998 0-34.398 15.4-34.398 34.399 0 18.998 15.4 34.398 34.398 34.398 18.998 0 34.399-15.4 34.399-34.398 0-18.998-15.4-34.399-34.399-34.399z"/></clipPath><clipPath id="h"><path d="M370.37 95.51c-17.215 0-31.17 13.955-31.17 31.17 0 17.216 13.955 31.172 31.17 31.172 17.216 0 31.171-13.956 31.171-31.171 0-17.216-13.955-31.171-31.17-31.171z"/></clipPath><clipPath id="i"><path d="M287.123 95.37c-17.292 0-31.31 14.018-31.31 31.31 0 17.293 14.018 31.311 31.31 31.311 17.293 0 31.311-14.018 31.311-31.31 0-17.293-14.018-31.311-31.31-31.311z"/></clipPath><clipPath id="j"><path d="M-192.61-107.68h491v254h-491v-254z"/></clipPath><clipPath id="k"><path d="M-28.14-107.68h491v254h-491v-254z"/></clipPath><clipPath id="l"><path d="M-111.388-24.434h491v254h-491v-254z"/></clipPath><clipPath id="m"><path d="M-359.949-24.434h491v254h-491v-254z"/></clipPath><clipPath id="n"><path d="M-444.375-107.68h491v254h-491v-254z"/></clipPath><clipPath id="o"><path d="M-356.34-190.928h491v254h-491v-254z"/></clipPath><clipPath id="p"><path d="M-110.208-190.928h491v254h-491v-254z"/></clipPath><clipPath id="q"><path d="M-277.881-190.928h491v254h-491v-254z"/></clipPath><clipPath id="r"><path d="M-277.881-24.434h491v254h-491v-254z"/></clipPath></defs><g fill="red" text-rendering="geometricPrecision" stroke="none"><path d="M120.63 128.482h65.774a1.802 1.802 0 1 0 0-3.603H120.63a1.802 1.802 0 1 0 0 3.603z" clip-path="url(#a)"/><path fill="#000" d="M120.63 128.482h65.774a1.802 1.802 0 1 0 0-3.603H120.63a1.802 1.802 0 1 0 0 3.603z" clip-path="url(#b)"/></g><g text-rendering="geometricPrecision" stroke="none"><path d="M221.35 128.482h65.773a1.802 1.802 0 1 0 0-3.603H221.35a1.802 1.802 0 1 0 0 3.603z" clip-path="url(#a)"/><path fill="red" d="M221.35 128.482h65.773a1.802 1.802 0 1 0 0-3.603H221.35a1.802 1.802 0 1 0 0 3.603z" clip-path="url(#c)"/></g><g fill="#960" text-rendering="geometricPrecision" stroke="none"><path d="M120.63 124.879H51.832a1.802 1.802 0 1 0 0 3.603h68.798a1.802 1.802 0 1 0 0-3.603z" clip-path="url(#a)"/><path fill="#000" d="M120.63 124.879H51.832a1.802 1.802 0 1 0 0 3.603h68.798a1.802 1.802 0 1 0 0-3.603z" clip-path="url(#d)"/></g><g fill="#960" text-rendering="geometricPrecision" stroke="none"><path d="M122.431 126.68V64.06a1.802 1.802 0 1 0-3.603 0v62.62a1.802 1.802 0 1 0 3.603 0z" clip-path="url(#a)"/><path fill="#000" d="M122.431 126.68V64.06a1.802 1.802 0 1 0-3.603 0v62.62a1.802 1.802 0 1 0 3.603 0z" clip-path="url(#e)"/></g><path d="M287.123 128.482h83.247a1.802 1.802 0 1 0 0-3.603h-83.247a1.802 1.802 0 1 0 0 3.603z" clip-path="url(#a)" text-rendering="geometricPrecision" stroke="none"/><g fill="#333" text-rendering="geometricPrecision" stroke="none"><path d="M372.172 126.68V64.06a1.802 1.802 0 1 0-3.604 0v62.62a1.802 1.802 0 1 0 3.604 0z" clip-path="url(#a)"/><path fill="#000" d="M372.172 126.68V64.06a1.802 1.802 0 1 0-3.604 0v62.62a1.802 1.802 0 1 0 3.604 0z" clip-path="url(#f)"/></g><g fill="#960" text-rendering="geometricPrecision" stroke="none"><path d="M370.37 128.482h68.798a1.802 1.802 0 1 0 0-3.603H370.37a1.802 1.802 0 1 0 0 3.603z" clip-path="url(#a)"/><path fill="#000" d="M370.37 128.482h68.798a1.802 1.802 0 1 0 0-3.603H370.37a1.802 1.802 0 1 0 0 3.603z" clip-path="url(#g)"/></g><g fill="#090" text-rendering="geometricPrecision" stroke="none"><path d="M368.568 126.68v62.343a1.802 1.802 0 1 0 3.604 0V126.68a1.802 1.802 0 1 0-3.604 0z" clip-path="url(#a)"/><path fill="#000" d="M368.568 126.68v62.343a1.802 1.802 0 1 0 3.604 0V126.68a1.802 1.802 0 1 0-3.604 0z" clip-path="url(#h)"/></g><g fill="#333" text-rendering="geometricPrecision" stroke="none"><path d="M118.828 126.68v62.622a1.802 1.802 0 1 0 3.603 0v-62.621a1.802 1.802 0 1 0-3.603 0z" clip-path="url(#a)"/><path fill="#000" d="M118.828 126.68v62.622a1.802 1.802 0 1 0 3.603 0v-62.621a1.802 1.802 0 1 0-3.603 0z" clip-path="url(#e)"/></g><g fill="#960" text-rendering="geometricPrecision" stroke="none"><path d="M285.322 126.68v62.622a1.802 1.802 0 1 0 3.603 0v-62.621a1.802 1.802 0 1 0-3.603 0z" clip-path="url(#a)"/><path fill="#000" d="M285.322 126.68v62.622a1.802 1.802 0 1 0 3.603 0v-62.621a1.802 1.802 0 1 0-3.603 0z" clip-path="url(#i)"/></g><g fill="#960" text-rendering="geometricPrecision" stroke="none"><path d="M288.925 126.68V64.06a1.802 1.802 0 1 0-3.603 0v62.62a1.802 1.802 0 1 0 3.603 0z" clip-path="url(#a)"/><path fill="#000" d="M288.925 126.68V64.06a1.802 1.802 0 1 0-3.603 0v62.62a1.802 1.802 0 1 0 3.603 0z" clip-path="url(#i)"/></g><path d="M200.554 112.974a6.943 6.943 0 0 0-6.943 6.943v13.887a6.943 6.943 0 0 0 6.943 6.943h6.645a6.943 6.943 0 0 0 6.943-6.943v-13.887a6.943 6.943 0 0 0-6.943-6.943z" clip-path="url(#a)" fill="#fff" text-rendering="geometricPrecision" stroke="none"/><text y="31" clip-path="url(#j)" stroke="none" transform="translate(192.61 107.68)" fill="red" text-rendering="geometricPrecision" font-size="29" font-family="sans-serif">O</text><g fill="#fff" text-rendering="geometricPrecision" font-size="29" font-family="sans-serif" stroke="none"><path d="M36.85 113.263a6.709 6.709 0 0 0-6.71 6.709v13.418a6.709 6.709 0 0 0 6.71 6.709h1.066a6.709 6.709 0 0 0 6.709-6.71v-13.417a6.709 6.709 0 0 0-6.709-6.71z" clip-path="url(#a)"/><text y="31" transform="translate(28.14 107.68)" clip-path="url(#k)" fill="#960">F</text></g><g fill="#fff" text-rendering="geometricPrecision" font-size="29" font-family="sans-serif" stroke="none"><path d="M120.097 30.016a6.709 6.709 0 0 0-6.71 6.709v13.418a6.709 6.709 0 0 0 6.71 6.709h1.066a6.709 6.709 0 0 0 6.709-6.71V36.726a6.709 6.709 0 0 0-6.71-6.71z" clip-path="url(#a)"/><text y="31" transform="translate(111.388 24.434)" clip-path="url(#l)" fill="#960">F</text></g><g fill="#fff" text-rendering="geometricPrecision" font-size="29" font-family="sans-serif" stroke="none"><path d="M368.657 30.016a6.709 6.709 0 0 0-6.708 6.709v13.418a6.709 6.709 0 0 0 6.708 6.709h3.426a6.709 6.709 0 0 0 6.71-6.71V36.726a6.709 6.709 0 0 0-6.71-6.71z" clip-path="url(#a)"/><text y="31" transform="translate(359.949 24.434)" clip-path="url(#m)" fill="#333">H</text></g><g fill="#fff" text-rendering="geometricPrecision" font-size="29" font-family="sans-serif" stroke="none"><path d="M453.084 113.263a6.709 6.709 0 0 0-6.709 6.709v13.418a6.709 6.709 0 0 0 6.709 6.709h1.066a6.709 6.709 0 0 0 6.71-6.71v-13.417a6.709 6.709 0 0 0-6.71-6.71z" clip-path="url(#a)"/><text y="31" transform="translate(444.375 107.68)" clip-path="url(#n)" fill="#960">F</text></g><g fill="#fff" text-rendering="geometricPrecision" font-size="29" font-family="sans-serif" stroke="none"><path d="M364.778 196.23a6.938 6.938 0 0 0-6.939 6.939v13.877a6.939 6.939 0 0 0 6.939 6.938h11.185a6.939 6.939 0 0 0 6.939-6.938v-13.877a6.938 6.938 0 0 0-6.939-6.939z" clip-path="url(#a)"/><text y="31" transform="translate(356.34 190.928)" clip-path="url(#o)" fill="#090">Cl</text></g><g fill="#fff" text-rendering="geometricPrecision" font-size="29" font-family="sans-serif" stroke="none"><path d="M118.917 196.51a6.709 6.709 0 0 0-6.71 6.709v13.418a6.709 6.709 0 0 0 6.71 6.708h3.426a6.709 6.709 0 0 0 6.709-6.708v-13.418a6.709 6.709 0 0 0-6.71-6.71z" clip-path="url(#a)"/><text y="31" transform="translate(110.208 190.928)" clip-path="url(#p)" fill="#333">H</text></g><g fill="#fff" text-rendering="geometricPrecision" font-size="29" font-family="sans-serif" stroke="none"><path d="M286.59 196.51a6.709 6.709 0 0 0-6.709 6.709v13.418a6.709 6.709 0 0 0 6.71 6.708h1.066a6.709 6.709 0 0 0 6.709-6.708v-13.418a6.709 6.709 0 0 0-6.71-6.71z" clip-path="url(#a)"/><text y="31" transform="translate(277.881 190.928)" clip-path="url(#q)" fill="#960">F</text></g><g fill="#fff" text-rendering="geometricPrecision" font-size="29" font-family="sans-serif" stroke="none"><path d="M286.59 30.016a6.709 6.709 0 0 0-6.709 6.709v13.418a6.709 6.709 0 0 0 6.71 6.709h1.066a6.709 6.709 0 0 0 6.709-6.71V36.726a6.709 6.709 0 0 0-6.71-6.71z" clip-path="url(#a)"/><text y="31" transform="translate(277.881 24.434)" clip-path="url(#r)" fill="#960">F</text></g></svg>