<svg color-interpolation="auto" stroke="#000" stroke-linecap="square" width="491" stroke-miterlimit="10" height="254" xmlns="http://www.w3.org/2000/svg" font-family="'Dialog'" font-size="12"><defs><clipPath id="a"><path d="M0 0h491v254H0V0z"/></clipPath><clipPath id="b"><path d="M137.33 102.144c-13.552 0-24.538 10.985-24.538 24.537 0 13.551 10.986 24.537 24.537 24.537 13.552 0 24.537-10.986 24.537-24.537 0-13.552-10.985-24.537-24.537-24.537z"/></clipPath><clipPath id="c"><path d="M221.35 93.794c-18.163 0-32.887 14.724-32.887 32.887s14.724 32.887 32.887 32.887 32.887-14.724 32.887-32.887-14.724-32.887-32.887-32.887z"/></clipPath><clipPath id="d"><path d="M103.93 100.632c-14.386 0-26.049 11.662-26.049 26.049 0 14.386 11.663 26.049 26.049 26.049s26.049-11.663 26.049-26.05c0-14.386-11.663-26.048-26.049-26.048z"/></clipPath><clipPath id="e"><path d="M120.63 84.918c-11.52 0-20.859 9.338-20.859 20.858 0 11.52 9.339 20.858 20.859 20.858 11.52 0 20.858-9.338 20.858-20.858 0-11.52-9.339-20.858-20.858-20.858z"/></clipPath><clipPath id="f"><path d="M387.07 100.632c-14.386 0-26.049 11.662-26.049 26.049 0 14.386 11.663 26.049 26.049 26.049s26.049-11.663 26.049-26.05c0-14.386-11.663-26.048-26.049-26.048z"/></clipPath><clipPath id="g"><path d="M370.37 127.406c-11.343 0-20.539 9.195-20.539 20.539 0 11.343 9.196 20.539 20.54 20.539 11.343 0 20.538-9.196 20.538-20.54 0-11.343-9.195-20.538-20.539-20.538z"/></clipPath><clipPath id="h"><path d="M287.123 95.37c-17.292 0-31.31 14.018-31.31 31.31 0 17.293 14.018 31.311 31.31 31.311 17.293 0 31.311-14.018 31.311-31.31 0-17.293-14.018-31.311-31.31-31.311z"/></clipPath><clipPath id="i"><path d="M-110.138-107.68h491v254h-491v-254z"/></clipPath><clipPath id="j"><path d="M-109.138-137.143h491v254h-491v-254z"/></clipPath><clipPath id="k"><path d="M-192.61-107.68h491v254h-491v-254z"/></clipPath><clipPath id="l"><path d="M-28.14-107.68h491v254h-491v-254z"/></clipPath><clipPath id="m"><path d="M-111.388-24.434h491v254h-491v-254z"/></clipPath><clipPath id="n"><path d="M-358.88-77.68h491v254h-491v-254z"/></clipPath><clipPath id="o"><path d="M-359.878-107.68h491v254h-491v-254z"/></clipPath><clipPath id="p"><path d="M-444.375-107.68h491v254h-491v-254z"/></clipPath><clipPath id="q"><path d="M-356.34-190.928h491v254h-491v-254z"/></clipPath><clipPath id="r"><path d="M-277.881-190.928h491v254h-491v-254z"/></clipPath><clipPath id="s"><path d="M-277.881-24.434h491v254h-491v-254z"/></clipPath></defs><g fill="red" text-rendering="geometricPrecision" stroke="none"><path d="M137.33 128.482h49.073a1.802 1.802 0 1 0 0-3.603H137.33a1.802 1.802 0 1 0 0 3.603z" clip-path="url(#a)"/><path fill="#000" d="M137.33 128.482h49.073a1.802 1.802 0 1 0 0-3.603H137.33a1.802 1.802 0 1 0 0 3.603z" clip-path="url(#b)"/></g><g text-rendering="geometricPrecision" stroke="none"><path d="M221.35 128.482h65.773a1.802 1.802 0 1 0 0-3.603H221.35a1.802 1.802 0 1 0 0 3.603z" clip-path="url(#a)"/><path fill="red" d="M221.35 128.482h65.773a1.802 1.802 0 1 0 0-3.603H221.35a1.802 1.802 0 1 0 0 3.603z" clip-path="url(#c)"/></g><g fill="#960" text-rendering="geometricPrecision" stroke="none"><path d="M103.93 124.879H51.832a1.802 1.802 0 1 0 0 3.603h52.098a1.802 1.802 0 1 0 0-3.603z" clip-path="url(#a)"/><path fill="#000" d="M103.93 124.879H51.832a1.802 1.802 0 1 0 0 3.603h52.098a1.802 1.802 0 1 0 0-3.603z" clip-path="url(#d)"/></g><g fill="#960" text-rendering="geometricPrecision" stroke="none"><path d="M122.431 105.776V64.059a1.802 1.802 0 1 0-3.603 0v41.717a1.802 1.802 0 1 0 3.603 0z" clip-path="url(#a)"/><path fill="#000" d="M122.431 105.776V64.059a1.802 1.802 0 1 0-3.603 0v41.717a1.802 1.802 0 1 0 3.603 0z" clip-path="url(#e)"/></g><path d="M287.123 128.482h66.548a1.802 1.802 0 1 0 0-3.603h-66.548a1.802 1.802 0 1 0 0 3.603z" stroke="none" clip-path="url(#a)" text-rendering="geometricPrecision"/><g fill="#960" text-rendering="geometricPrecision" stroke="none"><path d="M387.07 128.482h52.098a1.802 1.802 0 1 0 0-3.603H387.07a1.802 1.802 0 1 0 0 3.603z" clip-path="url(#a)"/><path fill="#000" d="M387.07 128.482h52.098a1.802 1.802 0 1 0 0-3.603H387.07a1.802 1.802 0 1 0 0 3.603z" clip-path="url(#f)"/></g><g fill="#090" text-rendering="geometricPrecision" stroke="none"><path d="M368.568 147.945v41.078a1.802 1.802 0 1 0 3.604 0v-41.078a1.802 1.802 0 1 0-3.604 0z" clip-path="url(#a)"/><path fill="#000" d="M368.568 147.945v41.078a1.802 1.802 0 1 0 3.604 0v-41.078a1.802 1.802 0 1 0-3.604 0z" clip-path="url(#g)"/></g><g fill="#960" text-rendering="geometricPrecision" stroke="none"><path d="M285.322 126.68v62.622a1.802 1.802 0 1 0 3.603 0v-62.621a1.802 1.802 0 1 0-3.603 0z" clip-path="url(#a)"/><path fill="#000" d="M285.322 126.68v62.622a1.802 1.802 0 1 0 3.603 0v-62.621a1.802 1.802 0 1 0-3.603 0z" clip-path="url(#h)"/></g><g fill="#960" text-rendering="geometricPrecision" stroke="none"><path d="M288.925 126.68V64.06a1.802 1.802 0 1 0-3.603 0v62.62a1.802 1.802 0 1 0 3.603 0z" clip-path="url(#a)"/><path fill="#000" d="M288.925 126.68V64.06a1.802 1.802 0 1 0-3.603 0v62.62a1.802 1.802 0 1 0 3.603 0z" clip-path="url(#h)"/></g><path d="M118.076 112.983a6.938 6.938 0 0 0-6.938 6.939v13.877a6.938 6.938 0 0 0 6.938 6.938h5.107a6.939 6.939 0 0 0 6.939-6.938v-13.877a6.939 6.939 0 0 0-6.939-6.939zm-.228 29.742a6.709 6.709 0 0 0-6.71 6.709v13.418a6.709 6.709 0 0 0 6.71 6.709h3.425a6.709 6.709 0 0 0 6.71-6.709v-13.418a6.709 6.709 0 0 0-6.71-6.709z" stroke="none" clip-path="url(#a)" fill="#fff" text-rendering="geometricPrecision"/><text y="31" clip-path="url(#i)" stroke="none" transform="translate(110.138 107.68)" text-rendering="geometricPrecision" font-size="29" font-family="sans-serif">C</text><text y="31" clip-path="url(#j)" stroke="none" transform="translate(109.138 137.143)" text-rendering="geometricPrecision" font-size="29" font-family="sans-serif">H</text><g fill="#fff" text-rendering="geometricPrecision" font-size="29" font-family="sans-serif" stroke="none"><path d="M200.554 112.974a6.943 6.943 0 0 0-6.943 6.943v13.887a6.943 6.943 0 0 0 6.943 6.943h6.645a6.943 6.943 0 0 0 6.943-6.943v-13.887a6.943 6.943 0 0 0-6.943-6.943z" clip-path="url(#a)"/><text y="31" transform="translate(192.61 107.68)" clip-path="url(#k)" fill="red">O</text></g><g fill="#fff" text-rendering="geometricPrecision" font-size="29" font-family="sans-serif" stroke="none"><path d="M36.85 113.263a6.709 6.709 0 0 0-6.71 6.709v13.418a6.709 6.709 0 0 0 6.71 6.709h1.066a6.709 6.709 0 0 0 6.709-6.71v-13.417a6.709 6.709 0 0 0-6.709-6.71z" clip-path="url(#a)"/><text y="31" transform="translate(28.14 107.68)" clip-path="url(#l)" fill="#960">F</text></g><g fill="#fff" text-rendering="geometricPrecision" font-size="29" font-family="sans-serif" stroke="none"><path d="M120.097 30.016a6.709 6.709 0 0 0-6.71 6.709v13.418a6.709 6.709 0 0 0 6.71 6.709h1.066a6.709 6.709 0 0 0 6.709-6.71V36.726a6.709 6.709 0 0 0-6.71-6.71z" clip-path="url(#a)"/><text y="31" transform="translate(111.388 24.434)" clip-path="url(#m)" fill="#960">F</text></g><g fill="#fff" text-rendering="geometricPrecision" font-size="29" font-family="sans-serif" stroke="none"><path d="M367.588 83.263a6.709 6.709 0 0 0-6.709 6.709v13.418a6.709 6.709 0 0 0 6.71 6.709h3.425a6.709 6.709 0 0 0 6.709-6.71V89.973a6.709 6.709 0 0 0-6.71-6.709zm.229 29.72a6.939 6.939 0 0 0-6.939 6.939v13.877a6.939 6.939 0 0 0 6.939 6.938h5.107a6.939 6.939 0 0 0 6.939-6.938v-13.877a6.939 6.939 0 0 0-6.939-6.939z" clip-path="url(#a)"/><text y="31" transform="translate(358.88 77.68)" clip-path="url(#n)" fill="#000">H</text></g><text y="31" clip-path="url(#o)" stroke="none" transform="translate(359.878 107.68)" text-rendering="geometricPrecision" font-size="29" font-family="sans-serif">C</text><g fill="#fff" text-rendering="geometricPrecision" font-size="29" font-family="sans-serif" stroke="none"><path d="M453.084 113.263a6.709 6.709 0 0 0-6.709 6.709v13.418a6.709 6.709 0 0 0 6.709 6.709h1.066a6.709 6.709 0 0 0 6.71-6.71v-13.417a6.709 6.709 0 0 0-6.71-6.71z" clip-path="url(#a)"/><text y="31" transform="translate(444.375 107.68)" clip-path="url(#p)" fill="#960">F</text></g><g fill="#fff" text-rendering="geometricPrecision" font-size="29" font-family="sans-serif" stroke="none"><path d="M364.778 196.23a6.938 6.938 0 0 0-6.939 6.939v13.877a6.939 6.939 0 0 0 6.939 6.938h11.185a6.939 6.939 0 0 0 6.939-6.938v-13.877a6.938 6.938 0 0 0-6.939-6.939z" clip-path="url(#a)"/><text y="31" transform="translate(356.34 190.928)" clip-path="url(#q)" fill="#090">Cl</text></g><g fill="#fff" text-rendering="geometricPrecision" font-size="29" font-family="sans-serif" stroke="none"><path d="M286.59 196.51a6.709 6.709 0 0 0-6.709 6.709v13.418a6.709 6.709 0 0 0 6.71 6.708h1.066a6.709 6.709 0 0 0 6.709-6.708v-13.418a6.709 6.709 0 0 0-6.71-6.71z" clip-path="url(#a)"/><text y="31" transform="translate(277.881 190.928)" clip-path="url(#r)" fill="#960">F</text></g><g fill="#fff" text-rendering="geometricPrecision" font-size="29" font-family="sans-serif" stroke="none"><path d="M286.59 30.016a6.709 6.709 0 0 0-6.709 6.709v13.418a6.709 6.709 0 0 0 6.71 6.709h1.066a6.709 6.709 0 0 0 6.709-6.71V36.726a6.709 6.709 0 0 0-6.71-6.71z" clip-path="url(#a)"/><text y="31" transform="translate(277.881 24.434)" clip-path="url(#s)" fill="#960">F</text></g></svg>