<svg color-interpolation="auto" stroke="#000" stroke-linecap="square" width="1173" stroke-miterlimit="10" height="428" xmlns="http://www.w3.org/2000/svg" font-family="'Dialog'" font-size="12"><defs><clipPath id="a"><path d="M0 0h1173v428H0V0z"/></clipPath><clipPath id="b"><path d="M583.447 192.27c-18.017 0-32.623 14.606-32.623 32.623 0 18.018 14.606 32.624 32.623 32.624 18.018 0 32.624-14.606 32.624-32.624 0-18.017-14.606-32.623-32.624-32.623z"/></clipPath><clipPath id="c"><path d="M509.132 156.655c-17.09 0-30.944 13.855-30.944 30.945s13.854 30.944 30.944 30.944 30.945-13.854 30.945-30.944-13.855-30.945-30.945-30.945z"/></clipPath><clipPath id="d"><path d="M671.234 157.39c-18.197 0-32.948 14.751-32.948 32.948 0 18.197 14.752 32.948 32.948 32.948 18.197 0 32.948-14.751 32.948-32.948 0-18.197-14.751-32.948-32.948-32.948z"/></clipPath><clipPath id="e"><path d="M-645.004-134.618h1173v428h-1173v-428z"/></clipPath><clipPath id="f"><path d="M-645.003-164.316h1173v428h-1173v-428z"/></clipPath><clipPath id="g"><path d="M-497.366-85.445h1173v428h-1173v-428z"/></clipPath><clipPath id="h"><path d="M814.421 121.143h110.782v14.48H814.42v-14.48z"/></clipPath><clipPath id="i"><path d="M715.923 354.3H860.04v14.478H715.923V354.3z"/></clipPath><clipPath id="j"><path d="M208.945 31.981h96.639v30.305h-96.64V31.981z"/></clipPath><clipPath id="k"><path d="M31.455 226.139H87.35v28.621H31.455V226.14z"/></clipPath></defs><path d="M362.334 190.404l-69.74 45.287a1.8 1.8 0 1 0 1.961 3.019l69.74-45.287a1.8 1.8 0 1 0-1.961-3.019z" stroke="none" clip-path="url(#a)" text-rendering="geometricPrecision"/><path d="M310.899 246.766a1.8 1.8 0 1 0-3.595.189l3.259 62.154a1.8 1.8 0 1 0 3.595-.188zm-15.527-9.66a1.8 1.8 0 1 0-3.594.189l4.354 83.043a1.8 1.8 0 1 0 3.595-.188z" stroke="none" clip-path="url(#a)" text-rendering="geometricPrecision"/><path d="M297.112 321.848l74.083 37.757a1.8 1.8 0 1 0 1.635-3.207l-74.083-37.758a1.8 1.8 0 1 0-1.635 3.208z" stroke="none" clip-path="url(#a)" text-rendering="geometricPrecision"/><path d="M371.635 338.215a1.8 1.8 0 1 0 1.961 3.019l52.196-33.902a1.8 1.8 0 1 0-1.961-3.019zm-.603 18.277a1.8 1.8 0 1 0 1.96 3.019l69.74-45.297a1.8 1.8 0 1 0-1.96-3.019zM364.131 190.31a1.8 1.8 0 1 0-1.634 3.208l74.093 37.747a1.8 1.8 0 1 0 1.634-3.208zm2.51 18.112a1.8 1.8 0 1 0-1.634 3.208l55.454 28.25a1.8 1.8 0 1 0 1.634-3.207z" stroke="none" clip-path="url(#a)" text-rendering="geometricPrecision"/><path d="M443.549 312.61l-4.344-83.043a1.8 1.8 0 1 0-3.595.188l4.344 83.044a1.8 1.8 0 1 0 3.595-.188z" stroke="none" clip-path="url(#a)" text-rendering="geometricPrecision"/><path d="M438.318 231.214l71.725-42.062a1.8 1.8 0 1 0-1.821-3.105l-71.725 42.061a1.8 1.8 0 1 0 1.82 3.106zM581.647 224.893v83.155a1.8 1.8 0 1 0 3.6 0v-83.155a1.8 1.8 0 1 0-3.6 0z" stroke="none" clip-path="url(#a)" text-rendering="geometricPrecision"/><path d="M508.325 189.208l74.315 37.294a1.8 1.8 0 1 0 1.615-3.217l-74.316-37.294a1.8 1.8 0 1 0-1.614 3.217z" stroke="none" clip-path="url(#a)" text-rendering="geometricPrecision"/><g fill="#339" text-rendering="geometricPrecision" stroke="none"><path d="M584.347 226.452l56.506-32.622a1.8 1.8 0 1 0-1.8-3.118l-56.506 32.623a1.8 1.8 0 1 0 1.8 3.117z" clip-path="url(#a)"/><path fill="#000" d="M584.347 226.452l56.506-32.622a1.8 1.8 0 1 0-1.8-3.118l-56.506 32.623a1.8 1.8 0 1 0 1.8 3.117z" clip-path="url(#b)"/></g><g fill="red" text-rendering="geometricPrecision" stroke="none"><path d="M510.932 187.6V125.71a1.8 1.8 0 1 0-3.6 0V187.6a1.8 1.8 0 1 0 3.6 0z" clip-path="url(#a)"/><path fill="#000" d="M510.932 187.6V125.71a1.8 1.8 0 1 0-3.6 0V187.6a1.8 1.8 0 1 0 3.6 0z" clip-path="url(#c)"/></g><g text-rendering="geometricPrecision" stroke="none"><path d="M670.502 191.982l60.198 26.805a1.8 1.8 0 1 0 1.464-3.289l-60.198-26.804a1.8 1.8 0 1 0-1.464 3.288z" clip-path="url(#a)"/><path fill="#339" d="M670.502 191.982l60.198 26.805a1.8 1.8 0 1 0 1.464-3.289l-60.198-26.804a1.8 1.8 0 1 0-1.464 3.288z" clip-path="url(#d)"/></g><path d="M653.713 140.2a6.709 6.709 0 0 0-6.709 6.709v13.418a6.709 6.709 0 0 0 6.71 6.709h3.425a6.709 6.709 0 0 0 6.709-6.709v-13.418a6.709 6.709 0 0 0-6.709-6.709zm0 29.698a6.709 6.709 0 0 0-6.71 6.71v13.417a6.709 6.709 0 0 0 6.71 6.709h3.503a6.709 6.709 0 0 0 6.71-6.709v-13.418a6.709 6.709 0 0 0-6.71-6.709z" stroke="none" clip-path="url(#a)" fill="#fff" text-rendering="geometricPrecision"/><text y="31" clip-path="url(#e)" stroke="none" transform="translate(645.004 134.618)" fill="#339" text-rendering="geometricPrecision" font-size="29" font-family="sans-serif">H</text><text y="31" clip-path="url(#f)" stroke="none" transform="translate(645.003 164.316)" fill="#339" text-rendering="geometricPrecision" font-size="29" font-family="sans-serif">N</text><g fill="#fff" text-rendering="geometricPrecision" font-size="29" font-family="sans-serif" stroke="none"><path d="M505.81 90.738a6.943 6.943 0 0 0-6.944 6.943v13.887a6.943 6.943 0 0 0 6.944 6.944h26.91a6.943 6.943 0 0 0 6.943-6.944V97.681a6.943 6.943 0 0 0-6.943-6.943z" clip-path="url(#a)"/><text y="31" transform="translate(497.366 85.445)" clip-path="url(#g)" fill="red">OH</text></g><path d="M464.278 89.747L410.851 75.34l-.88 3.258L463.4 93.005l-2.11 7.82 28.616-2.42-23.519-16.478zM238.579 243.348l-45.124 5.937.44 3.346 45.124-5.937 1.409 10.707 30.492-16.606-33.75-8.154zM636.072 340.227l62.998 35.196 1.646-2.946-62.998-35.196 5.267-9.428-34.373-4.9 22.193 26.702zM762.688 180.184l33.657-34.542-2.417-2.355-33.657 34.542-7.734-7.537-13.667 31.919 31.553-14.49z" stroke="none" clip-path="url(#a)" text-rendering="geometricPrecision"/><text x="814.635" y="132.216" clip-path="url(#h)" stroke="none" transform="translate(-1604.677 -238.772) scale(2.9698)" text-rendering="geometricPrecision" font-size="10" font-family="sans-serif">Methyl group on amine</text><text x="716.392" y="365.451" clip-path="url(#i)" stroke="none" transform="translate(-1411.156 -698.201) scale(2.9698)" text-rendering="geometricPrecision" font-size="10" font-family="sans-serif">Methyl group on alpha carbon</text><g text-rendering="geometricPrecision" font-size="10" font-family="sans-serif" stroke="none"><text x="209.424" y="42.972" clip-path="url(#j)" transform="translate(-412.526 -62.978) scale(2.9698)">Hydroxyl group</text><text x="209.424" y="56.972" clip-path="url(#j)" transform="translate(-412.526 -62.978) scale(2.9698)">on beta carbon</text></g><g text-rendering="geometricPrecision" font-size="10" font-family="sans-serif" stroke="none"><text x="31.686" y="237.209" clip-path="url(#k)" transform="translate(-62.414 -445.59) scale(2.9698)">No hydroxyl</text><text x="31.686" y="251.209" clip-path="url(#k)" transform="translate(-62.414 -445.59) scale(2.9698)">groups</text></g></svg>