<svg color-interpolation="auto" stroke="#000" stroke-linecap="square" width="1135" stroke-miterlimit="10" height="416" xmlns="http://www.w3.org/2000/svg" font-family="'Dialog'" font-size="12"><defs><clipPath id="a"><path d="M0 0h1135v416H0V0z"/></clipPath><clipPath id="b"><path d="M588.239 170.313c-13.127 0-23.767 10.64-23.767 23.767 0 13.126 10.64 23.766 23.767 23.766 13.125 0 23.766-10.64 23.766-23.766 0-13.126-10.64-23.767-23.766-23.767z"/></clipPath><clipPath id="c"><path d="M500.417 196.012c-18.026 0-32.64 14.613-32.64 32.64 0 18.026 14.614 32.64 32.64 32.64 18.027 0 32.64-14.614 32.64-32.64 0-18.027-14.613-32.64-32.64-32.64z"/></clipPath><clipPath id="d"><path d="M426.07 160.381c-17.099 0-30.96 13.862-30.96 30.961 0 17.1 13.861 30.96 30.96 30.96 17.1 0 30.961-13.86 30.961-30.96s-13.861-30.96-30.96-30.96z"/></clipPath><clipPath id="e"><path d="M-494.281-292.731h1135v416h-1135v-416z"/></clipPath><clipPath id="f"><path d="M-535.531-307.89h1135v416h-1135v-416z"/></clipPath><clipPath id="g"><path d="M-637.974-201.897h1135v416h-1135v-416z"/></clipPath><clipPath id="h"><path d="M-679.224-217.056h1135v416h-1135v-416z"/></clipPath><clipPath id="i"><path d="M-414.305-89.152h1135v416h-1135v-416z"/></clipPath><clipPath id="j"><path d="M-562.005-138.346h1135v416h-1135v-416z"/></clipPath><clipPath id="k"><path d="M-562.004-168.056h1135v416h-1135v-416z"/></clipPath><clipPath id="l"><path d="M281.856 31.93h146.075v14.474H281.856V31.93z"/></clipPath><clipPath id="m"><path d="M760.64 112.116h111.071v14.473h-111.07v-14.473z"/></clipPath><clipPath id="n"><path d="M677.952 342.338h144.055v14.473H677.952v-14.473z"/></clipPath><clipPath id="o"><path d="M31.464 96.278h55.872v28.61H31.464v-28.61z"/></clipPath></defs><g text-rendering="geometricPrecision" stroke="none"><path d="M587.506 195.725l43.423 19.335a1.8 1.8 0 1 0 1.465-3.29l-43.423-19.335a1.8 1.8 0 1 0-1.465 3.29z" clip-path="url(#a)"/><path fill="#339" d="M587.506 195.725l43.423 19.335a1.8 1.8 0 1 0 1.465-3.29l-43.423-19.335a1.8 1.8 0 1 0-1.465 3.29z" clip-path="url(#b)"/></g><path d="M498.62 228.746l3.255 62.095a1.8 1.8 0 1 0 3.596-.188l-3.255-62.096a1.8 1.8 0 1 0-3.597.189z" clip-path="url(#a)" stroke="none" text-rendering="geometricPrecision"/><g fill="#339" text-rendering="geometricPrecision" stroke="none"><path d="M501.318 230.211l56.534-32.639a1.8 1.8 0 1 0-1.8-3.119l-56.535 32.64a1.8 1.8 0 1 0 1.8 3.118z" clip-path="url(#a)"/><path fill="#000" d="M501.318 230.211l56.534-32.639a1.8 1.8 0 1 0-1.8-3.119l-56.535 32.64a1.8 1.8 0 1 0 1.8 3.118z" clip-path="url(#c)"/></g><g fill="red" text-rendering="geometricPrecision" stroke="none"><path d="M427.871 191.342V129.42a1.8 1.8 0 1 0-3.601 0v61.922a1.8 1.8 0 1 0 3.601 0z" clip-path="url(#a)"/><path fill="#000" d="M427.871 191.342V129.42a1.8 1.8 0 1 0-3.601 0v61.922a1.8 1.8 0 1 0 3.601 0z" clip-path="url(#d)"/></g><path d="M425.263 192.951l74.347 37.31a1.8 1.8 0 1 0 1.615-3.219l-74.347-37.31a1.8 1.8 0 1 0-1.615 3.22z" clip-path="url(#a)" stroke="none" text-rendering="geometricPrecision"/><path d="M355.226 234.975l71.755-42.08a1.8 1.8 0 1 0-1.822-3.106l-71.755 42.079a1.8 1.8 0 1 0 1.822 3.107z" clip-path="url(#a)" stroke="none" text-rendering="geometricPrecision"/><path d="M360.46 316.407l-4.347-83.08a1.8 1.8 0 1 0-3.596.188l4.346 83.08a1.8 1.8 0 1 0 3.596-.188z" clip-path="url(#a)" stroke="none" text-rendering="geometricPrecision"/><path d="M288.515 342.022a1.8 1.8 0 1 0 1.961 3.02l52.218-33.916a1.8 1.8 0 1 0-1.961-3.02zm-.604 18.285a1.8 1.8 0 1 0 1.962 3.02l69.769-45.316a1.8 1.8 0 1 0-1.962-3.02l-69.769 45.316z" clip-path="url(#a)" stroke="none" text-rendering="geometricPrecision"/><path d="M213.96 325.648l74.114 37.773a1.8 1.8 0 1 0 1.636-3.209l-74.115-37.773a1.8 1.8 0 1 0-1.636 3.209z" clip-path="url(#a)" stroke="none" text-rendering="geometricPrecision"/><path d="M227.752 250.534a1.8 1.8 0 1 0-3.597.189l3.26 62.18a1.8 1.8 0 1 0 3.597-.188zm-15.533-9.665a1.8 1.8 0 1 0-3.596.19l4.356 83.079a1.8 1.8 0 1 0 3.596-.189l-4.356-83.08zM281.007 194.053a1.8 1.8 0 1 0-1.635 3.21l74.125 37.763a1.8 1.8 0 1 0 1.635-3.21l-74.125-37.763zm2.512 18.12a1.8 1.8 0 1 0-1.635 3.21l55.477 28.262a1.8 1.8 0 1 0 1.635-3.209z" clip-path="url(#a)" stroke="none" text-rendering="geometricPrecision"/><path d="M279.209 194.148l-69.769 45.306a1.8 1.8 0 1 0 1.961 3.02l69.77-45.306a1.8 1.8 0 1 0-1.962-3.02z" clip-path="url(#a)" stroke="none" text-rendering="geometricPrecision"/><path d="M502.22 298.034a6.938 6.938 0 0 0-6.939 6.938v13.877a6.938 6.938 0 0 0 6.939 6.939h25.873a6.939 6.939 0 0 0 6.938-6.939v11.084a6.855 6.855 0 0 0 6.856 6.856h.351a6.855 6.855 0 0 0 6.856-6.856v-13.71a6.855 6.855 0 0 0-6.856-6.856h-.351a6.855 6.855 0 0 0-6.856 6.855v-11.25a6.939 6.939 0 0 0-6.938-6.938z" clip-path="url(#a)" stroke="none" fill="#fff" text-rendering="geometricPrecision"/><text y="31" clip-path="url(#e)" stroke="none" transform="translate(494.281 292.731)" text-rendering="geometricPrecision" font-size="29" font-family="sans-serif">CH</text><text y="24" clip-path="url(#f)" stroke="none" transform="translate(535.531 307.89)" text-rendering="geometricPrecision" font-size="23" font-family="sans-serif">3</text><g fill="#fff" text-rendering="geometricPrecision" font-size="23" font-family="sans-serif" stroke="none"><path d="M645.912 207.2a6.939 6.939 0 0 0-6.938 6.939v13.876a6.938 6.938 0 0 0 6.938 6.939h25.873a6.938 6.938 0 0 0 6.939-6.939V239.1a6.856 6.856 0 0 0 6.855 6.856h.352a6.856 6.856 0 0 0 6.855-6.856v-13.71a6.855 6.855 0 0 0-6.855-6.856h-.352a6.855 6.855 0 0 0-6.855 6.855v-11.25a6.939 6.939 0 0 0-6.939-6.938z" clip-path="url(#a)"/><text font-size="29" y="31" transform="translate(637.974 201.897)" clip-path="url(#g)" fill="#000">CH</text></g><text y="24" clip-path="url(#h)" stroke="none" transform="translate(679.224 217.056)" text-rendering="geometricPrecision" font-size="23" font-family="sans-serif">3</text><g fill="#fff" text-rendering="geometricPrecision" font-size="23" font-family="sans-serif" stroke="none"><path d="M422.748 94.445a6.943 6.943 0 0 0-6.943 6.943v13.887a6.943 6.943 0 0 0 6.943 6.943h26.91a6.943 6.943 0 0 0 6.944-6.943v-13.887a6.943 6.943 0 0 0-6.944-6.944z" clip-path="url(#a)"/><text font-size="29" y="31" transform="translate(414.305 89.152)" clip-path="url(#i)" fill="red">OH</text></g><g fill="#fff" text-rendering="geometricPrecision" font-size="29" font-family="sans-serif" stroke="none"><path d="M570.714 143.928a6.709 6.709 0 0 0-6.709 6.709v13.418a6.709 6.709 0 0 0 6.71 6.708h3.425a6.709 6.709 0 0 0 6.71-6.708v-13.418a6.709 6.709 0 0 0-6.71-6.71zm0 29.71a6.709 6.709 0 0 0-6.71 6.71v13.417a6.709 6.709 0 0 0 6.71 6.71h3.503a6.709 6.709 0 0 0 6.71-6.71v-13.418a6.709 6.709 0 0 0-6.71-6.709z" clip-path="url(#a)"/><text y="31" transform="translate(562.005 138.346)" clip-path="url(#j)" fill="#339">H</text></g><text y="31" clip-path="url(#k)" stroke="none" transform="translate(562.004 168.056)" fill="#339" text-rendering="geometricPrecision" font-size="29" font-family="sans-serif">N</text><path d="M708.222 174.452l30.816-39.48-2.662-2.078-30.815 39.48-6.388-4.985-8.9 27.316 24.337-15.267zM599.687 339.595l66.847 27.732 1.294-3.119-66.847-27.732 4.14-9.98-34.725-.88 25.151 23.958zM374.596 83.728l-27.129-11.374-1.305 3.114 27.13 11.373-4.178 9.964 34.721 1.011-25.061-24.052zM172.485 217.437l-32.028-56.576-2.938 1.664 32.028 56.575-9.402 5.323 26.839 22.051-5.097-34.36z" clip-path="url(#a)" stroke="none" text-rendering="geometricPrecision"/><text x="282.291" y="42.896" clip-path="url(#l)" stroke="none" transform="translate(-556.42 -62.869) scale(2.9711)" text-rendering="geometricPrecision" font-size="10" font-family="sans-serif">Hydroxyl group on beta carbon</text><text x="760.966" y="123.175" clip-path="url(#m)" stroke="none" transform="translate(-1499.93 -221.107) scale(2.9711)" text-rendering="geometricPrecision" font-size="10" font-family="sans-serif">Methyl group on amine</text><text x="678.436" y="353.509" clip-path="url(#n)" stroke="none" transform="translate(-1337.255 -675.115) scale(2.9711)" text-rendering="geometricPrecision" font-size="10" font-family="sans-serif">Methyl group on alpha carbon</text><g text-rendering="geometricPrecision" font-size="10" font-family="sans-serif" stroke="none"><text x="31.699" y="107.419" clip-path="url(#o)" transform="translate(-62.482 -190.05) scale(2.9711)">No hydroxyl</text><text x="31.699" y="121.419" clip-path="url(#o)" transform="translate(-62.482 -190.05) scale(2.9711)">groups</text></g></svg>