<svg color-interpolation="auto" stroke="#000" stroke-linecap="square" width="168" stroke-miterlimit="10" height="111" xmlns="http://www.w3.org/2000/svg" font-family="'Dialog'" font-size="12"><defs><clipPath id="a"><path d="M0 0h168v111H0V0z"/></clipPath><clipPath id="b"><path d="M107.543 44.266c-6.022 0-10.903 4.882-10.903 10.903 0 6.02 4.881 10.902 10.903 10.902 6.02 0 10.902-4.881 10.902-10.902 0-6.021-4.881-10.903-10.902-10.903z"/></clipPath><clipPath id="c"><path d="M82.716 32.369c-5.711 0-10.341 4.63-10.341 10.341 0 5.711 4.63 10.341 10.341 10.341 5.712 0 10.342-4.63 10.342-10.34 0-5.712-4.63-10.342-10.342-10.342z"/></clipPath><clipPath id="d"><path d="M136.863 32.612c-6.08 0-11.01 4.93-11.01 11.01s4.93 11.01 11.01 11.01 11.01-4.93 11.01-11.01-4.93-11.01-11.01-11.01z"/></clipPath><clipPath id="e"><path d="M-128.28-35.279h168v111h-168v-111z"/></clipPath><clipPath id="f"><path d="M-79.294-8.93h168v111h-168v-111z"/></clipPath></defs><path d="M33.676 43.647L10.378 58.776a.601.601 0 1 0 .655 1.008l23.298-15.128a.601.601 0 1 0-.655-1.01z" stroke="none" clip-path="url(#a)" text-rendering="geometricPrecision"/><path d="M16.493 62.476a.601.601 0 1 0-1.2.063l1.088 20.763a.601.601 0 1 0 1.2-.063zm-5.187-3.227a.601.601 0 1 0-1.2.062l1.454 27.743a.601.601 0 1 0 1.2-.063z" stroke="none" clip-path="url(#a)" text-rendering="geometricPrecision"/><path d="M11.887 87.558l24.75 12.613a.601.601 0 1 0 .545-1.071L12.434 86.486a.601.601 0 1 0-.547 1.072z" stroke="none" clip-path="url(#a)" text-rendering="geometricPrecision"/><path d="M36.783 93.026a.601.601 0 1 0 .655 1.008L54.875 82.71a.601.601 0 1 0-.655-1.009zm-.201 6.105a.601.601 0 1 0 .655 1.009l23.297-15.132a.601.601 0 0 0-.655-1.009zM34.276 43.615a.601.601 0 1 0-.546 1.072l24.753 12.61a.601.601 0 1 0 .545-1.072zm.839 6.051a.601.601 0 1 0-.546 1.072l18.525 9.437a.601.601 0 1 0 .546-1.071z" stroke="none" clip-path="url(#a)" text-rendering="geometricPrecision"/><path d="M60.807 84.472L59.356 56.73a.601.601 0 1 0-1.201.063l1.451 27.742a.601.601 0 1 0 1.201-.063z" stroke="none" clip-path="url(#a)" text-rendering="geometricPrecision"/><path d="M59.06 57.28l23.96-14.051a.601.601 0 1 0-.608-1.038l-23.96 14.052a.601.601 0 1 0 .608 1.037zM106.941 55.169v27.779a.601.601 0 1 0 1.203 0v-27.78a.601.601 0 1 0-1.203 0z" stroke="none" clip-path="url(#a)" text-rendering="geometricPrecision"/><path d="M82.447 43.248l24.826 12.458a.601.601 0 1 0 .54-1.075L82.985 42.173a.601.601 0 1 0-.54 1.075z" stroke="none" clip-path="url(#a)" text-rendering="geometricPrecision"/><g fill="#339" text-rendering="geometricPrecision" stroke="none"><path d="M107.843 55.69l18.884-10.903a.601.601 0 1 0-.602-1.041l-18.883 10.902a.601.601 0 1 0 .601 1.041z" clip-path="url(#a)"/><path fill="#000" d="M107.843 55.69l18.884-10.903a.601.601 0 1 0-.602-1.041l-18.883 10.902a.601.601 0 1 0 .601 1.041z" clip-path="url(#b)"/></g><g fill="red" text-rendering="geometricPrecision" stroke="none"><path d="M83.317 42.71V22.027a.601.601 0 1 0-1.202 0V42.71a.601.601 0 1 0 1.203 0z" clip-path="url(#a)"/><path fill="#000" d="M83.317 42.71V22.027a.601.601 0 1 0-1.202 0V42.71a.601.601 0 1 0 1.203 0z" clip-path="url(#c)"/></g><g text-rendering="geometricPrecision" stroke="none"><path d="M136.618 44.171l20.117 8.958a.601.601 0 1 0 .489-1.099l-20.116-8.957a.601.601 0 1 0-.49 1.098z" clip-path="url(#a)"/><path fill="#339" d="M136.618 44.171l20.117 8.958a.601.601 0 1 0 .489-1.099l-20.116-8.957a.601.601 0 1 0-.49 1.098z" clip-path="url(#d)"/></g><path d="M131.017 36.806a2.236 2.236 0 0 0-2.236 2.237v4.472a2.236 2.236 0 0 0 2.236 2.237h1.168a2.236 2.236 0 0 0 2.236-2.237v-4.472a2.236 2.236 0 0 0-2.236-2.237z" stroke="none" clip-path="url(#a)" fill="#fff" text-rendering="geometricPrecision"/><text y="10" clip-path="url(#e)" stroke="none" transform="translate(128.28 35.279)" fill="#339" text-rendering="geometricPrecision" font-size="9" font-family="sans-serif">N</text><g fill="#fff" text-rendering="geometricPrecision" font-size="9" font-family="sans-serif" stroke="none"><path d="M81.609 10.364a2.314 2.314 0 0 0-2.315 2.315v4.629a2.314 2.314 0 0 0 2.315 2.314h2.215a2.314 2.314 0 0 0 2.314-2.314v-4.63a2.314 2.314 0 0 0-2.314-2.314z" clip-path="url(#a)"/><text y="10" transform="translate(79.294 8.93)" clip-path="url(#f)" fill="red">O</text></g></svg>