<svg color-interpolation="auto" stroke="#000" stroke-linecap="square" width="491" stroke-miterlimit="10" height="254" xmlns="http://www.w3.org/2000/svg" font-family="'Dialog'" font-size="12"><defs><clipPath id="a"><path d="M0 0h491v254H0V0z"/></clipPath><clipPath id="b"><path d="M120.57 94.234c-18.173 0-32.905 14.733-32.905 32.906s14.732 32.905 32.905 32.905c18.173 0 32.905-14.732 32.905-32.905 0-18.173-14.732-32.906-32.905-32.906z"/></clipPath><clipPath id="c"><path d="M221.333 94.234c-18.173 0-32.905 14.733-32.905 32.906s14.732 32.905 32.905 32.905c18.173 0 32.905-14.732 32.905-32.905 0-18.173-14.732-32.906-32.905-32.906z"/></clipPath><clipPath id="d"><path d="M120.57 92.723c-19.008 0-34.417 15.409-34.417 34.417 0 19.008 15.409 34.416 34.417 34.416 19.008 0 34.417-15.409 34.417-34.416 0-19.008-15.41-34.417-34.417-34.417z"/></clipPath><clipPath id="e"><path d="M120.57 95.81c-17.303 0-31.329 14.027-31.329 31.33 0 17.302 14.026 31.329 31.329 31.329 17.302 0 31.329-14.027 31.329-31.33 0-17.302-14.027-31.328-31.33-31.328z"/></clipPath><clipPath id="f"><path d="M370.43 95.81c-17.302 0-31.329 14.027-31.329 31.33 0 17.302 14.027 31.329 31.33 31.329 17.302 0 31.328-14.027 31.328-31.33 0-17.302-14.026-31.328-31.329-31.328z"/></clipPath><clipPath id="g"><path d="M370.43 92.723c-19.008 0-34.417 15.409-34.417 34.417 0 19.008 15.41 34.416 34.417 34.416 19.008 0 34.417-15.409 34.417-34.416 0-19.008-15.409-34.417-34.417-34.417z"/></clipPath><clipPath id="h"><path d="M287.143 96.13c-17.126 0-31.01 13.883-31.01 31.01 0 17.126 13.884 31.01 31.01 31.01 17.127 0 31.01-13.884 31.01-31.01 0-17.127-13.884-31.01-31.01-31.01z"/></clipPath><clipPath id="i"><path d="M287.143 95.81c-17.302 0-31.329 14.027-31.329 31.33 0 17.302 14.027 31.329 31.33 31.329 17.302 0 31.328-14.027 31.328-31.33 0-17.302-14.026-31.328-31.329-31.328z"/></clipPath><clipPath id="j"><path d="M-192.591-108.14h491v254h-491v-254z"/></clipPath><clipPath id="k"><path d="M-28.041-108.14h491v254h-491v-254z"/></clipPath><clipPath id="l"><path d="M-111.328-24.853h491v254h-491v-254z"/></clipPath><clipPath id="m"><path d="M-361.188-24.853h491v254h-491v-254z"/></clipPath><clipPath id="n"><path d="M-444.475-108.14h491v254h-491v-254z"/></clipPath><clipPath id="o"><path d="M-361.188-191.426h491v254h-491v-254z"/></clipPath><clipPath id="p"><path d="M-273.112-24.853h491v254h-491v-254z"/></clipPath><clipPath id="q"><path d="M-110.148-191.426h491v254h-491v-254z"/></clipPath><clipPath id="r"><path d="M-276.721-191.426h491v254h-491v-254z"/></clipPath></defs><g fill="red" text-rendering="geometricPrecision" stroke="none"><path d="M120.57 128.942h65.81a1.802 1.802 0 1 0 0-3.605h-65.81a1.802 1.802 0 1 0 0 3.605z" clip-path="url(#a)"/><path fill="#000" d="M120.57 128.942h65.81a1.802 1.802 0 1 0 0-3.605h-65.81a1.802 1.802 0 1 0 0 3.605z" clip-path="url(#b)"/></g><g text-rendering="geometricPrecision" stroke="none"><path d="M221.333 128.942h65.81a1.802 1.802 0 1 0 0-3.605h-65.81a1.802 1.802 0 1 0 0 3.605z" clip-path="url(#a)"/><path fill="red" d="M221.333 128.942h65.81a1.802 1.802 0 1 0 0-3.605h-65.81a1.802 1.802 0 1 0 0 3.605z" clip-path="url(#c)"/></g><g fill="#960" text-rendering="geometricPrecision" stroke="none"><path d="M120.57 125.337H51.736a1.803 1.803 0 1 0 0 3.605h68.834a1.802 1.802 0 1 0 0-3.605z" clip-path="url(#a)"/><path fill="#000" d="M120.57 125.337H51.736a1.803 1.803 0 1 0 0 3.605h68.834a1.802 1.802 0 1 0 0-3.605z" clip-path="url(#d)"/></g><g fill="#960" text-rendering="geometricPrecision" stroke="none"><path d="M122.373 127.14V64.482a1.802 1.802 0 1 0-3.606 0v62.658a1.802 1.802 0 1 0 3.606 0z" clip-path="url(#a)"/><path fill="#000" d="M122.373 127.14V64.482a1.802 1.802 0 1 0-3.606 0v62.658a1.802 1.802 0 1 0 3.606 0z" clip-path="url(#e)"/></g><path d="M287.143 128.942h83.287a1.802 1.802 0 1 0 0-3.605h-83.287a1.803 1.803 0 1 0 0 3.605z" stroke="none" clip-path="url(#a)" text-rendering="geometricPrecision"/><g fill="#960" text-rendering="geometricPrecision" stroke="none"><path d="M372.233 127.14V64.482a1.802 1.802 0 1 0-3.606 0v62.658a1.802 1.802 0 1 0 3.606 0z" clip-path="url(#a)"/><path fill="#000" d="M372.233 127.14V64.482a1.802 1.802 0 1 0-3.606 0v62.658a1.802 1.802 0 1 0 3.606 0z" clip-path="url(#f)"/></g><g fill="#960" text-rendering="geometricPrecision" stroke="none"><path d="M370.43 128.942h68.834a1.802 1.802 0 1 0 0-3.605H370.43a1.802 1.802 0 1 0 0 3.605z" clip-path="url(#a)"/><path fill="#000" d="M370.43 128.942h68.834a1.802 1.802 0 1 0 0-3.605H370.43a1.802 1.802 0 1 0 0 3.605z" clip-path="url(#g)"/></g><g fill="#960" text-rendering="geometricPrecision" stroke="none"><path d="M368.627 127.14v62.658a1.802 1.802 0 1 0 3.606 0V127.14a1.802 1.802 0 1 0-3.606 0z" clip-path="url(#a)"/><path fill="#000" d="M368.627 127.14v62.658a1.802 1.802 0 1 0 3.606 0V127.14a1.802 1.802 0 1 0-3.606 0z" clip-path="url(#f)"/></g><g fill="#090" text-rendering="geometricPrecision" stroke="none"><path d="M288.946 127.14V65.12a1.802 1.802 0 1 0-3.605 0v62.02a1.803 1.803 0 1 0 3.605 0z" clip-path="url(#a)"/><path fill="#000" d="M288.946 127.14V65.12a1.802 1.802 0 1 0-3.605 0v62.02a1.803 1.803 0 1 0 3.605 0z" clip-path="url(#h)"/></g><g fill="#333" text-rendering="geometricPrecision" stroke="none"><path d="M118.767 127.14v62.658a1.802 1.802 0 1 0 3.606 0V127.14a1.802 1.802 0 1 0-3.606 0z" clip-path="url(#a)"/><path fill="#000" d="M118.767 127.14v62.658a1.802 1.802 0 1 0 3.606 0V127.14a1.802 1.802 0 1 0-3.606 0z" clip-path="url(#e)"/></g><g fill="#333" text-rendering="geometricPrecision" stroke="none"><path d="M285.34 127.14v62.658a1.803 1.803 0 1 0 3.606 0V127.14a1.802 1.802 0 1 0-3.605 0z" clip-path="url(#a)"/><path fill="#000" d="M285.34 127.14v62.658a1.803 1.803 0 1 0 3.606 0V127.14a1.802 1.802 0 1 0-3.605 0z" clip-path="url(#i)"/></g><path d="M200.534 113.433a6.943 6.943 0 0 0-6.943 6.943v13.887a6.943 6.943 0 0 0 6.943 6.943h6.645a6.943 6.943 0 0 0 6.943-6.943v-13.887a6.943 6.943 0 0 0-6.943-6.943z" stroke="none" clip-path="url(#a)" fill="#fff" text-rendering="geometricPrecision"/><text y="31" clip-path="url(#j)" stroke="none" transform="translate(192.591 108.14)" fill="red" text-rendering="geometricPrecision" font-size="29" font-family="sans-serif">O</text><g fill="#fff" text-rendering="geometricPrecision" font-size="29" font-family="sans-serif" stroke="none"><path d="M36.75 113.722a6.709 6.709 0 0 0-6.709 6.709v13.418a6.709 6.709 0 0 0 6.709 6.709h1.066a6.709 6.709 0 0 0 6.71-6.71v-13.417a6.709 6.709 0 0 0-6.71-6.71z" clip-path="url(#a)"/><text y="31" transform="translate(28.041 108.14)" clip-path="url(#k)" fill="#960">F</text></g><g fill="#fff" text-rendering="geometricPrecision" font-size="29" font-family="sans-serif" stroke="none"><path d="M120.037 30.435a6.709 6.709 0 0 0-6.71 6.709v13.418a6.709 6.709 0 0 0 6.71 6.709h1.066a6.709 6.709 0 0 0 6.71-6.71V37.145a6.709 6.709 0 0 0-6.71-6.71z" clip-path="url(#a)"/><text y="31" transform="translate(111.328 24.853)" clip-path="url(#l)" fill="#960">F</text></g><g fill="#fff" text-rendering="geometricPrecision" font-size="29" font-family="sans-serif" stroke="none"><path d="M369.897 30.435a6.709 6.709 0 0 0-6.71 6.709v13.418a6.709 6.709 0 0 0 6.71 6.709h1.066a6.709 6.709 0 0 0 6.71-6.71V37.145a6.709 6.709 0 0 0-6.71-6.71z" clip-path="url(#a)"/><text y="31" transform="translate(361.188 24.853)" clip-path="url(#m)" fill="#960">F</text></g><g fill="#fff" text-rendering="geometricPrecision" font-size="29" font-family="sans-serif" stroke="none"><path d="M453.184 113.722a6.709 6.709 0 0 0-6.71 6.709v13.418a6.709 6.709 0 0 0 6.71 6.709h1.066a6.709 6.709 0 0 0 6.709-6.71v-13.417a6.709 6.709 0 0 0-6.709-6.71z" clip-path="url(#a)"/><text y="31" transform="translate(444.475 108.14)" clip-path="url(#n)" fill="#960">F</text></g><g fill="#fff" text-rendering="geometricPrecision" font-size="29" font-family="sans-serif" stroke="none"><path d="M369.897 197.008a6.709 6.709 0 0 0-6.71 6.71v13.417a6.709 6.709 0 0 0 6.71 6.71h1.066a6.709 6.709 0 0 0 6.71-6.71v-13.418a6.709 6.709 0 0 0-6.71-6.709z" clip-path="url(#a)"/><text y="31" transform="translate(361.188 191.426)" clip-path="url(#o)" fill="#960">F</text></g><g fill="#fff" text-rendering="geometricPrecision" font-size="29" font-family="sans-serif" stroke="none"><path d="M281.55 30.156a6.938 6.938 0 0 0-6.938 6.938v13.877a6.939 6.939 0 0 0 6.939 6.939h11.185a6.939 6.939 0 0 0 6.939-6.939V37.094a6.938 6.938 0 0 0-6.939-6.938z" clip-path="url(#a)"/><text y="31" transform="translate(273.112 24.853)" clip-path="url(#p)" fill="#090">Cl</text></g><g fill="#fff" text-rendering="geometricPrecision" font-size="29" font-family="sans-serif" stroke="none"><path d="M118.857 197.008a6.709 6.709 0 0 0-6.709 6.71v13.417a6.709 6.709 0 0 0 6.709 6.71h3.426a6.709 6.709 0 0 0 6.709-6.71v-13.418a6.709 6.709 0 0 0-6.71-6.709z" clip-path="url(#a)"/><text y="31" transform="translate(110.148 191.426)" clip-path="url(#q)" fill="#333">H</text></g><g fill="#fff" text-rendering="geometricPrecision" font-size="29" font-family="sans-serif" stroke="none"><path d="M285.43 197.008a6.709 6.709 0 0 0-6.709 6.71v13.417a6.709 6.709 0 0 0 6.71 6.71h3.425a6.709 6.709 0 0 0 6.71-6.71v-13.418a6.709 6.709 0 0 0-6.71-6.709z" clip-path="url(#a)"/><text y="31" transform="translate(276.721 191.426)" clip-path="url(#r)" fill="#333">H</text></g></svg>