<svg color-interpolation="auto" stroke="#000" stroke-linecap="square" width="491" stroke-miterlimit="10" height="254" xmlns="http://www.w3.org/2000/svg" font-family="'Dialog'" font-size="12"><defs><clipPath id="a"><path d="M0 0h491v254H0V0z"/></clipPath><clipPath id="b"><path d="M137.273 102.586c-13.56 0-24.554 10.993-24.554 24.554 0 13.56 10.993 24.553 24.554 24.553 13.56 0 24.554-10.993 24.554-24.553s-10.993-24.554-24.554-24.554z"/></clipPath><clipPath id="c"><path d="M221.333 102.586c-13.56 0-24.553 10.993-24.553 24.554 0 13.56 10.993 24.553 24.553 24.553s24.554-10.993 24.554-24.553-10.993-24.554-24.554-24.554z"/></clipPath><clipPath id="d"><path d="M103.867 101.074c-14.396 0-26.066 11.67-26.066 26.066 0 14.395 11.67 26.065 26.066 26.065 14.395 0 26.065-11.67 26.065-26.065 0-14.396-11.67-26.066-26.065-26.066z"/></clipPath><clipPath id="e"><path d="M120.57 85.357c-11.529 0-20.875 9.346-20.875 20.874 0 11.53 9.346 20.875 20.875 20.875s20.875-9.346 20.875-20.874c0-11.53-9.346-20.875-20.875-20.875z"/></clipPath><clipPath id="f"><path d="M370.43 95.81c-17.302 0-31.329 14.027-31.329 31.33 0 17.302 14.027 31.329 31.33 31.329 17.302 0 31.328-14.027 31.328-31.33 0-17.302-14.026-31.328-31.329-31.328z"/></clipPath><clipPath id="g"><path d="M370.43 92.723c-19.008 0-34.417 15.409-34.417 34.417 0 19.008 15.41 34.416 34.417 34.416 19.008 0 34.417-15.409 34.417-34.416 0-19.008-15.409-34.417-34.417-34.417z"/></clipPath><clipPath id="h"><path d="M287.143 85.676c-11.352 0-20.555 9.203-20.555 20.555 0 11.353 9.203 20.556 20.555 20.556 11.353 0 20.556-9.203 20.556-20.556 0-11.352-9.203-20.555-20.556-20.555z"/></clipPath><clipPath id="i"><path d="M-110.078-108.14h491v254h-491v-254z"/></clipPath><clipPath id="j"><path d="M-109.079-137.616h491v254h-491v-254z"/></clipPath><clipPath id="k"><path d="M-192.591-108.14h491v254h-491v-254z"/></clipPath><clipPath id="l"><path d="M-276.651-108.14h491v254h-491v-254z"/></clipPath><clipPath id="m"><path d="M-275.652-137.616h491v254h-491v-254z"/></clipPath><clipPath id="n"><path d="M-28.041-108.14h491v254h-491v-254z"/></clipPath><clipPath id="o"><path d="M-111.328-24.853h491v254h-491v-254z"/></clipPath><clipPath id="p"><path d="M-361.188-24.853h491v254h-491v-254z"/></clipPath><clipPath id="q"><path d="M-444.475-108.14h491v254h-491v-254z"/></clipPath><clipPath id="r"><path d="M-361.188-191.426h491v254h-491v-254z"/></clipPath><clipPath id="s"><path d="M-273.112-24.853h491v254h-491v-254z"/></clipPath></defs><g fill="red" text-rendering="geometricPrecision" stroke="none"><path d="M137.273 128.942h49.107a1.802 1.802 0 1 0 0-3.605h-49.107a1.802 1.802 0 1 0 0 3.605z" clip-path="url(#a)"/><path fill="#000" d="M137.273 128.942h49.107a1.802 1.802 0 1 0 0-3.605h-49.107a1.802 1.802 0 1 0 0 3.605z" clip-path="url(#b)"/></g><g text-rendering="geometricPrecision" stroke="none"><path d="M221.333 128.942h49.107a1.802 1.802 0 1 0 0-3.605h-49.107a1.802 1.802 0 1 0 0 3.605z" clip-path="url(#a)"/><path fill="red" d="M221.333 128.942h49.107a1.802 1.802 0 1 0 0-3.605h-49.107a1.802 1.802 0 1 0 0 3.605z" clip-path="url(#c)"/></g><g fill="#960" text-rendering="geometricPrecision" stroke="none"><path d="M103.867 125.337h-52.13a1.802 1.802 0 1 0 0 3.605h52.13a1.802 1.802 0 1 0 0-3.605z" clip-path="url(#a)"/><path fill="#000" d="M103.867 125.337h-52.13a1.802 1.802 0 1 0 0 3.605h52.13a1.802 1.802 0 1 0 0-3.605z" clip-path="url(#d)"/></g><g fill="#960" text-rendering="geometricPrecision" stroke="none"><path d="M122.373 106.231v-41.75a1.802 1.802 0 1 0-3.606 0v41.75a1.802 1.802 0 1 0 3.606 0z" clip-path="url(#a)"/><path fill="#000" d="M122.373 106.231v-41.75a1.802 1.802 0 1 0-3.606 0v41.75a1.802 1.802 0 1 0 3.606 0z" clip-path="url(#e)"/></g><path d="M303.846 128.942h66.584a1.802 1.802 0 1 0 0-3.605h-66.584a1.802 1.802 0 1 0 0 3.605z" stroke="none" clip-path="url(#a)" text-rendering="geometricPrecision"/><g fill="#960" text-rendering="geometricPrecision" stroke="none"><path d="M372.233 127.14V64.482a1.802 1.802 0 1 0-3.606 0v62.658a1.802 1.802 0 1 0 3.606 0z" clip-path="url(#a)"/><path fill="#000" d="M372.233 127.14V64.482a1.802 1.802 0 1 0-3.606 0v62.658a1.802 1.802 0 1 0 3.606 0z" clip-path="url(#f)"/></g><g fill="#960" text-rendering="geometricPrecision" stroke="none"><path d="M370.43 128.942h68.834a1.802 1.802 0 1 0 0-3.605H370.43a1.802 1.802 0 1 0 0 3.605z" clip-path="url(#a)"/><path fill="#000" d="M370.43 128.942h68.834a1.802 1.802 0 1 0 0-3.605H370.43a1.802 1.802 0 1 0 0 3.605z" clip-path="url(#g)"/></g><g fill="#960" text-rendering="geometricPrecision" stroke="none"><path d="M368.627 127.14v62.658a1.802 1.802 0 1 0 3.606 0V127.14a1.802 1.802 0 1 0-3.606 0z" clip-path="url(#a)"/><path fill="#000" d="M368.627 127.14v62.658a1.802 1.802 0 1 0 3.606 0V127.14a1.802 1.802 0 1 0-3.606 0z" clip-path="url(#f)"/></g><g fill="#090" text-rendering="geometricPrecision" stroke="none"><path d="M288.946 106.231v-41.11a1.802 1.802 0 1 0-3.605 0v41.11a1.803 1.803 0 1 0 3.605 0z" clip-path="url(#a)"/><path fill="#000" d="M288.946 106.231v-41.11a1.802 1.802 0 1 0-3.605 0v41.11a1.803 1.803 0 1 0 3.605 0z" clip-path="url(#h)"/></g><path d="M118.016 113.442a6.938 6.938 0 0 0-6.938 6.939v13.877a6.939 6.939 0 0 0 6.938 6.938h5.108a6.939 6.939 0 0 0 6.938-6.938V120.38a6.938 6.938 0 0 0-6.938-6.939zm-.228 29.756a6.709 6.709 0 0 0-6.71 6.71v13.417a6.709 6.709 0 0 0 6.71 6.71h3.425a6.709 6.709 0 0 0 6.71-6.71v-13.418a6.709 6.709 0 0 0-6.71-6.709z" stroke="none" clip-path="url(#a)" fill="#fff" text-rendering="geometricPrecision"/><text y="31" clip-path="url(#i)" stroke="none" transform="translate(110.078 108.14)" text-rendering="geometricPrecision" font-size="29" font-family="sans-serif">C</text><text y="31" clip-path="url(#j)" stroke="none" transform="translate(109.079 137.616)" text-rendering="geometricPrecision" font-size="29" font-family="sans-serif">H</text><g fill="#fff" text-rendering="geometricPrecision" font-size="29" font-family="sans-serif" stroke="none"><path d="M200.534 113.433a6.943 6.943 0 0 0-6.943 6.943v13.887a6.943 6.943 0 0 0 6.943 6.943h6.645a6.943 6.943 0 0 0 6.943-6.943v-13.887a6.943 6.943 0 0 0-6.943-6.943z" clip-path="url(#a)"/><text y="31" transform="translate(192.591 108.14)" clip-path="url(#k)" fill="red">O</text></g><g fill="#fff" text-rendering="geometricPrecision" font-size="29" font-family="sans-serif" stroke="none"><path d="M284.59 113.442a6.938 6.938 0 0 0-6.939 6.939v13.877a6.938 6.938 0 0 0 6.939 6.938h5.107a6.939 6.939 0 0 0 6.939-6.938V120.38a6.938 6.938 0 0 0-6.939-6.939zm-.229 29.756a6.709 6.709 0 0 0-6.709 6.71v13.417a6.709 6.709 0 0 0 6.71 6.71h3.425a6.709 6.709 0 0 0 6.709-6.71v-13.418a6.709 6.709 0 0 0-6.709-6.709z" clip-path="url(#a)"/><text y="31" transform="translate(276.651 108.14)" clip-path="url(#l)" fill="#000">C</text></g><text y="31" clip-path="url(#m)" stroke="none" transform="translate(275.652 137.616)" text-rendering="geometricPrecision" font-size="29" font-family="sans-serif">H</text><g fill="#fff" text-rendering="geometricPrecision" font-size="29" font-family="sans-serif" stroke="none"><path d="M36.75 113.722a6.709 6.709 0 0 0-6.709 6.709v13.418a6.709 6.709 0 0 0 6.709 6.709h1.066a6.709 6.709 0 0 0 6.71-6.71v-13.417a6.709 6.709 0 0 0-6.71-6.71z" clip-path="url(#a)"/><text y="31" transform="translate(28.041 108.14)" clip-path="url(#n)" fill="#960">F</text></g><g fill="#fff" text-rendering="geometricPrecision" font-size="29" font-family="sans-serif" stroke="none"><path d="M120.037 30.435a6.709 6.709 0 0 0-6.71 6.709v13.418a6.709 6.709 0 0 0 6.71 6.709h1.066a6.709 6.709 0 0 0 6.71-6.71V37.145a6.709 6.709 0 0 0-6.71-6.71z" clip-path="url(#a)"/><text y="31" transform="translate(111.328 24.853)" clip-path="url(#o)" fill="#960">F</text></g><g fill="#fff" text-rendering="geometricPrecision" font-size="29" font-family="sans-serif" stroke="none"><path d="M369.897 30.435a6.709 6.709 0 0 0-6.71 6.709v13.418a6.709 6.709 0 0 0 6.71 6.709h1.066a6.709 6.709 0 0 0 6.71-6.71V37.145a6.709 6.709 0 0 0-6.71-6.71z" clip-path="url(#a)"/><text y="31" transform="translate(361.188 24.853)" clip-path="url(#p)" fill="#960">F</text></g><g fill="#fff" text-rendering="geometricPrecision" font-size="29" font-family="sans-serif" stroke="none"><path d="M453.184 113.722a6.709 6.709 0 0 0-6.71 6.709v13.418a6.709 6.709 0 0 0 6.71 6.709h1.066a6.709 6.709 0 0 0 6.709-6.71v-13.417a6.709 6.709 0 0 0-6.709-6.71z" clip-path="url(#a)"/><text y="31" transform="translate(444.475 108.14)" clip-path="url(#q)" fill="#960">F</text></g><g fill="#fff" text-rendering="geometricPrecision" font-size="29" font-family="sans-serif" stroke="none"><path d="M369.897 197.008a6.709 6.709 0 0 0-6.71 6.71v13.417a6.709 6.709 0 0 0 6.71 6.71h1.066a6.709 6.709 0 0 0 6.71-6.71v-13.418a6.709 6.709 0 0 0-6.71-6.709z" clip-path="url(#a)"/><text y="31" transform="translate(361.188 191.426)" clip-path="url(#r)" fill="#960">F</text></g><g fill="#fff" text-rendering="geometricPrecision" font-size="29" font-family="sans-serif" stroke="none"><path d="M281.55 30.156a6.938 6.938 0 0 0-6.938 6.938v13.877a6.939 6.939 0 0 0 6.939 6.939h11.185a6.939 6.939 0 0 0 6.939-6.939V37.094a6.938 6.938 0 0 0-6.939-6.938z" clip-path="url(#a)"/><text y="31" transform="translate(273.112 24.853)" clip-path="url(#s)" fill="#090">Cl</text></g></svg>