<svg height="280" width="700" color-interpolation="auto" stroke="#000" stroke-linecap="square" stroke-miterlimit="10" xmlns="http://www.w3.org/2000/svg" font-family="'Dialog'" font-size="12"><defs><clipPath id="a"><path d="M0 0h732v475H0V0z"/></clipPath><clipPath id="b"><path d="M368.508 87.874c-12.024 0-21.772 9.747-21.772 21.771 0 12.024 9.748 21.772 21.772 21.772s21.772-9.748 21.772-21.772-9.748-21.771-21.772-21.771z"/></clipPath><clipPath id="c"><path d="M318.923 64.116c-11.4 0-20.642 9.242-20.642 20.642 0 11.4 9.242 20.642 20.642 20.642 11.4 0 20.642-9.242 20.642-20.642 0-11.4-9.242-20.642-20.642-20.642z"/></clipPath><clipPath id="d"><path d="M175.105 97.306c-11.35 0-20.55 9.2-20.55 20.55 0 11.35 9.2 20.55 20.55 20.55 11.35 0 20.55-9.2 20.55-20.55 0-11.35-9.2-20.55-20.55-20.55z"/></clipPath><clipPath id="e"><path d="M-361.68-152.625h732v475h-732v-475z"/></clipPath><clipPath id="f"><path d="M-388.508-162.87h732v475h-732v-475z"/></clipPath><clipPath id="g"><path d="M-409.923-69.405h732v475h-732v-475z"/></clipPath><clipPath id="h"><path d="M-435.72-79.742h732v475h-732v-475z"/></clipPath><clipPath id="i"><path d="M-312.08-16.778h732v475h-732v-475z"/></clipPath><clipPath id="j"><path d="M-109.513-75.139h732v475h-732v-475z"/></clipPath><clipPath id="k"><path d="M484.483 198.29h105.984v28.766H484.484V198.29z"/></clipPath><clipPath id="l"><path d="M20.565 133.142h87.31v53.497h-87.31v-53.497z"/></clipPath></defs><path d="M220.98 86.631l-46.53 30.218a1.2 1.2 0 1 0 1.309 2.014l46.529-30.218a1.2 1.2 0 1 0-1.308-2.014z" clip-path="url(#a)" text-rendering="geometricPrecision" stroke="none"/><path d="M186.663 124.238a1.2 1.2 0 1 0-2.399.126l2.173 41.467a1.2 1.2 0 1 0 2.399-.125zm-10.36-6.445a1.2 1.2 0 1 0-2.398.125l2.904 55.406a1.2 1.2 0 1 0 2.399-.126z" clip-path="url(#a)" text-rendering="geometricPrecision" stroke="none"/><path d="M177.463 174.331l49.433 25.188a1.2 1.2 0 1 0 1.09-2.14l-49.432-25.188a1.2 1.2 0 1 0-1.09 2.14z" clip-path="url(#a)" text-rendering="geometricPrecision" stroke="none"/><path d="M227.19 185.248a1.2 1.2 0 1 0 1.308 2.015l34.824-22.616a1.2 1.2 0 1 0-1.309-2.014zm-.403 12.194a1.2 1.2 0 1 0 1.308 2.014l46.53-30.217a1.2 1.2 0 1 0-1.309-2.014zM222.18 86.568a1.2 1.2 0 1 0-1.091 2.14l49.433 25.189a1.2 1.2 0 1 0 1.09-2.14zm1.674 12.085a1.2 1.2 0 1 0-1.09 2.14l36.996 18.852a1.2 1.2 0 1 0 1.09-2.14z" clip-path="url(#a)" text-rendering="geometricPrecision" stroke="none"/><path d="M275.17 168.169l-2.904-55.405a1.2 1.2 0 1 0-2.398.125l2.903 55.406a1.2 1.2 0 1 0 2.399-.126z" clip-path="url(#a)" text-rendering="geometricPrecision" stroke="none"/><path d="M271.674 113.862l47.857-28.068a1.2 1.2 0 1 0-1.216-2.072l-47.856 28.069a1.2 1.2 0 1 0 1.215 2.071zm95.633-4.217v41.544a1.2 1.2 0 1 0 2.402 0v-41.544a1.2 1.2 0 1 0-2.402 0z" clip-path="url(#a)" text-rendering="geometricPrecision" stroke="none"/><path d="M318.384 85.832l49.585 24.887a1.2 1.2 0 1 0 1.078-2.147l-49.585-24.887a1.2 1.2 0 1 0-1.078 2.147z" clip-path="url(#a)" text-rendering="geometricPrecision" stroke="none"/><g fill="#339" text-rendering="geometricPrecision" stroke="none"><path d="M369.109 110.685l37.71-21.771a1.2 1.2 0 1 0-1.202-2.08l-37.71 21.771a1.2 1.2 0 1 0 1.202 2.08z" clip-path="url(#a)"/><path fill="#000" d="M369.109 110.685l37.71-21.771a1.2 1.2 0 1 0-1.202-2.08l-37.71 21.771a1.2 1.2 0 1 0 1.202 2.08z" clip-path="url(#b)"/></g><g fill="red" text-rendering="geometricPrecision" stroke="none"><path d="M320.124 84.758V43.474a1.2 1.2 0 1 0-2.402 0v41.284a1.2 1.2 0 1 0 2.402 0z" clip-path="url(#a)"/><path fill="#000" d="M320.124 84.758V43.474a1.2 1.2 0 1 0-2.402 0v41.284a1.2 1.2 0 1 0 2.402 0z" clip-path="url(#c)"/></g><g fill="red" text-rendering="geometricPrecision" stroke="none"><path d="M175.759 116.849l-34.47-22.385a1.2 1.2 0 1 0-1.308 2.014l34.47 22.385a1.2 1.2 0 1 0 1.308-2.014z" clip-path="url(#a)"/><path fill="#000" d="M175.759 116.849l-34.47-22.385a1.2 1.2 0 1 0-1.308 2.014l34.47 22.385a1.2 1.2 0 1 0 1.308-2.014z" clip-path="url(#d)"/></g><path d="M366.809 155.993a4.629 4.629 0 0 0-4.629 4.629v9.257a4.629 4.629 0 0 0 4.629 4.63h16.57a4.629 4.629 0 0 0 4.63-4.63v7.186a4.57 4.57 0 0 0 4.57 4.57h.234a4.57 4.57 0 0 0 4.57-4.57v-9.14a4.57 4.57 0 0 0-4.57-4.57h-.234a4.57 4.57 0 0 0-4.57 4.57v-7.304a4.629 4.629 0 0 0-4.63-4.628z" clip-path="url(#a)" fill="#fff" text-rendering="geometricPrecision" stroke="none"/><text y="20" clip-path="url(#e)" stroke="none" transform="translate(361.68 152.625)" text-rendering="geometricPrecision" font-size="19" font-family="sans-serif">CH</text><text y="15" clip-path="url(#f)" stroke="none" transform="translate(388.508 162.87)" text-rendering="geometricPrecision" font-size="14" font-family="sans-serif">3</text><g fill="#fff" text-rendering="geometricPrecision" font-size="14" font-family="sans-serif" stroke="none"><path d="M415.395 72.96a4.473 4.473 0 0 0-4.472 4.473v8.945a4.473 4.473 0 0 0 4.472 4.472h15.352a4.473 4.473 0 0 0 4.472-4.472v7.356a4.492 4.492 0 0 0 4.493 4.492h.47a4.492 4.492 0 0 0 4.492-4.492V84.75a4.492 4.492 0 0 0-4.492-4.493h-.47a4.492 4.492 0 0 0-4.493 4.493v-7.317a4.473 4.473 0 0 0-4.472-4.473z" clip-path="url(#a)"/><text font-size="19" y="20" transform="translate(409.923 69.405)" clip-path="url(#g)" fill="#339">NH</text></g><text y="15" clip-path="url(#h)" stroke="none" transform="translate(435.72 79.742)" fill="#339" text-rendering="geometricPrecision" font-size="14" font-family="sans-serif">2</text><g fill="#fff" text-rendering="geometricPrecision" font-size="14" font-family="sans-serif" stroke="none"><path d="M316.713 20.136a4.634 4.634 0 0 0-4.634 4.633v9.268a4.634 4.634 0 0 0 4.634 4.634h18.592a4.634 4.634 0 0 0 4.634-4.634v-9.268a4.634 4.634 0 0 0-4.634-4.633z" clip-path="url(#a)"/><text font-size="19" y="20" transform="translate(312.08 16.778)" clip-path="url(#i)" fill="red">OH</text></g><g fill="#fff" text-rendering="geometricPrecision" font-size="19" font-family="sans-serif" stroke="none"><path d="M115.146 78.496a4.634 4.634 0 0 0-4.633 4.634v9.268a4.634 4.634 0 0 0 4.633 4.634h16.78a4.634 4.634 0 0 0 4.634-4.634V83.13a4.634 4.634 0 0 0-4.634-4.634z" clip-path="url(#a)"/><text y="20" transform="translate(109.513 75.139)" clip-path="url(#j)" fill="red">HO</text></g><path d="M139.733 151.632l-34.678 4.556.293 2.232 34.678-4.556.704 5.358 17.01-8.82-18.71-4.128zM426 182.536l33.649 19.276 1.119-1.953-33.648-19.277 3.582-6.252-22.898-3.516 14.615 17.974z" clip-path="url(#a)" text-rendering="geometricPrecision" font-size="20" font-weight="bold" font-family="sans-serif" stroke="none"/><text x="484.976" y="209.584" clip-path="url(#k)" stroke="none" transform="translate(-475.972 -194.897) scale(1.9814)" text-rendering="geometricPrecision" font-size="10" font-family="sans-serif">Additional methyl group</text><text x="484.976" y="223.584" clip-path="url(#k)" stroke="none" transform="translate(-475.972 -194.897) scale(1.9814)" text-rendering="geometricPrecision" font-size="10" font-family="sans-serif">on alpha carbon</text><g text-rendering="geometricPrecision" font-size="10" font-family="sans-serif" stroke="none"><text x="21.14" y="144.287" clip-path="url(#l)" transform="translate(-20.748 -130.812) scale(1.9814)">Only one</text><text x="21.14" y="158.287" clip-path="url(#l)" transform="translate(-20.748 -130.812) scale(1.9814)">hydroxyl group</text></g></svg>