<svg color-interpolation="auto" stroke="#000" stroke-linecap="square" width="476" stroke-miterlimit="10" height="541" xmlns="http://www.w3.org/2000/svg" font-family="'Dialog'" font-size="12"><defs><clipPath id="a"><path d="M0 0h476v541H0V0z"/></clipPath><clipPath id="b"><path d="M94.172 218.478c-11.425 0-20.687 9.262-20.687 20.687s9.262 20.687 20.687 20.687 20.687-9.262 20.687-20.687-9.262-20.687-20.687-20.687z"/></clipPath><clipPath id="c"><path d="M91.266 163.152c-11.359 0-20.568 9.209-20.568 20.568 0 11.36 9.209 20.568 20.568 20.568 11.36 0 20.568-9.209 20.568-20.568 0-11.36-9.208-20.568-20.568-20.568z"/></clipPath><clipPath id="d"><path d="M235.188 129.939c-11.41 0-20.66 9.25-20.66 20.66s9.25 20.66 20.66 20.66 20.66-9.25 20.66-20.66-9.25-20.66-20.66-20.66z"/></clipPath><clipPath id="e"><path d="M284.809 153.714c-12.034 0-21.79 9.756-21.79 21.79 0 12.034 9.756 21.79 21.79 21.79 12.034 0 21.79-9.756 21.79-21.79 0-12.034-9.756-21.79-21.79-21.79z"/></clipPath><clipPath id="f"><path d="M-27.028-254.425h476v541h-476v-541z"/></clipPath><clipPath id="g"><path d="M-25.64-140.982h476v541h-476v-541z"/></clipPath><clipPath id="h"><path d="M-326.258-135.244h476v541h-476v-541z"/></clipPath><clipPath id="i"><path d="M-352.055-145.58h476v541h-476v-541z"/></clipPath><clipPath id="j"><path d="M-228.344-82.579h476v541h-476v-541z"/></clipPath><clipPath id="k"><path d="M20.65 21.077h106.917v14.625H20.65V21.077z"/></clipPath></defs><g fill="red" text-rendering="geometricPrecision" stroke="none"><path d="M93.571 238.125L57.74 258.812a1.201 1.201 0 1 0 1.202 2.081l35.831-20.687a1.202 1.202 0 1 0-1.202-2.081z" clip-path="url(#a)"/><path fill="#000" d="M93.571 238.125L57.74 258.812a1.201 1.201 0 1 0 1.202 2.081l35.831-20.687a1.202 1.202 0 1 0-1.202-2.081z" clip-path="url(#b)"/></g><g fill="red" text-rendering="geometricPrecision" stroke="none"><path d="M91.92 182.712l-34.499-22.404a1.202 1.202 0 1 0-1.309 2.016l34.5 22.404a1.202 1.202 0 1 0 1.309-2.016z" clip-path="url(#a)"/><path fill="#000" d="M91.92 182.712l-34.499-22.404a1.202 1.202 0 1 0-1.309 2.016l34.5 22.404a1.202 1.202 0 1 0 1.309-2.016z" clip-path="url(#c)"/></g><path d="M137.174 152.473l-46.562 30.24a1.201 1.201 0 1 0 1.309 2.015l46.563-30.24a1.202 1.202 0 1 0-1.31-2.015z" stroke="none" clip-path="url(#a)" text-rendering="geometricPrecision"/><path d="M138.375 152.41a1.202 1.202 0 1 0-1.092 2.142l49.469 25.206a1.202 1.202 0 1 0 1.091-2.142zm1.675 12.094a1.202 1.202 0 1 0-1.09 2.141l37.023 18.865a1.202 1.202 0 1 0 1.091-2.141zM102.833 190.107a1.202 1.202 0 1 0-2.4.126l2.174 41.497a1.201 1.201 0 1 0 2.4-.126zm-10.367-6.45a1.202 1.202 0 1 0-2.4.126l2.906 55.445a1.202 1.202 0 1 0 2.4-.126z" stroke="none" clip-path="url(#a)" text-rendering="geometricPrecision"/><path d="M93.627 240.236l49.468 25.206a1.201 1.201 0 1 0 1.091-2.141l-49.468-25.206a1.201 1.201 0 1 0-1.091 2.14z" stroke="none" clip-path="url(#a)" text-rendering="geometricPrecision"/><path d="M143.389 251.161a1.202 1.202 0 1 0 1.309 2.016l34.849-22.632a1.202 1.202 0 1 0-1.31-2.016zm-.403 12.203a1.201 1.201 0 1 0 1.31 2.015l46.562-30.239a1.202 1.202 0 1 0-1.31-2.015z" stroke="none" clip-path="url(#a)" text-rendering="geometricPrecision"/><path d="M191.403 234.07l-2.905-55.446a1.201 1.201 0 1 0-2.4.126l2.905 55.445a1.202 1.202 0 1 0 2.4-.125z" stroke="none" clip-path="url(#a)" text-rendering="geometricPrecision"/><path d="M187.905 179.724l47.891-28.089a1.202 1.202 0 1 0-1.216-2.073l-47.89 28.089a1.202 1.202 0 1 0 1.215 2.073z" stroke="none" clip-path="url(#a)" text-rendering="geometricPrecision"/><path d="M234.649 151.673l49.62 24.905a1.202 1.202 0 1 0 1.079-2.148l-49.62-24.905a1.202 1.202 0 1 0-1.079 2.148z" stroke="none" clip-path="url(#a)" text-rendering="geometricPrecision"/><g fill="red" text-rendering="geometricPrecision" stroke="none"><path d="M236.39 150.599v-41.32a1.202 1.202 0 1 0-2.404 0v41.32a1.202 1.202 0 1 0 2.404 0z" clip-path="url(#a)"/><path fill="#000" d="M236.39 150.599v-41.32a1.202 1.202 0 1 0-2.404 0v41.32a1.202 1.202 0 1 0 2.404 0z" clip-path="url(#d)"/></g><g fill="#339" text-rendering="geometricPrecision" stroke="none"><path d="M285.41 176.544l37.74-21.79a1.202 1.202 0 1 0-1.2-2.08l-37.742 21.789a1.202 1.202 0 1 0 1.202 2.081z" clip-path="url(#a)"/><path fill="#000" d="M285.41 176.544l37.74-21.79a1.202 1.202 0 1 0-1.2-2.08l-37.742 21.789a1.202 1.202 0 1 0 1.202 2.081z" clip-path="url(#e)"/></g><path d="M32.662 257.783a4.634 4.634 0 0 0-4.634 4.633v9.268a4.634 4.634 0 0 0 4.634 4.634H49.44a4.634 4.634 0 0 0 4.634-4.634v-9.268a4.634 4.634 0 0 0-4.634-4.633z" stroke="none" clip-path="url(#a)" fill="#fff" text-rendering="geometricPrecision"/><text y="20" clip-path="url(#f)" stroke="none" transform="translate(27.028 254.425)" fill="red" text-rendering="geometricPrecision" font-size="19" font-family="sans-serif">HO</text><g fill="#fff" text-rendering="geometricPrecision" font-size="19" font-family="sans-serif" stroke="none"><path d="M31.275 144.34a4.634 4.634 0 0 0-4.634 4.633v9.267a4.634 4.634 0 0 0 4.634 4.634h16.779a4.634 4.634 0 0 0 4.634-4.634v-9.267a4.634 4.634 0 0 0-4.634-4.634z" clip-path="url(#a)"/><text y="20" transform="translate(25.64 140.982)" clip-path="url(#g)" fill="red">HO</text></g><g fill="#fff" text-rendering="geometricPrecision" font-size="19" font-family="sans-serif" stroke="none"><path d="M331.73 138.798a4.473 4.473 0 0 0-4.472 4.473v8.945a4.473 4.473 0 0 0 4.473 4.473h15.351a4.473 4.473 0 0 0 4.473-4.473v7.357a4.492 4.492 0 0 0 4.492 4.492h.47a4.492 4.492 0 0 0 4.492-4.492v-8.985a4.492 4.492 0 0 0-4.492-4.492h-.47a4.492 4.492 0 0 0-4.492 4.492v-7.317a4.473 4.473 0 0 0-4.473-4.473z" clip-path="url(#a)"/><text y="20" transform="translate(326.258 135.244)" clip-path="url(#h)" fill="#339">NH</text></g><text y="15" clip-path="url(#i)" stroke="none" transform="translate(352.055 145.58)" fill="#339" text-rendering="geometricPrecision" font-size="14" font-family="sans-serif">2</text><g fill="#fff" text-rendering="geometricPrecision" font-size="14" font-family="sans-serif" stroke="none"><path d="M232.978 85.936a4.634 4.634 0 0 0-4.634 4.634v9.268a4.634 4.634 0 0 0 4.634 4.633h18.592a4.634 4.634 0 0 0 4.634-4.633V90.57a4.634 4.634 0 0 0-4.634-4.634z" clip-path="url(#a)"/><text font-size="19" y="20" transform="translate(228.344 82.579)" clip-path="url(#j)" fill="red">OH</text></g><text x="21.313" y="32.156" clip-path="url(#k)" stroke="none" transform="translate(-20.947 -20.793) scale(1.9829)" text-rendering="geometricPrecision" font-size="10" font-family="sans-serif">Hydroxyl Group added</text><path d="M201.627 86.504l-73.174-32.579-.916 2.059 73.174 32.578-2.2 4.94 19.125 1.363-13.81-13.301z" stroke="none" clip-path="url(#a)" text-rendering="geometricPrecision" font-size="20" font-weight="bold" font-family="sans-serif"/></svg>