<svg color-interpolation="auto" stroke="#000" stroke-linecap="square" width="283" stroke-miterlimit="10" height="147" xmlns="http://www.w3.org/2000/svg" font-family="'Dialog'" font-size="12"><defs><clipPath id="a"><path d="M0 0h283v147H0V0z"/></clipPath><clipPath id="b"><path d="M215.675 48.766a7.938 7.938 0 1 0 0 15.877 7.938 7.938 0 0 0 0-15.877z"/></clipPath><clipPath id="c"><path d="M186.363 57.349c-6.019 0-10.898 4.88-10.898 10.898 0 6.019 4.88 10.898 10.898 10.898 6.019 0 10.898-4.88 10.898-10.898 0-6.019-4.879-10.898-10.898-10.898z"/></clipPath><clipPath id="d"><path d="M161.545 45.455c-5.709 0-10.337 4.628-10.337 10.337 0 5.71 4.628 10.338 10.337 10.338 5.71 0 10.337-4.628 10.337-10.338 0-5.709-4.628-10.337-10.337-10.337z"/></clipPath><clipPath id="e"><path d="M89.558 62.3c-5.554 0-10.057 4.502-10.057 10.057 0 5.555 4.503 10.057 10.057 10.057 5.555 0 10.058-4.502 10.058-10.057 0-5.555-4.503-10.058-10.058-10.058z"/></clipPath><clipPath id="f"><path d="M-232.12-59.658h283v147h-283v-147z"/></clipPath><clipPath id="g"><path d="M-246.542-65.77h283v147h-283v-147z"/></clipPath><clipPath id="h"><path d="M-158.123-22.022h283v147h-283v-147z"/></clipPath><clipPath id="i"><path d="M-207.094-38.444h283v147h-283v-147z"/></clipPath><clipPath id="j"><path d="M-207.093-48.362h283v147h-283v-147z"/></clipPath><clipPath id="k"><path d="M-57.222-51.233h283v147h-283v-147z"/></clipPath><clipPath id="l"><path d="M201.992 9.995h72.596v14.116h-72.596V9.995z"/></clipPath><clipPath id="m"><path d="M9.995 121.996h117.969v16.132H9.994v-16.132z"/></clipPath><clipPath id="n"><path d="M183.992 84.994h64.53v16.132h-64.53V84.994z"/></clipPath></defs><g text-rendering="geometricPrecision" stroke="none"><path d="M215.43 57.254l14.504 6.458a.601.601 0 1 0 .49-1.098l-14.505-6.459a.601.601 0 1 0-.489 1.099z" clip-path="url(#a)"/><path fill="#339" d="M215.43 57.254l14.504 6.458a.601.601 0 1 0 .49-1.098l-14.505-6.459a.601.601 0 1 0-.489 1.099z" clip-path="url(#b)"/></g><g fill="#339" text-rendering="geometricPrecision" stroke="none"><path d="M186.664 68.767L205.54 57.87a.601.601 0 1 0-.601-1.041l-18.876 10.897a.601.601 0 1 0 .6 1.041z" clip-path="url(#a)"/><path fill="#000" d="M186.664 68.767L205.54 57.87a.601.601 0 1 0-.601-1.041l-18.876 10.897a.601.601 0 1 0 .6 1.041z" clip-path="url(#c)"/></g><g fill="red" text-rendering="geometricPrecision" stroke="none"><path d="M162.146 55.792V35.118a.601.601 0 1 0-1.202 0v20.674a.601.601 0 1 0 1.202 0z" clip-path="url(#a)"/><path fill="#000" d="M162.146 55.792V35.118a.601.601 0 1 0-1.202 0v20.674a.601.601 0 1 0 1.202 0z" clip-path="url(#d)"/></g><path d="M161.276 56.33l24.818 12.454a.6.6 0 1 0 .539-1.074l-24.818-12.455a.601.601 0 1 0-.54 1.075z" clip-path="url(#a)" text-rendering="geometricPrecision" stroke="none"/><path d="M137.896 70.358L161.85 56.31a.601.601 0 1 0-.608-1.037L137.289 69.32a.601.601 0 1 0 .608 1.037z" clip-path="url(#a)" text-rendering="geometricPrecision" stroke="none"/><path d="M139.643 97.54l-1.45-27.732a.601.601 0 1 0-1.201.063l1.45 27.733a.6.6 0 1 0 1.201-.063z" clip-path="url(#a)" text-rendering="geometricPrecision" stroke="none"/><path d="M115.627 106.091a.601.601 0 1 0 .655 1.009l17.431-11.322a.601.601 0 1 0-.655-1.008zm-.201 6.104a.601.601 0 1 0 .655 1.008l23.29-15.127a.601.601 0 1 0-.655-1.008z" clip-path="url(#a)" text-rendering="geometricPrecision" stroke="none"/><path d="M90.74 100.625l24.74 12.61a.6.6 0 1 0 .546-1.071l-24.74-12.61a.6.6 0 1 0-.546 1.071z" clip-path="url(#a)" text-rendering="geometricPrecision" stroke="none"/><path d="M95.344 75.552a.601.601 0 0 0-1.2.063l1.088 20.756a.601.601 0 1 0 1.2-.063zm-5.185-3.227a.601.601 0 1 0-1.2.063l1.453 27.733a.601.601 0 0 0 1.2-.063zm22.962-15.628a.601.601 0 1 0-.546 1.072l24.744 12.606a.6.6 0 1 0 .546-1.072zm.839 6.05a.6.6 0 1 0-.546 1.07l18.519 9.435a.601.601 0 1 0 .545-1.071z" clip-path="url(#a)" text-rendering="geometricPrecision" stroke="none"/><path d="M112.52 56.729L89.232 71.853a.6.6 0 1 0 .655 1.008l23.29-15.124a.6.6 0 1 0-.655-1.008z" clip-path="url(#a)" text-rendering="geometricPrecision" stroke="none"/><g fill="red" text-rendering="geometricPrecision" stroke="none"><path d="M89.886 71.853l-16.87-10.955a.601.601 0 1 0-.655 1.008L89.23 72.86a.601.601 0 1 0 .655-1.008z" clip-path="url(#a)"/><path fill="#000" d="M89.886 71.853l-16.87-10.955a.601.601 0 1 0-.655 1.008L89.23 72.86a.601.601 0 1 0 .655-1.008z" clip-path="url(#e)"/></g><path d="M234.934 61.092a2.314 2.314 0 0 0-2.314 2.314v4.63a2.315 2.315 0 0 0 2.314 2.314h8.293a2.314 2.314 0 0 0 2.315-2.315v4.082a2.285 2.285 0 0 0 2.285 2.285h.117a2.285 2.285 0 0 0 2.285-2.285v-4.57a2.285 2.285 0 0 0-2.285-2.285h-.117a2.285 2.285 0 0 0-2.285 2.285v-4.14a2.314 2.314 0 0 0-2.315-2.315z" clip-path="url(#a)" fill="#fff" text-rendering="geometricPrecision" stroke="none"/><text y="10" clip-path="url(#f)" stroke="none" transform="translate(232.12 59.658)" text-rendering="geometricPrecision" font-size="9" font-family="sans-serif">CH</text><text y="6" clip-path="url(#g)" stroke="none" transform="translate(246.542 65.77)" text-rendering="geometricPrecision" font-size="6" font-family="sans-serif">3</text><g fill="#fff" text-rendering="geometricPrecision" font-size="6" font-family="sans-serif" stroke="none"><path d="M160.438 23.456a2.314 2.314 0 0 0-2.315 2.314v4.63a2.314 2.314 0 0 0 2.315 2.314h9.308a2.314 2.314 0 0 0 2.315-2.315V25.77a2.314 2.314 0 0 0-2.315-2.314z" clip-path="url(#a)"/><text font-size="9" y="10" transform="translate(158.123 22.022)" clip-path="url(#h)" fill="red">OH</text></g><g fill="#fff" text-rendering="geometricPrecision" font-size="9" font-family="sans-serif" stroke="none"><path d="M209.83 39.971a2.236 2.236 0 0 0-2.236 2.237v4.472a2.236 2.236 0 0 0 2.237 2.237h1.152a2.236 2.236 0 0 0 2.236-2.237v-4.472a2.236 2.236 0 0 0-2.236-2.237zm0 9.918a2.236 2.236 0 0 0-2.237 2.236v4.473a2.236 2.236 0 0 0 2.237 2.236h1.168a2.236 2.236 0 0 0 2.236-2.236v-4.472a2.236 2.236 0 0 0-2.236-2.237z" clip-path="url(#a)"/><text y="10" transform="translate(207.094 38.444)" clip-path="url(#i)" fill="#339">H</text></g><text y="10" clip-path="url(#j)" stroke="none" transform="translate(207.093 48.362)" fill="#339" text-rendering="geometricPrecision" font-size="9" font-family="sans-serif">N</text><g fill="#fff" text-rendering="geometricPrecision" font-size="9" font-family="sans-serif" stroke="none"><path d="M59.536 52.667a2.314 2.314 0 0 0-2.314 2.314v4.63a2.314 2.314 0 0 0 2.314 2.314h8.903a2.314 2.314 0 0 0 2.314-2.315v-4.629a2.314 2.314 0 0 0-2.314-2.314z" clip-path="url(#a)"/><text y="10" transform="translate(57.222 51.233)" clip-path="url(#k)" fill="red">HO</text></g><path d="M77.866 109.636l-12 9.45.697.885 12-9.45 1.674 2.126 5.062-8.146-9.106 3.01zm145.632-31.017l-8.122 6.662.715.872 8.122-6.663 2.287 2.789 5.72-10.086-11.009 3.638zM187.08 24.048l13.14-6.958-.528-.996-13.139 6.958-1.688-3.187-7.61 8.75 11.514-1.38z" clip-path="url(#a)" text-rendering="geometricPrecision" stroke="none"/><text x="202.961" y="21.582" clip-path="url(#l)" stroke="none" transform="translate(1.667 .087) scale(.9918)" text-rendering="geometricPrecision" font-size="10" font-family="sans-serif">Hydroxyl group</text><text x="10.614" y="133.533" clip-path="url(#m)" stroke="none" transform="translate(.087 1.006) scale(.9918)" text-rendering="geometricPrecision" font-size="10" font-family="sans-serif">Only one hydroxyl group</text><text x="184.928" y="96.717" clip-path="url(#n)" stroke="none" transform="translate(1.519 .704) scale(.9918)" text-rendering="geometricPrecision" font-size="10" font-family="sans-serif">Methyl group</text></svg>