<svg color-interpolation="auto" stroke="#000" stroke-linecap="square" width="359" stroke-miterlimit="10" height="241" xmlns="http://www.w3.org/2000/svg" font-family="'Dialog'" font-size="12"><defs><clipPath id="a"><path d="M0 0h359v241H0V0z"/></clipPath><clipPath id="b"><path d="M214.89 34.908c-12.014 0-21.753 9.74-21.753 21.754 0 12.014 9.74 21.753 21.753 21.753 12.014 0 21.754-9.74 21.754-21.753 0-12.014-9.74-21.754-21.754-21.754z"/></clipPath><clipPath id="c"><path d="M-256.27-16.442h359v241h-359v-241z"/></clipPath><clipPath id="d"><path d="M-282.067-26.778h359v241h-359v-241z"/></clipPath><clipPath id="e"><path d="M87.61 192.078h34.344v14.647H87.611v-14.647z"/></clipPath><clipPath id="f"><path d="M230.364 99.954h55.555v14.647h-55.555V99.954z"/></clipPath></defs><g fill="#339" text-rendering="geometricPrecision" stroke="none"><path d="M215.49 57.7l37.678-21.753a1.2 1.2 0 1 0-1.2-2.078L214.29 55.623a1.2 1.2 0 1 0 1.2 2.078z" clip-path="url(#a)"/><path fill="#000" d="M215.49 57.7l37.678-21.753a1.2 1.2 0 1 0-1.2-2.078L214.29 55.623a1.2 1.2 0 1 0 1.2 2.078z" clip-path="url(#b)"/></g><path d="M164.948 32.562l49.397 25.169a1.2 1.2 0 1 0 1.09-2.139l-49.398-25.169a1.2 1.2 0 1 0-1.09 2.139z" clip-path="url(#a)" text-rendering="geometricPrecision" stroke="none"/><path d="M118.08 60.252l48.013-27.72a1.2 1.2 0 1 0-1.2-2.079l-48.013 27.72a1.2 1.2 0 1 0 1.2 2.079z" clip-path="url(#a)" text-rendering="geometricPrecision" stroke="none"/><path d="M121.58 114.515l-2.902-55.365a1.2 1.2 0 1 0-2.396.125l2.901 55.366a1.2 1.2 0 1 0 2.397-.126z" clip-path="url(#a)" text-rendering="geometricPrecision" stroke="none"/><path d="M73.634 131.582a1.2 1.2 0 1 0 1.307 2.013l34.8-22.6a1.2 1.2 0 1 0-1.308-2.012zm-.402 12.185a1.2 1.2 0 1 0 1.307 2.013l46.496-30.196a1.2 1.2 0 1 0-1.307-2.012z" clip-path="url(#a)" text-rendering="geometricPrecision" stroke="none"/><path d="M23.944 120.673l49.397 25.17a1.2 1.2 0 1 0 1.09-2.139l-49.398-25.17a1.2 1.2 0 1 0-1.09 2.139z" clip-path="url(#a)" text-rendering="geometricPrecision" stroke="none"/><path d="M33.136 70.616a1.2 1.2 0 1 0-2.396.125l2.171 41.438a1.2 1.2 0 1 0 2.397-.126zm-10.35-6.44a1.2 1.2 0 1 0-2.398.125l2.902 55.365a1.2 1.2 0 1 0 2.397-.125zm45.841-31.203a1.2 1.2 0 1 0-1.09 2.139l49.398 25.17a1.2 1.2 0 1 0 1.09-2.139zm1.674 12.076a1.2 1.2 0 1 0-1.09 2.139l36.97 18.838a1.2 1.2 0 1 0 1.09-2.139z" clip-path="url(#a)" text-rendering="geometricPrecision" stroke="none"/><path d="M67.429 33.036L20.933 63.232a1.2 1.2 0 1 0 1.307 2.012L68.736 35.05a1.2 1.2 0 1 0-1.307-2.013z" clip-path="url(#a)" text-rendering="geometricPrecision" stroke="none"/><path d="M261.743 19.996a4.473 4.473 0 0 0-4.473 4.473v8.945a4.473 4.473 0 0 0 4.473 4.473h15.351a4.473 4.473 0 0 0 4.473-4.473v7.356a4.492 4.492 0 0 0 4.492 4.493h.47a4.492 4.492 0 0 0 4.492-4.492v-8.985a4.492 4.492 0 0 0-4.492-4.492h-.47a4.492 4.492 0 0 0-4.492 4.492V24.47a4.473 4.473 0 0 0-4.473-4.473z" clip-path="url(#a)" fill="#fff" text-rendering="geometricPrecision" stroke="none"/><text y="20" clip-path="url(#c)" stroke="none" transform="translate(256.27 16.442)" fill="#339" text-rendering="geometricPrecision" font-size="19" font-family="sans-serif">NH</text><text y="15" clip-path="url(#d)" stroke="none" transform="translate(282.067 26.778)" fill="#339" text-rendering="geometricPrecision" font-size="14" font-family="sans-serif">2</text><path d="M212.36 88.658v45h2.25v-45h5.4l-6.525-18-6.525 18zm-141.75 89.85v39.15h2.25v-39.15h7.2l-8.326-21.6-8.325 21.6z" clip-path="url(#a)" fill="#F03" text-rendering="geometricPrecision" font-size="20" font-weight="bold" font-family="sans-serif" stroke="none"/><text x="88.234" y="203.159" clip-path="url(#e)" stroke="none" transform="matrix(1.98 0 0 1.98 -86.47 -188.317)" fill="#F03" text-rendering="geometricPrecision" font-size="10" font-family="sans-serif">Phenyl</text><text x="230.735" y="110.908" clip-path="url(#f)" stroke="none" transform="matrix(1.98 0 0 1.98 -226.123 -97.911)" fill="#F03" text-rendering="geometricPrecision" font-size="10" font-family="sans-serif">Ethylamine</text></svg>