<svg color-interpolation="auto" stroke="#000" stroke-linecap="square" width="527" stroke-miterlimit="10" height="474" xmlns="http://www.w3.org/2000/svg" font-family="'Dialog'" font-size="12"><defs><clipPath id="a"><path d="M0 0h527v474H0V0z"/></clipPath><clipPath id="b"><path d="M189.407 66.488c-11.388 0-20.62 9.232-20.62 20.62 0 11.387 9.232 20.619 20.62 20.619 11.388 0 20.62-9.232 20.62-20.62 0-11.387-9.232-20.619-20.62-20.619z"/></clipPath><clipPath id="c"><path d="M-279.972-16.627h527v474h-527v-474z"/></clipPath><clipPath id="d"><path d="M-306.8-26.872h527v474h-527v-474z"/></clipPath><clipPath id="e"><path d="M-327.976-99.773h527v474h-527v-474z"/></clipPath><clipPath id="f"><path d="M-354.804-110.018h527v474h-527v-474z"/></clipPath><clipPath id="g"><path d="M-182.563-19.177h527v474h-527v-474z"/></clipPath><clipPath id="h"><path d="M-89.603-19.178h527v474h-527v-474z"/></clipPath><clipPath id="i"><path d="M-116.431-29.422h527v474h-527v-474z"/></clipPath><clipPath id="j"><path d="M-19.12-99.586h527v474h-527v-474z"/></clipPath><clipPath id="k"><path d="M-31.84-110.018h527v474h-527v-474z"/></clipPath><clipPath id="l"><path d="M-40.214-99.773h527v474h-527v-474z"/></clipPath></defs><path d="M242.895 167.566l-2.901-55.356a1.2 1.2 0 1 0-2.397.126l2.902 55.356a1.2 1.2 0 1 0 2.396-.126z" clip-path="url(#a)" text-rendering="geometricPrecision" stroke="none"/><path d="M194.958 184.63a1.2 1.2 0 1 0 1.306 2.013l34.793-22.596a1.2 1.2 0 1 0-1.307-2.012zm-.402 12.183a1.2 1.2 0 1 0 1.306 2.013l46.488-30.19a1.2 1.2 0 1 0-1.307-2.013z" clip-path="url(#a)" text-rendering="geometricPrecision" stroke="none"/><path d="M145.276 173.723l49.388 25.165a1.2 1.2 0 1 0 1.09-2.138l-49.389-25.165a1.2 1.2 0 1 0-1.09 2.138z" clip-path="url(#a)" text-rendering="geometricPrecision" stroke="none"/><path d="M154.467 123.674a1.2 1.2 0 1 0-2.396.126l2.17 41.43a1.2 1.2 0 1 0 2.397-.125zm-10.35-6.439a1.2 1.2 0 1 0-2.396.126l2.901 55.355a1.2 1.2 0 1 0 2.396-.125zm45.835-31.196a1.2 1.2 0 1 0-1.09 2.138l49.389 25.165a1.2 1.2 0 1 0 1.09-2.138zm1.673 12.074a1.2 1.2 0 1 0-1.09 2.138l36.964 18.834a1.2 1.2 0 1 0 1.09-2.138z" clip-path="url(#a)" text-rendering="geometricPrecision" stroke="none"/><path d="M188.754 86.101l-46.488 30.19a1.2 1.2 0 1 0 1.307 2.013l46.487-30.19a1.2 1.2 0 1 0-1.306-2.013zm50.641 27.211L287.4 85.597a1.2 1.2 0 1 0-1.2-2.078l-48.004 27.715a1.2 1.2 0 1 0 1.2 2.078z" clip-path="url(#a)" text-rendering="geometricPrecision" stroke="none"/><path d="M288 84.558V43.309a1.2 1.2 0 1 0-2.4 0v41.249a1.2 1.2 0 1 0 2.4 0z" clip-path="url(#a)" text-rendering="geometricPrecision" stroke="none"/><path d="M286.2 85.597l37.099 21.419a1.2 1.2 0 1 0 1.2-2.078l-37.1-21.42a1.2 1.2 0 1 0-1.199 2.079z" clip-path="url(#a)" text-rendering="geometricPrecision" stroke="none"/><g fill="red" text-rendering="geometricPrecision" stroke="none"><path d="M190.607 87.108v-41.24a1.2 1.2 0 1 0-2.4 0v41.24a1.2 1.2 0 1 0 2.4 0z" clip-path="url(#a)"/><path fill="#000" d="M190.607 87.108v-41.24a1.2 1.2 0 1 0-2.4 0v41.24a1.2 1.2 0 1 0 2.4 0z" clip-path="url(#b)"/></g><path d="M143.573 116.292l-46.488-30.19a1.2 1.2 0 1 0-1.307 2.012l46.488 30.19a1.2 1.2 0 1 0 1.307-2.012z" clip-path="url(#a)" text-rendering="geometricPrecision" stroke="none"/><path d="M97.631 87.108V45.86a1.2 1.2 0 1 0-2.4 0v41.25a1.2 1.2 0 1 0 2.4 0z" clip-path="url(#a)" text-rendering="geometricPrecision" stroke="none"/><path d="M95.887 86.04l-38.264 19.495a1.2 1.2 0 1 0 1.09 2.138l38.263-19.496a1.2 1.2 0 1 0-1.09-2.138z" clip-path="url(#a)" text-rendering="geometricPrecision" stroke="none"/><path d="M285.1 19.994a4.629 4.629 0 0 0-4.628 4.63v9.257a4.629 4.629 0 0 0 4.629 4.63h16.57a4.629 4.629 0 0 0 4.629-4.63v7.186a4.57 4.57 0 0 0 4.57 4.57h.235a4.57 4.57 0 0 0 4.57-4.57v-9.14a4.57 4.57 0 0 0-4.57-4.57h-.235a4.57 4.57 0 0 0-4.57 4.57v-7.304a4.629 4.629 0 0 0-4.629-4.629z" clip-path="url(#a)" fill="#fff" text-rendering="geometricPrecision" stroke="none"/><text y="20" clip-path="url(#c)" stroke="none" transform="translate(279.972 16.627)" text-rendering="geometricPrecision" font-size="19" font-family="sans-serif">CH</text><text y="15" clip-path="url(#d)" stroke="none" transform="translate(306.8 26.872)" text-rendering="geometricPrecision" font-size="14" font-family="sans-serif">3</text><g fill="#fff" text-rendering="geometricPrecision" font-size="14" font-family="sans-serif" stroke="none"><path d="M333.105 103.14a4.629 4.629 0 0 0-4.629 4.63v9.257a4.629 4.629 0 0 0 4.629 4.629h16.57a4.629 4.629 0 0 0 4.63-4.629v7.186a4.57 4.57 0 0 0 4.57 4.57h.234a4.57 4.57 0 0 0 4.57-4.57v-9.14a4.57 4.57 0 0 0-4.57-4.57h-.234a4.57 4.57 0 0 0-4.57 4.57v-7.304a4.629 4.629 0 0 0-4.63-4.629z" clip-path="url(#a)"/><text font-size="19" y="20" transform="translate(327.976 99.773)" clip-path="url(#e)" fill="#000">CH</text></g><text y="15" clip-path="url(#f)" stroke="none" transform="translate(354.804 110.018)" text-rendering="geometricPrecision" font-size="14" font-family="sans-serif">3</text><g fill="#fff" text-rendering="geometricPrecision" font-size="14" font-family="sans-serif" stroke="none"><path d="M187.197 22.534a4.634 4.634 0 0 0-4.634 4.634v9.268a4.634 4.634 0 0 0 4.634 4.633h18.592a4.634 4.634 0 0 0 4.634-4.633v-9.268a4.634 4.634 0 0 0-4.634-4.634z" clip-path="url(#a)"/><text font-size="19" y="20" transform="translate(182.563 19.177)" clip-path="url(#g)" fill="red">OH</text></g><g fill="#fff" text-rendering="geometricPrecision" font-size="19" font-family="sans-serif" stroke="none"><path d="M94.732 22.545a4.629 4.629 0 0 0-4.629 4.629v9.258a4.629 4.629 0 0 0 4.63 4.628h16.57a4.629 4.629 0 0 0 4.628-4.629v7.187a4.57 4.57 0 0 0 4.57 4.57h.235a4.57 4.57 0 0 0 4.57-4.57v-9.141a4.57 4.57 0 0 0-4.57-4.57h-.234a4.57 4.57 0 0 0-4.57 4.57v-7.303a4.629 4.629 0 0 0-4.63-4.63z" clip-path="url(#a)"/><text y="20" transform="translate(89.603 19.178)" clip-path="url(#h)" fill="#000">CH</text></g><text y="15" clip-path="url(#i)" stroke="none" transform="translate(116.431 29.422)" text-rendering="geometricPrecision" font-size="14" font-family="sans-serif">3</text><g fill="#fff" text-rendering="geometricPrecision" font-size="14" font-family="sans-serif" stroke="none"><path d="M45.343 103.14a4.629 4.629 0 0 0-4.629 4.63v7.303a4.57 4.57 0 0 0-4.57-4.57h-.234a4.57 4.57 0 0 0-4.57 4.57v-7.46a4.473 4.473 0 0 0-4.474-4.473h-2.273a4.473 4.473 0 0 0-4.473 4.473v8.945a4.473 4.473 0 0 0 4.473 4.473h2.273a4.473 4.473 0 0 0 4.473-4.473v7.655a4.57 4.57 0 0 0 4.57 4.57h.235a4.57 4.57 0 0 0 4.57-4.57v-7.186a4.629 4.629 0 0 0 4.629 4.629h3.398a4.629 4.629 0 0 0 4.63-4.629v-9.258a4.629 4.629 0 0 0-4.63-4.629z" clip-path="url(#a)"/><text font-size="19" y="20" transform="translate(19.12 99.586)" clip-path="url(#j)" fill="#000">H</text></g><text y="15" clip-path="url(#k)" stroke="none" transform="translate(31.84 110.018)" text-rendering="geometricPrecision" font-size="14" font-family="sans-serif">3</text><text y="20" clip-path="url(#l)" stroke="none" transform="translate(40.214 99.773)" text-rendering="geometricPrecision" font-size="19" font-family="sans-serif">C</text></svg>