<svg color-interpolation="auto" stroke="#000" stroke-linecap="square" width="409" stroke-miterlimit="10" height="420" xmlns="http://www.w3.org/2000/svg" font-family="'Dialog'" font-size="12"><defs><clipPath id="a"><path d="M0 0h409v420H0V0z"/></clipPath><clipPath id="b"><path d="M120.689 177.099c-18.171 0-32.902 14.73-32.902 32.901 0 18.171 14.73 32.901 32.901 32.901 18.171 0 32.902-14.73 32.902-32.901 0-18.171-14.73-32.901-32.901-32.901z"/></clipPath><clipPath id="c"><path d="M221.443 177.099c-18.17 0-32.901 14.73-32.901 32.901 0 18.171 14.73 32.901 32.901 32.901 18.171 0 32.901-14.73 32.901-32.901 0-18.171-14.73-32.901-32.9-32.901z"/></clipPath><clipPath id="d"><path d="M120.689 175.587c-19.006 0-34.414 15.407-34.414 34.413 0 19.006 15.408 34.413 34.413 34.413 19.006 0 34.414-15.407 34.414-34.413 0-19.006-15.408-34.413-34.413-34.413z"/></clipPath><clipPath id="e"><path d="M120.689 178.675c-17.301 0-31.326 14.024-31.326 31.325 0 17.3 14.025 31.325 31.326 31.325 17.3 0 31.325-14.024 31.325-31.325 0-17.3-14.025-31.325-31.326-31.325z"/></clipPath><clipPath id="f"><path d="M287.246 176.23c-18.65 0-33.77 15.12-33.77 33.77 0 18.65 15.12 33.77 33.77 33.77 18.65 0 33.77-15.12 33.77-33.77 0-18.65-15.12-33.77-33.77-33.77z"/></clipPath><clipPath id="g"><path d="M287.246 92.308c-19.006 0-34.413 15.407-34.413 34.413 0 19.006 15.407 34.413 34.413 34.413 19.006 0 34.413-15.407 34.413-34.413 0-19.006-15.407-34.413-34.413-34.413z"/></clipPath><clipPath id="h"><path d="M287.246 95.396c-17.3 0-31.325 14.025-31.325 31.325 0 17.3 14.024 31.326 31.325 31.326 17.3 0 31.325-14.025 31.325-31.326 0-17.3-14.025-31.325-31.325-31.325z"/></clipPath><clipPath id="i"><path d="M287.246 258.866c-19.006 0-34.413 15.407-34.413 34.413 0 19.006 15.407 34.413 34.413 34.413 19.006 0 34.413-15.407 34.413-34.413 0-19.006-15.407-34.413-34.413-34.413z"/></clipPath><clipPath id="j"><path d="M287.246 261.954c-17.3 0-31.325 14.024-31.325 31.325 0 17.3 14.024 31.325 31.325 31.325 17.3 0 31.325-14.025 31.325-31.325 0-17.3-14.025-31.325-31.325-31.325z"/></clipPath><clipPath id="k"><path d="M-192.702-191h409v420h-409v-420z"/></clipPath><clipPath id="l"><path d="M-28.168-191h409v420h-409v-420z"/></clipPath><clipPath id="m"><path d="M-110.267-107.721h409v420h-409v-420z"/></clipPath><clipPath id="n"><path d="M-110.267-274.279h409v420h-409v-420z"/></clipPath><clipPath id="o"><path d="M-359.989-195.358h409v420h-409v-420z"/></clipPath><clipPath id="p"><path d="M-361.283-107.721h409v420h-409v-420z"/></clipPath><clipPath id="q"><path d="M-278.004-24.443h409v420h-409v-420z"/></clipPath><clipPath id="r"><path d="M-194.725-107.721h409v420h-409v-420z"/></clipPath><clipPath id="s"><path d="M-361.283-274.279h409v420h-409v-420z"/></clipPath><clipPath id="t"><path d="M-278.004-357.557h409v420h-409v-420z"/></clipPath><clipPath id="u"><path d="M-194.725-274.279h409v420h-409v-420z"/></clipPath></defs><g fill="red" text-rendering="geometricPrecision" stroke="none"><path d="M120.689 211.803h65.802a1.802 1.802 0 1 0 0-3.606h-65.803a1.802 1.802 0 1 0 0 3.606z" clip-path="url(#a)"/><path fill="#000" d="M120.689 211.803h65.802a1.802 1.802 0 1 0 0-3.606h-65.803a1.802 1.802 0 1 0 0 3.606z" clip-path="url(#b)"/></g><g text-rendering="geometricPrecision" stroke="none"><path d="M221.443 211.803h65.803a1.802 1.802 0 1 0 0-3.606h-65.803a1.802 1.802 0 1 0 0 3.606z" clip-path="url(#a)"/><path fill="red" d="M221.443 211.803h65.803a1.802 1.802 0 1 0 0-3.606h-65.803a1.802 1.802 0 1 0 0 3.606z" clip-path="url(#c)"/></g><g fill="#960" text-rendering="geometricPrecision" stroke="none"><path d="M120.689 208.197H51.862a1.802 1.802 0 1 0 0 3.606h68.827a1.802 1.802 0 1 0 0-3.606z" clip-path="url(#a)"/><path fill="#000" d="M120.689 208.197H51.862a1.802 1.802 0 1 0 0 3.606h68.827a1.802 1.802 0 1 0 0-3.606z" clip-path="url(#d)"/></g><g fill="#333" text-rendering="geometricPrecision" stroke="none"><path d="M122.491 210v-62.65a1.802 1.802 0 1 0-3.605 0V210a1.802 1.802 0 1 0 3.605 0z" clip-path="url(#a)"/><path fill="#000" d="M122.491 210v-62.65a1.802 1.802 0 1 0-3.605 0V210a1.802 1.802 0 1 0 3.605 0z" clip-path="url(#e)"/></g><g fill="#333" text-rendering="geometricPrecision" stroke="none"><path d="M118.886 210v62.65a1.802 1.802 0 1 0 3.605 0V210a1.802 1.802 0 1 0-3.605 0z" clip-path="url(#a)"/><path fill="#000" d="M118.886 210v62.65a1.802 1.802 0 1 0 3.605 0V210a1.802 1.802 0 1 0-3.605 0z" clip-path="url(#e)"/></g><path d="M289.048 210v-83.279a1.802 1.802 0 1 0-3.605 0V210a1.802 1.802 0 1 0 3.606 0z" clip-path="url(#a)" text-rendering="geometricPrecision" stroke="none"/><path d="M285.443 210v83.279a1.802 1.802 0 1 0 3.606 0V210a1.802 1.802 0 1 0-3.606 0z" clip-path="url(#a)" text-rendering="geometricPrecision" stroke="none"/><g fill="#333" text-rendering="geometricPrecision" stroke="none"><path d="M287.152 211.8l67.448 3.535a1.802 1.802 0 1 0 .188-3.6L287.34 208.2a1.802 1.802 0 1 0-.188 3.6z" clip-path="url(#a)"/><path fill="#000" d="M287.152 211.8l67.448 3.535a1.802 1.802 0 1 0 .188-3.6L287.34 208.2a1.802 1.802 0 1 0-.188 3.6z" clip-path="url(#f)"/></g><g fill="#960" text-rendering="geometricPrecision" stroke="none"><path d="M287.246 128.524h68.826a1.802 1.802 0 1 0 0-3.605h-68.826a1.802 1.802 0 1 0 0 3.605z" clip-path="url(#a)"/><path fill="#000" d="M287.246 128.524h68.826a1.802 1.802 0 1 0 0-3.605h-68.826a1.802 1.802 0 1 0 0 3.605z" clip-path="url(#g)"/></g><g fill="#960" text-rendering="geometricPrecision" stroke="none"><path d="M289.048 126.721v-62.65a1.802 1.802 0 1 0-3.605 0v62.65a1.802 1.802 0 1 0 3.606 0z" clip-path="url(#a)"/><path fill="#000" d="M289.048 126.721v-62.65a1.802 1.802 0 1 0-3.605 0v62.65a1.802 1.802 0 1 0 3.606 0z" clip-path="url(#h)"/></g><g fill="#960" text-rendering="geometricPrecision" stroke="none"><path d="M287.246 124.919H218.42a1.802 1.802 0 1 0 0 3.605h68.826a1.802 1.802 0 1 0 0-3.605z" clip-path="url(#a)"/><path fill="#000" d="M287.246 124.919H218.42a1.802 1.802 0 1 0 0 3.605h68.826a1.802 1.802 0 1 0 0-3.605z" clip-path="url(#g)"/></g><g fill="#960" text-rendering="geometricPrecision" stroke="none"><path d="M287.246 295.081h68.826a1.802 1.802 0 1 0 0-3.605h-68.826a1.802 1.802 0 1 0 0 3.605z" clip-path="url(#a)"/><path fill="#000" d="M287.246 295.081h68.826a1.802 1.802 0 1 0 0-3.605h-68.826a1.802 1.802 0 1 0 0 3.605z" clip-path="url(#i)"/></g><g fill="#960" text-rendering="geometricPrecision" stroke="none"><path d="M285.443 293.279v62.65a1.802 1.802 0 1 0 3.606 0v-62.65a1.802 1.802 0 1 0-3.606 0z" clip-path="url(#a)"/><path fill="#000" d="M285.443 293.279v62.65a1.802 1.802 0 1 0 3.606 0v-62.65a1.802 1.802 0 1 0-3.606 0z" clip-path="url(#j)"/></g><g fill="#960" text-rendering="geometricPrecision" stroke="none"><path d="M287.246 291.476H218.42a1.802 1.802 0 1 0 0 3.605h68.826a1.802 1.802 0 1 0 0-3.605z" clip-path="url(#a)"/><path fill="#000" d="M287.246 291.476H218.42a1.802 1.802 0 1 0 0 3.605h68.826a1.802 1.802 0 1 0 0-3.605z" clip-path="url(#i)"/></g><path d="M200.645 196.293a6.943 6.943 0 0 0-6.943 6.943v13.887a6.943 6.943 0 0 0 6.943 6.943h6.644a6.943 6.943 0 0 0 6.944-6.943v-13.887a6.943 6.943 0 0 0-6.944-6.943z" clip-path="url(#a)" fill="#fff" text-rendering="geometricPrecision" stroke="none"/><text y="31" clip-path="url(#k)" stroke="none" transform="translate(192.702 191)" fill="red" text-rendering="geometricPrecision" font-size="29" font-family="sans-serif">O</text><g fill="#fff" text-rendering="geometricPrecision" font-size="29" font-family="sans-serif" stroke="none"><path d="M36.877 196.582a6.709 6.709 0 0 0-6.71 6.709v13.418a6.709 6.709 0 0 0 6.71 6.709h1.066a6.709 6.709 0 0 0 6.709-6.709v-13.418a6.709 6.709 0 0 0-6.709-6.709z" clip-path="url(#a)"/><text y="31" transform="translate(28.168 191)" clip-path="url(#l)" fill="#960">F</text></g><g fill="#fff" text-rendering="geometricPrecision" font-size="29" font-family="sans-serif" stroke="none"><path d="M118.976 113.303a6.709 6.709 0 0 0-6.71 6.71v13.417a6.709 6.709 0 0 0 6.71 6.71h3.425a6.709 6.709 0 0 0 6.71-6.71v-13.418a6.709 6.709 0 0 0-6.71-6.709z" clip-path="url(#a)"/><text y="31" transform="translate(110.267 107.721)" clip-path="url(#m)" fill="#333">H</text></g><g fill="#fff" text-rendering="geometricPrecision" font-size="29" font-family="sans-serif" stroke="none"><path d="M118.976 279.86a6.709 6.709 0 0 0-6.71 6.71v13.418a6.709 6.709 0 0 0 6.71 6.709h3.425a6.709 6.709 0 0 0 6.71-6.71V286.57a6.709 6.709 0 0 0-6.71-6.71z" clip-path="url(#a)"/><text y="31" transform="translate(110.267 274.279)" clip-path="url(#n)" fill="#333">H</text></g><g fill="#fff" text-rendering="geometricPrecision" font-size="29" font-family="sans-serif" stroke="none"><path d="M368.698 200.94a6.709 6.709 0 0 0-6.71 6.71v13.417a6.709 6.709 0 0 0 6.71 6.71h3.425a6.709 6.709 0 0 0 6.71-6.71V207.65a6.709 6.709 0 0 0-6.71-6.709z" clip-path="url(#a)"/><text y="31" transform="translate(359.989 195.358)" clip-path="url(#o)" fill="#333">H</text></g><g fill="#fff" text-rendering="geometricPrecision" font-size="29" font-family="sans-serif" stroke="none"><path d="M369.991 113.303a6.709 6.709 0 0 0-6.708 6.71v13.417a6.709 6.709 0 0 0 6.708 6.71h1.067a6.709 6.709 0 0 0 6.709-6.71v-13.418a6.709 6.709 0 0 0-6.71-6.709z" clip-path="url(#a)"/><text y="31" transform="translate(361.283 107.721)" clip-path="url(#p)" fill="#960">F</text></g><g fill="#fff" text-rendering="geometricPrecision" font-size="29" font-family="sans-serif" stroke="none"><path d="M286.713 30.025a6.709 6.709 0 0 0-6.71 6.709v13.418a6.709 6.709 0 0 0 6.71 6.709h1.066a6.709 6.709 0 0 0 6.71-6.71V36.735a6.709 6.709 0 0 0-6.71-6.71z" clip-path="url(#a)"/><text y="31" transform="translate(278.004 24.443)" clip-path="url(#q)" fill="#960">F</text></g><g fill="#fff" text-rendering="geometricPrecision" font-size="29" font-family="sans-serif" stroke="none"><path d="M203.434 113.303a6.709 6.709 0 0 0-6.709 6.71v13.417a6.709 6.709 0 0 0 6.709 6.71h1.066a6.709 6.709 0 0 0 6.71-6.71v-13.418a6.709 6.709 0 0 0-6.71-6.709z" clip-path="url(#a)"/><text y="31" transform="translate(194.725 107.721)" clip-path="url(#r)" fill="#960">F</text></g><g fill="#fff" text-rendering="geometricPrecision" font-size="29" font-family="sans-serif" stroke="none"><path d="M369.991 279.86a6.709 6.709 0 0 0-6.708 6.71v13.418a6.709 6.709 0 0 0 6.708 6.709h1.067a6.709 6.709 0 0 0 6.709-6.71V286.57a6.709 6.709 0 0 0-6.71-6.71z" clip-path="url(#a)"/><text y="31" transform="translate(361.283 274.279)" clip-path="url(#s)" fill="#960">F</text></g><g fill="#fff" text-rendering="geometricPrecision" font-size="29" font-family="sans-serif" stroke="none"><path d="M286.713 363.14a6.709 6.709 0 0 0-6.71 6.708v13.418a6.709 6.709 0 0 0 6.71 6.71h1.066a6.709 6.709 0 0 0 6.71-6.71v-13.418a6.709 6.709 0 0 0-6.71-6.709z" clip-path="url(#a)"/><text y="31" transform="translate(278.004 357.557)" clip-path="url(#t)" fill="#960">F</text></g><g fill="#fff" text-rendering="geometricPrecision" font-size="29" font-family="sans-serif" stroke="none"><path d="M203.434 279.86a6.709 6.709 0 0 0-6.709 6.71v13.418a6.709 6.709 0 0 0 6.709 6.709h1.066a6.709 6.709 0 0 0 6.71-6.71V286.57a6.709 6.709 0 0 0-6.71-6.71z" clip-path="url(#a)"/><text y="31" transform="translate(194.725 274.279)" clip-path="url(#u)" fill="#960">F</text></g></svg>