<svg color-interpolation="auto" stroke="#000" stroke-linecap="square" width="408" stroke-miterlimit="10" height="420" xmlns="http://www.w3.org/2000/svg" font-family="'Dialog'" font-size="12"><defs><clipPath id="a"><path d="M0 0h408v420H0V0z"/></clipPath><clipPath id="b"><path d="M137.424 185.45c-13.559 0-24.55 10.991-24.55 24.55 0 13.559 10.991 24.55 24.55 24.55 13.558 0 24.55-10.991 24.55-24.55 0-13.559-10.992-24.55-24.55-24.55z"/></clipPath><clipPath id="c"><path d="M221.476 185.45c-13.559 0-24.55 10.991-24.55 24.55 0 13.559 10.991 24.55 24.55 24.55 13.559 0 24.55-10.991 24.55-24.55 0-13.559-10.991-24.55-24.55-24.55z"/></clipPath><clipPath id="d"><path d="M104.019 183.938c-14.394 0-26.062 11.668-26.062 26.062 0 14.394 11.668 26.062 26.062 26.062 14.393 0 26.062-11.668 26.062-26.062 0-14.394-11.668-26.062-26.062-26.062z"/></clipPath><clipPath id="e"><path d="M287.279 92.308c-19.006 0-34.413 15.407-34.413 34.413 0 19.006 15.407 34.413 34.413 34.413 19.006 0 34.413-15.407 34.413-34.413 0-19.006-15.407-34.413-34.413-34.413z"/></clipPath><clipPath id="f"><path d="M287.279 95.396c-17.3 0-31.326 14.025-31.326 31.325 0 17.3 14.025 31.326 31.326 31.326 17.3 0 31.325-14.025 31.325-31.326 0-17.3-14.025-31.325-31.325-31.325z"/></clipPath><clipPath id="g"><path d="M287.279 261.954c-17.3 0-31.326 14.024-31.326 31.325 0 17.3 14.025 31.325 31.326 31.325 17.3 0 31.325-14.025 31.325-31.325 0-17.3-14.025-31.325-31.325-31.325z"/></clipPath><clipPath id="h"><path d="M287.279 258.866c-19.006 0-34.413 15.407-34.413 34.413 0 19.006 15.407 34.413 34.413 34.413 19.006 0 34.413-15.407 34.413-34.413 0-19.006-15.407-34.413-34.413-34.413z"/></clipPath><clipPath id="i"><path d="M-110.23-191h408v420h-408v-420z"/></clipPath><clipPath id="j"><path d="M-109.23-220.474h408v420h-408v-420z"/></clipPath><clipPath id="k"><path d="M-128.574-235.76h408v420h-408v-420z"/></clipPath><clipPath id="l"><path d="M-192.734-191h408v420h-408v-420z"/></clipPath><clipPath id="m"><path d="M-276.786-191h408v420h-408v-420z"/></clipPath><clipPath id="n"><path d="M-28.2-191h408v420h-408v-420z"/></clipPath><clipPath id="o"><path d="M-194.758-107.721h408v420h-408v-420z"/></clipPath><clipPath id="p"><path d="M-278.036-24.443h408v420h-408v-420z"/></clipPath><clipPath id="q"><path d="M-361.315-107.721h408v420h-408v-420z"/></clipPath><clipPath id="r"><path d="M-278.036-357.557h408v420h-408v-420z"/></clipPath><clipPath id="s"><path d="M-194.758-274.279h408v420h-408v-420z"/></clipPath><clipPath id="t"><path d="M-361.315-274.279h408v420h-408v-420z"/></clipPath></defs><g fill="red" text-rendering="geometricPrecision" stroke="none"><path d="M137.424 211.803h49.1a1.802 1.802 0 1 0 0-3.606h-49.1a1.802 1.802 0 1 0 0 3.606z" clip-path="url(#a)"/><path fill="#000" d="M137.424 211.803h49.1a1.802 1.802 0 1 0 0-3.606h-49.1a1.802 1.802 0 1 0 0 3.606z" clip-path="url(#b)"/></g><g text-rendering="geometricPrecision" stroke="none"><path d="M221.476 211.803h49.1a1.802 1.802 0 1 0 0-3.606h-49.1a1.802 1.802 0 1 0 0 3.606z" clip-path="url(#a)"/><path fill="red" d="M221.476 211.803h49.1a1.802 1.802 0 1 0 0-3.606h-49.1a1.802 1.802 0 1 0 0 3.606z" clip-path="url(#c)"/></g><g fill="#960" text-rendering="geometricPrecision" stroke="none"><path d="M104.019 208.197H51.895a1.802 1.802 0 1 0 0 3.606h52.124a1.802 1.802 0 1 0 0-3.606z" clip-path="url(#a)"/><path fill="#000" d="M104.019 208.197H51.895a1.802 1.802 0 1 0 0 3.606h52.124a1.802 1.802 0 1 0 0-3.606z" clip-path="url(#d)"/></g><path d="M285.476 231.267v62.012a1.802 1.802 0 1 0 3.605 0v-62.012a1.802 1.802 0 1 0-3.605 0zM289.081 189.093V126.72a1.802 1.802 0 1 0-3.605 0v62.371a1.802 1.802 0 1 0 3.605 0z" stroke="none" clip-path="url(#a)" text-rendering="geometricPrecision"/><g fill="#960" text-rendering="geometricPrecision" stroke="none"><path d="M287.279 124.919h-68.827a1.802 1.802 0 1 0 0 3.605h68.827a1.802 1.802 0 1 0 0-3.605z" clip-path="url(#a)"/><path fill="#000" d="M287.279 124.919h-68.827a1.802 1.802 0 1 0 0 3.605h68.827a1.802 1.802 0 1 0 0-3.605z" clip-path="url(#e)"/></g><g fill="#960" text-rendering="geometricPrecision" stroke="none"><path d="M289.081 126.721v-62.65a1.802 1.802 0 1 0-3.605 0v62.65a1.802 1.802 0 1 0 3.605 0z" clip-path="url(#a)"/><path fill="#000" d="M289.081 126.721v-62.65a1.802 1.802 0 1 0-3.605 0v62.65a1.802 1.802 0 1 0 3.605 0z" clip-path="url(#f)"/></g><g fill="#960" text-rendering="geometricPrecision" stroke="none"><path d="M287.279 128.524h68.826a1.802 1.802 0 1 0 0-3.605h-68.826a1.802 1.802 0 1 0 0 3.605z" clip-path="url(#a)"/><path fill="#000" d="M287.279 128.524h68.826a1.802 1.802 0 1 0 0-3.605h-68.826a1.802 1.802 0 1 0 0 3.605z" clip-path="url(#e)"/></g><g fill="#960" text-rendering="geometricPrecision" stroke="none"><path d="M285.476 293.279v62.65a1.802 1.802 0 1 0 3.605 0v-62.65a1.802 1.802 0 1 0-3.605 0z" clip-path="url(#a)"/><path fill="#000" d="M285.476 293.279v62.65a1.802 1.802 0 1 0 3.605 0v-62.65a1.802 1.802 0 1 0-3.605 0z" clip-path="url(#g)"/></g><g fill="#960" text-rendering="geometricPrecision" stroke="none"><path d="M287.279 291.476h-68.827a1.802 1.802 0 1 0 0 3.605h68.827a1.802 1.802 0 1 0 0-3.605z" clip-path="url(#a)"/><path fill="#000" d="M287.279 291.476h-68.827a1.802 1.802 0 1 0 0 3.605h68.827a1.802 1.802 0 1 0 0-3.605z" clip-path="url(#h)"/></g><g fill="#960" text-rendering="geometricPrecision" stroke="none"><path d="M287.279 295.081h68.826a1.802 1.802 0 1 0 0-3.605h-68.826a1.802 1.802 0 1 0 0 3.605z" clip-path="url(#a)"/><path fill="#000" d="M287.279 295.081h68.826a1.802 1.802 0 1 0 0-3.605h-68.826a1.802 1.802 0 1 0 0 3.605z" clip-path="url(#h)"/></g><path d="M118.168 196.303a6.939 6.939 0 0 0-6.939 6.938v13.877a6.938 6.938 0 0 0 6.939 6.939h5.107a6.938 6.938 0 0 0 6.939-6.939v-13.877a6.939 6.939 0 0 0-6.939-6.938zm-.229 29.753a6.709 6.709 0 0 0-6.709 6.709v13.418a6.709 6.709 0 0 0 6.71 6.709h3.425a6.709 6.709 0 0 0 6.709-6.71V257.5a6.738 6.738 0 0 0 6.738 6.738h.73a6.738 6.738 0 0 0 6.738-6.738v-13.477a6.738 6.738 0 0 0-6.739-6.738h-.729a6.738 6.738 0 0 0-6.738 6.738v-11.257a6.709 6.709 0 0 0-6.71-6.71z" stroke="none" clip-path="url(#a)" fill="#fff" text-rendering="geometricPrecision"/><text y="31" clip-path="url(#i)" stroke="none" transform="translate(110.23 191)" text-rendering="geometricPrecision" font-size="29" font-family="sans-serif">C</text><text y="31" clip-path="url(#j)" stroke="none" transform="translate(109.23 220.474)" text-rendering="geometricPrecision" font-size="29" font-family="sans-serif">H</text><text y="24" clip-path="url(#k)" stroke="none" transform="translate(128.574 235.76)" text-rendering="geometricPrecision" font-size="23" font-family="sans-serif">2</text><g fill="#fff" text-rendering="geometricPrecision" font-size="23" font-family="sans-serif" stroke="none"><path d="M200.678 196.293a6.943 6.943 0 0 0-6.944 6.943v13.887a6.943 6.943 0 0 0 6.944 6.943h6.644a6.943 6.943 0 0 0 6.944-6.943v-13.887a6.943 6.943 0 0 0-6.944-6.943z" clip-path="url(#a)"/><text font-size="29" y="31" transform="translate(192.734 191)" clip-path="url(#l)" fill="red">O</text></g><g fill="#fff" text-rendering="geometricPrecision" font-size="29" font-family="sans-serif" stroke="none"><path d="M284.725 196.303a6.939 6.939 0 0 0-6.939 6.938v13.877a6.938 6.938 0 0 0 6.939 6.939h25.873a6.938 6.938 0 0 0 6.938-6.939v-13.877a6.938 6.938 0 0 0-6.938-6.938z" clip-path="url(#a)"/><text y="31" transform="translate(276.786 191)" clip-path="url(#m)" fill="#000">CH</text></g><g fill="#fff" text-rendering="geometricPrecision" font-size="29" font-family="sans-serif" stroke="none"><path d="M36.91 196.582a6.709 6.709 0 0 0-6.71 6.709v13.418a6.709 6.709 0 0 0 6.71 6.709h1.066a6.709 6.709 0 0 0 6.709-6.709v-13.418a6.709 6.709 0 0 0-6.71-6.709z" clip-path="url(#a)"/><text y="31" transform="translate(28.2 191)" clip-path="url(#n)" fill="#960">F</text></g><g fill="#fff" text-rendering="geometricPrecision" font-size="29" font-family="sans-serif" stroke="none"><path d="M203.467 113.303a6.709 6.709 0 0 0-6.71 6.71v13.417a6.709 6.709 0 0 0 6.71 6.71h1.066a6.709 6.709 0 0 0 6.71-6.71v-13.418a6.709 6.709 0 0 0-6.71-6.709z" clip-path="url(#a)"/><text y="31" transform="translate(194.758 107.721)" clip-path="url(#o)" fill="#960">F</text></g><g fill="#fff" text-rendering="geometricPrecision" font-size="29" font-family="sans-serif" stroke="none"><path d="M286.745 30.025a6.709 6.709 0 0 0-6.709 6.709v13.418a6.709 6.709 0 0 0 6.71 6.709h1.066a6.709 6.709 0 0 0 6.709-6.71V36.735a6.709 6.709 0 0 0-6.71-6.71z" clip-path="url(#a)"/><text y="31" transform="translate(278.036 24.443)" clip-path="url(#p)" fill="#960">F</text></g><g fill="#fff" text-rendering="geometricPrecision" font-size="29" font-family="sans-serif" stroke="none"><path d="M370.024 113.303a6.709 6.709 0 0 0-6.709 6.71v13.417a6.71 6.71 0 0 0 6.71 6.71h1.066a6.709 6.709 0 0 0 6.709-6.71v-13.418a6.709 6.709 0 0 0-6.71-6.709z" clip-path="url(#a)"/><text y="31" transform="translate(361.315 107.721)" clip-path="url(#q)" fill="#960">F</text></g><g fill="#fff" text-rendering="geometricPrecision" font-size="29" font-family="sans-serif" stroke="none"><path d="M286.745 363.14a6.709 6.709 0 0 0-6.709 6.708v13.418a6.709 6.709 0 0 0 6.71 6.71h1.066a6.709 6.709 0 0 0 6.709-6.71v-13.418a6.709 6.709 0 0 0-6.71-6.709z" clip-path="url(#a)"/><text y="31" transform="translate(278.036 357.557)" clip-path="url(#r)" fill="#960">F</text></g><g fill="#fff" text-rendering="geometricPrecision" font-size="29" font-family="sans-serif" stroke="none"><path d="M203.467 279.86a6.709 6.709 0 0 0-6.71 6.71v13.418a6.709 6.709 0 0 0 6.71 6.709h1.066a6.709 6.709 0 0 0 6.71-6.71V286.57a6.709 6.709 0 0 0-6.71-6.71z" clip-path="url(#a)"/><text y="31" transform="translate(194.758 274.279)" clip-path="url(#s)" fill="#960">F</text></g><g fill="#fff" text-rendering="geometricPrecision" font-size="29" font-family="sans-serif" stroke="none"><path d="M370.024 279.86a6.71 6.71 0 0 0-6.709 6.71v13.418a6.709 6.709 0 0 0 6.71 6.709h1.066a6.709 6.709 0 0 0 6.709-6.71V286.57a6.709 6.709 0 0 0-6.71-6.71z" clip-path="url(#a)"/><text y="31" transform="translate(361.315 274.279)" clip-path="url(#t)" fill="#960">F</text></g></svg>