<svg xmlns="http://www.w3.org/2000/svg" height="501.867" width="543.2" xml:space="preserve"><defs><linearGradient id="b" gradientTransform="matrix(18.1442 0 0 15.5927 -259.49 25.073)" gradientUnits="userSpaceOnUse" y2="100.001" x2="0" y1="0" x1="0"><stop offset="0" style="stop-opacity:1;stop-color:#6396d7"/><stop offset="25" style="stop-opacity:1;stop-color:#6396d7"/><stop offset="50.001" style="stop-opacity:1;stop-color:#8ab0e1"/><stop offset="75.001" style="stop-opacity:1;stop-color:#b1cbeb"/><stop offset="100.001" style="stop-opacity:1;stop-color:#b1cbeb"/></linearGradient><linearGradient id="d" gradientTransform="matrix(0 1.7009 -27.6697 0 3164.07 713.136)" gradientUnits="userSpaceOnUse" y2="100.001" x2="0" y1="0" x1="0"><stop offset="0" style="stop-opacity:1;stop-color:#6396d7"/><stop offset="25" style="stop-opacity:1;stop-color:#6396d7"/><stop offset="50.001" style="stop-opacity:1;stop-color:#73a1db"/><stop offset="75.001" style="stop-opacity:1;stop-color:#82abdf"/><stop offset="100.001" style="stop-opacity:1;stop-color:#82abdf"/></linearGradient><linearGradient id="f" gradientTransform="rotate(90 608.19 2049.48) scale(9.5256)" gradientUnits="userSpaceOnUse" y2="100.001" x2="0" y1="0" x1="0"><stop offset="0" style="stop-opacity:1;stop-color:#884241"/><stop offset="25" style="stop-opacity:1;stop-color:#884241"/><stop offset="50.001" style="stop-opacity:1;stop-color:#766c8c"/><stop offset="75.001" style="stop-opacity:1;stop-color:#6396d7"/><stop offset="100.001" style="stop-opacity:1;stop-color:#6396d7"/></linearGradient><linearGradient id="h" gradientTransform="translate(534.696 2895.55) scale(7.938)" gradientUnits="userSpaceOnUse" y2="100.001" x2="0" y1="0" x1="0"><stop offset="0" style="stop-opacity:1;stop-color:#999"/><stop offset="25" style="stop-opacity:1;stop-color:#999"/><stop offset="50.001" style="stop-opacity:1;stop-color:#ccc"/><stop offset="75.001" style="stop-opacity:1;stop-color:#e6e6e6"/><stop offset="100.001" style="stop-opacity:1;stop-color:#e6e6e6"/></linearGradient><linearGradient id="j" gradientTransform="matrix(1.395 0 0 4.7827 1281.65 2951.96)" gradientUnits="userSpaceOnUse" y2="100.001" x2="0" y1="0" x1="0"><stop offset="0" style="stop-opacity:1;stop-color:#6396d7"/><stop offset="25" style="stop-opacity:1;stop-color:#6396d7"/><stop offset="50.001" style="stop-opacity:1;stop-color:#a9c5e9"/><stop offset="75.001" style="stop-opacity:1;stop-color:#eff5fb"/><stop offset="100.001" style="stop-opacity:1;stop-color:#eff5fb"/></linearGradient><linearGradient id="l" gradientTransform="matrix(0 1.4742 -9.639 0 3027.18 2516)" gradientUnits="userSpaceOnUse" y2="100.001" x2="0" y1="0" x1="0"><stop offset="0" style="stop-opacity:1;stop-color:#6396d7"/><stop offset="25" style="stop-opacity:1;stop-color:#6396d7"/><stop offset="50.001" style="stop-opacity:1;stop-color:#766c8c"/><stop offset="75.001" style="stop-opacity:1;stop-color:#884241"/><stop offset="100.001" style="stop-opacity:1;stop-color:#884241"/></linearGradient><linearGradient id="n" gradientTransform="matrix(1.7009 0 0 3.0504 1869.96 1454.78)" gradientUnits="userSpaceOnUse" y2="100.001" x2="0" y1="0" x1="0"><stop offset="0" style="stop-opacity:1;stop-color:#6396d7"/><stop offset="25" style="stop-opacity:1;stop-color:#6396d7"/><stop offset="50.001" style="stop-opacity:1;stop-color:#6494d3"/><stop offset="75.001" style="stop-opacity:1;stop-color:#6692cf"/><stop offset="100.001" style="stop-opacity:1;stop-color:#6692cf"/></linearGradient><clipPath id="a" clipPathUnits="userSpaceOnUse"><path d="M194.898 869.113V1195.1H1102V869.113c0-250.492-203.062-453.55-453.555-453.55-250.492 0-453.55 203.058-453.55 453.55"/></clipPath><clipPath id="c" clipPathUnits="userSpaceOnUse"><path d="M1096.32 840.77h1332.31c23.48 0 42.51-19.036 42.51-42.52 0-23.48-19.03-42.516-42.51-42.516l-1340.81-.007"/></clipPath><clipPath id="e" clipPathUnits="userSpaceOnUse"><path d="M2419.13 2156.07c0-263.02-213.22-476.23-476.23-476.23v75.12c217.62 0 394.02 176.41 394.02 394.02"/></clipPath><clipPath id="g" clipPathUnits="userSpaceOnUse"><path d="M1130.34 3292.77c0 109.59-88.84 198.43-198.426 198.43-109.59 0-198.43-88.84-198.43-198.43s88.84-198.43 198.43-198.43c109.586 0 198.426 88.84 198.426 198.43z"/></clipPath><clipPath id="i" clipPathUnits="userSpaceOnUse"><path d="M1316.59 3071.73h69.738v239.105h-69.738z"/></clipPath><clipPath id="k" clipPathUnits="userSpaceOnUse"><path d="M2303.9 2552.91h481.895v73.703H2303.9z"/></clipPath><clipPath id="m" clipPathUnits="userSpaceOnUse"><path d="M1912.55 1531.17v152.5h85.04v-152.5z"/></clipPath></defs><path style="fill:gray;fill-opacity:1;fill-rule:nonzero;stroke:none" d="M1713.29 2895.39c0 23.49-19.04 42.52-42.52 42.52-23.49 0-42.52-19.03-42.52-42.52 0-23.48 19.03-42.51 42.52-42.51 23.48 0 42.52 19.03 42.52 42.51z" transform="matrix(.13333 0 0 -.13333 0 501.867)"/><path style="fill:none;stroke:#000;stroke-width:9.96280003;stroke-linecap:butt;stroke-linejoin:miter;stroke-miterlimit:10;stroke-dasharray:none;stroke-opacity:1" d="M1713.29 2895.39c0 23.49-19.04 42.52-42.52 42.52-23.49 0-42.52-19.03-42.52-42.52 0-23.48 19.03-42.51 42.52-42.51 23.48 0 42.52 19.03 42.52 42.51zM1623.27 2895.39l90.55 20.08" transform="matrix(.13333 0 0 -.13333 0 501.867)"/><path style="fill:gray;fill-opacity:1;fill-rule:nonzero;stroke:none" d="M2706.2 2784.34h448.324v109.59H2706.2z" transform="matrix(.13333 0 0 -.13333 0 501.867)"/><path style="fill:none;stroke:#000;stroke-width:9.96280003;stroke-linecap:butt;stroke-linejoin:miter;stroke-miterlimit:10;stroke-dasharray:none;stroke-opacity:1" d="M2706.2 2784.34h448.324v109.59H2706.2z" transform="matrix(.13333 0 0 -.13333 0 501.867)"/><path style="fill:gray;fill-opacity:1;fill-rule:nonzero;stroke:none" d="M2972.89 2898.91c0 23.48-19.04 42.52-42.52 42.52-23.49 0-42.52-19.04-42.52-42.52 0-23.48 19.03-42.52 42.52-42.52 23.48 0 42.52 19.04 42.52 42.52z" transform="matrix(.13333 0 0 -.13333 0 501.867)"/><path style="fill:none;stroke:#000;stroke-width:9.96280003;stroke-linecap:butt;stroke-linejoin:miter;stroke-miterlimit:10;stroke-dasharray:none;stroke-opacity:1" d="M2972.89 2898.91c0 23.48-19.04 42.52-42.52 42.52-23.49 0-42.52-19.04-42.52-42.52 0-23.48 19.03-42.52 42.52-42.52 23.48 0 42.52 19.04 42.52 42.52zM2930.37 2851.41l-20.08 90.55" transform="matrix(.13333 0 0 -.13333 0 501.867)"/><path style="fill:gray;fill-opacity:1;fill-rule:nonzero;stroke:none" d="M2706.2 2784.34h448.324v109.59H2706.2z" transform="matrix(.13333 0 0 -.13333 0 501.867)"/><path style="fill:none;stroke:#000;stroke-width:9.96280003;stroke-linecap:butt;stroke-linejoin:miter;stroke-miterlimit:10;stroke-dasharray:none;stroke-opacity:1" d="M2706.2 2784.34h448.324v109.59H2706.2z" transform="matrix(.13333 0 0 -.13333 0 501.867)"/><text style="font-variant:normal;font-weight:400;font-size:11.9552002px;font-family:CMR12;-inkscape-font-specification:CMR12;writing-mode:lr-tb;fill:#000;fill-opacity:1;fill-rule:nonzero;stroke:none" transform="matrix(1.33333 0 0 1.33333 298.723 97.44)"><tspan y="0" x="0 9.7199602 17.519976 25.920008 40.68021 48.600231 53.160252 58.320259 62.88028 67.440277 73.920303 78.480316 87.720192 96.360214 101.52025 107.40028 113.88028 117.12014 123.00017 127.56016 133.44019">4ATMPressureRegulator</tspan></text><path style="fill:#999;fill-opacity:1;fill-rule:nonzero;stroke:none" d="M24.816 897.461v793.709c0 344.43 279.204 623.63 623.629 623.63 344.426 0 623.625-279.2 623.625-623.63V897.461c0-344.426-279.199-623.629-623.625-623.629-344.425 0-623.629 279.203-623.629 623.629" transform="matrix(.13333 0 0 -.13333 0 501.867)"/><path style="fill:none;stroke:#000;stroke-width:9.96280003;stroke-linecap:butt;stroke-linejoin:miter;stroke-miterlimit:10;stroke-dasharray:none;stroke-opacity:1" d="M24.816 897.461v793.709c0 344.43 279.204 623.63 623.629 623.63 344.426 0 623.625-279.2 623.625-623.63V897.461c0-344.426-279.199-623.629-623.625-623.629-344.425 0-623.629 279.203-623.629 623.629" transform="matrix(.13333 0 0 -.13333 0 501.867)"/><path style="fill:#fff;fill-opacity:1;fill-rule:nonzero;stroke:none" d="M194.898 869.113v850.407c0 250.49 203.059 453.55 453.551 453.55S1102 1970.01 1102 1719.52V869.113c0-250.492-203.059-453.55-453.551-453.55s-453.551 203.058-453.551 453.55" transform="matrix(.13333 0 0 -.13333 0 501.867)"/><g clip-path="url(#a)" transform="matrix(.13333 0 0 -.13333 0 501.867)"><path style="fill:url(#b);fill-opacity:1;fill-rule:nonzero;stroke:none" d="M0 25.074h1554.95v1559.29H0z"/></g><path style="fill:none;stroke:#000;stroke-width:9.96280003;stroke-linecap:butt;stroke-linejoin:miter;stroke-miterlimit:10;stroke-dasharray:none;stroke-opacity:1" d="M194.898 869.113V1195.1H1102" transform="matrix(.13333 0 0 -.13333 0 501.867)"/><path style="fill:none;stroke:#000;stroke-width:19.92550087;stroke-linecap:butt;stroke-linejoin:miter;stroke-miterlimit:10;stroke-dasharray:none;stroke-opacity:1" d="M648.445 273.832 996.75 29.945M648.445 273.832 280.207 61.231M648.445 273.832l83.856-179.836" transform="matrix(.13333 0 0 -.13333 0 501.867)"/><path style="fill:none;stroke:#000;stroke-width:9.96280003;stroke-linecap:butt;stroke-linejoin:miter;stroke-miterlimit:10;stroke-dasharray:none;stroke-opacity:1" d="M194.898 869.113v850.407c0 250.49 203.059 453.55 453.551 453.55S1102 1970.01 1102 1719.52V869.113c0-250.492-203.059-453.55-453.551-453.55s-453.551 203.058-453.551 453.55" transform="matrix(.13333 0 0 -.13333 0 501.867)"/><path style="fill:#8ab0e1;fill-opacity:1;fill-rule:nonzero;stroke:none" d="M1073.65 755.727h297.641v85.043H1073.65z" transform="matrix(.13333 0 0 -.13333 0 501.867)"/><g clip-path="url(#c)" transform="matrix(.13333 0 0 -.13333 0 501.867)"><path style="fill:url(#d);fill-opacity:1;fill-rule:nonzero;stroke:none" d="M397.07 713.137h2767v170.09h-2767z"/></g><path style="fill:none;stroke:#000;stroke-width:9.96280003;stroke-linecap:butt;stroke-linejoin:miter;stroke-miterlimit:10;stroke-dasharray:none;stroke-opacity:1" d="M1096.32 840.77h1332.31c23.48 0 42.51-19.036 42.51-42.52 0-23.48-19.03-42.516-42.51-42.516l-1340.81-.007" transform="matrix(.13333 0 0 -.13333 0 501.867)"/><text style="font-variant:normal;font-weight:400;font-size:9.96263981px;font-family:CMR10;-inkscape-font-specification:CMR10;writing-mode:lr-tb;fill:#000;fill-opacity:1;fill-rule:nonzero;stroke:none" transform="matrix(1.33333 0 0 1.33333 43.375 377.187)"><tspan y="0" x="0 6.2400012 8.9996529 14.279652 19.799652 22.559303 31.439154 39.239151 44.51915 49.799149 54.839149 59.279152">LiquidOxygen</tspan><tspan y="12" x="15.1203 18.960299 24.000303 29.040302">(-160</tspan></text><text style="font-variant:normal;font-weight:400;font-size:6.97384977px;font-family:CMSY7;-inkscape-font-specification:CMSY7;writing-mode:lr-tb;fill:#000;fill-opacity:1;fill-rule:nonzero;stroke:none" transform="matrix(1.33333 0 0 1.33333 88.815 388.387)"><tspan y="0" x="0">◦</tspan></text><text style="font-variant:normal;font-weight:400;font-size:9.96263981px;font-family:CMR10;-inkscape-font-specification:CMR10;writing-mode:lr-tb;fill:#000;fill-opacity:1;fill-rule:nonzero;stroke:none" transform="matrix(1.33333 0 0 1.33333 94.735 393.187)"><tspan y="0" x="0 7.2000022">C)</tspan><tspan y="-90.318" x="-22.8137 -15.013701 -9.7337027 -4.4537039 0.58629519 5.0262966">Oxygen</tspan><tspan y="-78.318" x="-22.093779 -15.493777 -10.453778 -4.6937747 0.34622437 5.8662243">Vapour</tspan><tspan y="-66.438" x="-43.813679 -39.973679 -34.933678 -32.174026 -23.894096 -18.854097 -15.014093 -3.3741634 7.6656771 13.185678 20.625675 27.46567">(7.5atm=SVP)</tspan></text><path style="fill:none;stroke:#000;stroke-width:3.9849999;stroke-linecap:butt;stroke-linejoin:miter;stroke-miterlimit:10;stroke-dasharray:none;stroke-opacity:1" d="M1096.32 557.301h283.47" transform="matrix(.13333 0 0 -.13333 0 501.867)"/><text style="font-variant:normal;font-weight:400;font-size:11.9552002px;font-family:CMR12;-inkscape-font-specification:CMR12;writing-mode:lr-tb;fill:#000;fill-opacity:1;fill-rule:nonzero;stroke:none" transform="matrix(1.33333 0 0 1.33333 188.665 433.006)"><tspan y="0" x="0 7.8000159 13.68002 18.840042 25.320057 31.800085">Vacuum</tspan></text><text style="font-variant:normal;font-weight:400;font-size:9.96263981px;font-family:CMR10;-inkscape-font-specification:CMR10;writing-mode:lr-tb;fill:#000;fill-opacity:1;fill-rule:nonzero;stroke:none" transform="matrix(1.33333 0 0 1.33333 115.234 483.795)"><tspan y="0" x="0 6.3601584 10.320156 13.079807 18.839884 24.119957 33.000038 40.200035 42.959686 46.79969 55.679768 62.639919 67.079926 69.839577 74.87957 80.399574 83.159225 88.679222 96.839233 99.839226 105.35923 110.87924 115.31923 119.15923 121.91888 126.95886">Tripodwithweighingfunction</tspan></text><path style="fill:#6396d7;fill-opacity:1;fill-rule:nonzero;stroke:none" d="m2327.87 918.598 3.83 3.832c11.68 11.672 30.6 11.672 42.27 0l114.08-114.078c11.67-11.672 11.67-30.594 0-42.27l-3.84-3.832c-11.67-11.672-30.59-11.672-42.26 0l-114.08 114.078c-11.67 11.672-11.67 30.598 0 42.27z" transform="matrix(.13333 0 0 -.13333 0 501.867)"/><path style="fill:none;stroke:#000;stroke-width:6.97389984;stroke-linecap:butt;stroke-linejoin:miter;stroke-miterlimit:10;stroke-dasharray:none;stroke-opacity:1" d="m2327.87 918.598 3.83 3.832c11.68 11.672 30.6 11.672 42.27 0l114.08-114.078c11.67-11.672 11.67-30.594 0-42.27l-3.84-3.832c-11.67-11.672-30.59-11.672-42.26 0l-114.08 114.078c-11.67 11.672-11.67 30.598 0 42.27z" transform="matrix(.13333 0 0 -.13333 0 501.867)"/><path style="fill:#6396d7;fill-opacity:1;fill-rule:nonzero;stroke:none" d="M2315.24 899v4.008c0 16.508 13.38 29.887 29.89 29.887h115.97c16.51 0 29.89-13.379 29.89-29.887V899c0-16.504-13.38-29.887-29.89-29.887h-115.97c-16.51 0-29.89 13.383-29.89 29.887z" transform="matrix(.13333 0 0 -.13333 0 501.867)"/><path style="fill:none;stroke:#000;stroke-width:6.97389984;stroke-linecap:butt;stroke-linejoin:miter;stroke-miterlimit:10;stroke-dasharray:none;stroke-opacity:1" d="M2315.24 899v4.008c0 16.508 13.38 29.887 29.89 29.887h115.97c16.51 0 29.89-13.379 29.89-29.887V899c0-16.504-13.38-29.887-29.89-29.887h-115.97c-16.51 0-29.89 13.383-29.89 29.887z" transform="matrix(.13333 0 0 -.13333 0 501.867)"/><path style="fill:#6396d7;fill-opacity:1;fill-rule:nonzero;stroke:none" d="m2327.87 1035.16 3.83 3.83c11.68 11.67 30.6 11.67 42.27 0l114.08-114.072c11.67-11.672 11.67-30.598 0-42.27l-3.84-3.832c-11.67-11.671-30.59-11.671-42.26 0l-114.08 114.075c-11.67 11.669-11.67 30.599 0 42.269z" transform="matrix(.13333 0 0 -.13333 0 501.867)"/><path style="fill:none;stroke:#000;stroke-width:6.97389984;stroke-linecap:butt;stroke-linejoin:miter;stroke-miterlimit:10;stroke-dasharray:none;stroke-opacity:1" d="m2327.87 1035.16 3.83 3.83c11.68 11.67 30.6 11.67 42.27 0l114.08-114.072c11.67-11.672 11.67-30.598 0-42.27l-3.84-3.832c-11.67-11.671-30.59-11.671-42.26 0l-114.08 114.075c-11.67 11.669-11.67 30.599 0 42.269z" transform="matrix(.13333 0 0 -.13333 0 501.867)"/><path style="fill:#6396d7;fill-opacity:1;fill-rule:nonzero;stroke:none" d="M2315.24 1015.57v4c0 16.51 13.38 29.89 29.89 29.89h115.97c16.51 0 29.89-13.38 29.89-29.89v-4c0-16.511-13.38-29.89-29.89-29.89h-115.97c-16.51 0-29.89 13.379-29.89 29.89z" transform="matrix(.13333 0 0 -.13333 0 501.867)"/><path style="fill:none;stroke:#000;stroke-width:6.97389984;stroke-linecap:butt;stroke-linejoin:miter;stroke-miterlimit:10;stroke-dasharray:none;stroke-opacity:1" d="M2315.24 1015.57v4c0 16.51 13.38 29.89 29.89 29.89h115.97c16.51 0 29.89-13.38 29.89-29.89v-4c0-16.511-13.38-29.89-29.89-29.89h-115.97c-16.51 0-29.89 13.379-29.89 29.89zM2490.99 1049.46h283.47" transform="matrix(.13333 0 0 -.13333 0 501.867)"/><text style="font-variant:normal;font-weight:400;font-size:9.96263981px;font-family:CMR10;-inkscape-font-specification:CMR10;writing-mode:lr-tb;fill:#000;fill-opacity:1;fill-rule:nonzero;stroke:none" transform="matrix(1.33333 0 0 1.33333 374.82 357.216)"><tspan y="0" x="0 6.8400006 10.800016 15.240006 19.200027 23.160025 28.680037 32.64003 37.080044 40.440033 44.400051 49.440037 52.199688 56.159683 58.919334 64.439323">Pressure-raising</tspan><tspan y="12" x="0 6.6000071 11.639994 17.399998 22.439983 26.4 29.159651 33.119648 37.559639">Vaporiser</tspan></text><path style="fill:#6396d7;fill-opacity:1;fill-rule:nonzero;stroke:none" d="m2327.87 1151.73 3.83 3.83c11.68 11.67 30.6 11.67 42.27 0l114.08-114.08c11.67-11.67 11.67-30.6 0-42.269l-3.84-3.832c-11.67-11.672-30.59-11.672-42.26 0l-114.08 114.081c-11.67 11.67-11.67 30.59 0 42.27z" transform="matrix(.13333 0 0 -.13333 0 501.867)"/><path style="fill:none;stroke:#000;stroke-width:6.97389984;stroke-linecap:butt;stroke-linejoin:miter;stroke-miterlimit:10;stroke-dasharray:none;stroke-opacity:1" d="m2327.87 1151.73 3.83 3.83c11.68 11.67 30.6 11.67 42.27 0l114.08-114.08c11.67-11.67 11.67-30.6 0-42.269l-3.84-3.832c-11.67-11.672-30.59-11.672-42.26 0l-114.08 114.081c-11.67 11.67-11.67 30.59 0 42.27z" transform="matrix(.13333 0 0 -.13333 0 501.867)"/><path style="fill:#6396d7;fill-opacity:1;fill-rule:nonzero;stroke:none" d="M2315.24 1132.13v4.01c0 16.5 13.38 29.88 29.89 29.88h115.97c16.51 0 29.89-13.38 29.89-29.88v-4.01c0-16.5-13.38-29.89-29.89-29.89h-115.97c-16.51 0-29.89 13.39-29.89 29.89z" transform="matrix(.13333 0 0 -.13333 0 501.867)"/><path style="fill:none;stroke:#000;stroke-width:6.97389984;stroke-linecap:butt;stroke-linejoin:miter;stroke-miterlimit:10;stroke-dasharray:none;stroke-opacity:1" d="M2315.24 1132.13v4.01c0 16.5 13.38 29.88 29.89 29.88h115.97c16.51 0 29.89-13.38 29.89-29.88v-4.01c0-16.5-13.38-29.89-29.89-29.89h-115.97c-16.51 0-29.89 13.39-29.89 29.89z" transform="matrix(.13333 0 0 -.13333 0 501.867)"/><path style="fill:#6396d7;fill-opacity:1;fill-rule:nonzero;stroke:none" d="m2391.78 1255.82 99.06-97.35c18.16-17.12-18.68-63.76-39.54-50.06l-84.18 84.18h-340.16v63.23h364.82" transform="matrix(.13333 0 0 -.13333 0 501.867)"/><path style="fill:none;stroke:#000;stroke-width:6.97389984;stroke-linecap:butt;stroke-linejoin:miter;stroke-miterlimit:10;stroke-dasharray:none;stroke-opacity:1" d="m2391.78 1255.82 99.06-97.35c18.16-17.12-18.68-63.76-39.54-50.06l-84.18 84.18h-340.16v63.23z" transform="matrix(.13333 0 0 -.13333 0 501.867)"/><path style="fill:#6396d7;fill-opacity:1;fill-rule:nonzero;stroke:none" d="M889.395 2099.37v1020.49h85.043V2935.6H1314.6v-85.04H974.438v-212.6h85.042c266.15 0 481.89-215.75 481.89-481.89 0-219.18 177.68-396.86 396.86-396.86s396.85 177.68 396.85 396.86h85.04c0-266.15-215.75-481.9-481.89-481.9-266.15 0-481.9 215.75-481.9 481.9 0 219.18-177.67 396.85-396.85 396.85h-85.042v-510.24" transform="matrix(.13333 0 0 -.13333 0 501.867)"/><path style="fill:none;stroke:#000;stroke-width:9.96280003;stroke-linecap:butt;stroke-linejoin:miter;stroke-miterlimit:10;stroke-dasharray:none;stroke-opacity:1" d="M889.395 2099.37v1020.49h85.043V2935.6H1314.6v-85.04H974.438v-212.6h85.042c266.15 0 481.89-215.75 481.89-481.89 0-219.18 177.68-396.86 396.86-396.86s396.85 177.68 396.85 396.86h85.04c0-266.15-215.75-481.9-481.89-481.9-266.15 0-481.9 215.75-481.9 481.9 0 219.18-177.67 396.85-396.85 396.85h-85.042v-510.24" transform="matrix(.13333 0 0 -.13333 0 501.867)"/><g clip-path="url(#e)" transform="matrix(.13333 0 0 -.13333 0 501.867)"><path style="fill:url(#f);fill-opacity:1;fill-rule:nonzero;stroke:none" d="M1705.1 1441.29h952.57v952.57H1705.1z"/></g><path style="fill:#fff;fill-opacity:1;fill-rule:nonzero;stroke:none" d="M895.066 2088.03v28.35l5.707-.51 4.965-10.33 11.418-1.01 4.961-10.33 11.418-1.01 4.965-10.33 11.418-1.01 4.965-10.33 5.707-.51 8.176-5.66v-121.89" transform="matrix(.13333 0 0 -.13333 0 501.867)"/><path style="fill:#6396d7;fill-opacity:1;fill-rule:nonzero;stroke:none" d="M1158.69 3292.77c0 125.24-101.53 226.77-226.776 226.77-125.246 0-226.773-101.53-226.773-226.77 0-125.25 101.527-226.78 226.773-226.78s226.776 101.53 226.776 226.78z" transform="matrix(.13333 0 0 -.13333 0 501.867)"/><path style="fill:none;stroke:#6396d7;stroke-width:3.9849999;stroke-linecap:butt;stroke-linejoin:miter;stroke-miterlimit:10;stroke-dasharray:none;stroke-opacity:1" d="M1158.69 3292.77c0 125.24-101.53 226.77-226.776 226.77-125.246 0-226.773-101.53-226.773-226.77 0-125.25 101.527-226.78 226.773-226.78s226.776 101.53 226.776 226.78z" transform="matrix(.13333 0 0 -.13333 0 501.867)"/><g clip-path="url(#g)" transform="matrix(.13333 0 0 -.13333 0 501.867)"><path style="fill:url(#h);fill-opacity:1;fill-rule:nonzero;stroke:none" d="M534.695 2895.55h793.809v793.809H534.695z"/></g><path style="fill:none;stroke:#6396d7;stroke-width:3.9849999;stroke-linecap:butt;stroke-linejoin:miter;stroke-miterlimit:10;stroke-dasharray:none;stroke-opacity:1" d="M1130.34 3292.77c0 109.59-88.84 198.43-198.426 198.43-109.59 0-198.43-88.84-198.43-198.43s88.84-198.43 198.43-198.43c109.586 0 198.426 88.84 198.426 198.43z" transform="matrix(.13333 0 0 -.13333 0 501.867)"/><path style="fill:none;stroke:#000;stroke-width:3.9849999;stroke-linecap:butt;stroke-linejoin:miter;stroke-miterlimit:10;stroke-dasharray:none;stroke-opacity:1" d="m931.914 3292.77 114.946 114.94" transform="matrix(.13333 0 0 -.13333 0 501.867)"/><path style="fill:#000;fill-opacity:1;fill-rule:nonzero;stroke:none" d="M1072.22 3433.07c-8.92-6.1-25.36-14.09-38.74-17.61l21.13-21.13c3.52 13.38 11.51 29.82 17.61 38.74" transform="matrix(.13333 0 0 -.13333 0 501.867)"/><path style="fill:none;stroke:#000;stroke-width:3.9849999;stroke-linecap:butt;stroke-linejoin:miter;stroke-miterlimit:10;stroke-dasharray:none;stroke-opacity:1" d="m931.914 3292.77-140.309-140.31M931.914 3521.54v85.03" transform="matrix(.13333 0 0 -.13333 0 501.867)"/><text style="font-variant:normal;font-weight:400;font-size:9.96263981px;font-family:CMR10;-inkscape-font-specification:CMR10;writing-mode:lr-tb;fill:#000;fill-opacity:1;fill-rule:nonzero;stroke:none" transform="matrix(1.33333 0 0 1.33333 109.108 16.297)"><tspan y="0" x="0 8.2800798 13.800079 18.840078">7bar</tspan></text><path style="fill:#6396d7;fill-opacity:1;fill-rule:nonzero;stroke:none" d="M1284.71 2706.1h338.734v378.586H1284.71z" transform="matrix(.13333 0 0 -.13333 0 501.867)"/><path style="fill:none;stroke:#000;stroke-width:9.96280003;stroke-linecap:butt;stroke-linejoin:miter;stroke-miterlimit:10;stroke-dasharray:none;stroke-opacity:1" d="M1284.71 2706.1h338.734v378.586H1284.71z" transform="matrix(.13333 0 0 -.13333 0 501.867)"/><path style="fill:gray;fill-opacity:1;fill-rule:nonzero;stroke:none" d="M1546.23 2661.27h119.555v468.25H1546.23z" transform="matrix(.13333 0 0 -.13333 0 501.867)"/><path style="fill:none;stroke:#000;stroke-width:9.96280003;stroke-linecap:butt;stroke-linejoin:miter;stroke-miterlimit:10;stroke-dasharray:none;stroke-opacity:1" d="M1546.23 2661.27h119.555v468.25H1546.23z" transform="matrix(.13333 0 0 -.13333 0 501.867)"/><text style="font-variant:normal;font-weight:400;font-size:9.96263981px;font-family:CMR10;-inkscape-font-specification:CMR10;writing-mode:lr-tb;fill:#000;fill-opacity:1;fill-rule:nonzero;stroke:none" transform="matrix(1.33333 0 0 1.33333 237.575 119.135)"><tspan y="0" x="0 5.52 10.559999 13.559994 17.999996 21.599997 30.119917 36.719925 41.759911 44.519562 49.559399">SafetyValve</tspan></text><path style="fill:#6396d7;fill-opacity:1;fill-rule:nonzero;stroke:none" d="M1284.71 2706.1h338.734v378.586H1284.71z" transform="matrix(.13333 0 0 -.13333 0 501.867)"/><path style="fill:none;stroke:#000;stroke-width:9.96280003;stroke-linecap:butt;stroke-linejoin:miter;stroke-miterlimit:10;stroke-dasharray:none;stroke-opacity:1" d="M1284.71 2706.1h338.734v378.586H1284.71z" transform="matrix(.13333 0 0 -.13333 0 501.867)"/><path style="fill:none;stroke:#000;stroke-width:9.96280003;stroke-linecap:butt;stroke-linejoin:miter;stroke-miterlimit:10;stroke-dasharray:none;stroke-opacity:1" d="m1279.73 2895.39 17.43 22.68 34.87-45.36 34.87 45.36 34.87-45.36 34.87 45.36 34.87-45.36 34.87 45.36 34.87-45.36 34.87 45.36 34.87-45.36 17.43 22.68h.01M1541.25 3089.67v-388.55" transform="matrix(.13333 0 0 -.13333 0 501.867)"/><g clip-path="url(#i)" transform="matrix(.13333 0 0 -.13333 0 501.867)"><path style="fill:url(#j);fill-opacity:1;fill-rule:nonzero;stroke:none" d="M1281.65 2951.96h139.504v478.277H1281.65z"/></g><path style="fill:#6396d7;fill-opacity:1;fill-rule:nonzero;stroke:none" d="M2264.21 2632.29h481.9v226.77h368.51v-226.77h255.12v-85.05H2303.9v79.38" transform="matrix(.13333 0 0 -.13333 0 501.867)"/><path style="fill:none;stroke:#000;stroke-width:9.96280003;stroke-linecap:butt;stroke-linejoin:miter;stroke-miterlimit:10;stroke-dasharray:none;stroke-opacity:1" d="M2264.21 2632.29h481.9v226.77h368.51v-226.77h255.12v-85.05H2303.9v79.38" transform="matrix(.13333 0 0 -.13333 0 501.867)"/><g clip-path="url(#k)" transform="matrix(.13333 0 0 -.13333 0 501.867)"><path style="fill:url(#l);fill-opacity:1;fill-rule:nonzero;stroke:none" d="M2063.27 2516h963.91v147.422h-963.91z"/></g><path style="fill:none;stroke:#000;stroke-width:9.96280003;stroke-linecap:butt;stroke-linejoin:miter;stroke-miterlimit:10;stroke-dasharray:none;stroke-opacity:1" d="M3228.01 2589.77h203.11" transform="matrix(.13333 0 0 -.13333 0 501.867)"/><path style="fill:#000;fill-opacity:1;fill-rule:nonzero;stroke:none" d="M3483.13 2589.77c-15.42 2.88-40.45 11.55-57.79 21.66v-43.33c17.34 10.11 42.37 18.78 57.79 21.67" transform="matrix(.13333 0 0 -.13333 0 501.867)"/><text style="font-variant:normal;font-weight:400;font-size:9.96263981px;font-family:CMR10;-inkscape-font-specification:CMR10;writing-mode:lr-tb;fill:#000;fill-opacity:1;fill-rule:nonzero;stroke:none" transform="matrix(1.33333 0 0 1.33333 469.508 159.885)"><tspan y="0" x="0 6.3601642 14.640244 21.480244 24.239895 30.000046 34.440033 37.199684 39.959335 45.479324">ToPipeline</tspan></text><path style="fill:none;stroke:#000;stroke-width:3.9849999;stroke-linecap:butt;stroke-linejoin:miter;stroke-miterlimit:10;stroke-dasharray:none;stroke-opacity:1" d="M2746.11 2779.36h368.51" transform="matrix(.13333 0 0 -.13333 0 501.867)"/><path style="fill:gray;fill-opacity:1;fill-rule:nonzero;stroke:none" d="M2905.46 2621.64h49.813v189.293h-49.813z" transform="matrix(.13333 0 0 -.13333 0 501.867)"/><path style="fill:none;stroke:#000;stroke-width:9.96280003;stroke-linecap:butt;stroke-linejoin:miter;stroke-miterlimit:10;stroke-dasharray:none;stroke-opacity:1" d="M2905.46 2621.64h49.813v189.293h-49.813zM2880.55 2616.66h99.63" transform="matrix(.13333 0 0 -.13333 0 501.867)"/><path style="fill:none;stroke:#000;stroke-width:5.9776001;stroke-linecap:butt;stroke-linejoin:miter;stroke-miterlimit:10;stroke-dasharray:none;stroke-opacity:1" d="m2930.36 2815.91-22.67 4.98 45.35 9.97-45.35 9.96 22.67 4.98v4.13" transform="matrix(.13333 0 0 -.13333 0 501.867)"/><path style="fill:#7b2d2c;fill-opacity:1;fill-rule:nonzero;stroke:none" d="m2257 2273.57 3.84 3.84c11.67 11.67 30.59 11.67 42.26 0l114.08-114.08c11.67-11.67 11.67-30.6 0-42.27l-3.83-3.83c-11.67-11.68-30.6-11.68-42.27 0L2257 2231.3c-11.67 11.68-11.67 30.6 0 42.27z" transform="matrix(.13333 0 0 -.13333 0 501.867)"/><path style="fill:none;stroke:#000;stroke-width:6.97389984;stroke-linecap:butt;stroke-linejoin:miter;stroke-miterlimit:10;stroke-dasharray:none;stroke-opacity:1" d="m2257 2273.57 3.84 3.84c11.67 11.67 30.59 11.67 42.26 0l114.08-114.08c11.67-11.67 11.67-30.6 0-42.27l-3.83-3.83c-11.67-11.68-30.6-11.68-42.27 0L2257 2231.3c-11.67 11.68-11.67 30.6 0 42.27z" transform="matrix(.13333 0 0 -.13333 0 501.867)"/><path style="fill:#7b2d2c;fill-opacity:1;fill-rule:nonzero;stroke:none" d="M2244.37 2253.98v4c0 16.51 13.38 29.89 29.89 29.89h115.97c16.51 0 29.89-13.38 29.89-29.89v-4c0-16.51-13.38-29.89-29.89-29.89h-115.97c-16.51 0-29.89 13.38-29.89 29.89z" transform="matrix(.13333 0 0 -.13333 0 501.867)"/><path style="fill:none;stroke:#000;stroke-width:6.97389984;stroke-linecap:butt;stroke-linejoin:miter;stroke-miterlimit:10;stroke-dasharray:none;stroke-opacity:1" d="M2244.37 2253.98v4c0 16.51 13.38 29.89 29.89 29.89h115.97c16.51 0 29.89-13.38 29.89-29.89v-4c0-16.51-13.38-29.89-29.89-29.89h-115.97c-16.51 0-29.89 13.38-29.89 29.89z" transform="matrix(.13333 0 0 -.13333 0 501.867)"/><path style="fill:#7b2d2c;fill-opacity:1;fill-rule:nonzero;stroke:none" d="m2257 2390.14 3.84 3.83c11.67 11.67 30.59 11.67 42.26 0l114.08-114.08c11.67-11.67 11.67-30.59 0-42.26l-3.83-3.84c-11.67-11.67-30.6-11.67-42.27 0L2257 2347.87c-11.67 11.67-11.67 30.59 0 42.27z" transform="matrix(.13333 0 0 -.13333 0 501.867)"/><path style="fill:none;stroke:#000;stroke-width:6.97389984;stroke-linecap:butt;stroke-linejoin:miter;stroke-miterlimit:10;stroke-dasharray:none;stroke-opacity:1" d="m2257 2390.14 3.84 3.83c11.67 11.67 30.59 11.67 42.26 0l114.08-114.08c11.67-11.67 11.67-30.59 0-42.26l-3.83-3.84c-11.67-11.67-30.6-11.67-42.27 0L2257 2347.87c-11.67 11.67-11.67 30.59 0 42.27z" transform="matrix(.13333 0 0 -.13333 0 501.867)"/><path style="fill:#7b2d2c;fill-opacity:1;fill-rule:nonzero;stroke:none" d="M2244.37 2370.54v4.01c0 16.5 13.38 29.89 29.89 29.89h115.97c16.51 0 29.89-13.39 29.89-29.89v-4.01c0-16.5-13.38-29.88-29.89-29.88h-115.97c-16.51 0-29.89 13.38-29.89 29.88z" transform="matrix(.13333 0 0 -.13333 0 501.867)"/><path style="fill:none;stroke:#000;stroke-width:6.97389984;stroke-linecap:butt;stroke-linejoin:miter;stroke-miterlimit:10;stroke-dasharray:none;stroke-opacity:1" d="M2244.37 2370.54v4.01c0 16.5 13.38 29.89 29.89 29.89h115.97c16.51 0 29.89-13.39 29.89-29.89v-4.01c0-16.5-13.38-29.88-29.89-29.88h-115.97c-16.51 0-29.89 13.38-29.89 29.88zM2438.31 2258.76h113.39" transform="matrix(.13333 0 0 -.13333 0 501.867)"/><text style="font-variant:normal;font-weight:400;font-size:9.96263981px;font-family:CMR10;-inkscape-font-specification:CMR10;writing-mode:lr-tb;fill:#000;fill-opacity:1;fill-rule:nonzero;stroke:none" transform="matrix(1.33333 0 0 1.33333 345.119 204.02)"><tspan y="0" x="0 5.5199881 11.039976 16.799978 21.239967 25.199984 30.719973 35.159962 40.199974 44.039963 48.479977">Superheater</tspan></text><path style="fill:#7b2d2c;fill-opacity:1;fill-rule:nonzero;stroke:none" d="m2257 2506.7 3.84 3.84c11.67 11.67 30.59 11.67 42.26 0l114.08-114.08c11.67-11.67 11.67-30.6 0-42.27l-3.83-3.83c-11.67-11.68-30.6-11.68-42.27 0L2257 2464.43c-11.67 11.68-11.67 30.6 0 42.27z" transform="matrix(.13333 0 0 -.13333 0 501.867)"/><path style="fill:none;stroke:#000;stroke-width:6.97389984;stroke-linecap:butt;stroke-linejoin:miter;stroke-miterlimit:10;stroke-dasharray:none;stroke-opacity:1" d="m2257 2506.7 3.84 3.84c11.67 11.67 30.59 11.67 42.26 0l114.08-114.08c11.67-11.67 11.67-30.6 0-42.27l-3.83-3.83c-11.67-11.68-30.6-11.68-42.27 0L2257 2464.43c-11.67 11.68-11.67 30.6 0 42.27z" transform="matrix(.13333 0 0 -.13333 0 501.867)"/><path style="fill:#7b2d2c;fill-opacity:1;fill-rule:nonzero;stroke:none" d="M2244.37 2487.11v4c0 16.51 13.38 29.89 29.89 29.89h115.97c16.51 0 29.89-13.38 29.89-29.89v-4c0-16.51-13.38-29.89-29.89-29.89h-115.97c-16.51 0-29.89 13.38-29.89 29.89z" transform="matrix(.13333 0 0 -.13333 0 501.867)"/><path style="fill:none;stroke:#000;stroke-width:6.97389984;stroke-linecap:butt;stroke-linejoin:miter;stroke-miterlimit:10;stroke-dasharray:none;stroke-opacity:1" d="M2244.37 2487.11v4c0 16.51 13.38 29.89 29.89 29.89h115.97c16.51 0 29.89-13.38 29.89-29.89v-4c0-16.51-13.38-29.89-29.89-29.89h-115.97c-16.51 0-29.89 13.38-29.89 29.89z" transform="matrix(.13333 0 0 -.13333 0 501.867)"/><path style="fill:#7b2d2c;fill-opacity:1;fill-rule:nonzero;stroke:none" d="m2257 2626.25 3.84 3.84c11.67 11.67 30.59 11.67 42.26 0l114.08-114.08c11.67-11.67 11.67-30.6 0-42.27l-3.83-3.83c-11.67-11.67-30.6-11.67-42.27 0L2257 2583.99c-11.67 11.67-11.67 30.59 0 42.26z" transform="matrix(.13333 0 0 -.13333 0 501.867)"/><path style="fill:none;stroke:#000;stroke-width:6.97389984;stroke-linecap:butt;stroke-linejoin:miter;stroke-miterlimit:10;stroke-dasharray:none;stroke-opacity:1" d="m2257 2626.25 3.84 3.84c11.67 11.67 30.59 11.67 42.26 0l114.08-114.08c11.67-11.67 11.67-30.6 0-42.27l-3.83-3.83c-11.67-11.67-30.6-11.67-42.27 0L2257 2583.99c-11.67 11.67-11.67 30.59 0 42.26z" transform="matrix(.13333 0 0 -.13333 0 501.867)"/><path style="fill:gray;fill-opacity:1;fill-rule:nonzero;stroke:none" d="M1802.96 1157.56h298.883v368.621H1802.96z" transform="matrix(.13333 0 0 -.13333 0 501.867)"/><path style="fill:none;stroke:#000;stroke-width:9.96280003;stroke-linecap:butt;stroke-linejoin:miter;stroke-miterlimit:10;stroke-dasharray:none;stroke-opacity:1" d="M1802.96 1157.56h298.883v368.621H1802.96z" transform="matrix(.13333 0 0 -.13333 0 501.867)"/><g clip-path="url(#m)" transform="matrix(.13333 0 0 -.13333 0 501.867)"><path style="fill:url(#n);fill-opacity:1;fill-rule:nonzero;stroke:none" d="M1869.96 1454.78h170.09v305.043h-170.09z"/></g><path style="fill:none;stroke:#000;stroke-width:9.96280003;stroke-linecap:butt;stroke-linejoin:miter;stroke-miterlimit:10;stroke-dasharray:none;stroke-opacity:1" d="M1912.55 1531.17v148.81M1994.24 1531.17v152.22" transform="matrix(.13333 0 0 -.13333 0 501.867)"/><path style="fill:none;stroke:#000;stroke-width:3.9849999;stroke-linecap:butt;stroke-linejoin:miter;stroke-miterlimit:10;stroke-dasharray:none;stroke-opacity:1" d="M2106.82 1496.31h141.74" transform="matrix(.13333 0 0 -.13333 0 501.867)"/><g><text style="font-variant:normal;font-weight:400;font-size:9.96263981px;font-family:CMR10;-inkscape-font-specification:CMR10;writing-mode:lr-tb;fill:#000;fill-opacity:1;fill-rule:nonzero;stroke:none" transform="matrix(1.33333 0 0 1.33333 304.5 306.97)"><tspan y="0" x="0 7.2000084 12.239996 17.51992 21.359911 25.319927 30.359915 36.239487 42.839493 47.879478 50.63913 55.67897">ControlValve</tspan></text></g></svg>