<svg xmlns="http://www.w3.org/2000/svg" viewBox="0 0 1098.4271 840.81596"><path fill="#fff" d="M0 0h1098.427v840.816H0z"/><path stroke-miterlimit="10" fill="none" stroke="#000" d="M257.462 210.622v610.756"/><path stroke-miterlimit="10" fill="none" stroke="#000" stroke-dasharray="6.0018,6.0018" d="M276.06 210.622V747.79"/><path stroke-miterlimit="10" fill="none" stroke="#000" d="M391.372 210.622v610.756"/><path stroke-miterlimit="10" fill="none" stroke="#000" stroke-dasharray="6.0018,6.0018" d="M409.97 210.622V747.79M484.364 210.622V747.79M560.618 210.622V747.79"/><path stroke-miterlimit="10" fill="none" stroke="#000" d="M634.748 210.622v610.756"/><path stroke-miterlimit="10" fill="none" stroke="#000" stroke-dasharray="6.0018,6.0018" d="M653.348 210.622V747.79"/><path stroke-miterlimit="10" fill="none" stroke="#000" d="M768.658 210.622v610.756"/><path stroke-miterlimit="10" fill="none" stroke="#000" stroke-dasharray="6.0018,6.0018" d="M787.256 210.622V747.79"/><path d="M842.338 262.864c-26.616-6.758-47.618-13.22-54.48-17.098-11.31-6.394-11.124 12.36-19.776 11.742-8.652-.618-32.906-39.732-56.238-37.08-27.194 3.09-44.498 66.126-56.858 70.454-9.95 3.482-58.39-1.65-96.092-8.284S424.784 253.8 410.57 245.766c-11.312-6.394-11.124 12.36-19.776 11.742-8.652-.618-32.904-39.732-56.238-37.08-27.192 3.09-44.498 66.126-56.856 70.454-12.358 4.328-84.826-3.772-120.67-14.278M842.338 419.006c-8.766-.108-16.498-.198-22.344-.198-24.104 0-31.518-9.888-35.226-9.888-5.56 0-66.744 15.452-90.228 15.452-27.368 0-32.136-13.596-39.552-13.596-8.034 0-12.362 14.028-20.238 14.028-10.044 0-16.224-20.826-37.856-20.826-15.138 0-25.122 11.854-44.152 14.004-19.03 2.15-85.606.828-110.034.828-24.102 0-31.518-9.888-35.226-9.888-5.562 0-66.746 15.452-90.23 15.452-27.368 0-32.136-13.596-39.552-13.596-8.034 0-12.36 14.028-20.238 14.028-10.044 0-16.224-20.826-37.856-20.826-18.31 0-40.946 18.362-62.576 12.798" fill="none" stroke="gray" stroke-width="3" stroke-miterlimit="10"/><path d="M842.338 432.988c-32.566-.228-48.238-4.746-52.626-12.326-13.488-23.3-7.064-117.176-15.472-149.298-4.922-18.8-34.346-66.154-70.43-55.88-64.85 18.462-62.418 207.032-69.06 209.32-8.884 3.06-14.372-13.95-28.584-13.95-25.34 0-38.86 15.898-71.528 16.738-32.668.84-115.414 4.812-122.212-6.93-13.49-23.3-7.066-117.176-15.474-149.298-4.92-18.8-34.346-66.154-70.43-55.88-64.85 18.462-62.418 207.032-69.06 209.32-8.886 3.06-14.372-13.95-28.584-13.95-25.338 0-40.17 16.738-71.846 16.738" fill="none" stroke="#00f" stroke-width="3" stroke-miterlimit="10"/><path d="M842.338 532.486c-8.206 2.704-16.012 6.172-22.958 10.682-16.922 10.988-24.106 54.192-35.23 54.192-54.036 0-67.708-9.688-94.554-45.116-18.356-24.22-31.658-52.266-37.7-55.622-5.56-3.09-12.36.62-23.484 0-11.124-.62-19.776-4.326-32.134-1.854-12.358 2.472-30.618 21.738-38.62 24.72-12.914 4.812-77.296-1.168-115.564 23.678-16.924 10.988-24.106 54.192-35.23 54.192-54.038 0-67.708-9.688-94.554-45.116-18.356-24.22-31.66-52.266-37.7-55.622-5.562-3.09-12.36.62-23.484 0-11.124-.62-19.776-4.326-32.136-1.854-12.36 2.472-29.198 21.724-37.082 24.72-7.884 2.996-19.204 3.622-24.878 3.668" fill="none" stroke="red" stroke-width="3" stroke-miterlimit="10"/><path d="M842.338 633.82h-56.334c-6.796 0-31.148-18.54-45.116-18.54-15.118 0-40.788 18.54-47.586 18.54h-38.316c-4.22 0-6.81 38.936-9.99 38.936-4.326 0-2.238-75.396-9.066-75.396-4.358 0-10.244 50.058-12.6 50.058-2.236 0-5.298-13.598-9.132-13.598h-32.756c-6.796 0-13.542-12.976-22.708-12.976-9.166 0-18.12 12.976-24.918 12.976h-125.1c-6.798 0-31.15-18.54-45.116-18.54-15.118 0-40.788 18.54-47.586 18.54h-38.316c-4.22 0-6.812 38.936-9.99 38.936-4.326 0-2.238-75.396-9.066-75.396-4.358 0-10.244 50.058-12.6 50.058-2.238 0-5.298-13.598-9.132-13.598h-32.754c-6.798 0-12.146-12.976-22.776-12.976-10.63 0-16.668 12.976-23.466 12.976H157.032" fill="none" stroke="navy" stroke-width="3" stroke-miterlimit="10"/><path d="M842.338 711.682h-4.018-32.738c-2.39 0-3.008-1.936-4.602-1.936-1.656 0-2.652 4.244-4.242 4.244-1.682 0-2.3-6.456-3.802-6.456-1.946 0-2.366 10.636-3.868 10.636-1.49 0-1.084-12.936-3.032-12.936-1.68 0-1.15 15.924-2.918 15.924-1.768 0-1.06-25.12-3.272-25.12-2.122 0-1.592 31.282-3.624 31.282-1.946 0-2.124-39.812-3.714-39.812-1.68 0-2.21 24.172-3.89 24.172h-96.864c-2.388 0-3.008-1.936-4.6-1.936-1.658 0-2.654 4.244-4.244 4.244-1.682 0-2.3-6.456-3.802-6.456-1.946 0-2.366 10.636-3.868 10.636-1.49 0-1.084-12.936-3.032-12.936-1.68 0-1.15 15.924-2.918 15.924-1.768 0-1.06-25.12-3.272-25.12-2.122 0-1.592 31.282-3.624 31.282-1.946 0-2.124-39.812-3.714-39.812-1.68 0-2.21 23.902-3.89 23.902H495.572c-3.404 0-4.334 2.108-5.926 2.108-1.68 0-1.812-5.892-3.314-5.892-1.946 0-2.366 9.708-3.868 9.708-1.492 0-1.338-11.806-3.284-11.806-1.68 0-1.51 6.152-3.278 6.152H461.29h-32.74c-2.388 0-3.006-1.936-4.6-1.936-1.658 0-2.652 4.244-4.244 4.244-1.68 0-2.298-6.456-3.802-6.456-1.946 0-2.364 10.636-3.868 10.636-1.49 0-1.084-12.936-3.032-12.936-1.68 0-1.15 15.924-2.918 15.924-1.768 0-1.06-25.12-3.272-25.12-2.122 0-1.592 31.282-3.626 31.282-1.946 0-2.122-39.812-3.714-39.812-1.68 0-2.21 24.172-3.892 24.172h-96.864c-2.388 0-3.006-1.936-4.598-1.936-1.658 0-2.654 4.244-4.246 4.244-1.68 0-2.298-6.456-3.802-6.456-1.946 0-2.364 10.636-3.868 10.636-1.49 0-1.084-12.936-3.032-12.936-1.68 0-1.15 15.924-2.918 15.924-1.768 0-1.06-25.12-3.272-25.12-2.122 0-1.592 31.282-3.626 31.282-1.946 0-2.122-39.812-3.714-39.812-1.68 0-2.21 23.902-3.892 23.902H156.656" fill="none" stroke="gray" stroke-width="3" stroke-miterlimit="10"/><text x="53.659" y="322.551" transform="rotate(-45)" font-size="20" font-family="Nimbus Sans L">Isovolumetric contraction</text><text x="100.555" y="369.445" transform="rotate(-45)" font-size="20" font-family="Nimbus Sans L">Ejection</text><text x="148.011" y="416.902" transform="rotate(-45)" font-size="20" font-family="Nimbus Sans L">Isovolumetric relaxation</text><text x="185.251" y="454.14" transform="rotate(-45)" font-size="20" font-family="Nimbus Sans L">Rapid Ventricular Filling</text><text x="235.846" y="504.736" transform="rotate(-45)" font-size="20" font-family="Nimbus Sans L">Slow Ventricular Filling</text><text x="288.342" y="557.231" transform="rotate(-45)" font-size="20" font-family="Nimbus Sans L">Atrial systole</text><text x="858.677" y="267.531" font-size="20" font-family="Nimbus Sans L">Aortic pressure</text><text x="858.677" y="413.541" font-size="20" font-family="Nimbus Sans L">Atrial pressure</text><text x="858.677" y="449.327" font-size="20" fill="#00f" font-family="Nimbus Sans L">Ventricular pressure</text><text x="858.677" y="540.493" font-size="20" fill="red" font-family="Nimbus Sans L">Ventricular volume</text><text x="858.677" y="638.97" font-size="20" fill="navy" font-family="Nimbus Sans L">Electrocardiogram</text><text x="858.677" y="717.829" font-size="20" font-family="Nimbus Sans L">Phonocardiogram</text><text x="323.479" y="784.16" style="text-align:start" font-size="28" letter-spacing="0" word-spacing="0" font-family="Nimbus Sans L"><tspan x="323.479" y="784.16" style="text-align:center" font-size="20" text-anchor="middle">Systole</tspan></text><text x="516.465" y="783.92" style="text-align:start" font-size="28" letter-spacing="0" word-spacing="0" font-family="Nimbus Sans L"><tspan x="516.465" y="783.92" style="text-align:center" font-size="20" text-anchor="middle">Diastole</tspan></text><text x="704.583" y="784.16" style="text-align:start" font-size="28" letter-spacing="0" word-spacing="0" font-family="Nimbus Sans L"><tspan x="704.583" y="784.16" style="text-align:center" font-size="20" text-anchor="middle">Systole</tspan></text><text x="285.152" y="695.12" font-size="20" font-family="Nimbus Sans L">1st</text><text x="416.715" y="695.12" font-size="20" font-family="Nimbus Sans L">2nd</text><text x="490.075" y="695.12" font-size="20" font-family="Nimbus Sans L">3rd</text><text x="537.972" y="615.093" font-size="20" font-family="Nimbus Sans L">P</text><text x="613.208" y="591.449" font-size="20" font-family="Nimbus Sans L">R</text><text x="735.575" y="641.163" font-size="20" font-family="Nimbus Sans L">T</text><text x="606.583" y="669.659" font-size="20" font-family="Nimbus Sans L">Q</text><text x="655.591" y="680.574" font-size="20" font-family="Nimbus Sans L">S</text><text x="592.435" y="398.243" font-size="20" font-family="Nimbus Sans L">a</text><text x="661.505" y="398.243" font-size="20" font-family="Nimbus Sans L">c</text><text x="752.448" y="398.243" font-size="20" font-family="Nimbus Sans L">v</text><text x="-326.943" y="47.612" transform="rotate(-90)" style="text-align:start" font-size="28" letter-spacing="0" word-spacing="0" font-family="Nimbus Sans L"><tspan x="-326.943" y="47.612" style="text-align:center" font-size="20" text-anchor="middle">Pressure (mmHg)</tspan></text><text x="104.924" y="232.986" style="text-align:end" font-size="20" text-anchor="end" font-family="Nimbus Sans L"><tspan style="text-align:end">120</tspan></text><text x="104.924" y="266.004" style="text-align:end" font-size="20" text-anchor="end" font-family="Nimbus Sans L"><tspan style="text-align:end">100</tspan></text><text x="104.924" y="299.023" style="text-align:end" font-size="20" text-anchor="end" font-family="Nimbus Sans L"><tspan style="text-align:end">80</tspan></text><text x="104.924" y="332.041" style="text-align:end" font-size="20" text-anchor="end" font-family="Nimbus Sans L"><tspan style="text-align:end">60</tspan></text><text x="104.924" y="365.06" style="text-align:end" font-size="20" text-anchor="end" font-family="Nimbus Sans L"><tspan style="text-align:end">40</tspan></text><text x="104.924" y="398.08" style="text-align:end" font-size="20" text-anchor="end" font-family="Nimbus Sans L"><tspan style="text-align:end">20</tspan></text><text x="104.924" y="431.099" style="text-align:end" font-size="20" text-anchor="end" font-family="Nimbus Sans L"><tspan style="text-align:end">0</tspan></text><text x="-545.111" y="47.732" transform="rotate(-90)" style="text-align:start" font-size="28" letter-spacing="0" word-spacing="0" font-family="Nimbus Sans L"><tspan x="-545.111" y="47.732" style="text-align:center" font-size="20" text-anchor="middle">Volume (mL)</tspan></text><text x="104.924" y="504.226" style="text-align:end" font-size="20" text-anchor="end" font-family="Nimbus Sans L"><tspan style="text-align:end">130</tspan></text><text x="104.924" y="554.085" style="text-align:end" font-size="20" text-anchor="end" font-family="Nimbus Sans L"><tspan style="text-align:end">90</tspan></text><text x="104.924" y="603.941" style="text-align:end" font-size="20" text-anchor="end" font-family="Nimbus Sans L"><tspan style="text-align:end">50</tspan></text><g stroke-miterlimit="10" fill="none" stroke="#000"><path d="M108.06 258.902h9.074M108.06 291.898h9.074M108.06 324.892h9.074M108.06 357.888h9.074M108.06 390.884h9.074"/><path stroke-width="1" d="M108.06 423.88h9.074V225.908h-9.074"/></g><g stroke-miterlimit="10" fill="none" stroke="#000"><path d="M108.06 546.68h9.074"/><path stroke-width="1" d="M108.06 596.588h9.074v-99.812h-9.074"/></g><text x="248.024" y="224.611" style="text-align:start" font-size="28" letter-spacing="0" word-spacing="0" font-family="Nimbus Sans L"><tspan x="248.024" y="224.611" style="text-align:end" font-size="16" text-anchor="end" fill="gray">Aortic valve</tspan><tspan x="248.024" y="244.611" style="text-align:end" font-size="16" text-anchor="end" fill="gray">opens</tspan></text><text x="430.007" y="292.932" style="text-align:start" font-size="28" letter-spacing="0" word-spacing="0" font-family="Nimbus Sans L"><tspan x="430.007" y="292.932" style="text-align:start" font-size="16" fill="gray">Aortic valve</tspan><tspan x="430.007" y="312.932" style="text-align:start" font-size="16" fill="gray">closes</tspan></text><text x="248.024" y="357.18" style="text-align:start" font-size="28" letter-spacing="0" word-spacing="0" font-family="Nimbus Sans L"><tspan x="248.024" y="357.18" style="text-align:end" font-size="16" text-anchor="end" fill="gray">Mitral valve</tspan><tspan x="248.024" y="377.18" style="text-align:end" font-size="16" text-anchor="end" fill="gray">closes</tspan></text><text x="430.007" y="353.954" style="text-align:start" font-size="28" letter-spacing="0" word-spacing="0" font-family="Nimbus Sans L"><tspan x="430.007" y="353.954" style="text-align:start" font-size="16" fill="gray">Mitral valve</tspan><tspan x="430.007" y="373.954" style="text-align:start" font-size="16" fill="gray">opens</tspan></text><path d="M240.933 251.398l34.855 39.006M391.898 257.095l61.852 21.386M240.72 380.11l15.565 43.062M454.97 379.353l-45.415 27.976" fill="none" stroke="#000" stroke-dasharray=".99999998,.99999998"/></svg>